<svg width="90" height="89" viewBox="0 0 90 89" fill="none" xmlns="http://www.w3.org/2000/svg">
<g id="669395be0581e8c6129db93e_Star%20Icon.svg" clip-path="url(#clip0_1_3104)">
<g id="Group" opacity="0.15">
<path id="Vector" d="M45.1798 5.79337C45.1798 4.23176 43.9138 2.96582 42.3522 2.96582C40.7906 2.96582 39.5246 4.23176 39.5246 5.79337C39.5246 6.90543 40.1666 7.86754 41.1002 8.32933L38.3779 18.7724C35.4874 29.8608 26.8326 38.5227 15.7466 41.4221L5.33128 44.1462C4.85543 43.255 3.91622 42.6485 2.83537 42.6485C1.27375 42.6485 0.0078125 43.9145 0.0078125 45.4761C0.0078125 47.0377 1.27375 48.3037 2.83537 48.3037C4.0978 48.3037 5.16699 47.4763 5.53034 46.3343L15.6669 48.9854C26.7953 51.896 35.4704 60.6118 38.3289 71.7538L41.1055 82.5769C40.1691 83.0376 39.5246 84.0012 39.5246 85.1155C39.5246 86.677 40.7906 87.943 42.3522 87.943C43.9138 87.943 45.1798 86.677 45.1798 85.1155C45.1798 83.8848 44.3936 82.8379 43.2963 82.4493L46.0496 71.717C48.9031 60.5946 57.5534 51.8882 68.6571 48.963L79.1356 46.2024C79.4562 47.4121 80.5585 48.3037 81.8691 48.3037C83.4306 48.3037 84.6966 47.0377 84.6966 45.4761C84.6966 43.9145 83.4306 42.6485 81.8691 42.6485C80.7381 42.6485 79.7622 43.3125 79.31 44.2719L68.5775 41.4445C57.5162 38.5304 48.8861 29.8779 46.0008 18.8091L43.3023 8.45736C44.3966 8.06706 45.1798 7.02168 45.1798 5.79337Z" fill="#339449"/>
<path id="Vector_2" d="M74.8301 2.27384L74.8881 2.05167L74.6823 1.94988C74.4616 1.8407 74.3108 1.6137 74.3108 1.352C74.3108 0.98393 74.6091 0.685547 74.9772 0.685547C75.3452 0.685547 75.6437 0.983929 75.6437 1.352C75.6437 1.64107 75.4595 1.88785 75.2012 1.97998L74.9578 2.06677L75.023 2.31679L75.9282 5.78929C76.9218 9.60091 79.8937 12.5805 83.7026 13.584L87.3029 14.5324L87.4674 14.5758L87.2444 14.6346L83.7293 15.5606C79.9057 16.5679 76.9269 19.566 75.9443 23.3961L75.0207 26.9963L74.9566 27.2461L75.1998 27.3323C75.4588 27.424 75.6437 27.6711 75.6437 27.9608C75.6437 28.3288 75.3452 28.6272 74.9772 28.6272C74.6091 28.6272 74.3108 28.3288 74.3108 27.9608C74.3108 27.6985 74.4621 27.4712 74.6835 27.3622L74.8892 27.2611L74.8322 27.0391L73.9008 23.4085C72.9165 19.5717 69.9291 16.5702 66.0969 15.568L62.6966 14.6787L62.4376 14.611L62.3564 14.866C62.2707 15.1355 62.0183 15.3301 61.7212 15.3301C61.3531 15.3301 61.0547 15.0317 61.0547 14.6637C61.0547 14.2956 61.3531 13.9972 61.7212 13.9972C61.9755 13.9972 62.1971 14.1397 62.3097 14.3504L62.4145 14.5467L62.6298 14.4904L66.1237 13.5766C69.9412 12.5781 72.9216 9.59535 73.9169 5.77699L74.8301 2.27384ZM87.5889 14.835L87.5241 14.5908L87.5298 14.5923L87.6298 14.38C87.7367 14.1532 87.9671 13.9972 88.2332 13.9972C88.6012 13.9972 88.8997 14.2956 88.8997 14.6637C88.8997 15.0317 88.6012 15.3301 88.2332 15.3301C87.9247 15.3301 87.6645 15.1202 87.5889 14.835Z" stroke="#339449" stroke-width="0.564105"/>
</g>
</g>
<defs>
<clipPath id="clip0_1_3104">
<rect width="89.9878" height="88.01" fill="white" transform="translate(0.0078125 0.0498047)"/>
</clipPath>
</defs>
</svg>
