<svg width="142" height="75" viewBox="0 0 142 75" fill="none" xmlns="http://www.w3.org/2000/svg">
<g id="669395bc083f1fe4f7c61c51_Loop%20Line.svg" clip-path="url(#clip0_1_3099)">
<g id="Group" opacity="0.4">
<path id="Vector" d="M10.5863 74.104C1.49885 62.2945 -8.16163 33.8204 21.1687 9.9817C24.6586 7.14518 28.5922 4.83918 32.873 3.46063C45.3842 -0.568383 65.3863 -2.29755 80.6114 11.2441C83.823 14.1007 86.8508 17.218 89.426 20.6593C95.2472 28.4381 100.763 41.8992 93.9118 57.0596C89.2522 66.7899 73.9634 82.2236 50.0851 66.1159C42.1217 59.5916 30.2917 41.1422 46.6787 19.5397C53.8663 10.1789 75.5129 -3.86166 104.598 14.8626C113.643 21.0297 133.697 37.4854 141.549 53.972" stroke="#544FCC"/>
</g>
</g>
<defs>
<clipPath id="clip0_1_3099">
<rect width="142" height="75" fill="white"/>
</clipPath>
</defs>
</svg>
