<svg xmlns="http://www.w3.org/2000/svg" viewBox="0 0 207.94 130.78"><defs><style>.cls-1{fill:#151d31;}</style></defs><g id="Layer_2" data-name="Layer 2"><g id="Layer_1-2" data-name="Layer 1"><path class="cls-1" d="M1.51,121.22c-.21-2.65-.54-5-.54-7.31a3.63,3.63,0,0,1,1.71-3,7.29,7.29,0,0,0,1.86-1.39,2.83,2.83,0,0,0-.88-4A3.05,3.05,0,0,1,2,102.22c.09-.8-.14-1.64-.1-2.46.11-2.26.48-4.4,2.91-5.43a5.4,5.4,0,0,0,.8-.58A8.81,8.81,0,0,0,4.31,92a3.78,3.78,0,0,1-1.38-3c-.06-1.17-.13-2.35-.17-3.53a1.38,1.38,0,0,1,.13-.79,32.79,32.79,0,0,1,2.52-3.31A4.37,4.37,0,0,0,6.62,77.8a5.62,5.62,0,0,1,0-2.09A3.72,3.72,0,0,0,5.94,72c-.52-.68-.56-1.08.21-1.61A1.72,1.72,0,0,0,6.69,69,5.7,5.7,0,0,1,8,64.61a2.5,2.5,0,0,1,1.13-.76c1.43-.43,1.93-1.06,1.77-2.56a3.3,3.3,0,0,1,.81-2.72h.47a17.79,17.79,0,0,1,.17,3.08,1.72,1.72,0,0,0,.74,2c1.5,1.06,1.63,2.9,2.09,4.48.39,1.35.38,2.82,2.1,3.31.14,0,.28.75.14.92a6,6,0,0,1-1.54,1.43,2,2,0,0,0-1,1.93c0,2.83.07,5.6,1.47,8.18.34.63.76,1.17,1.41.83.37-.19.47-.93.64-1.45.06-.15-.09-.37-.12-.56-.11-.61-.17-1.35.61-1.35.33,0,.87.76.95,1.24.15,1,0,2,.1,2.91a6.37,6.37,0,0,0,.64,1.6l.39-.06,1.29-3.15a2.76,2.76,0,0,1,1.08,3,13.52,13.52,0,0,0,.09,3.42c0,.26.53.52.87.65.13.06.44-.2.59-.37a10.56,10.56,0,0,0,.69-1c.35.39.71.76,1,1.17a2,2,0,0,0,.54.68c.16-.55.32-1.1.49-1.7.18.11.33.16.35.23.49,1.86,1,3.71,1.39,5.58.08.39-.25,1.19-.51,1.25-.77.17-.91-.36-.84-1.1a9,9,0,0,0-.12-2.37,1.45,1.45,0,0,0-.63-.86,9.41,9.41,0,0,0-1.45-.63c.13,1-.55,2,0,3.13.18.36-.52,1.18-.73,1.6l.49,1.73H23.91l-.13.17,1.27.76c-.72.49-1.45.93-2.11,1.47-.14.11,0,.54,0,.65l4.57-.66.07.21a2.66,2.66,0,0,0-.95.48c-.13.15.05.56.1,1a14,14,0,0,0,1.36-1,1.57,1.57,0,0,1,1.68-.31,16.53,16.53,0,0,0,3.45.31c.13,0,.41-.44.39-.66a7,7,0,0,0-.49-1.42c1.9,0,3.72-.09,5.51.07.43,0,1,.85,1.13,1.4.44,1.47-.23,2.52-1.66,3.23-.41.2-.62.81-.92,1.24-.09-.46-.19-.93-.28-1.4l-.34-.07L36,105.41c-.43-.3-.84-.82-1.27-.83-1.47,0-3-.12-4.48,1,.13,0,0,0-.15,0-2.12-1.29-2.41-1.19-3.44.93-.2.4-.72.65-1.2,1.07a1.39,1.39,0,0,0,.23.47,1.82,1.82,0,0,1,.14,2.31c-.33.68.08,1.72.16,2.6l.34.08-1.19.82,1.17.9,0,.35-2.67.55c.48.43.94.84,1.38,1.26a.89.89,0,0,1,.21.35c.26.75-.31,1.83.9,2.19-.14.34-.18.83-.43,1-1.44.86-1.54,1.35-.4,2.58.78.84.54,1.57-.9,2.67l1.69,3c-1.19.62-1.5.5-1.66-.5L21,128.7c.07-.8.13-1.59.19-2.45l-1.53.1-.15-.31a7.7,7.7,0,0,1,1.15-.65c.68-.25.83-.51.23-1-.89-.78-.67-1,0-1.91.5-.7.42-1.81.57-2.74,0-.07-.25-.27-.33-.24s-.44.2-.5.37c-.2.55-.32,1.11-.41,1.44-1,.12-1.94.19-2.83.31-1.49.21-2.39-.7-2.13-2.42l2.15,1.38.95-1.64.53,1.06c.09,0,.18,0,.23,0,.81-.48.79-1.7,1.9-2,.2-.06.06-1.48,0-2.26s-.41-1.37-.44-2.06a2.32,2.32,0,0,0-2.28-1.84v-1.44c-1.27,1.3-2.39,2.42-3.48,3.57a2.85,2.85,0,0,0-.36,3.19,2.35,2.35,0,0,1,.17,1.33c-.18,1.21-.29,2.44-.36,3.67,0,.26.27.54.41.81,1.07-.61,1.3-.5,1.36.62.12,2.14.19,4.27-2,5.88l2.16.51.05.24a4.55,4.55,0,0,1-1.11.29c-2.43,0-4.86.05-7.29,0-1,0-1.75-.58-1.68-1.58.11-1.4-.62-2.06-2-2.67l-.42,1-.51-.28.29-1.41a13,13,0,0,1-1-.92.77.77,0,0,1-.07-.62c0-.09.34-.19.48-.15.65.24,1.29.53,1.93.81.22.09.41.23.63.31.46.19,1.19.24,1.35.56A6.56,6.56,0,0,1,7.37,128c.08,1.55.38,2.12,2,2,1.34-.12,3,.43,4-1.13l-.31-.14c.15-.45.16-1.06.47-1.33a3.29,3.29,0,0,0,1.14-3,2.18,2.18,0,0,0-2.69-1.9,33.19,33.19,0,0,1-1.71-2.86,2,2,0,0,1,0-1.4,7.5,7.5,0,0,1,.79-1.36l-.28-.21a10.24,10.24,0,0,0-1,1.13,1.36,1.36,0,0,1-1.61.6A3.07,3.07,0,0,0,5,120.23a2.28,2.28,0,0,1-.8.94c-.09.07-.49-.3-.88-.56a4.35,4.35,0,0,0,1-.65,1.05,1.05,0,0,0,.07-.77c0-.1-.3-.18-.48-.22-.43-.09-.87-.13-1.29-.26,0,0,0-.67.09-.7a10.12,10.12,0,0,1,1.74-.35c.12,0,.26.12.51.25A4.72,4.72,0,0,1,5,117c.26-.61.61-1,1.35-.49a9.22,9.22,0,0,0,1.57.65c.16-.86.26-1.44.36-2a1.52,1.52,0,0,1,.31-.05c1.15,1,2.09,1,3.13-.3a10.74,10.74,0,0,1,2.3-1.5,2.86,2.86,0,0,0,.8-1c.09-.16-.1-.47-.17-.72a3.14,3.14,0,0,0-.61.21c-.37.21-.72.46-1.07.69l-.22-.36A6.79,6.79,0,0,0,15,110.9a7.85,7.85,0,0,0,1.09-2.75,6.09,6.09,0,0,0,0-1.61c-1.12-.53-1.53.95-2.63,1.14,0-.69.07-1.34.11-2.08l2.4.49.18-.34-2.38-1.87a.91.91,0,0,1-.14.31c-.26.31-.68.88-.79.83-.52-.25-1.41-.08-1.4-1.12,0-.25-.58-.64-1-.74a3.61,3.61,0,0,0-1.26.16l.7,2.31-.29.08-1-2.07a9.9,9.9,0,0,1-2.13,1.11A1.12,1.12,0,0,1,5,103.49c-.35.38-.38.4.39,1.74A16.54,16.54,0,0,0,6.69,107c.26-.64.5-1.32.83-2,.13-.24.48-.53.69-.5s.51.41.53.65a16.35,16.35,0,0,1-.07,2.8c0,.27-.54.47-.83.7l-.28-.17v1.91c-.76.08-1.78.19-2.79.27a3.75,3.75,0,0,0-2.89,3.55c.12,1.94.28,3.89.48,5.82a7.59,7.59,0,0,0,.51,1.55H2.32l.7,1.76-2.38-.35c.06-.14.16-.38.27-.62M18.2,89.53c1.2,1.21,2.31.53,3.56,0s.34-1.18.47-1.76a1.46,1.46,0,0,0,.06-.58c-.08-.31-.22-.61-.33-.92a2.54,2.54,0,0,0-.53.86c-.28,1.5-.59,1.78-2.15,1.68-.58,0-1.14-.08-1.05.77L16.65,89s0-.21,0-.4,0-.4-.11-1l-1.66,2.24c1.23.11,2.15.21,3.07.25C18,90.1,18.11,89.73,18.2,89.53ZM3.56,103.78a24.77,24.77,0,0,1,1.71-2,6.63,6.63,0,0,1,1.36-.76c.21.44.43.88.63,1.32a5.56,5.56,0,0,1,.19.7A1.9,1.9,0,0,0,8.13,102a3.94,3.94,0,0,1,2.39-2.11,18,18,0,0,0,2.29-1c.91-.38,1.33-1.74,2.67-1.32.13,0,.51-.39.6-.66a7.33,7.33,0,0,0,.16-1.35L15,96.18l-.31-1.46H13.5c.52-1.16,2.26.29,2.42-1.5l-2.53-.3a6.44,6.44,0,0,0-.59-1.83c-1.18-1.62-3.36-2.31-4.11-4.36,0-.14-.25-.21-.38-.32l-.25.15a5.75,5.75,0,0,1,.49,1.19,1.42,1.42,0,0,1-.17,1.1A23.42,23.42,0,0,1,6.2,90.53L4.42,89.21c-.29,1.21-.21,1.52.5,2.13,1.48,1.27,1.28,3.18-.52,3.92A2.1,2.1,0,0,0,3,97.56c.37-.44.58-1,1-1.4a4.18,4.18,0,0,1,1.14-.66A11.91,11.91,0,0,0,4,97.32c-.17.4-.35,1.16-.43,1.26-1.16,1.39-.67,3.09-1,4.61a1.33,1.33,0,0,0,1.08,1.56l.28-.24ZM13.71,91.86l.38.06A2.9,2.9,0,0,0,14.3,91a3.29,3.29,0,0,1,1.35-3.41,1.61,1.61,0,0,0,.58-2.1,21.51,21.51,0,0,0-2-3.45c-.77-.88-2-2.09-3.64-1.72a5.4,5.4,0,0,1-1.26,0A24.16,24.16,0,0,0,9.3,77c-.12-.76-.69-1-1.38,0l-.37-1.76-.29,0v5.15l.91-.35.38.52c-2.47.31-3.05,2.6-4.83,3.65l1,.83-1.37.19.25,1.67.9-.73c0,1-1.67,1.47-.88,2.46a17.24,17.24,0,0,0,2.6-1.43A5.64,5.64,0,0,1,9.4,85.89c.66,0,1.4.17,1.72-.72,0-.09.42-.08.64-.09a11.39,11.39,0,0,1,1.65,0c.68.09,1.35.29,2,.43a17.81,17.81,0,0,1-.88,1.61c-.2.29-.79.47-.81.73C13.67,89.16,13.71,90.51,13.71,91.86Zm8.91.33c-1.86-1.47-3.92-.86-5.83-1a6.77,6.77,0,0,0-.23,1.57A4.3,4.3,0,0,0,17,94.18a5.58,5.58,0,0,1-.68,5.24,10.91,10.91,0,0,0-.92,1.55l.23.09,4-2-.57-1.72a24.69,24.69,0,0,0,3.09-.2c.47-.09,1.15-.56,1.21-.94a22,22,0,0,0,.06-3.4l-1.28,1.1ZM12.94,65.73a2.7,2.7,0,0,0,.08-.46c0-.27.08-.68-.06-.79-1.15-.9-3.86-.28-4.68,1-.46.69-.3,1.55-.6,2.14-.55,1.12-.64,1.8.45,2.15L6.25,71.05l.13.23,3.79-.7.19-.69,3.6-.2c-.19-.39-.32-1-.54-1.09-1.14-.16-2.31-.17-3.47-.22-.31,0-.61,0-.91,0,.9-.64,2.18-.22,2.68-1.55C11.86,66.44,12.39,66.2,12.94,65.73Zm4.17,35.52-2,3.17c3.1.64,1.68,3.2,2.38,5,1.06-.61,2-1.16,3-1.75.13-.08.22-.51.13-.6-.9-1-.17-1.89.22-2.91l-1.51-.74.11-.77ZM9.68,74.38l.36,0a3.36,3.36,0,0,1,.26.91c0,1.19,0,2.38,0,3.58a1,1,0,0,0,.33.68c.1.08.46,0,.62-.18A5.49,5.49,0,0,0,11.67,76l1.54-1.41.36.17v5.12H14c0-2.08,0-4.16,0-6.24a.81.81,0,0,0-.44-.63c-1.4-.28-2.79-.74-4.2.07a6.66,6.66,0,0,1-1.77.45c.46,2.1.66,2.35,1.9,2.3C9.51,75.34,9.59,74.86,9.68,74.38Zm7.15,13.34,2.56-1.5-2.25-1Zm4.28,24.46v-3.91C20.29,108.51,20.2,110.76,21.11,112.18ZM24,92.87c.07-.73.27-1.46.12-1.54A5,5,0,0,0,22.49,91l-.13.38Zm-11.2,24.36-.61-.31-1.36,2.5.44.25Zm.24,2.14c1-1.44,0-2.92.31-4.38H13Zm18.65-14.78,1.9-.71-.13-.35C32.7,103.32,32,103.12,31.64,104.59Zm-6.79-11-.68,0,.18,1.77.5,0Zm-13.59-6.4.63.16A10.29,10.29,0,0,0,12.17,86c0-.06-.36-.16-.55-.24Z"/><path class="cls-1" d="M0,128.47c.13.05.1.4.24.51.37.32.78.76,1.21.81.25,0,.58-.58.91-.94l3.18.68,0,.39a12,12,0,0,1-1.58.34"/><path class="cls-1" d="M86.08,66.93,89,61.05c-1.42-.26-1.46-1.26-1.47-2.38,0-2.07-.18-4.14-.21-6.21a1.7,1.7,0,0,1,.5-1.11,2.73,2.73,0,0,0,.92-2.73c-.2-.92.31-1.12,1.13-1.45A16.9,16.9,0,0,0,93.37,45c.1-.07-.23-.74-.41-1.28l.57-.39a2.84,2.84,0,0,0,4.12,2.08l1.06.51-.1-1.4c.51.26,1.26,1.46,1.55-.21a9.91,9.91,0,0,0,5.37.55c.1,0,.22.11.33.14.62.15,1.25.28,1.88.42A10.67,10.67,0,0,0,107.6,43c-.07-.27-.87-.43-1.35-.48a20.34,20.34,0,0,0-2.21,0v-.34a28.35,28.35,0,0,0,2.91-.27,1.84,1.84,0,0,0,1.61-1.95c-.66-.47-1.23,1.16-1.82-.16l2.79-1-.8-1,1.22-1L109.28,38l.94.1-.86,1.28c1.17-.27,1.56-2,3.08-.79-.85-1.62-.85-1.62-2-.68l-.27.22.79-1.36-1.16-1.24-1.88,1.73-.3-.27c0-1.06,1.33-1.16,1.72-1.95s.84-1.57,1.38-2.58l.65,1.26.19-1.35-1.45-.09.19.31a33.17,33.17,0,0,1-2.48,2.27,2.55,2.55,0,0,0-1.24,2.45c-.08-.76-.48-1.51.36-2.18.44-.35,1.11-.68.6-1.46.3-.15.63-.48.88-.42.82.19,1.07-.1,1.25-.88.12-.52.64-.94,1-1.43l.64.48c.41-.57-.75-3-1.61-3.06.23-.63.43-1.21.76-2.12-.42.31-.76.42-.86.65a3,3,0,0,0-.17,1.15,3.49,3.49,0,0,1-2.5,3.48l-.69-1c-1.28.92-.66,2.57-1.62,3.63.76-1.35-.5-2.08-.84-2.88l1.67-.9c.27-.07.66-.05.81-.23.4-.49,0-2.78-.78-3.51v3.77a11.48,11.48,0,0,1-1-1.29,11.5,11.5,0,0,1-.62-1.4l.68-.58-1.11-1-.35.16c.15,1.09.3,2.18.46,3.27l-.18,0-.65-1.74-.31,0-.3,2.57h-.25a7.66,7.66,0,0,0,0-1.66c-.13-.6-.49-1.15-.65-1.75a6.28,6.28,0,0,1-.14-1.44c0-.37.06-.74,0-1.1a1.23,1.23,0,0,0-.5-.09c-.14.37-.23.76-.34,1.14a2.49,2.49,0,0,1-.22.31c-.15-.58-.26-1.05-.41-1.63a1.61,1.61,0,0,0,.65,2.46l-1,1.29c-.08-1.94-1.69-.13-2.37-1.06-.47,1.14-1.13,1.29-2.16.21a9,9,0,0,1-.86,1.2c-.36.35-.85.56-1.22.91s-.86.77-.94,1.22a25.85,25.85,0,0,0-.19,3.23l3.07-4,.49.26a4.06,4.06,0,0,1-.42,1.12c-.46.63-1.06,1.16-1.5,1.8A3.12,3.12,0,0,0,93,34l.31.14-1.37,1.1c-.21-.17-.41-.29-.57-.45-.67-.7-1.07-.37-1.17.38-.22,1.55-.41,3.1-.49,4.66a25.9,25.9,0,0,0,.22,2.9c0,.6-.11,1.37,1,1.07l-2.62,1.93-.22,0c.15-.37.32-.73.44-1.11A8.32,8.32,0,0,0,89,42.68c.13-1.67.12-3.36.23-5,0-.63.12-1.18-.63-1.44a.7.7,0,0,1-.34-.3,4.8,4.8,0,0,1,.65-4.23l-.91.24a14.21,14.21,0,0,1-1.47-2.16c-.14-.28.2-.86.44-1.23.42-.66.82-1.09.21-2a1.56,1.56,0,0,1,1-2.19c-.94-1.57-1.82-3.06-2.73-4.54-.33-.54-.39-.91.21-1.37,1.4-1,1.41-1.15.3-2.45A1.23,1.23,0,0,1,86,14.09c.33-.38.63-.79.9-1.15,0-.16,0-.25-.06-.3-2.49-3.13-2.11-2.25.6-4.94s5.9-4.91,8.86-7.36c.53-.44,1-.47,1.42,0s1.18,1.25,1.81,1.9a19.82,19.82,0,0,1,2.3-1.44,1.43,1.43,0,0,1,1.28.2,28.09,28.09,0,0,1,2.13,2.36c.53-.49,1.06-.9,1.5-1.38a1.07,1.07,0,0,1,1.8,0c2,2.26,4.07,4.55,6.11,6.82.81.9,1.66,1.78,2.43,2.71a5.11,5.11,0,0,1,.52,1.19l-.27.16-1.75-2.2c-1.36,1.25-2.43,2.51-1.85,4.32l-1.62.28.33-.84-.25-.2-1.34.88.86-1.11-.27-.24-2.16,1.9.2.31,1.24-.66-.6.79.19.23,1-.4-.74.92.26.29,1.55-1.06.14.22-2.87,1.92.07.15,1-.15-1.1,1.36.23.21c.54-.58,1-1.2,1.62-1.74a12.73,12.73,0,0,1,1.38-1l-1.11,1.14c1.34-.15,3-1.64,3-2.55l-1.89,1.45a6.8,6.8,0,0,1,1.06-1.2c.84-.63,1.73-1.18,1.15-2.35l1.93-.4a7.72,7.72,0,0,1-.74,1.35.9.9,0,0,0,0,1.42,1.22,1.22,0,0,1,0,1.78,3.06,3.06,0,0,0-.24,3.21,2.49,2.49,0,0,1,0,1.57c-.37,1.13-.88,2.23-1.32,3.34a.62.62,0,0,0,0,.46c.76,1.46.06,2.8-.24,4.21s-.34,2.7-.55,4c-.11.73-.37,1.43-.49,2.16a7,7,0,0,0,0,1.41c-.1.39-.28,1-.39,1.54a6.4,6.4,0,0,0-.22,1.93,9.42,9.42,0,0,0,.71,2.77c.39.84,1,1.57.49,2.56a10.54,10.54,0,0,0-1-1.71c-.12-.14-.85,0-1,.18-.63.82-1.15,1.73-1.72,2.6l.19.22a6.7,6.7,0,0,0,1.27-1.08c.73-1.07,1.49-.92,2.35-.24a2.72,2.72,0,0,1,.81,3.18,1.91,1.91,0,0,0-.07.92c.17,1.46.41,2.92.54,4.38,0,.36-.48.95-.35,1.08,1.52,1.67.66,3.7.91,5.54a29.84,29.84,0,0,0,.41,3.8,26.63,26.63,0,0,0,1.51,3.44,6.93,6.93,0,0,1,.29,1.31l-.39.12-.55-.74-.34.17c.83,1.68,1.66,3.37,2.65,5.4.84-1.11,1.57-2,2.2-2.95.11-.17-.21-.62-.23-.69,1.28-2.42,2.65-4.7,3.73-7.11s2.89-3.27,5.21-3.78a2.73,2.73,0,0,0,1.52-1.27c.94-1.7,1.73-3.48,2.65-5.21,0,2.19-2,3.68-2.3,5.8l.33.16c.51-.94,1.06-1.86,1.51-2.83.57-1.24,1-2.54,1.62-3.77a2,2,0,0,1,.87-.85,6,6,0,0,1,1.44-.5,1.66,1.66,0,0,0,1.52-1.65c0-1,.21-1.9-1-2.69-3.13-2.08-6.12-4.39-9.12-6.65a2.88,2.88,0,0,1-1.11-3c.18-1.15.06-2.34.18-3.5s.38-2.55.56-3.83c.15-1,.27-2,.43-3a1.28,1.28,0,0,1,.34-.73c2.66-2.08,5.45-4,8.83-4.66a1.38,1.38,0,0,0,1.28-1.39c.13-1.4.25-2.8.27-4.21s.71-2.23,2.35-2.14c0,.07,0,.19,0,.2A1.6,1.6,0,0,0,141,17.45c.09.39-.25.86-.31,1.31a16,16,0,0,0-.25,3.23c0,.31.95.55,1.63.91a5.82,5.82,0,0,1-1.67.32c-2.61-.29-4.71,1-6.76,2.26a25.73,25.73,0,0,0-3.46,2.7c-.39.34-.49,1-.81,1.73l2.22-.95c.12-.43,0-1.38,1.23-1.07.14,0,.42-.46.65-.73a2.74,2.74,0,0,1-1,3.9,30,30,0,0,0-3.41,3c-.19.18-.23.52-.46,1.06l2.13-1.05a34.36,34.36,0,0,0-2.21,2.8c-.14.21.27.85.54,1.21a1.58,1.58,0,0,0,.93-.39A17.53,17.53,0,0,0,131.38,36c.05-.07,0-.2.06-.37l-.88-.12-.45-.52c.37-.14.85-.19,1.09-.45.4-.43.22-.69-.38-.53a3.25,3.25,0,0,1,2.79-1.71c-1,.66-2.51,1.05-1.44,2.8a5.61,5.61,0,0,0,2.69-2.56,2,2,0,0,1,1-1.05,37,37,0,0,1,5.44-1.24c-2.2,1-5,.62-6.55,2.93l.14.31,2-.59.11.25L135.28,35c0-.34.05-.68.07-1a6.76,6.76,0,0,0-.78.33c-1.92,1.11-2.89,3.35-5,4.26a1.17,1.17,0,0,0-.48,1,1.57,1.57,0,0,0,1,.88c.24,0,.67-.4.93-.69,1.29-1.51,2.56-3,3.84-4.55-1,1.32-2.08,2.63-3.11,4a1.57,1.57,0,0,0-.39,1.86l5.81-5.67.22.24L131.5,42c.5.51.89,1,1.34,1.35.88.73,1.77,1.44,2.69,2.09.26.18.69.13,1,.19l0,0,3.18,2.88c.26-.2.38-.25.38-.29-.42-2.31,1.51-3.33,2.62-4.81.63-.85,1.29-1.68,1.94-2.52l.38.29c-.77.93-1.55,1.85-2.3,2.79s-1.88,1.57-1.95,2.91l.29.25q3.3-3.76,6.61-7.54l.28.24-5,5.88c-.38.44-.81.85-1.15,1.33-.62.9-.41,1.31.44,1.48l2.15-3.29.32.19c0,.72-.07,1.44-.12,2.38,1.91-1.66,4.42-2.38,5.17-5a.93.93,0,0,1,.36-.43c1-.65,2-1.28,2.88-1.86l-6.17,6.9a9.61,9.61,0,0,0,4.4-3.23c-.82,1-1.64,2-2.48,3a15.75,15.75,0,0,1-1.12,1.19,6.31,6.31,0,0,1-1,.84c-.51.32-1.23.44-1,1.29l1.69-.37,0,.26-1.72.93a2.29,2.29,0,0,1,.14,3.57l1.27-.23.07.29-1.42.53c.11,1.18,0,2.35-1.43,2.84-.64-1.4-.4-3.91.3-4.49l1.23.81c-.62-1.94-1.58-2.14-3.07-.91-1.46-1.41-.47-3.08-.43-4.63-2.14.35-2.19.35-2.25,2.5q-.21,7.17-.32,14.35c0,2.24,0,4.47,0,6.7,0,2.08,0,4.16,0,6.23,0,2.78,0,5.57.05,8.35,0,1.68.1,3.35.12,5,0,1,.5,1.13,1.3.8.32-.14.65-.27,1-.44A25.21,25.21,0,0,0,146.59,89c2.53-2.26,2.58-4.71,2-7.72l-3,2.76,0,0c-1.4.34-1.44-1-2.28-1.77l5.08-5.61-.24-.24-1.39.67-.1-.17L148,75.37l-.31-.29-3.9,3.58c0-.72-.07-1.31-.11-2.11A15.51,15.51,0,0,1,148,72.66l-3.2,3.54.34.31,3.56-3.09a22.12,22.12,0,0,1,.21,2.53c0,.86,0,1.73-1.12,2.18a3.13,3.13,0,0,0-1.25,1.48c-.26.52-.06,1,.7,1l0,0L146,82.33l.3.26L149,80.21c.17,2.08.3,3.86.44,5.64l.48.09a4.71,4.71,0,0,0,.53-1.6c-.1-1.6-.35-3.19-.54-4.78-.29-2.47.15-3.49,1.76-4.29-.27.44-.85,1-.81,1.42a10.25,10.25,0,0,0,.78,2.45l1.37-.5a16.46,16.46,0,0,0,2.05,1.17c.68.26,1.4,1.42,2.18.09l-.37.86c.25.09.45.24.6.2a1.1,1.1,0,0,1,1.46.85c.21.79-.38,1-1,1.08a.67.67,0,0,0-.42.2c-1,1.3-1.91,2.62-2.87,3.93,1.22,1,1.44-.11,1.89-.57s.92-1.08,1.38-1.61l1.35-1.54a14.55,14.55,0,0,1-1.61,2.49c-.55.75-1,1.56-1.69,2.58.57-.05.84,0,.92-.09,1.16-1.42,2.31-2.85,3.41-4.32.17-.23.09-.68.06-1-.15-1.77-.22-3.56-.49-5.32-.22-1.39-.67-2.73-1-4.1l-.44,0-1,1.44c1.53,1.42,2.07,2.82,1.45,3.59-.43-.27-.85-.56-1.29-.81a41.09,41.09,0,0,1-6-3.7c-1.12-.92-1.22-1.51-.42-2.64a6,6,0,0,0,.3-.59l-2.3.81-.29-.46c1-.89,1.91-1.75,2.82-2.67.21-.22.43-.78.32-.93-.52-.68-3.07-.53-3.72.06a7.32,7.32,0,0,1-1.49.8l-.16-.3c1.62-1.42,1.62-1.42,1.12-1.89l-4.82,4.22-.35-.21c1.77-1.24.8-3.1,1.29-4.67l-.58.13,0,0c1-1.51,1.26-1.56,2.55-.48a10.34,10.34,0,0,0,.84.64c.07,0,.19,0,.31,0l-.39-.7c.49,0,1.21,0,1.26-.16a9.35,9.35,0,0,0,.25-1.93l-.32-.09c-.37.28-.74.56-1.12.83l-.38-.16c2.54-1.32,1.87-3.38,1.71-5.52l-1.28,1-.19-.22,1.44-1.67-2-.72.13-.42,2.34.35c-.48-.86.58-1.88-.36-2.33,0-1.45.07-2.79.14-4.13a1.81,1.81,0,0,1,.29-1c1-1.24,2.09-2.42,3.12-3.65.44-.53.81-1.12-.37-1.18l2.8-2.85.13.09-4.29,7.46.14.21a3.19,3.19,0,0,1,.48-.87,17,17,0,0,1,4.9-3.77,11.35,11.35,0,0,0,4.86-4.32c.82-1.3,1.71-2.61.54-4.19a1.36,1.36,0,0,1-.15-.68c-.17-1.34-.17-1.34-1.42-1.56-.26-1-.51-2-.79-3a1.6,1.6,0,0,0,.57-.17c.41-.33,1.15-.75,1.11-1a2.13,2.13,0,0,0-1-1.44c-.28-.13-.94.48-1.38.81a2.83,2.83,0,0,0-.46.7c0,.79.08,1.68.13,2.64-2-.95-3.86-1.85-5.73-2.7-.27-.12-.65,0-1,0-.84,0-1.68,0-2.52,0-.17,0-.46-.3-.45-.44a30.85,30.85,0,0,1,.37-3.48c.06-.34.49-.64.8-.91s.89-.68,1.34-1l-.25-.39-2.37,1.35-.8-1.41,1.08-.2-.32,1.36L149.64,23,148.28,22l.15-.91-.32-.06c.63-.84.63-.84.11-1.07a2,2,0,0,0,.48-2.3l-1.25.49,1.39-1.37-.29-.3L147,17.6l1.56-1.91-1.25.54c0-1.05-1.28-1.7-3.11-1.5,1.11-1.07,1-.81,2.61-.41,2.4.61,3.36,1.88,2.91,4.28a4.53,4.53,0,0,0,0,.82c-.09,2.64,0,2.67,2.62,3.28a14.36,14.36,0,0,1,4.43,1.47,17.08,17.08,0,0,1,4,3.66c.46.55.24,1.68.28,2.55.07,1.56.1,3.11.17,4.66a3.42,3.42,0,0,0,.24,1.14c.95,2.3,0,4.17-1.6,5.59-2,1.75-4.27,3.19-6.41,4.78a29.82,29.82,0,0,0-3.07,2.37A10.3,10.3,0,0,0,149,51.13c2.55-1.51,5.42-1.38,8.11-2a1.65,1.65,0,0,1,.15.48c-.44,4.29.27,8.54.52,12.81a5.21,5.21,0,0,1-.59,3.48c-.51.78.23,1.69,1,2a7.06,7.06,0,0,0,3.45.74c1.55-.24,2.61.61,3.87,1,.15.05.26.21.4.24.8.15,2,.67,2.31.34a3,3,0,0,0,1-3.05c-.18-.6.21-1.36.37-2.15a5,5,0,0,1-1.42,6.34,20.17,20.17,0,0,0-2.41,2.79c1.92.73,1.57.77.17,2.16l.7.51c-.63.41-1.51.68-1.87,1.26a8.39,8.39,0,0,0-.9,2.9c0,.32.48.73.78,1.16l1-.67c.09.12.17.17.18.23l.06,1.53a11.81,11.81,0,0,0,1.34-.87c.69-.56,1.12-.58,3.1.12a8.54,8.54,0,0,0-.62-1.57c-1-1.54-.74-2.25,1-2.68l.84-.22c-.61,6.51,0,12.88.17,19.27-.23-1.72-.4-3.45-.69-5.15-.21-1.23-.6-2.43-.87-3.64-.15-.69-.19-1.39-.31-2.08s-.47-1.18-1.28-.65c-.22.14-.52.32-.73.27-1.25-.28-1.57.24-1.11,1.5l-.41.05L165,85.45c1-.49,1-1,.1-1.66a4.73,4.73,0,0,1-.87-1.28c-.12,0-.24.07-.24.11-.12.72,0,2-.35,2.07-1,.37-.92,1.13-1.18,2l1.76.41a.8.8,0,0,1,0,.2c-2.69.59-2,2.8-2.17,4.59-.05.61.45,1.45-.93,1.34l.06.38c.83.26,1.75.89,2.48.71,1.32-.31-.18-1.66.62-2.55l.35,1.3,3.2-1.64.32.32L167.5,95a22.63,22.63,0,0,0-2.2-.73c-.25-.06-.6.25-.9.39.18.28.29.7.54.82,2.43,1.18,3.37,3.33,3.82,5.82-.85.72-.85.72-.53,2.73l1.61-.36c-.17-1.22-.32-2.32-.48-3.48h1c0,.38-.11.76-.13,1.14-.1,1.95,0,2,1.83,2.37a5.59,5.59,0,0,1,1.7.69l-2.45.28c-.14,1.1-1.08.64-1.52.34-1.61-1.12-3.27-.3-4.9-.31h-5.36l1-1.65.25.1-.13,1.13,5.14-.47a1,1,0,0,1,.42.12c.81.31,1.19.11,1.08-.83s.18-1.75-.32-2.71a2,2,0,0,0-1.87-1.24q-9.39-.78-18.78-1.6c-.22,0-.44-.1-.73-.16.05-1,.8-.72,1.27-.68,3.29.29,6.58.58,9.86.94,1.3.14,2.58.51,3.88.68,1.66.21,3.33.31,5,.46l.28-.44A19.29,19.29,0,0,0,163.68,96,21.7,21.7,0,0,0,158,92.51c-1.62-.59-3.33-1.42-3.85-3.46-.11-.42-.64-.74-1-1.06-.78.67-1.49,1.27-2.46,2.08l2.32.21v.13l-3.47.18c1.1-1.12,2.11-2.12,3.11-3.13l-.28-.35-3,1.85-.16-.13,2.1-2.75-.32-.36c-.4.3-1.18.68-1.13.9.15.87-.61.82-.93,1.18A6.65,6.65,0,0,0,148,89a8.16,8.16,0,0,1-3.49,3.37c-1.23.67-2.47,1.34-3.65,2.1-.24.16-.32.72-.29,1.07.11,1.1.31,2.19.48,3.29l-.43.12a5.74,5.74,0,0,1-.39-.93,4.32,4.32,0,0,0-4-2.86,4.66,4.66,0,0,1-1.36-.2c0-.54.11-1,0-1.1a2.29,2.29,0,0,0-1-.17l0-.4h1.5c.46,1.69,2.05,1.35,3.22,1.8a1.49,1.49,0,0,0-.7-1c-.82-.34-1.7-.55-2.55-.82l1.42-.26c-1.22-.53-2.43-1.11-3.69-1.54-.34-.12-.88.17-1.26.39a3.43,3.43,0,0,1-1.13.65l.86-1.58a1.52,1.52,0,0,0-.22-.19c-.89-.5-1.79-1.13-2.73-.07-.66.74-1.31,1.49-2,2.2a4.82,4.82,0,0,1-1.19,1c-1,.5-2,.9-3.07,1.33s-.57.94-.48,1.46c-.09.58-.46,1.42-.21,1.69,1,1,1.59,0,2.4-.6v3l-1.69-.27c0,1,.41,1.37,1.61,1.13,1.84-.36,3.74-.42,5.62-.61.52,0,1.05-.14,1.57-.2-.12-1-.23-1.91-.34-2.83.86-.28,1.16.15,1.12.77-.09,1.54.65,2,2.1,2.24a46.75,46.75,0,0,1,6.23,1.72,6.68,6.68,0,0,1,1.63,1.18l-.12.26c-.4-.1-.79-.18-1.18-.31l-4.41-1.54a1.5,1.5,0,0,0-.47-.08c-3.43,0-6.86-.14-10.28,0-.53,0-1,1-1.54,1.53.27.25.33.34.38.34,2.51,0,5,0,7.54-.13s5-.1,7.39,1a2.6,2.6,0,0,0,.9.27c2.06.16,3.23,1.89,5.17,2.71l1.11-.84-1.59-1.3c1.49-1.56,2.6-1.78,4.83-.79a10.58,10.58,0,0,1-2.07,0c-.86-.19-1.29.42-1.1.9.56,1.39-.43,1.9-1.17,2.6a.68.68,0,0,0-.19.64l1.33-.93.25.24-1.78,1.1.58.56c.71-.76,1.4-1.54,2.14-2.27.28-.28.65-.64,1-.65,2-.06,4.06,0,6,0-.19,2.63,1.49,5,.19,7.48a6.9,6.9,0,0,1-.14-1.19c.07-1.12-.65-1.43-1.53-1.69-.3-.1-.8-.51-.76-.63.41-1.37-.55-1.69-1.47-1.91a8,8,0,0,0-1.9,0l.27,2.27c.08.65,0,1.12-.83,1.28-.26,0-.53.5-.65.82a16.49,16.49,0,0,0-.47,1.76c-2.14-.71-.69-2.49-1.53-3.77a11.57,11.57,0,0,0-.89,1.56c-.18.44-.18.77-.87.83s-1.36.66-1,1.93l2-1.9.2.15a9.85,9.85,0,0,1-.92,1,3.89,3.89,0,0,0-1.4,2.74,3.1,3.1,0,0,0,.19,1,15.84,15.84,0,0,1,.61,2.65c.09,1.72,0,3.44,0,5.16,0,.65,0,1.06-.83,1-1.72,0-3.44,0-5.26,0l-.73,1a33.21,33.21,0,0,1-1-4.87c-.13-3.21,0-6.44,0-9.66a2.5,2.5,0,0,1,1.18-2.16c.47-.34.7-1,1.12-1.45a5.15,5.15,0,0,1,1.35-1.06c.17-.08.57.28.86.43l-.27.28c.08,0,.19,0,.23,0,.47-.51,1.6-.63,1.12-1.71-.19-.43-1.94-.31-2.53.11a4.55,4.55,0,0,1-.72.34l.84-1.45a33.12,33.12,0,0,0-4.29,1.33,16.23,16.23,0,0,0-2.49,2c-.27.21-.78.49-.94.39a1.47,1.47,0,0,1-.63-1c.05-1.2-.76-1.67-1.54-2.35s-1.76-.56-2.7-.58-1.24.38-1.13,1.21.29,1.69-1,1.92c-.53.1-.7.71-.16,1.21s.62,1-.25,1.47a7,7,0,0,0-2,1.84,23.06,23.06,0,0,1,2.64-1.2c.29-.1.81.19,1.08.45.11.11-.07.62-.22.9a1.86,1.86,0,0,0,0,2.25,1.25,1.25,0,0,1,0,1.13,1.25,1.25,0,0,0,0,1.54,5.87,5.87,0,0,1,.86,2.94c0,1.46.62,2.67.94,4a1.86,1.86,0,0,1-.2,1.25l-1-2.37-.48.24a10.57,10.57,0,0,1,.56.91c.41.82.06,1.67-.81,1.65a21.47,21.47,0,0,1-3.71-.56c-.22,0-.37-.44-.53-.65L117,128c-.1-1.43-1.86-.07-2.13-1.25l-1,.6.06-1.24a3.67,3.67,0,0,1-3.33,1.23,4.74,4.74,0,0,0-.91.06c-.64,0-1.29,0-2.16,0l-.8,1.16c.64.06,1.08.13,1.52.15,4.61.22,9.23.45,13.85.63,1,0,2-.15,3-.15,4,0,8.08,0,12.12.06,2.68,0,5.36-.06,8-.05,2.06,0,4.13.16,6.19.1,1.54,0,3.08-.37,4.62-.51a7.87,7.87,0,0,1,2,.06c5.85.95,11.73.45,17.6.42,1.33,0,2.66.28,4,.31,1.56,0,3.12-.09,4.68-.1s3.37,0,5,0a3.18,3.18,0,0,0,.82,0,3.63,3.63,0,0,0,.92-.42s-.07-.47-.15-.49a3.55,3.55,0,0,0-1.08,0,2.58,2.58,0,0,0-.67.33c-.37-.92-.73-1.79-1.05-2.6L186.29,128c.28-1.82.63-3.53,2.25-4.72l-1.44.38c0-.45.05-.9.09-1.51,1.23.31,2.27.6,3.33.83.55.11,2.34-1.4,2.49-2s.38-1.22.6-1.9c-.71-.53-.91-2.78-.07-4.43l.16,1.58c.9-.28,1.84-.88,2.57-.69s1.06,1.24,1.59,1.93l-3.08,1.69.15.35,4-1.77.1.2L195,120l.24.48,2.73-1.3.12.17-1.35,1,.09.16,1.94-.62.47,1.23-5,.22.23-.64-.26-.19a4.78,4.78,0,0,0-.67.83c-.31.65-.57,1.18-1.45,1.34s-1.22.7-.84,1.69a9.75,9.75,0,0,1,.32,2.31c0,.41.13.83.19,1.24h.36c.08-.83.15-1.67.23-2.51l.37,0a23.17,23.17,0,0,1,0,2.5c-.11,1,0,1.59,1.25,1.45a11.32,11.32,0,0,0,2-.11l-1.55-.84.09-.45h6l.05-.35-.91-.59c.63-.08,1-.26,1.32-.12a.91.91,0,0,1,.26.89c-.11.25-.55.37-.86.5-.46.21-.94.37-1.41.55l.13.58c1.37-.12,2.74-.2,4.1-.39.19,0,.39-.6.44-.94.09-.64.08-1.3.11-2,1.61.72,1.69.93,1.36,3.59-1.47.07-3,.16-4.49.2-5.13.14-10.27.27-15.41.36-5.89.1-11.78.22-17.66.18-2.77,0-5.53-.47-8.31-.61a26,26,0,0,0-6.23.05,15.56,15.56,0,0,1-6-.08,6,6,0,0,0-1.53,0c-1.94.15-3.89.46-5.83.43-3.1,0-6.21-.38-9.32-.43-2.11,0-4.22.28-6.34.3-5.49,0-11,0-16.48,0a11.62,11.62,0,0,0-1.18,0,133,133,0,0,1-15.72.29c-5.92-.08-11.84.25-17.76.37a5.48,5.48,0,0,1-1.29-.32c.26-.28.3-.38.36-.38,1.9-.09,3.8-.12,5.7-.26.92-.07,1.81-.41,2.73-.49,1.12-.09,2.26-.06,3.39,0,.81,0,1.61.11,2.58.19v-4.55l-2.3-.64,0-.4c.58-.19,1.17-.37,1.74-.59.3-.12.75-.26.82-.49s-.19-.61-.35-.9c-.28-.5-.59-1-.88-1.45-.36.09-1,.45-1.37.28s-.75-.85-1.29-1.52c-.89,1.91-1.66,3.47-2.33,5.07-.1.23.24.64.31.83-.53,1.32-1,2.59-1.61,4-.15-.37-.45-.73-.42-1.05.14-1.24.37-2.46.58-3.69a10.27,10.27,0,0,1,.29-1.36,2.72,2.72,0,0,1,.47-1.14c1.47-1.43,1.51-2.25,1-4.25a22.57,22.57,0,0,1-.23-4.81,7.43,7.43,0,0,1,.25-1.43l-1.31-.14c.23-.54.3-1.16.65-1.43.7-.56,1.24-2.56.71-3.23a.54.54,0,0,0-.28-.2,27,27,0,0,1-2.71-.51,8.26,8.26,0,0,1-1.65-.89l.12-.38,2.35.36v-2.85c1.5.47.58,2.39,1.61,3.36,0-.79,0-1.59,0-2.39.09-1.6,0-1.81-1.59-2.2-.34-.08-.7-.09-1.05-.15-1.23-.22-1.38-.62-.66-1.72l1.76.12c0,.13.08.27.13.41l.45,1.19a11.18,11.18,0,0,0,.73-1,2.81,2.81,0,0,0,.48-1.06,2.71,2.71,0,0,0-.08-1.66c-.57-.82-.7-1.85-1.15-2.59-.72-1.18.33-1.94.18-2.94-.12-.85-.3-1.37-1.14-1.45s-1.94-.51-2.74.47c-.12.15-.77-.1-1.16-.21A5.53,5.53,0,0,0,73.39,90c.79,2.15-.47,3.87-.8,5.78l-1.64-2-.31.22.59,1.14c-.9.83-1.75-.18-2.55,0a17.37,17.37,0,0,0-2.47,1c-.6-.85.85-2.37-1.28-2.78l2.58-1.61.25.33c-.11.18-.17.44-.34.54a1.1,1.1,0,0,0-.37,1.63,1.57,1.57,0,0,0,1.23.59c.6-.06,1.45-.25,1.69-.68a3,3,0,0,0,.45-2.65c-.22-.59.17-1.42.29-2.14l.52,0a8.08,8.08,0,0,0,0,1.1,4.69,4.69,0,0,0,.26.86l.79-.52a.14.14,0,0,0,0-.11,46.19,46.19,0,0,0,.53-4.95c0-1.39-1-2.18-2.42-2.34a2,2,0,0,1-1.07-.42,4,4,0,0,1,.83-.19c1.48-.09,3-.18,4.45-.21.24,0,.71.28.7.4a1.15,1.15,0,0,1-.43.82c-.93.59-1.69,1.15-.61,2.28.11.11-.13.5-.1.75a11.79,11.79,0,0,0,.26,1.29c.33-.19.67-.37,1-.58a6.61,6.61,0,0,0,.59-.48c-.79-1.06-.31-1.79.61-2.41a1.88,1.88,0,0,0,.91-2.09,6.5,6.5,0,0,1,.61-2.21c.35,1.1.63,2,.93,2.87A9.13,9.13,0,0,0,79.79,85c.52.87,1.13,1.68,1.83,2.71.13-.24.5-.62.47-1-.23-2.52.38-5.08-.37-7.59-.22-.74-.65-1.11-1.23-.88a5.07,5.07,0,0,1-2.15.21,37.75,37.75,0,0,0-3.78.53,5.32,5.32,0,0,0-3.37,1.08c-.35.29-1.24.16-1.79,0a13.57,13.57,0,0,1-2-1.2.91.91,0,0,0-.59,0c-.08.26-.23.68-.1.82,1.09,1.24.74,2.55.22,3.84-.38.93,0,1.51.76,2.08-1.61-.46-1.78-.7-1.57-2.2a.52.52,0,0,1,.22-.31c.41-.31.45-.62,0-.88a9.18,9.18,0,0,0-1.2-.51,2.85,2.85,0,0,0,0,.84c.12.35.54.93.5,1a5.28,5.28,0,0,1-1.81,1.1,7.15,7.15,0,0,1-3,.2,7.51,7.51,0,0,1-2.61-1.36c-.2-.14,0-.8,0-1.22l.34,0,.37.92c.82-.34,2-.12,2.09-1.55,0-.28.82-.48,1.46-.83-1.18,0-1.44-1.12-2.22-1.54-.35-.2-1,.21-1.58.35l.06.39.83.13a1.15,1.15,0,0,1-1.75-.26l.06-.37c.68-1,1.37-1.91,2.83-1.68.68.1,1-.36.83-1.06a8.51,8.51,0,0,1-.21-1.87c0-.32.31-.63.48-1,.23.27.55.5.66.81.34.95.59,1.92.86,2.85,2,0,3.43-3,2.18-5.14-.17.7-.38,1.39-.49,2.1s-.13,1.5-.19,2.26l-.39,0a3.13,3.13,0,0,1-.18-.94c.14-1.71.42-3.43.46-5.15.16-6.11.24-12.22.34-18.34a.93.93,0,0,0,0-.47c-.88-1.69.5-2.58,1.27-3.71a3.19,3.19,0,0,0,.6-1.33,5,5,0,0,0-1.77-4.88c-.95-.76-.8-1.44-.1-2.39a29.18,29.18,0,0,0,2.55-4.32A9.24,9.24,0,0,1,74.92,30c.58-.1,1.25.35,1.87.57,1.57.54,3.3.53,4.66,1.75a4.18,4.18,0,0,1,1.37,3.91,1.58,1.58,0,0,0,.6,1.61,24.54,24.54,0,0,1,1.94,1.88c.43.47.48.88-.23,1.31a1.72,1.72,0,0,0-.57,1.33c0,1.6.22,3.19.33,4.78a8,8,0,0,0,0,1.29c.85,4,.2,8,.35,12,.07,1.92.21,3.84.36,5.76,0,.24.35.46.53.69v1.2c1.84-.65,3.5-1.23,5.15-1.83a.72.72,0,0,0,.41-.39c.41-1.53,1.62-1.69,2.92-1.84C95.25,64,96,63.83,96,62.8a1.21,1.21,0,0,1,.66-.82c.2-.09.63.16.84.37.67.65,1.28,1.35,2,2.16-.92-.14-1.34.09-1,.82.81,1.57.64,2.12-1.19,3A2.05,2.05,0,0,0,97.2,68c-1-1.2-1.33-1.13-2.13.3a8.06,8.06,0,0,1-1.34,1.38,4.27,4.27,0,0,0-.08-.66c-.12-.35-.26-.7-.4-1a2.71,2.71,0,0,0-.36,1c.07,1.26-.79,1.55-1.5,1.78l-1-1.22c-.34.4-.68.8-1,1.21-.06.08,0,.27-.07.34s-.39.39-.6.39-.4-.27-.48-.47c-.21-.56-.37-1.15-.64-2-.19.89-.3,1.49-.44,2.07a6.84,6.84,0,0,1-.53,1.85c-.83,1.36-1.86,2.59-2.65,4a10.87,10.87,0,0,0-.69,2.48l1.63-.11-1.5,1.64c.73,1.17,1.51-1,2.19.38a5.09,5.09,0,0,0-1.3.71A3.11,3.11,0,0,0,83.9,83c.34,0,.69.07,1,.08a5.26,5.26,0,0,0,.64-.06c-.33.63-.61,1.16-.88,1.7s-.42.88-.63,1.32l1.17.35-.45,1.2-1.33.34v.5l2.66.7c-.39.45-.89.79-1,1.22-.41,1.61-1,3.23-.46,5a1.62,1.62,0,0,1-.2,1.15c-.46.76-1,1.46-1.73,2.4a9,9,0,0,1,1.37-.29,2.55,2.55,0,0,1,.82.24,6.85,6.85,0,0,1-.26.68c-.25.5-.52,1-.79,1.5l1.47.32.06.35-2.54,1.61.1.19,1.9-.36c-.91,1.61-3.36,1.92-2.76,4.2l1-.3-.54,1,.35.14a13.24,13.24,0,0,0-.37,1.93c0,.51.24,1,.21,1.56-.09,1.4-.27,2.79-.43,4.28l1.11-.06c.11-1.92.22-3.72.32-5.51l.56,0a18,18,0,0,0-.12,3.66c.24,1.48-.12,2.32-1.65,2.54,0,0-.08.12-.12.18l.6,1.87,3-1-1-1.85,8-1.35.11.35-1.81.79,0,.29,4-.73.09.37a8.38,8.38,0,0,0-1.34.43,6.06,6.06,0,0,0-1,.81l.29.35a5.37,5.37,0,0,1,1.4-.51c1.26-.1,1.31-.88,1.29-1.88,0-2.18,0-4.37,0-6.55,0-2.94,0-5.87-.07-8.8,0-.8-.36-1-1.12-.77-1,.34-2,.59-2.9,1-1.26.51-2.18,0-2.33-1.51a10.69,10.69,0,0,0,1.78.1c.85-.07,1.69-.31,2.54-.4,1.16-.13,1.67-.72,1.54-2.08-1.79.47-3.72.64-5.27,1.49s-3-.29-4.31.53c0-.27.06-.45.17-.5,2.84-1.46,5.64-3,8.86-3.51a1.45,1.45,0,0,0,.92-.76c.21-.51,0-1-.69-.77-1.58.45-3.15.93-4.73,1.38s-3,.82-4.47,1.22c-.49-.86,0-1.15.56-1.46a25.8,25.8,0,0,1,8.33-2.59c1.11-.16,1.41-.69.93-1.66a.78.78,0,0,1,0-.43c.12-1.15.31-2.28.37-3.43,0-.72-.51-.79-1.08-.64-1.11.28-2.63,2.43-2.72,3.61,0,.57-.23,1.42-.62,1.62A28,28,0,0,1,88,91.16a2.12,2.12,0,0,0,1.25-2.58c-.27-1-1.14-.9-1.88-1.07a8.77,8.77,0,0,1-1.19-.5c1.31-.49,2.26-.83,3.2-1.21,2-.81,4-1.6,6-2.46.61-.26,1-.75.42-1.48l-5.28,2.36L90.23,83,87,84.22l-.11-.32,7.36-3.35a3.65,3.65,0,0,0,1.33-.69,4.61,4.61,0,0,0,.57-1.48c-.4-.07-.88-.31-1.2-.18-2.39,1-4.74,2.08-7.12,3.1a12,12,0,0,1-1.45.42l-.07-.32c2.92-1.36,5.82-2.76,8.76-4.08.67-.3,1.31-.53,1-1.36-.06-.16-1-.19-1.36,0-1.84.69-3.63,1.5-5.47,2.18-.49.18-1.15,1-1.57.07-.1-.22.68-.86,1.07-1.3.07-.07.22-.08.33-.13,1.7-.8,3.42-1.58,5.11-2.41.79-.4,1.54-.91,2.19.41,0-1.32-.37-1.72-1.5-1.39-1.64.48-3.23,1.15-4.83,1.77-1.08.42-2,1.37-3.59,1,.65-.31,1.08-.55,1.54-.75C90.6,74.19,93,72.5,95.84,72c.3,0,.55-.7.7-1.11a4,4,0,0,0,.1-1.15l.45,0c.1.94.2,1.87.32,3l4-1.88A2.31,2.31,0,0,0,103,68.6c0-.73.18-1.47.24-2.21a2,2,0,0,1,1.89-2c.62.89,1.24,1.78,1.84,2.69s1,1.54,1.52,2.32c.77,1.21,1.52,2.44,2.31,3.63.11.16.41.2.62.3a4,4,0,0,0-1.08-2,1.78,1.78,0,0,1-.87-1.94,2.27,2.27,0,0,0-.92-2.38,8.18,8.18,0,0,1-1.4-1.36c-.6-.72-.5-1.26.44-1.72a11.43,11.43,0,0,0,2.63-1.71c.26-.23.2-1,.09-1.43a1,1,0,0,0-.92-.37,2.31,2.31,0,0,1-2.54-.29c-.7-.4-1.43-.77-2.06-1.1l-2.09,2.38a12,12,0,0,1,2.4-.76,2.16,2.16,0,0,1,1.49.59c.33.32.66,1.16.49,1.38a12.68,12.68,0,0,1-2,1.81c.38-.55.76-1.1,1.16-1.66-.24,0-.47,0-.7,0l-4.29.15-1.26,0c0-.66-.23-1.51.09-1.94a7.12,7.12,0,0,1,2-1.36c.36-.22.74-.42,1.19-.68-1.2-.83-1.52-.75-2.54.49-.51.62-1.14.63-1.3,0-.42-1.7-.77-3.41-1.15-5.11l9.61.54c-.38-.5-.49-.84-.69-.9a26.61,26.61,0,0,0-5.11-1.24c-1.82-.11-3.19-1-4.71-1.71a2.15,2.15,0,0,0-1.67,0,5.59,5.59,0,0,1-2.82.76,11.56,11.56,0,0,0-3,.64l-.07-.21,3.86-1.9c-.87-.55-.87-.55-2.84-.26A2.57,2.57,0,0,0,88.6,53.1c.13.76.55,2,.24,2.21-1.24.93-.12,1.87-.23,2.77,0,.2.54.48.85.74l-.63,1,.22.22,1.39-.89a5.45,5.45,0,0,1-.25.89c-.9,1.72-1.78,3.45-2.73,5.14A14.24,14.24,0,0,1,86.08,66.93ZM69.39,75.64l0,0c-.72.07-1.16,1.27-2.14.56l.56-.81c-.46-.15-1-.13-1.07.05-.28.82-1.38,1.47-.77,2.4,2.39-1.52,5-.38,7.27-1.1l3.19-1.31-.11-.3c-1,.2-1.94.42-2.91.61a3.38,3.38,0,0,1-.71,0ZM94.31,49.72l1.08-1.63c-.52-.51-.52-.51-2.14,1l1.09.57,0,1.14a19.45,19.45,0,0,0,3.75-1.17,6.3,6.3,0,0,1,2.46-.8c.34,0,.64-.39,1-.61a5.6,5.6,0,0,0-1.08-.39,4.16,4.16,0,0,0-1.14.15c1.06-1.21-1-.68-.77-1.47a5,5,0,0,0-1.84-.2c-.44.13-.73.76-1.25,1.35l2.26.17.08.41c-1.7-.88-2.33.47-3.23,1.25A3.06,3.06,0,0,1,94.31,49.72Zm14.26-44.1,1.18-1.11-1-.62-1.44.92c-1.2-1.34-2.54-.68-3.38-.72a3.91,3.91,0,0,0-1-.63c-.21,0-.64.1-.69.26-.23.72-.19.66-.86.63a1.37,1.37,0,0,0-1.1.4c-.17.28,0,.79.1,1.29l1.32-.59.08.17-1.06,1,1.57.9.17-.21c-.13-.36-.27-.73-.41-1.09l.34-.22.75,1c.34-1.42,1.71-1.3,2.95-1.56l.13.74.71-.24-.67,1.55.3.11,2.08-2-.47,1.73L110.3,6c1.34,1.53,2.69,3.06,4,4.6l.3-.09a3.19,3.19,0,0,0-.36-1.19c-.88-1.1-1.81-2.17-2.78-3.19C110.68,5.33,109.75,4.73,108.57,5.62Zm-8,75.68c-.83.51-1.7,1-2.48,1.55a1.05,1.05,0,0,0-.17,1c.91.91.69,1.64-.08,2.52a1.16,1.16,0,0,0,.45,2l.27-1.55c.83,1.78-1.27,1.77-1.61,2.91a2.66,2.66,0,0,0,.92.08c1.63-.57,3.27-1.11,4.84-1.82a1.7,1.7,0,0,0,.67-1.43,1.86,1.86,0,0,1,1.42-2.29c.11,0,.17-.2.46-.55a10.68,10.68,0,0,1-1.85.15c-1.12-.14-2.19-.34-3.19.5-.31.26-.91.16-1.37.22a4.77,4.77,0,0,1,.38-1.74c.22-.31.91-.3,1.4-.41a9.19,9.19,0,0,0,2.14-.53,7.6,7.6,0,0,0,1.72-1.5c.07-.06-.14-.4-.32-.88l-.37.93-1.76.22c.58-.41,1.56-.53,1.16-1.85L99,80.53l-.12-.27c1.28-.62,2.54-1.27,3.84-1.85,1-.47.7-1.28.49-2a2.57,2.57,0,0,0-1.38.1c-1.09.41-2.15.92-3.22,1.39,1-2.37,3.83-1.92,5-3.92a14.06,14.06,0,0,0-2.49.76l-2.59,1.06-.6-1.24c-.22.3-.37.42-.38.54a28.94,28.94,0,0,1-.21,3.49c-.22,1.17,1,1.9.69,3a2.69,2.69,0,0,0,1,.21A10,10,0,0,0,100.53,81.3Zm29.6,6.61c.42.66,2,.21,1.55,1.54L139,92.63c.13-2,.26-4.11.41-6.45a11.18,11.18,0,0,1-1.2.57c-1.29.37-2.61,1-3.89,1a11.35,11.35,0,0,0-4.27.2l1.41-3.11a36.23,36.23,0,0,0,4.3,0c3.44-.4,2.94-.29,2.92-3.17,0-1.67-.56-2-2-1.12-.7.43-1.26.59-1.6-.4l-1.8,1.09c0-2,1.47-2.93,3.12-2.37,1.49.5,2.41.29,2.27-1.44-.13-1.55-.14-1.63-1.64-1.41-.26,0-.53.06-.77.08l-.77-1.21c-.25.51-.39.83-.56,1.14s-.39,1.06-.71,1.15a23.16,23.16,0,0,1-5,1.06,9,9,0,0,0-2.5,0c-1.66.44-3.53.12-5.42.12l-.49-1.21c-1,1.66-.58,3.12-.54,4.7,1.45-.94,3.39-.76,4.06-2.58l-.19,1,1.28.13c.29.75.82.91,1.63.29a2.52,2.52,0,0,1,1.33-.42,1,1,0,0,1,.79.43,15.86,15.86,0,0,1,.4,2c-3.29-.75-6,1.36-9,1.23,0,1.38.35,1.62,1.6,1.54,1-.07,2.18-.38,2.88.06,1.26.8,2.2.21,3.31,0a9.15,9.15,0,0,1,2,0l.13.45c-1.12.74-2.2,1.55-3.36,2.2a11.27,11.27,0,0,1-2.59,1c-.39.1-.87-.17-1.3-.17A5.55,5.55,0,0,0,121,89c-.27.13-.34,1.17-.14,1.66a1.7,1.7,0,0,1-.14,2c-.25.31,0,1,0,1.55a11.57,11.57,0,0,0,1.17-.11,11.4,11.4,0,0,1,1.72-.35,4.17,4.17,0,0,0,2.87-1.6c-1.36-.14-2.22,1.53-3.74.64l5.53-2.6-.57-.53ZM88.57,27.31l1.53-.23-.14-.6H91l0-.21L90,25.85a17.62,17.62,0,0,1,2.27-2.52,9.54,9.54,0,0,1,5.59-2.14c.77,0,1.29.07,1.54.84,0,0,.13,0,.23.07l.29-.69,1.17-.06c.18,1.84.34,2,2.21,1.67-.14-.77-.28-1.54-.49-2.67l5.87,1.6.11-.45c-1.36-.49-2.73-1-4.08-1.49-.26-.1-.42-.4-.67-.57a3.66,3.66,0,0,0-.67-.29l-.09.77-3.08-.54,1-.74c-1.67.25-2.69-.09-3.14-1.6a1.88,1.88,0,0,0,0,1.42,3.69,3.69,0,0,0,.87.83l-4,1.6c-.09-.34-.23-.89-.37-1.44L95,19.1l.91.83a4.37,4.37,0,0,0,.21-1.15c-.1-1.18.62-.77,1.09-.83.36-.46.78-1,1.27-1.11a28.64,28.64,0,0,1,3.47-.06c.41,0,.83,0,1.24,0v-.4L101,15.65l2.85-3.82L102,13.11v-3a2.08,2.08,0,0,0-1.53,2.34,2.23,2.23,0,0,1-.69,2.22c-.64.5-1.2,1.1-1.8,1.67l-.51-.47c-.47-.43-1.23-1.3-1.37-1.21-.9.57.06,1,.29,1.43,0,0,0,.08,0,.13l-1,.73a7,7,0,0,1-.16-.85,1.16,1.16,0,0,1,.12-.43c-.21,0-.59-.06-.61,0a5.38,5.38,0,0,0-.23,1.26c0,.23.21.46.21.7,0,.53-.08,1.06-.13,1.59-.5-.23-.93,0-.63.45.58.92-.16,1.37-.49,2-.41.76-.9.55-1.19-.07s-.49-1.3.36-1.84a9.74,9.74,0,0,0,1.49-1.55L92,17.23,92,17l2.21.39-.69-1.15a11.29,11.29,0,0,1,3.74-2.85,12.65,12.65,0,0,0,2.44-2.21l-.19-.24L97,13l-.34-.29L98,10.71,98,10.63l-1.7,1.29c-.06-.73-.36-1.48-.11-1.87.82-1.24.14-2.46,0-3.63,0-.68,0-1,.52-1.21.69.6,1.81,0,3.08-1.8L98,3.32l-.32-.58c-.79.32-1.59,1.27-2.1-.2,0-.1-.59-.17-.7,0a1.44,1.44,0,0,0-.38.87c0,.17.22.38.35.57l-.18.19-1.24-.61c-.73.91-1.4,1.76-2.07,2.61l0,0s0-.08-.06-.1-.1,0-.1,0c-.19.37-.37.75-.58,1.17l-.16-1c-.78.52-1.44,1-2.15,1.42-1,.55-.86,2.12-2.21,2.26,0,.21,0,.48.08.64.3.45.68.84,1,1.28s.58.66.57,1c0,1.58-.12,3.17-.3,4.74-.12,1.07-.51,2.11-.62,3.18-.15,1.57,1.64,1.2,2.23,2.06a1,1,0,0,0,.21,0c-.51-.79-.34-2.18-2-2l4.21-2.89.17.27-.84.77,1.21.05.21.31c-2,.61-2,2.13-2.08,3.64l.41.1c.09-.56.19-1.12.28-1.72.84,1.7-.22,2.46-1.28,3.42-.61.56-.69,1.69-1,2.58-.44.64-.92,1.27-1.3,1.95a.81.81,0,0,0,.18.74,3.45,3.45,0,0,0,.88.44c.25-.36.69-.71.68-1A11.22,11.22,0,0,0,88.57,27.31ZM79,74.19A27.36,27.36,0,0,1,82.32,74a2,2,0,0,0,2.33-2c-.05-1.9-.15-3.8-.28-5.7-.16-2.47-.49-4.93-.54-7.39,0-2.31.19-4.62.28-6.94A7.22,7.22,0,0,0,84,50.83l-.43-.25-1.76,1.93A7.58,7.58,0,0,0,81.43,51c-.24-.49-.72-.87-1-1.35a2.43,2.43,0,0,1,.89-3.21l1.32,1.71V46.87l1-.39L83,45.34c1.09-1.31.87-2.22-1-3.86L80.12,43c1.51,1.14,1.51,1.14,3.06.4L82,45.89c-.55-2.46-2.5-2.06-4.17-2.34.4-.52.85-1.16,1.13-1.09,1.7.4,1.46-.94,1.85-1.81s-.47-1-.85-1.41c-.22-.22-.73-.14-.91-.17l-2.47-1,.41,1.29a4.31,4.31,0,0,0-4.23.05,4.79,4.79,0,0,1-1.16-.59,5.53,5.53,0,0,1-1.08-1.33c-.14-.25,0-.64,0-1.25-.52.49-1,.75-1.08,1.06-.12,1.2-1.18,2.27-.51,3.57a.48.48,0,0,1,0,.45c-.81,1-.95,1.86.28,2.56a2.4,2.4,0,0,0,.19,3.27c-.18.28-.35.81-.6.85a1.49,1.49,0,0,0-1.21,2,12.69,12.69,0,0,1,.07,3s.09.11.44.54c1.43-3.38,4.27-5.63,5.41-9.13.81-.27,2,.2,2.56-1.18a2.54,2.54,0,0,0-.56-3l1.46.34.78-1.18.32.15a3.22,3.22,0,0,0-1,3c0,.06-.14.17-.21.27-.58.82-1.18,1.63-1.73,2.47a4.16,4.16,0,0,0-.33.85l.25.2a9.81,9.81,0,0,1,1.48-.83,2.78,2.78,0,0,1,1.09.09l-.23,2-1-.68,1-.9-.21-.29-1.61,1.15c1.06,1.62-.52,2.81-.62,4.58l1.84-2.86a10.55,10.55,0,0,1-.9,2.53c-.45,1-1.18,1.1-2.3.62L75.22,47c-1.39,1.45-2.52,2.62-3.64,3.8l-.29-.24c1.4-1.49,2.92-2.91,2.89-5.23-1.26,1.75-2.48,3.46-3.72,5.14-.81,1.09-2,2-2.41,3.25a22.86,22.86,0,0,0-.68,4.8l.55.09c-.06-1.7-.18-3.35,1.16-4.72,1.15-1.19,1.86-2.86,3.81-2.93.08.9.06.93-.64,1a4.47,4.47,0,0,0-3.33,4.6,33.26,33.26,0,0,1-.31,4.66c-.13.27.23.56.26.88A24.85,24.85,0,0,1,69,65.33a38.38,38.38,0,0,1-.38,4.92,42.51,42.51,0,0,1-1.28,4.48l5.07-1.14-1.9-.36c2.51-1,4.75-.07,7.07.65L77,73.47l.06-.23h2.46Zm59.54-5.46c-.2.59-.21,1.06-.43,1.2a10.08,10.08,0,0,1-3,1.69c-3.25.69-6.55,1.13-9.83,1.64-.25,0-.76-.13-.78-.26-.23-1.36-1.24-1.11-2.46-1.16l.66,2.87c-1.22-.5-2.17,0-3,1.72.47-.1.81-.16,1.14-.26s.88-.34,1.34-.42c5.21-.86,10.43-1.72,15.65-2.53a1.35,1.35,0,0,0,1.35-1.54c0-1.25.11-2.51.07-3.76,0-1.63-.18-3.26-.27-4.86-1.77-.12-3.38-.18-4.71,1.13.45-2,.77-2.56,1.6-2.84l-.11,1.28c1.32.19,1.52-2.25,3.09-1.32V53a4.94,4.94,0,0,1-1.07.25c-1.37,0-1.88.91-2.34,1.94-.64,1.47-1.22,3-1.93,4.39-.28.55-.77,1.33-1.25,1.39-1.6.22-2.64,1.7-4.39,1.69-.62,0-1.41,1.06-1.86,1.79-1,1.61-1.79,3.32-2.67,5-.3.58-.59,1.16-1,2Zm10.77-2.42c1.11-.26,1.93-.52,2.77-.64a2,2,0,0,0,1.65-1.3c.69-1.54,1.45-3.05,2.12-4.6a5.49,5.49,0,0,0,.41-1.7c.08-1.22-.17-1.39-1.34-1.08-.62.16-1.24.27-2.12.45L156,49.56c-1.62.34-3,.61-4.36.91a.78.78,0,0,0-.5.29A33.69,33.69,0,0,0,149,55.91a15.54,15.54,0,0,0,.06,4.08C149.12,62,149.18,64.05,149.26,66.31Zm-51,48.32,2.45-1.36.11.2-2.88,2.09.21.52c1.23-.2,2.48-.34,3.69-.62,2.48-.55,2.44-.58,2.35-3.08-.15-3.84-.23-7.68-.35-11.53a1.35,1.35,0,0,0-.23-.85c-.48-.43-4.32.7-4.54,1.3,0,.11,0,.25,0,.35l-1.26,3.27a2.6,2.6,0,0,0-.3,1c.11,1.64.27,3.27.44,4.9.05.49.16,1,.28,1.64l1.37-.77.23.3c-.29.26-.55.66-.89.76C97.79,113,97.88,113.65,98.21,114.63Zm5.16,4.6.13.46c-.41.14-.81.31-1.23.41-1.1.26-2.21.5-3.32.73a1.45,1.45,0,0,0-1.28,2,4,4,0,0,1,0,1.72c-.3,1.06-.16,1.53.94,1.56,1.32,0,2.64-.23,4-.25a1.85,1.85,0,0,1,1.36.51c.4.57,1.26,1.29,0,2,2.27.56,2.58.29,2.1-1.87-1.27.22-1.42-.84-1.41-1.62,0-2.73.22-5.46.4-8.19,0-.79,0-1-.83-.92.19,1.22-.22,1.71-1.37,2.08-1.41.45-2.79,1-4.15,1.63-.33.14-.56.53-.84.81l.15.2Zm-7.66,7.2c.09-1.42.2-2.9.24-4.37,0-.48.23-1.27-.66-1.2s-1.74,0-1.73,1.25c0,.75-.09,1.5-.14,2.24h-.34c0-.32,0-.65,0-1,0-1.59-.24-1.79-1.76-1.69a2.66,2.66,0,0,1-2.65-1.1c1.63,0,3.1.35,4.66-.92-1.6.31-1.18-.58-1.13-1.27-1.31.24-2.08,2.82-3.88.51.13,1.43.24,2.6.35,3.76l.14-.08-.42,1.35-.64.26,0,.41a6.73,6.73,0,0,1,1.19.07c1.12.26,2.63-.6,3.25,1.19l1-.59Zm21.58-24-.68,2.81a8.76,8.76,0,0,0-1.15-.47,1.4,1.4,0,0,0-1.86,1,19.7,19.7,0,0,0-.37,2.83l1.39-.54c1.87-.69,3.72-1.42,5.61-2a2,2,0,0,0,1.45-2.1c0-.84-1-1.64-1.74-1.22A2.06,2.06,0,0,1,117.29,102.46Zm6.26,5.51c-.81-1.09-1.47-1.38-2.4-.8a4.22,4.22,0,0,1-1.33.42c-2,.44-4,.86-6.07,1.31a1.14,1.14,0,0,0-.59.34c-1,1.09.82,1.38.73,2.26a4.44,4.44,0,0,0,1.19.27c.23,0,.48-.21.71-.2a12.36,12.36,0,0,0,6.09-.94l-.44-.54,1.52-.37-.1-.42a40.07,40.07,0,0,0-4.34,1.28,3.33,3.33,0,0,1-3.22-.22c1.45-.36,2.81-.66,4.15-1S122.09,108.45,123.55,108Zm-19.13-7.44c-.8,3.61.86,7,.21,10.35l1.33.36a4,4,0,0,0,.79-3c-.1-1.22-1.49-2.22-.58-3.57,0,0,0-.17-.06-.21-.71-.65-.12-1.28,0-1.94a1.54,1.54,0,0,0-.31-1.14A5.61,5.61,0,0,0,104.42,100.53ZM75.74,33.35a5.4,5.4,0,0,1,.59-1c.69-.76.38-1.06-.48-1.19-2.07-.33-3.48.86-4.91,2l1.47.2L69.3,35.17l1.06-1.54c-1.61.85-2.46,2.43-2.07,3.4a21.74,21.74,0,0,1,3.13-2,20.15,20.15,0,0,1,3.49-.82l0-.19-1-.22,0-.36ZM107.63,10.6l-.37-.22c-.31.24-.62.46-.92.71-1,.84-.83,2.1-1.15,3.18-.5,1.65-.24,2.41,1.27,3.18v-1l.71.28C108.43,14.75,107.45,12.64,107.63,10.6Zm-1.94,46a9.67,9.67,0,0,0-2.31-1.17,17.69,17.69,0,0,0-3.27-.19,12.2,12.2,0,0,0-1.34.11c.18.33.25.59.37.63a20.44,20.44,0,0,0,3.62,1c1.2.13,2.46-.28,3.58.5l.22.13v1.27c.44.3.86.58,1.27.88.6.43.92.16.91-.46,0-.79.09-1.64-.91-2.09-.36-.16-.55-.7-.81-1.07s-.34-.51-.62-.92Zm51.56,26.18c-.47-.1-.85-.07-1-.24-.78-.71-1.2-.24-1.7.37a18.3,18.3,0,0,1-1.47,1.45l-.17-.17,2.05-2.53c-1.38-.35-2.26.2-2.89,1.78-.17.45.1,1.07.16,1.6-.6,1.73,1.42,1,1.67,1.91Zm3.81-10.75v4.86c1.95-.61,1.93-.61,2,1.18,0,.26.32.5.49.76a4.06,4.06,0,0,0,.54-.85c.11-.39,0-.89.15-1.23.66-1.21.68-1.13-.68-1.5-.55-.14-1.59-.14-1-1.3S162.44,72,161.06,72.06ZM78.19,89.29a1.77,1.77,0,0,0,2-1.4c.06-1-1.44-2.45-2.55-2.54-.79-.06-1.43,1.07-1.38,2.85C76.27,89.6,77.63,88.9,78.19,89.29Zm77.12-.11c.35,1.6,3.75,3.48,4.87,3.06V87.82c-.77.71-1.36,1.65-2.13,1.85S156.27,89.39,155.31,89.18Zm-77.16-15c.38,1.75-1.33,1.14-1.93,2.13,1.54.31,2.9.57,4.26.86,1.66.35,2.28-.13,2.54-2.39-1.36,2-2.29.62-3.33,0A14.09,14.09,0,0,0,78.15,74.22Zm25,14.94c-.2,0-.35,0-.42.07A10.34,10.34,0,0,1,98,91.67c-.25.07-.35.73-.51,1.11.31.12.67.42.91.34,1.2-.38,2.36-.87,3.53-1.3C103.42,91.26,103.61,90.87,103.17,89.16Zm-3.6,7.2-.15-.46,3.09-1.12a5.39,5.39,0,0,0,.86-.36s-.06-.4-.08-.4a4,4,0,0,0-1,.13c-1.23.37-2.46.76-3.68,1.18-.39.14-1,.36-1.06.59a2.47,2.47,0,0,0,.42,1.5c.12.16.77.07,1.13,0,1-.35,2-.76,2.94-1.18a5.44,5.44,0,0,0,.79-.49l-.17-.39Zm9.83-50.5a1.91,1.91,0,0,0,.49.12c.94-.09,2.55-2.13,2.36-3a4.88,4.88,0,0,0-.58-1.42c0-.09-.61-.06-.66,0a7,7,0,0,1-2.52,2.76c-.14.09,0,.56,0,1.15l3-2.82.31.27ZM66,62.45l.29,0a41.46,41.46,0,0,0,.16-9.18H66Zm53.44,50.12c-2.64,1.37-6.27,5-6.18,6.35A37.21,37.21,0,0,0,119.48,112.57Zm21.92,14.24c1,.36,1.54.32,1.61-.82.08-1.36.39-2.71.42-4.07a4.16,4.16,0,0,0-.57-2.43,1.56,1.56,0,0,1-.13-2.07c.07-.11,0-.3,0-.45l-.2,0-.81,1.85C143.18,120.21,143,125.38,141.4,126.81Zm-24.06-14.28a24.85,24.85,0,0,0-6,5.9l.47.45C113.71,116.84,115.44,114.6,117.34,112.53ZM97.43,74l.3.34c1.67-.82,3.35-1.62,5-2.46.15-.08.16-.46.24-.69-.29,0-.63-.17-.85-.07-1.35.63-2.68,1.3-4,2C97.84,73.3,97.66,73.71,97.43,74ZM99,99.85l.29.45c1.35-.43,2.7-.83,4-1.32.2-.08.26-.56.39-.85-.28-.06-.59-.24-.84-.17A34,34,0,0,0,99.58,99C99.3,99.13,99.15,99.57,99,99.85ZM91.22,47c1.94,1-.62,1.21,0,2l4-2-.49-.76-1.84,1.1-.18-.28,1.51-1.36-.33-.44ZM104,49l.22.51,3.65.47c-.11-.63-.07-1.31-.27-1.4a4.84,4.84,0,0,0-2.17-.43C104.94,48.18,104.48,48.69,104,49Zm5.49,69.37c.47.09.75.22.83.15,1.91-2,3.81-4,5.71-6.07C113.4,113.8,111.76,116.22,109.49,118.36ZM107,122.17c.67-.13,1.27-.23,1.88-.36s1.19-.34,1.8-.44a3.05,3.05,0,0,1,1,.08,8.14,8.14,0,0,1,.92.29l.2-.58a6.66,6.66,0,0,0-2-.61,19,19,0,0,0-3,.4C107.25,121.05,106.66,121.18,107,122.17Zm16.9-4c.8-.73,1.22-3.33.51-4.26-.63.7-1.22,1.38-1.86,2.1C123.27,116.28,123.27,116.28,123.86,118.19ZM112.82,32c1.1-1.53,1.32-2.81.23-3.83-.1.3-.12.73-.34.95C111.52,30.34,111.52,30.9,112.82,32Zm-2.58,83.09-.13-.15c-.67.46-1.36.88-2,1.38a6.51,6.51,0,0,0-1.27,1.3c-.16.23,0,.67,0,1,.38-.11.92-.09,1.12-.34C108.79,117.3,109.5,116.19,110.24,115.12Zm50-29.82c-1.5,1-2.9,3.1-2.53,3.83C159.53,88.08,160.54,86.54,160.23,85.3Zm-53.61,26.63c-1.8.35-2.11,2.11-1,4.73l1-.58C105.05,114.73,106.46,113.34,106.62,111.93Zm-6.29-101.4A2.25,2.25,0,0,0,102,8.4c0-.5-.87-1-1.35-1.44l-.3.22ZM81.5,90h-.38v5.17C82,94.52,82.21,91.21,81.5,90Zm76.12-62.66.23.1c.19-.39.61-.86.52-1.17-.3-1-1.83-1.8-3.19-1.77.3,1.14,1.62.81,2.09,1.54l-1.36,1.16.22.31,1.54-.72ZM116,117.63l.37.34,5.33-6-.34-.31ZM81.56,36.33l.23-.21-2-2.91-1.38,1.26Zm34.05,64.07c-.5,1.08-2,1.81-1.3,3.38l1.51-.08C115.74,102.52,115.67,101.46,115.61,100.4Zm-2.12,13-.29-.25a14.2,14.2,0,0,0-4,4.38l.25.23Zm-19,16.29,0-.34c-1.74,0-3.37-1.41-5.16-.62l0,.54ZM112.78,27.26l.11.31a5.13,5.13,0,0,0,.74-1.35c.06-.29-.33-.66-.52-1l-.47.85a.83.83,0,0,1-.23.26l-2,1.31Zm-51,56,.18.31c1.89.14,2-1.88,3.21-2.65l-.25-.34Zm60.52,30.22-.38-.32L118.2,117l.43.39Zm29.16-33-.39.23.36,2.14,1.47-1.62s0-.08,0-.26ZM143.8,49a2,2,0,0,0-.3,2.83,10.16,10.16,0,0,1,.77-1.25,12.22,12.22,0,0,1,1.07-1.09l-.17-.17-.87.64Zm6,58.63-.07.31c1.36,1,3.41,1.43,4.29.65ZM103.43,21.86l.26.41,1.1-.34-.12,1.29,1.42-1.56L106,22.78l.3,0,.24-1.13a21.62,21.62,0,0,0-2.26-.34C104,21.35,103.72,21.68,103.43,21.86ZM155.5,74.12c1.66-.28,2.7-1.84,2.3-3Zm-46,2.71.47,0c0-.9,0-1.79,0-2.68a3,3,0,0,0-.43-1c-.18.29-.54.59-.52.86C109.11,75,109.34,75.89,109.51,76.83ZM161.07,69l-.88.73a6,6,0,0,0,1.12,1.08c.14.09.59-.36.9-.56ZM99.85,46.09l2.64.15.06-.33a2.2,2.2,0,0,0,.59.34,2,2,0,0,0,.62-.08c-.11-.21-.16-.5-.33-.6s-.88-.41-.94-.32c-.82,1.12-1.55,0-2.34-.11Zm-3.46-22L93.85,22.9l-.13.15,1.88,1.53-.07,1.58.48.05Zm57.88,46.85-3.43,1.45C153.55,72.87,153.08,72.89,154.27,70.94Zm-32.79,48.73a2.41,2.41,0,0,0-2.09,2.36C120.74,121.76,120.9,120.53,121.48,119.67ZM156,68l-2.11-2.56-.79,1.33ZM112,40.29l-.89-1-1,1a7,7,0,0,0,1.12.84C111.31,41.16,111.65,40.67,112,40.29Zm-4.22-11c.57-1.21.9-2.44.13-3.61l-.41,0-.39,2.25.27,0,.28-1.24.12,0ZM117.3,122c1.29.2,2-.64,2.21-2.06l-.27-.23Zm2.35-33-.27-.31-4.55,3.19.24.32ZM99.1,23.59l-.43-.1-1.2,2.06,1.43.34ZM140,122.06c1.28-.65,1.46-1.06,1-2.28A1.58,1.58,0,0,0,140,122.06ZM64.25,78.13,66,80.64l.57-.41C65.66,79.71,66.11,77.88,64.25,78.13Zm75.55,41.65c1.41-.6,2.15-2.29,1.62-3.18Zm-14.71,6.91-2.33.53a2.44,2.44,0,0,0,2.88.2Zm-19.89,2.64,0,.19h4.36l0-.19Zm35.45-18.67c.93.8,1.42.51,1.74,0,.16-.27,0-.7,0-1.06l-.42-.09ZM90.55,31.33a14.79,14.79,0,0,1,.69-1.67,10.93,10.93,0,0,1,.94-1.24C90.36,29.58,90,30.23,90.55,31.33Zm63,41.59c.78.69,2.21-.27,2.83-1.83Zm-11,39.9c.41-.65.72-1.13,1-1.62-.24-.1-.59-.36-.71-.28C142.24,111.28,141.78,111.76,142.49,112.82Zm-54.44,7.84-1.75-.59c0,.32-.11.72,0,1C86.76,121.77,87.25,121.51,88.05,120.66Zm21.53-96.39h-2.3a2,2,0,0,0,2.53.86c.08,0,.1-.17.17-.32L109,25Zm34.57,88-.39-.22c-.68.51-1.58.9-.75,2.17ZM105,26.18l.52.21a5.1,5.1,0,0,0,.69-1.38c0-.22-.42-.54-.65-.82l-.34.14C105.13,25,105.06,25.56,105,26.18ZM99.06,51l2.22,1-1.11-2Zm57.62,12.7-.39-.12a7.47,7.47,0,0,0-.72,1.37c-.06.18.24.48.38.73.24-.17.65-.31.7-.52A7.1,7.1,0,0,0,156.68,63.74Zm-88.5,4.09-.39,0a9.92,9.92,0,0,0-.3,1.61c0,.22.27.46.42.7.16-.22.46-.44.46-.67A10.94,10.94,0,0,0,68.18,67.83Zm44.13-49.08.46.49,2.07-2.09-.29-.31ZM101.73,48.94l2.19.1c-.28-.46-.38-.88-.61-1C102.65,47.83,102.1,48,101.73,48.94Zm6.78-6,.33.12a9,9,0,0,0,.78-1.22c.07-.15-.16-.44-.25-.67-.21.11-.54.18-.59.33A9.88,9.88,0,0,0,108.51,43Zm3.56,86.3v.22h4.07v-.22Zm29-7.1c-1.13.38-1.37.91-1.06,1.65.06.15.41.17.63.25C140.72,123.52,140.85,123,141,122.18ZM86.92,70.73l-.39-.53a4.16,4.16,0,0,0-.93.71c-.1.13.13.5.21.76ZM108.39,15.2l.29.35,2.39-2-.28-.34Zm40.54,9.85.28.44,2-1.37-.3-.45ZM112.8,102.1h-.25a11.36,11.36,0,0,0,.45,1.54c.07.19.36.33.58.4s.35-.27.33-.38a1.44,1.44,0,0,0-.32-.67C113.35,102.67,113.06,102.39,112.8,102.1Zm-8.62-26.72h-.37c0,.72-.47,1.45.11,2.17l.41,0ZM66.49,50l-.25-.07v2.81h.25Zm41.67,76.54.34.15c.43-.92.87-1.84,1.31-2.76l-.44-.19C109,124.64,108.56,125.57,108.16,126.51Zm-11.4,2.19-.27.18c0,.23,0,.67,0,.67,1,.1,2,.15,3,.22l0-.37C98.62,129.17,97.42,130.31,96.76,128.7ZM154,24.12l.1-.43-2.36-.55-.1.44Z"/><path class="cls-1" d="M73.28,117.32l-1.8,2,.28.3.76-.22-.42.78.15.13,2.43-2.12.17.15a19.86,19.86,0,0,0-2.06,2,3,3,0,0,0-.72,2.93,5.09,5.09,0,0,1,0,2.2c-.15,1.21-.9,2.33-.32,3.67a3.5,3.5,0,0,1-1.91,1.31,45.34,45.34,0,0,1-4.94-.09c-2.78,0-5.55,0-8.33,0a1.89,1.89,0,0,1-1.18-.33,2.72,2.72,0,0,1,1-.36c2.61,0,5.21.08,7.81.11,1.45,0,2.91.08,4.35,0,.85,0,1.28-1.12.66-2.2-.94-1.63-.47-3.25-.39-4.9q.15-3.16.22-6.34c0-.27-.24-.53-.32-.81-.17-.68-.64-1.51-.42-2,.65-1.49.29-2.94.27-4.41,0-.79.14-1.59.14-2.38a14.76,14.76,0,0,0-.21-1.85c-.51.07-.92.14-1.34.18-1.39.12-2,.78-1.45,2,.79,1.55-.06,2.89,0,4.32,0,.31-.14.62-.12.93,0,1-.51,1.28-1.39,1.34-1.58.1-1.85.5-1.64,2.11.11.81.15,1.64.19,2.46a1.1,1.1,0,0,1-.17.64,2,2,0,0,0,.53,2.87,3.8,3.8,0,0,1,1.18,2,13.1,13.1,0,0,1,.11,2.81c0,.15,0,.39-.14.43-1,.46-2,.89-3.1,1.29-.07,0-.33-.23-.38-.39-.34-1.29-.74-2.57-.95-3.88a21.94,21.94,0,0,1,0-2.81c-.06-2.54-.11-5.08-.24-7.62-.12-2.14-.37-4.27-.53-6.41,0-.7,0-1.41,0-2.1a3.91,3.91,0,0,0-.41-1l-.41,0c0,.75-.09,1.5-.14,2.25l-.23.08a2.88,2.88,0,0,1-.4-.91c0-1.47-.11-2.87-2-3.15a3.81,3.81,0,0,1-.74-.35l2.41-1-.09-.29a8.2,8.2,0,0,1-1.16.29,3.16,3.16,0,0,1-.82-.17c.17-.21.32-.58.51-.6a24.38,24.38,0,0,1,3.08-.2c1.59,0,3.18.08,4.78.15.33,0,.87.09.94.28.31.83.85.76,1.51.58a9.43,9.43,0,0,1,5.45.64L71,103.07c1.41-.13,2.73-.16,4-.4.73-.15.71-2.19.08-2.72l-1.77,1.64L70.5,97.94a14.83,14.83,0,0,1,2.37-.65,30.44,30.44,0,0,1,3.17,0c1.06,0,1.19-.66,1.16-1.5a16.76,16.76,0,0,1,0-2.65c.11-.94.76-.91,1.19-.73-.29,1.55-.53,3-.82,4.36-.07.29-.24.72-.46.79a1.41,1.41,0,0,0-1,1.78,23.62,23.62,0,0,1,.53,3.08,4.13,4.13,0,0,1-.77,1.84c-.53.9-1.14,1.75-1.63,2.49l-2.07-.25a2.69,2.69,0,0,0,0,1,1.85,1.85,0,0,0,.76.87c.17.09.68-.14.81-.36.42-.71.84-.66,1.54-.35,1,.44,2.15.64,3.2,1,.35.12.84.47.87.75a4.32,4.32,0,0,1-.32,1.68c0,.09-.71.09-.73,0-.38-1.41-1.81-.7-2.7-1.57l.07,1.23-1.12,1.13.24.28,1-.33c-.37,1-1.94,1.24-1.2,2.58l.75-.38c-.16.56-.32,1.11-.47,1.66-.87-.17-2.54,1.09-3,2.42Zm-12.15,5c.12,1.53.24,3.19.37,4.92l1.24-.79c0-.68,0-1.3,0-1.91a1.45,1.45,0,0,0-.29-.81C62,123.16,61.54,122.7,61.13,122.27Zm9.32-9V116C71.34,115.51,71.41,114.69,70.45,113.27ZM61,118.43h.43a14,14,0,0,0,.29-1.78c0-.23-.29-.46-.45-.7-.15.24-.44.47-.44.7A13.25,13.25,0,0,0,61,118.43Zm-.1-8.92c-.39,1.37.17,2.91,1.09,3.17C61.59,111.65,61.25,110.64,60.86,109.51Zm8.55.39c.09.61.15,1,.21,1.47l.33.15,1.27-1.45Zm5.32.86.5,0c0-.69-.08-1.37-.13-2.16C73.43,109.31,74.72,110.07,74.73,110.76Zm-10.84,1.3c.75-.37,1.62-.67,1-1.75C64.58,110.89,64.23,111.47,63.89,112.06Z"/><path class="cls-1" d="M185.68,103.15l-1,.12c0-.22,0-.4.09-.49.95-1.09,2-2.1,2.86-3.27,1.22-1.71,3.06-1.83,4.84-2.19a9,9,0,0,0,1.39-.53c.32.26.85.49.89.79s-.35.72-.64,1c-.79.76-1.92,1.22-2.28,2.74l4.51-4a8.06,8.06,0,0,0-1.52-.75c-.27-.07-.62.19-.93.3a4.25,4.25,0,0,1-.63-1.21c0-.17.54-.67.7-.61a5.65,5.65,0,0,1,1.28,1,4.92,4.92,0,0,0-.21-1.22c-.28-.55-.7-1-1-1.59-.13-.24-.2-.77-.09-.83,1.16-.68.36-1.4.06-2.09a12,12,0,0,0-.69-1.17A3,3,0,0,0,191,90.72a2.92,2.92,0,0,0-.37,1.8c.15,1.1.63,2.25-.31,3.24a6.21,6.21,0,0,1-.81.65c-.84-.92-.09-2.43-1.58-3.19-.25.83-.42,1.57-.7,2.26-.2.48-.47,1.14-.86,1.27-.54.18-1.25-1-1.07-1.76.31-1.22.7-2.41,1-3.63.18-.73.26-1.5.39-2.25l-.34-.1a9.59,9.59,0,0,0-.51,1.2c-.66,2.46-1.4,4.91-1.9,7.4-.36,1.83-.38,3.74-1.43,5.37a9.92,9.92,0,0,1-1.36,1.47c-1.44-.6-.91-2.15-1.49-3.19a16.19,16.19,0,0,1-.92-2.91c-.11-.35-.28-.68-.46-1.11-1.41,1-.53,2.72-1.4,4-1.06-1.83-.32-4-1.4-5.57l-.47.06q-.23.86-.45,1.74l-1-1.84c1-1.78.57-4,.62-6.19,0-1.4,0-1.4,1.13-1.84-1.38-1.65-1.06-3.59-1.08-5.47l.35-.14.89,1.48c-.12-1.87.57-3.78-1.08-5.45a6.83,6.83,0,0,1-2.2-4.36,11.28,11.28,0,0,0-1.26-3.17l.25-.23a6.33,6.33,0,0,1,1,1.26c.62,1.41,1.79,2.62,1.67,4.32a.91.91,0,0,0,.31.62c2.36,2.15,2.79,5.07,3.25,8a1.76,1.76,0,0,0,.1.58c1.38,2.67,1.56,5.66,2.19,8.52.54,2.45,1,4.92,1.4,7.39a10.93,10.93,0,0,1-.08,2.28l.47.36a5.38,5.38,0,0,0,.41-.92c.58-2.34,1.08-4.72,1.73-7,1-3.7,1.86-7.51,4.17-10.69,1.31-1.8,2.27-3.63,2.07-5.92a12.35,12.35,0,0,1,.08-2.35c.54,2.42,1.07,4.84,1.64,7.39l.93-.75a8.54,8.54,0,0,1,1.16,1.84c.82,2.52,1.87,5,2.1,7.67a13.94,13.94,0,0,0,1,3.44c.08.23.44.41.71.53,2.28,1,4.17,2.31,4.47,5.11.07.7.69,1.34,1,2,.22.43.4.87.69,1.49.17-.47.31-.89.52-1.48a3.14,3.14,0,0,1,1.54,2.25c.08.56.32,1.1.43,1.66a8.93,8.93,0,0,1,.17,1.71,23.06,23.06,0,0,0-.18,2.33,16,16,0,0,1-.23,5.72,8,8,0,0,0,.13,3.61c.14.71,1.1,1.26,1.22,2a58.82,58.82,0,0,1,.66,6.36c0,.35-.49.73-.84,1.21-.2-.28-.38-.42-.39-.57,0-1.48-.44-3.12.05-4.39s-.19-1.89-.8-2.65c-.23-.3-.49-.57-.77-.88L204,123.49a17.91,17.91,0,0,1-.73-2.18c0-.19.43-.45.58-.72a2.8,2.8,0,0,0,.31-.93c-1.6-.72-.33-1.78-.24-2.6a8.92,8.92,0,0,1,1-2.34l.48,1.21a3,3,0,0,0,.49-2.6c-.38-1.48-.84-3-.19-4.56.1-.25-.35-.93-.7-1.11a22.26,22.26,0,0,0-3.17-1.26c-.67-.22-1.34-.71-2.12,0-.29.28-1,0-1.59.06-2.09.17-4.17.38-6.26.55a8.41,8.41,0,0,1-1.17,0l2.34-1.67v1.3c.9-.55,2,.69,2.66-.75.47-1.09-.08-1.62-1.18-2,2.21-.08,3.48-1.52,4.79-3-.36.21-.72.4-1.07.62a2.72,2.72,0,0,1-1.2.51l1.79-1.49c-1-.9-1.75-.24-2.59.31a8.78,8.78,0,0,1-2.75,1.45,7.66,7.66,0,0,1-2.7-.46l.53-1.21c-1,.49-1.86.75-1.89-.7,1.43.75,2.21.37,2.78-1.51-.53.31-.9.54-1.28.75s-1,.51-1.49.76l0,.11s-.13-.11-.12-.13a2,2,0,0,0,.42-1.11,19.59,19.59,0,0,0-4.09,4.39Zm14.06.65c-.13.08-.33.13-.39.24a2.7,2.7,0,0,0-.36,1c0,.14.44.29.69.43a6,6,0,0,0,.31-1.08c0-.19-.17-.41-.27-.62l1.61-.44.19-.32-1.54-.69c-.31,0-.83.52-1.38.55a2.27,2.27,0,0,0-1.87,1.37,1.92,1.92,0,0,0-.13,1.28,1,1,0,0,0,.87.24,1.84,1.84,0,0,0,.62-1,4.32,4.32,0,0,0,.12-1Zm-12-17.9c1,0,1.74,0,2.46,0a4.44,4.44,0,0,0,1-.36,12.05,12.05,0,0,0-.94-1.78c-.09-.13-.77,0-1,.16A22.34,22.34,0,0,0,187.7,85.9Zm12.61,14.46c-1-2.07-2.75-2.85-3.88-2.15Zm-7.1,1.21.18.26,2.8-2A3.22,3.22,0,0,0,193.21,101.57ZM205,116.83h-.51c-.53,1.26.74,2.31.47,3.54l.34,0Zm-3.21-11c.71-1.49.46-1.92-.84-1.82Z"/><path class="cls-1" d="M163.32,114.69c-.95.81-1.95,1.56-2.83,2.44a3.73,3.73,0,0,0-.85,1.75l2.34-2.4.28.28-1.47,1.86.18.27,1.77-.72v.52l1.57-.48-.9.69c.54.13,1,.11,1.2.32.91.87,1.19.24,1.46-.54a1.33,1.33,0,0,1-.54,1.52,1.92,1.92,0,0,0-.43,1.44c0,.28.59.5.91.75a1.59,1.59,0,0,1,.23-2.13,3.74,3.74,0,0,0,.72-1c.09-.26-.12-.63-.19-.94l-.72.44c0-.57-.09-.92-.77-.71-.33.1-.67.15-1,.22l.95-.65-.33-.09c.25-1.16.45-2.33.78-3.46.2-.7.84-.62,1.22-.23a5.55,5.55,0,0,1,1.09,1.75c.38,1,.6,2,.93,3,.18.58.27,1.26,1.16,1.26.13,0,.4.42.38.62-.19,2.12-.09,4.3-1.08,6.31-.17,0-.37,0-.38-.07-.24-1.48-1.56-2.73-.7-4.47.5-1,.89-2.28-.58-3.16a6.78,6.78,0,0,0-1,1.23,1.39,1.39,0,0,0-.06,1.17c1.18,1.44.66,3.07.62,4.63,0,.23-.52.53-.85.65a21.55,21.55,0,0,1-2.15.54c0-.31,0-.73,0-1.14.09-1.84.19-3.67.26-5.51a.74.74,0,0,0-.26-.59c-.69-.47-2.92.61-2.93,1.45a23.5,23.5,0,0,0,.25,3c.17,1.38.09,1.49-1.25,1.52-2.09,0-2.15,0-2-2,.14-1.86.4-3.71.66-5.55a2.36,2.36,0,0,1,.55-1c.67-.87,1.65-1.58,1.34-2.94,0-.15.47-.52.79-.66a14.88,14.88,0,0,0,1.84-.69,1.24,1.24,0,0,0,.57-1.79c-.16-.34.09-.89.16-1.35a11.59,11.59,0,0,0,1.22.5c.95.28,1.9.51,2.85.77l.15-.38-.8-.84-1,.73c-.1-.51-.15-.86-.25-1.21a1.38,1.38,0,0,0-.58-.89l-.08.83L163,107.88a18.08,18.08,0,0,1-.34,2.92,2.45,2.45,0,0,1-1,1.53,3,3,0,0,0-2,2.92c0,.1-.11.2-.36.64-.34-.65-.76-1.1-.75-1.54,0-1.88.18-3.76.32-5.64,0-.17.25-.35.43-.46.42-.28.87-.53,1.06-.64,1.54-.1,2.87-.21,4.2-.27s3-.09,4.44-.13c.76,0,1.11.32,1.16,1.13.11,1.88.34,3.75.47,5.63a7.51,7.51,0,0,1-.16,1.4l-.36,0a9.09,9.09,0,0,0-1.3-2.91c-.69-.71-1.89-.93-2.95-1.41-.37,1.54-.71,2.87-2.28,3.29-.56-.86-1.12-.06-1.64.08-.13,0-.11.63-.2,1.23Zm.93,5,.05-.22c-.88-.1-1.77-.24-2.66-.26-.23,0-.46.38-.69.59.26.11.53.35.77.32C162.57,120,163.41,119.84,164.25,119.69Z"/><path class="cls-1" d="M59.2,94.27l1.15-.67c.17-1.5.4-1.66,1.83-1.14L62,93.79l-1.4.44,1.19,1.24,1.72,1.76-.26.42-1-.29-1-.25.39,1a.79.79,0,0,1,0,.63c-.45-.39-.89-.78-1.35-1.15a1.36,1.36,0,0,0-1.69-.13c-1,.5-1.94,1.16-3.27.23s-2.79.1-4.21.72l-.51-1.25c-2.17.22-4.49.11-6.56.79a15.8,15.8,0,0,1-3.59.58c-1.18.1-1.18.07-1.77-.9-.2.09-.4.16-.6.26s-.32.2-.54.33c-.53-.62-1-1.29-1.91-.48-.14.13-.76-.22-1.13-.4a3.07,3.07,0,0,1-1.27-3.06,4.66,4.66,0,0,1,.29.45c.08.16.12.33.25.67.86-1.42,2-1,3.18-.93,1.56.12,3.14,0,4.71,0,2.23.06,4.46.22,6.7.27,1.13,0,2.27-.2,3.39-.11,1.28.1,2.54.45,3.82.62.5.07,1.38.77,1.25-.69C56.76,94,58.74,93.79,59.2,94.27Z"/><path class="cls-1" d="M147.66,119.16l-1.89-.52a2.42,2.42,0,0,0,2.14-2.38,4.65,4.65,0,0,1,.57-2.19,4.28,4.28,0,0,1,2.16-1c.89-.72-1-1.92.64-2.85a8.48,8.48,0,0,1,.32,1.84,1.15,1.15,0,0,0,1,1.36c1.18.36,1.9.89,1.68,2.46-.12.88.71,1.9,1.12,2.85.1.25.33.49.32.73-.1,2.25-.27,4.5-.37,6.75-.06,1.19-.91.94-1.61,1s-.86-.48-.84-1.09c0-.34-.07-.68-.13-1.32L150,126.81c-1-1.11-1.6-1.11-2.7.2C147,124.22,146.39,121.71,147.66,119.16Zm3.19,1.39,1.69-1.29c-.64-.45-1.16-.85-1.72-1.19a4.3,4.3,0,0,0-.88-.28c0,.29-.2.62-.1.86A21.38,21.38,0,0,0,150.85,120.55Zm-.52,3.55c1.72-.55,2.51-1.44,2.18-2.4C150.83,122.34,150.17,123,150.33,124.1Zm.28,1.69c1.62-.73,2.34-1.67,1.88-2.47C150.48,124.49,150.24,124.8,150.61,125.79Zm-.26-3.56c1.7-.52,2.44-1.33,2.35-2.57C151.76,120.39,150.55,120.75,150.35,122.23Zm4.76,2.45a13.22,13.22,0,0,0-1.24,1,1.23,1.23,0,0,0-.27.7c0,.09.31.31.44.28s.56-.17.64-.36A10.94,10.94,0,0,0,155.11,124.68Z"/><path class="cls-1" d="M46.6,70c-.21,2.46-2.33,2.31-3.72,3.1-2-1-2,1.13-2.56,1.85C38.93,76.65,39,78.9,39,81c0,.26.39.51.65.83l-1.93,1,.12.3.83,0-1.39.81-1.07-1.51-.33.14v2.19a6.51,6.51,0,0,1-.42-.62c-.2-.43-.39-.87-.58-1.3a5.79,5.79,0,0,0-1.06,1.1c-.41.73-.79.77-1.09.42l-3.93,1.29a4.44,4.44,0,0,0,3,.67,9.22,9.22,0,0,1,2,.14c.29.07.72.67.65.85-.17.39-.76,1-.93.94-1.86-.77-3.45.37-5.13.67-1,.18-1.37.08-1.51-.89a16.56,16.56,0,0,0-.47-1.79c1.58.09,1.72-.62,1.57-2a4.6,4.6,0,0,1,4.44-5,5.4,5.4,0,0,0,.83-.31l-1.74-.2c1.21-.91,2-1.83.78-3.36l1.32-.36c-1.07,2.31,1.06,2.91,1.86,4.18a10.91,10.91,0,0,0,1.68,1.79,3.17,3.17,0,0,0,.67.39,2.39,2.39,0,0,0,.39-.76,38.39,38.39,0,0,0,.36-4c0-2.47,1.5-4,3.47-5A36.74,36.74,0,0,1,46.6,70ZM29.91,83.17l-.32.89a2.29,2.29,0,0,0,.82.18,2.33,2.33,0,0,0,.92-.45c1-.74.8-1.87.82-2.9,0-.12-.45-.39-.61-.33a5.49,5.49,0,0,0-1.77.81A1,1,0,0,0,29.91,83.17Z"/><path class="cls-1" d="M66.58,86.61c0,1.54,1.23.25,2,.48-.52,1.37-1,2.71-1.63,4.27-.1,0-.61-.14-.71-.39a26,26,0,0,1-.76-2.61c-.07-.25-.11-.68-.24-.72a1.22,1.22,0,0,0-.84.18c-1.15.67-2.24,1.38-3.68.71-.7-.33-1.45-.44-1.69.7,0,.26-.53.48-.86.64s-.81.25-1.19.42c-.76.33-1.32.22-1.5-.67s-.59-1-1.17-.34a1.37,1.37,0,0,1-2,.37c-.47-.3-1.17-.21-1.66-.49-.3-.18-.4-.72-.5-.91-1,.42-1.92.87-2.9,1.22-.21.08-.79-.19-.79-.31-.05-2.08,0-4.16,0-6.25,2,.13,4.27,1,4.27,3.52,0,.38.8.84,1.32,1.08.14.07.69-.49.87-.85a5.23,5.23,0,0,0,.26-1.46l1.34-.26a2.76,2.76,0,0,0,2.36,2.46c.2,0,.34.42.56.54a2.2,2.2,0,0,0,1.11.36c.21,0,.45-.51.52-.82a2.69,2.69,0,0,1,2.55-1.41,11.54,11.54,0,0,0,1.74-.18,2.9,2.9,0,0,1,.83.1C64.83,86.16,65.59,86.36,66.58,86.61Z"/><path class="cls-1" d="M58,79.37l-.06.37c.65,1.46-.55,2.24-1.64,3.67l-1-1.4a3.48,3.48,0,0,1-3.63,0l.82-1.36.28.57.88-.73-.59-.27V79.9l1.34-.27.92-1.39c.33.55.53.86.73,1.19-.18.63-.35,1.26-.52,1.84l1.5-.1c-.35-.62-.68-1.19-1-1.76.2-.35.64-.81.54-1-.51-1.18-.47-2.69-2-3.32-.45-.19-.73-.76-1.14-1.09s-.94-.63-1.66-1.11l.06,1.25c-.08,0-.18-.14-.27-.13-.62.07-1.49-.06-1.81.3-.86,1-2,.69-3,1-.19.07-.54-.3-.85-.49l-3.61,4.51-.39-.17c1.61-1.36,1.4-3.14,1.29-5l7.6-.59c.22-2.31-.7-2.91-3-2.3l1.09-1.59-2.26-.31c.13-.8.29-1.75.45-2.69l.21.06-.49-1.12,2-.5L47.26,65c-.86-1.46.48-2.2,1-3.3,1.1,1.53,1,3.29,1.06,4.94a3.59,3.59,0,0,0,1.2,3c1.79,1.56,3.4,3.32,5.08,5a4.85,4.85,0,0,1,1.78,3.33A4.86,4.86,0,0,0,58,79.37Z"/><path class="cls-1" d="M135.83,29.63a14,14,0,0,1-.47-2.37,1.45,1.45,0,0,1,.65-1c2.28-1.48,4.87-1.61,7.47-1.61a9.85,9.85,0,0,1,2.62.44,1.21,1.21,0,0,1,.76.85,12.51,12.51,0,0,1-.27,2.66c0,.15-.48.33-.73.31-1.24-.11-2.48-.26-3.71-.45-.91-.14-1.81-.35-2.79-.55l-.47,1-.34,0c-.21-.6-.43-1.2-.66-1.85C137.16,27.84,137.74,29.68,135.83,29.63Z"/><path class="cls-1" d="M185.39,121.16c-.76-1.57.35-2.38,1.1-3.09,1.17-1.11.65-2.46,1.09-3.71-1.07.16-2,.23-2.79.43-.25.06-.42.5-.6.78a9.73,9.73,0,0,1-.66,1c.13-1.49.79-2,2.28-2.44s3-1,4.22-1.47c.86.09,1.52.18,2.18.21.92,0,1.89-.1,2.67.91a2.6,2.6,0,0,0-.95.22,4.45,4.45,0,0,0-1.45,1.33,22.16,22.16,0,0,0-1.27,3.56,11.38,11.38,0,0,0-.22,1.87l-1.52.42c-.19-.82-.37-1.62-.55-2.44C186.24,119.74,186.24,119.74,185.39,121.16Zm3-5.2c.52-.83,1-1.66,1.66-2.61C188.08,113.73,188.08,113.73,188.37,116Z"/><path class="cls-1" d="M193.69,109.16l-1.59.59,2.62.72-.05.43c-2.59-.67-5,.25-7.43.78a6.37,6.37,0,0,0-4.35,2.52,5.56,5.56,0,0,0-.64,1.67c-.16.72-.31,1.33-1.33.89l1.41-2.94-1.35.12a23,23,0,0,1,0-3.11c.12-.87,1-1,1.79-.66a8.57,8.57,0,0,0,1.92.48l.08-.31-2.21-.91.07-.36c1.74,1.23,3.5.33,5.25.27,1.55-.06,3.11,0,4.66,0a7.25,7.25,0,0,0,1.12-.18Z"/><path class="cls-1" d="M19.46,129.68H49.94l1.72-1.74-.07,1.54,2.51.47v.4a10.54,10.54,0,0,1-1.75.25c-3.77-.08-7.53-.24-11.3-.28-2.61,0-5.22.14-7.84.15-3.88,0-7.77,0-11.66-.09a15.48,15.48,0,0,1-2.12-.31Z"/><path class="cls-1" d="M185.64,103.18l1.5-.24-.61,3,2.9,1.16a3.85,3.85,0,0,1-.87.5,17.22,17.22,0,0,1-7.56-.19,28.44,28.44,0,0,1-4.3-1.69c-.66-.33-1.62-.74-1.48-1.81l1.86,1.07.42-.27c-.28-.91-.56-1.81-.8-2.56.75.15.92.38,1.51,2.2V102.7c.85.15,1,.51,1.26,2,.07.43.31,1.08.63,1.19a7.58,7.58,0,0,0,2.12,0l1.55.88V104l.36,0c.15.64.3,1.29.5,2.12.46-.15,1.17-.18,1.3-.47s0-1-.1-1.54c0-.31-.1-.62-.15-.93Z"/><path class="cls-1" d="M184.56,116.79c0,.65,0,1.29,0,1.94,0,1.31-.05,2.62-.09,3.94a5.53,5.53,0,0,1-.1,1.15,12.69,12.69,0,0,0-.56,2c-.09,1.85-.19,2-1.94,1.83-.07-.59-.15-1.1-.18-1.62-.1-1.63-.19-3.25-.25-4.88a.59.59,0,0,1,.35-.42c1.16-.32,1.29-1.57,2.06-2.26.36-.31.26-1.12.37-1.71Z"/><path class="cls-1" d="M173.14,118.79c1.55-.88,2-.83,2.56.38.25,0,.51-.09.77-.1a.73.73,0,0,1,.67.29l-1.6.25c-.13,2.42-.27,4.9-.4,7.39-1.21,0-1.21,0-1.34-1.43C173.59,123.36,173.37,121.14,173.14,118.79Z"/><path class="cls-1" d="M193.69,109.16c1.48,0,3,0,4.45,0,1,0,1.9,0,2.2,1.07l-1.49,3.57-3.19-2.72,1.61-.72a18.78,18.78,0,0,0-1.86-.83,14.14,14.14,0,0,0-1.72-.34Z"/><path class="cls-1" d="M39.34,85.11c.9.25,1.67.72,2.27.56s.71-1,1.1-1.69c.13.27.35.51.33.74-.12,1.39-.24,2.79-.48,4.16-.06.37-.6,1-.82.93-.53-.1-1.29-.4-1.44-.82A32.36,32.36,0,0,1,39.34,85.11Z"/><path class="cls-1" d="M179.11,120.61c.75.71.71,3.73-.08,7-.28-.37-.57-.59-.6-.85-.24-1.86-.52-3.73-.59-5.6-.05-1.41.81-1.9,2-1.41a3.62,3.62,0,0,0-1.09.61,1.39,1.39,0,0,0-.14,1.23Z"/><path class="cls-1" d="M95.49,34.82,92.3,37.11l.14.42a4.49,4.49,0,0,0,.9-.28c.66-.35,1.29-.78,2-1.1.13-.06.52.15.6.33s0,.67-.09.71a15.52,15.52,0,0,1-3.55,1.11c-.63.07-1.34-.65-2-1,0,0,0-.07,0-.28l5-2.45Z"/><path class="cls-1" d="M149.77,104c-.06-.68-.13-1.37-.19-2.06l-.35-.07-.8,2.07-.45,0c0-.91-.1-1.83-.06-2.73,0-.11.63-.29,1-.26.79,0,1.51.77,2.41.22.13-.08.78.31.83.56a15.3,15.3,0,0,1,.2,2.25l-.44.08c-.17-.77-.34-1.53-.52-2.37C150.3,102.13,151.41,103.88,149.77,104Z"/><path class="cls-1" d="M148.6,92.82l7.32.26c.42,0,.83,0,1.38,0-.12.31-.15.6-.25.63-.92.23-2,.81-2.73.51a6.2,6.2,0,0,0-2.3-.31,5.53,5.53,0,0,0-4,1.25c-.14.11-.27.22-.54.46l1.11-2.83Z"/><path class="cls-1" d="M148.63,92.79a18.47,18.47,0,0,0-2.1.38,24.91,24.91,0,0,1-2.78.85c1.28-.92,2.28-2.12,4-2.45,2.21-.42,4.23.45,6.36.5-1.55.06-3.09.1-4.63.22-.31,0-.6.35-.9.53Z"/><path class="cls-1" d="M7.49,124.42c-.91-1.74-.73-3.79.26-4.7.17-.17.49-.39.64-.33a.8.8,0,0,1,.37.64,23.91,23.91,0,0,1-.26,3.28C8.43,123.69,7.9,124,7.49,124.42Z"/><path class="cls-1" d="M46.86,110l.62.31c-.32,1.71-2,1.4-3,2.09a2.75,2.75,0,0,0-1.28,3.26c.09.37.15.74.23,1.17-2.63-1-2.65-1-1.57-2.54l.43.6a4.11,4.11,0,0,0,.42-1c.11-1.46,1.2-1.86,2.31-2.34a13.75,13.75,0,0,0,1.85-1.14Z"/><path class="cls-1" d="M198.15,126l-.63-1.06-.83.61-2.05-2.27c.83-1.08,2-.47,2.91-.2,1.47.44.36,1.9.93,2.79Z"/><path class="cls-1" d="M138.72,40.71A9.55,9.55,0,0,1,139.83,39q3.15-3.26,6.42-6.39c.22-.22.75-.17,1.13-.14.58,0,1.15.18,2.06.34l-2.85,2c.41-.72.7-1.23,1-1.73l-.26-.33a4.37,4.37,0,0,0-1.17.63c-2.41,2.36-4.78,4.75-7.17,7.14a1.4,1.4,0,0,1-.3.15Z"/><path class="cls-1" d="M176,106.05l4.58,3-.11.35c-.64-.22-1.27-.46-1.91-.66-.31-.1-.78-.3-.92-.17-.88.81-1.12.15-1.37-.53s-.42-1.19-.63-1.79Z"/><path class="cls-1" d="M127.36,94.76a1.62,1.62,0,0,1,.43-.19,3.09,3.09,0,0,0,2-.86.51.51,0,0,1,.44-.13c1.74,1,1.79-1,2.94-1.46l.56.45h-.39c-.27.53-.54,1.07-.83,1.59a.79.79,0,0,1-.41.38c-1.52.25-3,.47-4.55.7Z"/><path class="cls-1" d="M40.25,122.87a2.56,2.56,0,0,1-.34,2.76c-.53.56-1.23.44-1.42-.27s-.22-1.27-.33-1.9Z"/><path class="cls-1" d="M17.84,123.1c0,1.35,0,2.7,0,4.05a.77.77,0,0,1-.54.48c-.21,0-.61-.27-.61-.41,0-1.26.14-2.53.26-3.79,0-.15.33-.28.5-.41Z"/><path class="cls-1" d="M57.16,118.52a5.62,5.62,0,0,1,0-2.16c.77-1.85.23-3.69.19-5.53a1.91,1.91,0,0,1,.39-1.22C58.05,112.6,58.31,115.57,57.16,118.52Z"/><path class="cls-1" d="M17.15,116.8c.26-1.38.53-2.76.79-4.13h.55c.14.89.28,1.78.43,2.76l1.09-.11.07.22Z"/><path class="cls-1" d="M31.24,96.92V93.14l-.87-.38,1.93-1.83.27.17a4.66,4.66,0,0,0-.5,4.28c.24.71.17,1.05-.3,1.46C31.72,96.89,31.62,96.87,31.24,96.92Z"/><path class="cls-1" d="M176.86,114.26c-.76-1.09-.17-1.84.61-2.5.16-.14.64-.2.68-.12a4.52,4.52,0,0,1,.8,1.71,4.9,4.9,0,0,1-.48,1.71l-.39-.07a7.64,7.64,0,0,0-.28-1.19,3.06,3.06,0,0,0-.54-.73,7.48,7.48,0,0,0-.39.74A1.36,1.36,0,0,0,176.86,114.26Z"/><path class="cls-1" d="M42.8,81.86a7,7,0,0,0,2.47-.06,8.67,8.67,0,0,0,2.11-1.71c.6.51.6,1-.06,1.45-1.08.8-2.11,1.68-3.59,1.15a10.4,10.4,0,0,1-1-.54Z"/><path class="cls-1" d="M50.24,119.06c-2.07,1.1-2.76,1-3.79-.38,1.19.69,2.2,1.15,3.28.25.13-.1,1.11.41,1.14.7.18,1.58.18,3.18.24,4.77,0,.08-.12.17-.24.31Z"/><path class="cls-1" d="M146.41,37.34,139,45.6l-.34-.31,7.48-8.16Z"/><path class="cls-1" d="M55.34,112.89a24.72,24.72,0,0,0-.82,3.12,38.16,38.16,0,0,0-.2,3.88C53.31,117.81,53.73,114.22,55.34,112.89Z"/><path class="cls-1" d="M144.23,100.76c.19,0,.73-.07.75,0,.26.86,2.28.37,1.47,2.08l-.62-1c-.12.92-.21,1.65-.31,2.37l-.43-.06c.07-.46.14-.92.22-1.51l-.78.33Z"/><path class="cls-1" d="M31.67,120.22l-1.77,3.52a9.23,9.23,0,0,1,0-1.08c.11-.76.34-1.45-.28-2.2s.75-2.25,1.94-2.63L30,120.32l.26.38,1.48-.45Z"/><path class="cls-1" d="M71.68,81.46c1.9-.41,3.68.28,5.25-.85-.39.46-.71,1.2-1.17,1.31a14.83,14.83,0,0,1-3.27.18C72.3,82.1,72.11,81.81,71.68,81.46Z"/><path class="cls-1" d="M42.25,117.88c-.1,1.89-.19,3.79-.29,5.68l-.62,0c-.22-1.92.57-3.76.53-5.67Z"/><path class="cls-1" d="M147.49,18.09l-1.3,1.7.18.22,1.43-1.08.1.08-2.13,2.26.17.22,1.26-1L145.73,22l-.23-.2c.12-1.13.21-2.27.37-3.4,0-.17.38-.29.59-.43l-.22.74.24.12Z"/><path class="cls-1" d="M141.61,97.51c0-.51-.15-1.41.18-1.68s1.21-.07,1.91.21l-1,.81,2.28.23,0,.16Z"/><path class="cls-1" d="M129.4,98c.38,1.41.29,2.6-1.16,2.53C127.88,98.58,128.14,98,129.4,98Z"/><path class="cls-1" d="M149.53,40.37l-4.23,4.52-.28-.25L149.1,40Z"/><path class="cls-1" d="M12.35,126.83c.84-.77.43-1.36-.13-2l.33-.27a2.63,2.63,0,0,1,.71.49c.71,1,.07,1.79-1.75,2.73.05-.81.1-1.46.14-2.12h.22Z"/><path class="cls-1" d="M140.82,99.36c.29.79.61,1.57.85,2.37a.52.52,0,0,1-1,.31A2,2,0,0,1,140.82,99.36Z"/><path class="cls-1" d="M171.59,106.86l3.63-.34-.17,1.3-3.47-.65Z"/><path class="cls-1" d="M158.68,102.87c-.38.24-.74.6-.87.52-.37-.19-.94-.66-.89-.86a5.47,5.47,0,0,1,.93-1.43Z"/><path class="cls-1" d="M141.9,34.74c1-1.06,1.78-2.56,3.38-3.1l.34.24c-.19.34-.3.79-.58,1C144,33.54,143,34.12,141.9,34.74Z"/><path class="cls-1" d="M36.84,114.46V106.4C37.66,109.08,36.87,111.78,36.84,114.46Z"/><path class="cls-1" d="M50.85,74.69a2.82,2.82,0,0,1-2.71,2.81Z"/><path class="cls-1" d="M140.33,33.2l-1.78,1.07c-.59-.76-.29-1.25.4-1.64s1.09-.58,1.81-1l-.46,1.58Z"/><path class="cls-1" d="M136.56,45.65l3.93-4.74c-.67,2.15-2.4,3.35-4,4.71Z"/><path class="cls-1" d="M150.16,31.5l-6.86-1.13A12.77,12.77,0,0,1,150.16,31.5Z"/><path class="cls-1" d="M151,40.77l-4.67,4.89-.27-.26,4.67-4.9Z"/><path class="cls-1" d="M158.05,104.73l-4.79.22,0-.52,4.79-.24Z"/><path class="cls-1" d="M54.05,103.87c-.71-2.26-.71-2.26-3-1.7,1-.85,2.43-1.17,3.07-.41.38.45.2,1.38.27,2.1Z"/><path class="cls-1" d="M134.86,98.92c-.34.49-.56,1.08-.77,1.08-.89,0-.59-.77-.56-1.24s.33-.63.51-1Z"/><path class="cls-1" d="M46.87,78.91c-.08,1.42-1.43,1.47-2.29,2.39L44,80l1.39.14Z"/><path class="cls-1" d="M98.33,41.35l4.55.5C100.79,42.43,98.77,42.16,98.33,41.35Z"/><path class="cls-1" d="M93.93,33.63c.2-.53.41-1.06.61-1.58l.32.05.19,1.21,1.53-.25C95.81,34.15,95,34.05,93.93,33.63Z"/><path class="cls-1" d="M57,125.75H55.21c.19-.5.38-1,.7-1.89Z"/><path class="cls-1" d="M126,101a1.87,1.87,0,0,1,0-2.86Z"/><path class="cls-1" d="M140.3,33.24a11.47,11.47,0,0,1,1.6-.9,3.67,3.67,0,0,1,1.16-.09l.07.41-2.7,1.24c0-.21-.06-.46-.1-.7Z"/><path class="cls-1" d="M176.32,117.92c-1.29-.37-1.29-.38-.71-2.82Z"/><path class="cls-1" d="M7.27,114.33l4.24-2.17A5.94,5.94,0,0,1,7.27,114.33Z"/><path class="cls-1" d="M138.69,40.68l-2.88,3.82-.51-.43,3.42-3.36Z"/><path class="cls-1" d="M48.14,81l1.3-2.17.26.14-.59,1.44,1,.43L50,81.2Z"/><path class="cls-1" d="M9.6,127.91c-1.2-1-1.16-1.12.42-2.23Z"/><path class="cls-1" d="M136.77,38.19l-3.57,3.88-.24-.22c1.2-1.28,2.41-2.55,3.62-3.83Z"/><path class="cls-1" d="M88.5,47.24c.07-1.61,1.62-1.38,2.28-2.26l.29.35Z"/><path class="cls-1" d="M176.67,109.81c-.08.84-.16,1.68-.25,2.52l-.65-.06.3-2.5Z"/><path class="cls-1" d="M45.08,101.3c-.63,1.16-2.53-.48-2.66,1.56C41.77,101.56,42,101.45,45.08,101.3Z"/><path class="cls-1" d="M39.29,92.88c-.72.79-1.35.71-2.1.05C38,92.12,38.58,92.35,39.29,92.88Z"/><path class="cls-1" d="M68.28,81.29l2.84.23,0,.31H68.24Z"/><path class="cls-1" d="M50.23,112.51a2.2,2.2,0,0,1,1.13,2.86C51,114.39,50.6,113.46,50.23,112.51Z"/><path class="cls-1" d="M63.19,90.86v2.33h-.33C63.29,92.48,61.68,91.64,63.19,90.86Z"/><path class="cls-1" d="M57.35,121.51c.07.74.14,1.47.22,2.21l-.46.06-.27-2.2Z"/><path class="cls-1" d="M50.9,80.13a2.52,2.52,0,0,1,1.68-1.82l.27.37Z"/><path class="cls-1" d="M31.87,117l-2-.13,0-.44h2Z"/><path class="cls-1" d="M31.7,120.25l.56-1.61,1.67,1.22-.08.26-1.74-.62-.44.71Z"/><path class="cls-1" d="M153.78,101.41c.87.33,1.06,1.46.36,2.61C154,103,153.89,102.25,153.78,101.41Z"/><path class="cls-1" d="M186.69,108.7,184,109l-.05-.45,2.74-.36Z"/><path class="cls-1" d="M143.36,100.59c.11.85.23,1.7.35,2.55l-.42,0c-.09-.85-.19-1.71-.29-2.56Z"/><path class="cls-1" d="M149.17,99.21c.62.05,1.24.09,1.84.18.08,0,.12.31.18.48-.2.06-.41.2-.58.17-.47-.12-.94-.3-1.4-.46Z"/><path class="cls-1" d="M155.33,100.88c.89.1,1,.5.71,2.28C155.78,102.33,155.56,101.64,155.33,100.88Z"/><path class="cls-1" d="M69.39,75.64l1.32.06c-.31,1.1-1.18.6-1.82.91l.55-1Z"/><path class="cls-1" d="M7.5,94.66c.18-.74.37-1.41.51-2.08a5.29,5.29,0,0,1,.23-1.49,1.62,1.62,0,0,1,1.14-.74c.27,0,.77.51.82.85.12.75.38,1.7-.88,1.88-.09,0-.13.45-.19.68l.34.27Z"/><path class="cls-1" d="M12.21,93.83,8.05,96.16c.13-.93.47-1.3,1.33-1.29.38,0,.76-.44,1.17-.64s1-.45,1.56-.67Z"/><path class="cls-1" d="M7.84,98.82l-2.56,1.51L5,99.89l2.62-1.32Z"/><path class="cls-1" d="M20.44,96.6c-1.16-.62-1.42-1.33-.83-2.13.15-.21.5-.28.75-.42.12.25.35.5.34.74A15.44,15.44,0,0,1,20.44,96.6Z"/><path class="cls-1" d="M18.74,92.45c0,1-.11,1.9-.16,2.85l-.6,0,.22-2.85Z"/><path class="cls-1" d="M18.16,103.05l-.36,2.15-.39-.06c-.19-.76-.48-1.53.28-2.18Z"/><path class="cls-1" d="M91.53,111.09c-.17,2-1.94,1.68-3.07,2.22-.12.06-.65-.34-.69-.58-.26-1.47-.34-3-.69-4.42A10.34,10.34,0,0,0,85.92,106c1.42-.56,2.85-1.12,4.27-1.7a1.92,1.92,0,0,0,1.28-2.8l.29-.13L93,103.57l.29-.14-.26-.68.28-.28c.08.22.17.43.24.65.52,1.57,1,3.15,1.56,4.72.26.77.38,1.31-.64,1.77-.5.22-.69,1.27-.87,2a12.52,12.52,0,0,0-.21,2.14l-.36,0-.64-3.23-.42,0v2.49h-.36C91.59,112.4,91.56,111.75,91.53,111.09Zm.21-4c-.09-.74-.17-1.46-.25-2.18l-.18,0c-.23.84-.46,1.67-.7,2.56Z"/><path class="cls-1" d="M94.64,52c.54,1.31.43,2-.63,2.32a3.32,3.32,0,0,0-1.33.93c-.75.81-1.42.85-2.18,0-.23-.24-.54-.39-.74-.76a1.43,1.43,0,0,1,.43.12c1.12.68,1.66.55,2.51-.5C93.25,53.49,93.87,52.87,94.64,52Z"/><path class="cls-1" d="M93.66,58.39c.55-1,2.63-2.31,3.66-2.22Z"/><path class="cls-1" d="M72,45.15l-2.58,4.26L69,49.14c.71-1.52,1.27-3.14,2.68-4.23Z"/><path class="cls-1" d="M74.74,57.14c0,.51,0,1,0,1.51,0,.2-.24.38-.37.57-.15-.19-.39-.37-.42-.57a4.59,4.59,0,0,1-.07-1.52c0-.29.36-.54.55-.81l.54.74Z"/><path class="cls-1" d="M74,66s-.26-.1-.28-.23a14.45,14.45,0,0,1-.19-2,1.11,1.11,0,0,1,.36-.74.67.67,0,0,1,.62.12,1.41,1.41,0,0,1,.09.86C74.4,64.69,74.17,65.31,74,66Z"/><path class="cls-1" d="M81.46,66.94a12.17,12.17,0,0,1-.13-1.74c0-.22.32-.48.56-.62s.48.18.51.33a1.55,1.55,0,0,1-.09,1A7.83,7.83,0,0,1,81.46,66.94Z"/><path class="cls-1" d="M81.89,60.66c-.14-.93-.27-1.87-.41-2.83.85.2.82.2.74,1.12,0,.55,0,1.12,0,1.68Z"/><path class="cls-1" d="M141.8,78.74c0-1.18,0-2.37,0-3.55,0-.13.47-.23.72-.35s.84-.28,1.06-.58,0-.72-.18-1c-.94-1.35-1-1.35.27-2.48.55-.5,1.13-1,1.85-1.57.16,2,.81,3.9-1.25,5.25-.86.57-1.77,1.25-1.3,2.68.15.44-.44,1.13-.69,1.71Z"/><path class="cls-1" d="M145.58,84.06l2.23-.7c.29,1.72-2,1.89-2.26,3.69l2.31-1.73.22.27a28.9,28.9,0,0,1-3.62,3,3.23,3.23,0,0,1-2.36-.25c-.56-.23-.24-.73.17-1.1,1.14-1,2.23-2.11,3.34-3.17Z"/><path class="cls-1" d="M145.4,58.94l.49.53c-.07.5-.1.89-.16,1.27a3.88,3.88,0,0,1-.34,1.54A3,3,0,0,1,144,63c-.09,0-.51-.39-.5-.59.05-.8-.52-1.71.42-2.37C144.44,59.73,144.89,59.34,145.4,58.94Z"/><path class="cls-1" d="M143.24,58.84a3.14,3.14,0,0,1-1.32-3.32.73.73,0,0,1,.6-.35c.35.15.92.42.92.66A25.31,25.31,0,0,1,143.24,58.84Z"/><path class="cls-1" d="M143.42,80.78a2.92,2.92,0,0,1-.33.74,1.8,1.8,0,0,0-.18,2.34,3.12,3.12,0,0,1,.14,1.06c-1.83-1-2-2-.66-3.26a12.18,12.18,0,0,1,1.05-.85Z"/><path class="cls-1" d="M143.22,65.72l-1,4a7.22,7.22,0,0,1-.48-2.61c.11-.53,1-.9,1.49-1.34Z"/><path class="cls-1" d="M143.44,80.81a7.91,7.91,0,0,1,2.63-3.49l.34.3-3,3.16Z"/><path class="cls-1" d="M147.2,80.56l1.38-2.38c.42,1.38.16,1.73-1.41,2.35Z"/><path class="cls-1" d="M143.11,62.62l-1.35,1.27V61.77Z"/><path class="cls-1" d="M132.07,68.18l6.37-1.25.1.56a21.33,21.33,0,0,1-6.46,1Z"/><path class="cls-1" d="M131.23,68.54c-1.43.4-2.86.83-4.38.23a.5.5,0,0,1-.25-.35c0-.11.14-.34.23-.34,1.47,0,2.93,0,4.4,0Z"/><path class="cls-1" d="M91.4,6.12c0,.92.1,1.85.14,2.77l.23.07c.19-.83.39-1.65.65-2.72l.11,1.83c.26-.68.4-1.06.62-1.65V7.64c.62-1.19.23-2.94,2.14-3.27,0,.6-1.65.74-.51,1.6l-.89.75,1.1.77c.17,1.81-.28,2.55-2,3.39a11.9,11.9,0,0,0-1.6,1.17l-1.67,1.22a2.93,2.93,0,0,1,.47-2.87c.42-.46.68-.89-.43-1.36,1.28,0,1.43-.62,1.46-1.4,0-.5.13-1,.19-1.5Z"/><path class="cls-1" d="M132.16,79.75c-.21.81.7,2-.83,2.28-.91.17-1-.56-1.08-1.06C130.16,79.65,131.41,80.09,132.16,79.75Z"/><path class="cls-1" d="M102.71,104.54a7.77,7.77,0,0,1-.17,1.38c-.18.57-.47,1.1.17,1.58a.38.38,0,0,1,.15.3,5.07,5.07,0,0,0,.35,3.13c.25.54-1.22,1.49-2.12,1.47s-.73-.8-.78-1.31c-.11-.88.33-1,1.06-.62.35.21.73.4,1.12.61l-.46-6.49Z"/><path class="cls-1" d="M152.93,85.89l2.1-1.84a2.48,2.48,0,0,1-1.89,2.07Z"/></g></g></svg>