<svg xmlns="http://www.w3.org/2000/svg" viewBox="0 0 246.8 130.36"><defs><style>.cls-1{fill:#151d31;}</style></defs><g id="Layer_2" data-name="Layer 2"><g id="Layer_1-2" data-name="Layer 1"><path class="cls-1" d="M236.18,40l3.13,1c0,2.26.14,4.45,0,6.61-.21,2.39-.72,4.75-1.09,7.13a32.84,32.84,0,0,0-.74,5q-.08,28.92,0,57.83a14.74,14.74,0,0,0,.15,1.47h9.24v.7H0l0-.52H8.17c.05-1.18.12-2,.12-2.73,0-9.52.12-19-.07-28.56a31,31,0,0,1,1.07-8.46c.58-2.3.15-4.88,0-7.33,0-.7-.81-1.35-1.28-2.08L6.47,49.49H10l.53,2.17.67.29,1.42-3h2.93l1.22,2.73,1.48-2.78c.31,0,1.08,0,1.85-.11,1.48-.16,2.22.31,2.15,2,0,.68.56,1.38.86,2.07.27-.73.55-1.45.79-2.18.12-.36.16-.75.27-1.25h3c.84,6-.73,12.08,1.18,18.23l1-2.17,1,2.09L31,64.76h.58l.6,3.29,1.17-2.67.8,2.22.42,0L35,64.85l.55-.09.5,2.81.39,0,.79-2.21L38.41,68,39,64.82l.54,0,.69,3.07,1.12-2.22,1.2,2.43.58-3.23.52,0,.61,3.37,1.12-2.6,1.11,2.3.62-3,.46-.06c.23.94.46,1.89.83,3.37l1.12-2.64L50.71,68l.51-3.16.54-.07.56,2.84.71,0V49.47h3.12A18.5,18.5,0,0,0,56.33,52c.08.35.52.62.8.92A6.4,6.4,0,0,0,58,52a1.06,1.06,0,0,0,0-.71c-.36-2.11.69-2.71,2.58-2.45.54.08,1.09.09,1.39.11l1.49,2.79L64.7,49l2.81-.14L69,51.74l1.62-2.29h2.61c0,4.72.11,9.34-.06,13.95,0,1.54-.87,3-1.23,4.57-.41,1.71.55,2.53,2.12,2.57,4.42.09,8.85.1,13.28.1,3.11,0,6.25-.38,9.31,0,2.64.34,2.8-1.23,3-2.84.19-1.9,0-3.83,0-5.79l-2.16-.46L97.23,61a19.86,19.86,0,0,1,3-1.77c4.27-1.58,8.5-3.44,12.92-4.43,4-.9,5.17-3.58,6.17-6.91.77,1.77,1.42,3.51,2.3,5.13.27.51,1.13.79,1.77,1,3.89,1.25,7.79,2.42,11.68,3.68,1,.34,2,.88,3.38,1.48,0-5.69-.09-11,0-16.34.05-2.15.67-4.28.86-6.43A13.91,13.91,0,0,0,137.7,28c-2.45-4.18-.89-8.63-.92-13,1.64,4.57-1,10,3.18,14.23-.31-2.25-.6-4.3-.89-6.35l.85-.15c.55,2.39,1.11,4.78,1.66,7.16l.59-.09c-.1-1.25-.25-2.49-.3-3.74s0-2.45,0-3.67l.72-.07.84,7.39.94,0V22l.94-.05c.1.91.23,1.82.27,2.73a27.39,27.39,0,0,0,.05,2.87,9.6,9.6,0,0,0,.84,2.1,8.55,8.55,0,0,0,.73-2.21c.11-1.82,0-3.66,0-5.49H148c.32,2.56.63,5.12,1,7.67a10.07,10.07,0,0,0,1.19,0V22l.92,0v7.75l1.14.06q.42-3.71.85-7.43l.52.06v7.3l.46.15q.84-3.51,1.66-7l.65,0L156,28.28l.63.1c.35-2.13.83-4.24,1-6.38a42.59,42.59,0,0,0,0-5.76c0-.39-.52-.76-.8-1.14-.27.39-.73.76-.78,1.18a21.45,21.45,0,0,0,0,2.78l-.83.08c-.15-1.6-.31-3.19-.52-5.27-2.41,1.94-.3,4.73-2.17,7-.1-1.89-.16-3.19-.24-4.48s.51-2.83-1.62-3.06c-.21,0-.44-.94-.46-1.45-.06-1.5,0-3,0-4.54-1.51-.49-2.14-.08-2,1.36.18,1.68.05,3.12-2.41,2.75v6.1l-2.52.18-.45-3.41-.8-.09-.6,4.8-.57.05c-.16-1.3-.31-2.6-.47-3.9l-.76-.22c-.29,1.36-.57,2.72-.85,4.08l-.38,0V14.25c5.46-1.44,5.46-1.44,6.28,1.81V10.72l2.3-.72c.57-3.37,1.13-6.66,1.69-10l.5,0c.06,1.18.12,2.36.17,3.54,0,.64-.15,1.73.1,1.85,3.32,1.46,1.22,4.45,2.1,6.85l7.28,2.06c-.39,4.6,1,9.39-1.25,14.12-.93,2-1.7,4.56-1.3,6.63,2.27,11.59.32,23.27,1.05,34.87a2.24,2.24,0,0,0,.19.52l2.41.31-.59,1.75.77.4,1.11-2.3c4.1,0,8.57-.18,13,.08,1.85.12,2-.53,2-1.93-.05-1.69-.29-3.49,2.15-4.13l.81,2.73a23.24,23.24,0,0,1,0-3c.06-.38.49-.7.75-1.05l.6.49.34-1.91.55,0c.1.52.24,1,.3,1.56a3.89,3.89,0,0,0,.48,1.87l.31-5.07h.71c.14,1.24.29,2.49.43,3.73h.49V58.19h4.6l.4,2.65.5,0v-2h23.61c0,.58-.05,1.13-.11,2.29.77-.65,1.5-1,1.48-1.31a13.67,13.67,0,0,0-.77-2.64c2.42-.93.19-3.17-.22-3.69-1.6-2-1-4.13-1.1-6.21s0-3.93,0-6.35l5.05-3.24.53.56c-.11.56-.21,1.11-.35,1.82h5c-.24-1.17-.46-2.22-.7-3.4h4.64c-.21,1-.41,1.88-.65,3h5.41c-.06-.71-.12-1.35-.19-2.13h3l2,2.52-1.92,5.12-.62-.11-.34-6.45-.74,0v5.13h-2.65c-.17-1.07-.33-2-.49-3l-.66,0-.59,2h-3.12c-.08-1.63-.18-3.37-.27-5.12h-.93V44H221.2c-.28-1-.52-1.93-.76-2.82l-.73.17a18.09,18.09,0,0,0-.09,2.08c.06,1.18-.31,1.75-1.61,1.76s-1.63-.66-1.59-1.79,0-2.41,0-3.61l-.75,0c-.18,1.46-.35,2.92-.53,4.38l-.54-.07-.54-2.21-.3.09V52l2.82-.76c.08-1.34.15-2.37.21-3.4h.58l.69,3,.36-.12.29-3.26.6,0,.58,3.06.33-.09c.08-1.14.16-2.29.25-3.43h.6l.72,3.32.63-.08V46.23c1.48,1.32-.18,3.89,2.34,4,1.23.05,2.78.18,3.63-.46s.63-2.15.9-3.28l.6.08v3.65l.49,0,.65-3.36.61.07v3.52l.61.07c.23-1.08.45-2.15.68-3.23l.61.07v3.32l.56.07.72-3,.56,0c.07,1.14.14,2.27.22,3.53l3,.63c-1.49-4,1.64-8.11-2.24-11.29C236.24,40.54,236.24,40.22,236.18,40ZM39.72,95.57a2.83,2.83,0,0,1,.9.16c3.56,2.15,7.11,4.32,10.66,6.48a7.25,7.25,0,0,0-2.56-2.8c-2.64-1.59-5.37-3-8.11-4.5-.2-.11-.69.33-1,.51-3.25,2.11-7.35,2.86-10.46,6.49,3.08-1.54,5.58-2.69,8-4A16.68,16.68,0,0,0,39.72,95.57ZM152.54,79.11v12l3.27.67a2.47,2.47,0,0,0,.22-.58q0-25.68.05-51.35c0-1.32-.54-1.79-1.75-2.06a31.37,31.37,0,0,0-12.62-.13c-1.62.29-2.26.9-2.21,2.65.13,4.72,0,9.44.06,14.16,0,2.41-.88,5.12,2.31,6.88l-2.75.8c0,2.92,0,5.71,0,8.51,0,1.63-.25,3.25,1.67,4.08h-12.6C135.48,75.36,144.31,75.62,152.54,79.11Zm-8.35,26.17c.2-.86.32-1.57.53-2.24.47-1.54,1.23-2.81,3.08-2.86a3.45,3.45,0,0,1,3.61,2.6,13.55,13.55,0,0,1,.52,3.76c.07,4.06,0,8.11,0,12.26h3.25c0-6.85,0-13.55,0-20.25,0-.39-.2-.78-.23-1.17-.12-1.66-1-2.33-2.64-2.43-5.59-.33-11.16-.89-16.74-1.11a359,359,0,0,0-48.86,1.07c-1.87.19-2.87,1-2.88,2.76-.06,7,0,14,0,21.16H87c0-4.18-.06-8.24,0-12.3a8.39,8.39,0,0,1,.77-4.14,4.73,4.73,0,0,1,3.35-2c1,0,2.1,1.34,2.87,2.31a6.23,6.23,0,0,1,.61,2.45c2.78.47,2.78.47,3.7-2.08a5.28,5.28,0,0,1,5.23-3.8,4.8,4.8,0,0,1,5.07,3.9c.49,2.3,1.6,2.58,3.46,2,.79-4.2,3.38-6.4,7.43-6.38s6.53,2.17,7.38,6.46h2.86c.62-3.09,1.68-5.85,5.42-6,4.08-.17,5.33,2.77,6.12,6.06ZM29.85,118.77H50.8c-.93-4.59,1.62-9.4-2.36-13.53l3.19-.48c-2.71-4.39-8-4.5-11.33-7.8-3.24,3.31-8.65,3.36-11.31,7.8l3.19.49C28.21,109.45,30.76,114.24,29.85,118.77Zm149.71.06V94.69H157.37v24.14ZM72.13,93.64v25.15h10c.29-9.07.58-18,.86-26.87l3.48-1V80.65H72.09v9.43l3.07-2v8.21C72.18,97.34,72.32,95.27,72.13,93.64Zm-47.49-.83H9.5v25.66c.85-4.51-.71-9.5,2.8-13.72,3.36,4.47,1.76,9.51,2.49,14.09h4.79c.78-4.67-1-9.72,2.53-14.16a7.28,7.28,0,0,1,1.16,2c.57,3.84,1,7.68,1.37,10.19Zm33.72,11.85c3.5,4.51,1.77,9.63,2.54,14.09h4.87c.67-4.73-1.1-9.71,2.6-14.17a11.16,11.16,0,0,1,1.29,2.71c.46,3.61.78,7.24,1.1,10.36V92.83H55.63v25.58C56.29,113.91,55.13,109.12,58.36,104.66Zm127.19-39.9V91.85h4.86V71.08a28.46,28.46,0,0,1,3.5-.53q7.31-.21,14.61-.28c5.93,0,5.9,0,5.84,6,0,4.78,0,9.55,0,14.33h.15V64.76Zm-28.24,28.6h22.27V75.81H157.31ZM26.12,118.85l.76,0c.05-.75.14-1.5.14-2.25,0-3.12.2-6.25,0-9.35-.38-4.88,2-7.81,6.12-9.82,2.48-1.22,4.88-2.6,7.28-3.89a55.4,55.4,0,0,0,5.79,3.23c5.23,2.19,8.09,5.63,7.47,11.64a102.22,102.22,0,0,0-.06,10.36h.61V92.83H26.12ZM221.74,92.33v26.45h8.73V92.33Zm-91.17,26.5h9.37c0-3.37,0-6.62,0-9.86,0-1.19-.45-2.42-.26-3.55a3.77,3.77,0,0,0-2-4.37,6.1,6.1,0,0,0-4.43,0,3.73,3.73,0,0,0-2,4.37,11,11,0,0,1,.16,2.74C131.17,111.63,130.87,115.12,130.57,118.83ZM54.88,50.49h-.6V63.94c3.09.36,5-.57,4.52-4.42l.67.49L60,63.06l.41,0,.45-3.48.57,0,.47,3.37h.4l.5-3.81.59.05.42,3.69h.45l.49-3.3.61.07.32,3.33.38,0L66.63,60h.56l.42,3.28,4.36.84V50.48l-.9-.06v9.42l-1.07,0v-7a5.85,5.85,0,0,0-1.31.1c-.34,1.6-.63,3.2-.92,4.81h-.63V50L66,49.82a6.43,6.43,0,0,0-.38,1.83c.11,1.51.38,3,.59,4.5l-1,.07-.33-3.17H62.72c-.13,1.48-.24,2.75-.35,4l-1,0c0-1.84,0-3.68,0-5.52,0-1.62-.64-2-2.12-1.34-.07,1.24.25,3.29-.29,3.55-1.7.81-1.12,2.07-1.19,3.2s0,2.42,0,3.63c-2.35-1.94.69-5.47-2.92-6.94Zm53.51,68.38c-.44-3.81-.87-7.35-1.24-10.88a4.4,4.4,0,0,1,.14-2.41c1.2-2.07,0-3.64-1.4-4.38a6,6,0,0,0-4.63-.15,3.55,3.55,0,0,0-2,4.38,9.76,9.76,0,0,1,.08,2.86c-.21,3.5-.47,7-.72,10.58ZM14.94,56.14l-.72,0c0-1.35,0-2.71,0-4,0-.65.26-1.28.34-1.92a3.24,3.24,0,0,0-.8-.2,6.29,6.29,0,0,0-.55,1.88c-.06,2,0,4,0,6.43-2.11-1.8.25-4.64-3.05-5.69v7.25l-.83,0L9,50.44l-.7.09V63.85c3.41.64,4.53-1.15,4.51-4.26l.61.44.46,3h.38l.55-3.49.6.08.38,3.32h.38L16.63,59l.66,0,.4,3.69.42,0,.5-3.2.55,0,.48,3.38H20L20.43,60l.68,0,.37,3.24,4.44.89V50.46h-.7l-.16,3.29c-3.23,1.58-.27,4.92-2.08,6.92-1.83-2,1.21-5.48-2.14-7V50c-2.06,0-2.07,0-2.12,1.65,0,1.78-.07,3.56-.1,5.33l-.86,0-.31-4H15.24ZM123.29,72.9l14.65.7L138,73l-4.68-.73c-.76-3-.22-5.49,2.17-7.53l2.4,2.68V61h-.19l-.57,2.67-.48-.07-.51-2.81-.32,0c-.12.94-.25,1.88-.37,2.81h-.56l-.43-2.93-.37,0c-.17,1-.33,1.93-.5,2.9l-.53-.07c-.16-.89-.32-1.79-.56-3.11l-.65,3.18-.5-.07-.48-2.8-.3.07-.45,2.81-.5,0-.51-2.86-.36,0-.42,2.8h-.57l-.43-2.78h-.24l-.42,2.77h-.59l-.48-2.76-.31,0-.49,2.85-.53-.09-.38-2.82h-.39c-.17,1-.34,1.93-.5,2.9l-.52-.06-.56-3.24c-.26,1.48-.43,2.4-.59,3.32l-.51,0-.54-2.42-.58.17c.37,1.05.5,2.78,1.15,3,2.4.82,2.61,2.46,2.46,4.52C123.22,70.18,123.29,71.45,123.29,72.9ZM101.37,61l-.41,0v6.58l2.44-2.78c2.72,3.21,3,4.25,2,7.59l-4.55.66,0,.63,14.58-.71a43.69,43.69,0,0,1,.07-5.4c.11-.87.72-2.16,1.41-2.4,2.26-.77,2-2.24,1.63-4.27l-.49,2.85-.57,0-.35-2.86-.35,0-.59,2.89-.52,0-.42-2.78h-.25c-.15.94-.3,1.89-.44,2.83a2.33,2.33,0,0,1-.85-1.51c-.1-.44-.2-.88-.41-1.88-.27,1.55-.44,2.47-.6,3.4l-.5-.05-.37-2.84-.37,0-.56,2.9-.52,0L110,60.82h-.25l-.44,2.86h-.55c-.21-1-.41-1.9-.74-3.39-.23,1.52-.38,2.45-.53,3.39l-.49,0-.51-2.89-.38.06-.41,2.79h-.57l-.42-2.79-.24,0c-.16,1-.31,1.91-.46,2.87h-.54l-.73-3.31c-.24,1.45-.39,2.38-.54,3.32l-.54,0Zm90.18,52.14h21.28V99.48H191.55ZM215.93,93v25.76h4.4V92.36Zm20.28,25.83V93l-4.33-.61v26.43Zm-46,0V93.22h-4.65v25.65Zm31.42-43.32c3-2.2,5.92-2.28,8.95,0,0-6.21,0-12,0-17.69,0-.5-.68-1.4-1.09-1.42-2.58-.13-5.17-.07-7.81-.07ZM220.37,91.1V68.85l-4.45,2.83V91.84ZM231.76,69V91.16l4.51.62V71.65Zm-18.85,6.6c-6.74-1.17-20-.43-21.16,1.3l3.73-.55c0,2.56-.17,4.93.05,7.27.24,2.55-.95,3.25-3.17,3.09a3.42,3.42,0,0,0-.7.12l.05.33h21.2Zm-28.71-10c-2.63,1.23-3.56,2.81-3.46,5.44.23,6.23.07,12.47.08,18.7V93l.74.45c.88-.8,2.51-1.59,2.52-2.41C184.27,82.69,184.2,74.31,184.2,65.66Zm-.09,27.93c-2.46.26-3.61,1.15-3.35,3.68s.05,5.1.05,7.65v13.87h3.3ZM93.65,77.78h51.77A133.23,133.23,0,0,0,93.65,77.78Zm-74,11.85c-2.05,0-4.33.65-5.2-.17s-.67-3.19-.94-5.06l-4,.73v6.29H24.59V85l-5-.73Zm36-4.53v6.32h15V85.05L66,84.29l-.39,5.58c-1.93-.09-4.2.45-5.08-.42s-.65-3.2-.92-5.06ZM32.06,87.85H26v3.61H54.31V87.67H50.39L50,90.13H32.5ZM49,89.06V85H33.48v4.08Zm5.6-19.53-.27-.6H25.87l-.22.69c.94.41,1.87,1.16,2.81,1.17q11.74.13,23.47,0C52.82,70.77,53.7,70,54.59,69.53ZM230.33,91c.87-5.06.4-13.95-.68-14.51,0,2,0,4,0,6.08-.09,4.68,1.11,4.46-4.76,4.44a2.06,2.06,0,0,1-.94-.08c-.37-.22-.92-.6-.93-.91,0-3.34,0-6.68.06-10l-1.4.47V91ZM92.55,101.7H91.28c-2.34,5.56-.69,11.4-1.22,17.27l3.26-.15C93.26,112.91,93.58,107.26,92.55,101.7Zm118,12.53H197.4v4.57h13.1ZM185.11,63.45c9.81,0,19,0,28.3,0,.38,0,.76-.54,1.15-.83-.41-.26-.8-.74-1.21-.74-3.42,0-6.84,0-10.27,0-5,0-10,0-15.09,0l-.49-2.86C183.89,59,186,61.7,185.11,63.45Zm-62,21.86c0-2.56,1-5.33-2-6.77a4.66,4.66,0,0,0-3.7.26c-2.79,1.53-1.47,4.21-1.7,6.51Zm24.58,16.43-1.19-.13a23.53,23.53,0,0,0-.82,3.23,37.47,37.47,0,0,0,0,3.82c0,3.38,0,6.77,0,10.21.66,0,1.05.09,1.44.08s.91-.07,1.7-.14C148.25,113,149.85,107.25,147.69,101.74Zm-31.88,6.4h7.29c0,3.28,0,6.38,0,9.48,0,.44.42.87.65,1.3.27-.38.77-.77.78-1.16.06-3.42,0-6.84,0-10.37H114.2c0,3.45,0,6.72,0,10,0,.52.45,1,.69,1.53.3-.54.83-1.07.85-1.61C115.85,114.27,115.81,111.25,115.81,108.14Zm-87-21.75c0-3.56.1-6.91-.07-10.24A2.85,2.85,0,0,0,27.29,74a2.49,2.49,0,0,0-2.13,1.22,15,15,0,0,0-.13,5,63.47,63.47,0,0,0,1.47,6.2Zm21.36-.15h3.95c0-3.32.15-6.5-.1-9.65-.07-1-1.25-1.82-1.93-2.74-.64.88-1.76,1.71-1.83,2.62C50.07,79.64,50.21,82.83,50.21,86.24Zm75.64,22.27v10.32h3.77V108.51ZM224,85.61h4.52a63.78,63.78,0,0,0-.1-7.22,2.2,2.2,0,0,0-4.32-.07A62.63,62.63,0,0,0,224,85.61ZM30,86.36c.71,0,1.53.21,1.71,0,.83-1.16,1.9-2.39,2.11-3.72a25,25,0,0,0,0-6.69c-.09-.76-1.24-1.39-1.91-2.08-.63.71-1.77,1.38-1.81,2.12C29.88,79.37,30,82.8,30,86.36Zm79.36,22.12v10.3h3.57v-10.3ZM209.87,89.64v1H197.14v1.3c4.4.18,8.81.09,13.2.06V88.27c-4.09,0-8,0-11.91,0-.47,0-.93.46-1.4.71l.22.63ZM39.5,74c1.49-1.39,2.94-1.89,4.56-.49a1,1,0,0,0,1,.07c1.67-1.52,3.19-.95,4.72.39,1.38-1.41,3.08-2,4.35-.38.94,1.21,1.15,3,1.74,4.67a27.61,27.61,0,0,0-.08-4.67A2.48,2.48,0,0,0,54,72c-9.28-.1-18.55-.09-27.82,0-.59,0-1.17.55-1.7.82l5.52.6c.88-.83,2.32-1.24,4,.13a1.22,1.22,0,0,0,1.14-.13C36.68,72.16,38.05,72.59,39.5,74ZM39,83.47a67.63,67.63,0,0,0-.1-7.42c-.08-.8-1.28-1.48-2-2.21-.62.72-1.72,1.39-1.79,2.16-.24,2.42-.09,4.88-.09,7.47Zm158.2-9.37h13.38l-.13-2.53H197.16Zm-148,9.43a66.61,66.61,0,0,0-.1-7.4c-.09-.83-1.25-1.55-1.93-2.31-.65.71-1.79,1.37-1.86,2.13-.24,2.49-.09,5-.09,7.58ZM63.07,69.11c-1.06,2.47-2.1,4.47-2.76,6.6-.85,2.7.92,4.5,2.64,6.16,1.86-1.64,3.31-3.58,2.57-6.23C64.94,73.56,64,71.58,63.07,69.11ZM16.78,81.79c5.41-4,1.61-8.11.15-12.71-1,2.47-2.08,4.48-2.75,6.61C13.33,78.42,15.14,80.2,16.78,81.79ZM94.56,108.5v10.34h3.07V108.5Zm46.58,0v10.33h3.07V108.46ZM44,83.49c0-2.57.14-5-.09-7.45-.07-.78-1.12-1.46-1.73-2.19-.69.72-1.91,1.39-2,2.18a68.22,68.22,0,0,0-.1,7.46Zm26.05-7.86c3.69,1.45,32.24.51,41.79-1.32-4.58.22-9.14.91-13.71,1-8.53.19-17.07,0-25.61,0C71.88,75.35,71.24,75.49,70.05,75.63ZM197.4,97.71h13V93.3h-13ZM217.32,60l1.05.09L219.69,68l.61-.15V56.77c-4.93.55-5-.34-4.29,5.92Zm14.32-3.26v11.1l.68,0c.92-2.5-.39-5.68,2.82-7.82.42,2.49.84,5,1.21,7.14V63.38c0-.64,0-1.28,0-1.91C236.32,57.24,236.32,57.24,231.64,56.74ZM59.16,107.22l-1.53,0L57,118.82h2.82C59.57,114.87,59.36,111.05,59.16,107.22ZM25,84.11c-.61-1.94-1.35-3.33-1.44-4.77-.16-2.52.1-5.06.15-7.59a9.19,9.19,0,0,0-.25-1.63,10.41,10.41,0,0,0-1.07,1.14,6.24,6.24,0,0,0-1.24,2.2c-.29,1.88-.88,4-.32,5.66S23.24,82.07,25,84.11ZM133.21,59.46l.07-.63c-9.27-.56-18.54-.71-27.81.63h27.74ZM13,107.24l-1.55,0-.62,11.59h2.77C13.38,114.83,13.19,111,13,107.24Zm56.45,11.59c-.4-4.09.74-8-1.06-11.65l-.94,0-.6,11.67Zm-47.38-12c-2,4.12-.92,8.08-1.2,12.67,1.11-.63,2.29-1,2.29-1.34C23.09,114.46,23.94,110.68,22.06,106.79Zm93.22-2h8.3c-.58-2.29-2.2-3.6-4.31-3.38C117.34,101.58,115.54,102.17,115.28,104.75ZM88.67,78.31l-.13-.66H70.8a5,5,0,0,0,0,1c.05.19.27.5.42.5,4.47.07,8.94.19,13.41.1A18.89,18.89,0,0,0,88.67,78.31Zm34.42,8.32h-7.22v3h7.22Zm1.25-1.23h6V81.82h-6Zm-15.76-3.63v3.59h5.81V81.77ZM70.33,70.41,69.6,70a21.24,21.24,0,0,0-2.72,4c-1.75,4.33,2,6.69,3.89,9.76C69.44,79.3,68.41,74.92,70.33,70.41ZM9,83.83c4.43-4.48,5.71-8.81,1.36-13.68A19.69,19.69,0,0,1,9,83.83Zm98.27-1.73h-5.37v3.8l5.37-.28Zm-52,1.5c1.42-1.64,2.58-3,3.71-4.31a1.55,1.55,0,0,0,.25-.65c.69-3.27-.86-5.87-2.66-8.47A21,21,0,0,1,55.25,83.6ZM196,118.82v-4.5c-4.71.19-5,.53-4.19,4.5ZM137,85.68V82h-5.21v3.66Zm1.54-3.42V85.9l4.32.31C143.59,82.14,143.31,81.89,138.52,82.26Zm-38.08,3.63V82.05l-4.56.3v3.88Zm23.94,3.82h5.89V86.77h-5.89ZM101.84,87v3.17l5.29-.26V87Zm12.64-.08h-6.11c0,1.13.09,2,.13,2.79h6ZM131.72,90H137V87h-5.29ZM236.14,53a32.87,32.87,0,0,0-20.59,0A57.22,57.22,0,0,1,236.14,53Zm-86.37,65.71,1.15,0c-.57-5.6,1.12-11.35-1.15-16.81ZM89.21,102.27c-1.28,1.61-1.87,14.26,0,16.53Zm5.32-19.62c-4.12-.23-4.46.17-3.5,4l3.5-.37Zm-84.69-17H24.38A21.19,21.19,0,0,0,9.84,65.62Zm138.33-34.7c1.28,3.82,2.76,5.29,5.16,5.23C153,33,150.83,30.72,148.17,30.92ZM70.25,65.63l0-.62a25,25,0,0,0-14.41.62Zm-9,23h3.29V84.34H61.23Zm-46.17,0h3.31V84.36H15.06ZM191.76,92l4.13-.2V88.27l-4.13.59Zm-47.38-9.59v3.88l3.64.28V82.76Zm47.23,10.84v5.34L196,98V93.28Zm-91.17-3.17V87.05l-4.56.35v2.71Zm42.59,0c.18-3.15-.11-3.31-4.51-2.77v2.77Zm36.62-17.75c-.49.42-1.09,1.39-1.72,1.4-6.51.11-13,.07-19.47.07l-.69-2-.4.06v2.51h22.28ZM120,111.86a5.32,5.32,0,0,0,0,1.65,6.6,6.6,0,0,0,1,1.52c.33-.52.85-1,.94-1.56a11.28,11.28,0,0,0,0-3.07c-.06-.49-.55-.91-.85-1.37a6.79,6.79,0,0,0-1.06,1.43A3.62,3.62,0,0,0,120,111.86Zm24.44-80.7c1,1.68,1.84,3.15,2.8,4.8l2.37-.2c-1.14-1.82-2.09-3.32-3.15-5Zm88.76,24.45.55-.51c-.43-.44-.8-1.17-1.29-1.27a25.08,25.08,0,0,0-4.49-.49c-.43,0-.87.56-1.3.87.44.31.85.82,1.33.89C229.7,55.35,231.45,55.46,233.18,55.61ZM94.43,87.44l-3.63.45a9.37,9.37,0,0,0-.13,1.32,10.85,10.85,0,0,0,.21,1.31C94.66,90.75,94.74,90.69,94.43,87.44Zm130.79-34c-4.45-.52-6.49.13-6.28,2C225.24,55.28,225.24,55.28,225.22,53.48Zm-29.4,20.77V71.39l-4.21.65.14,2.7Zm-76.94,37.92a5.46,5.46,0,0,0,0-1.67,6.44,6.44,0,0,0-1-1.46c-.33.5-.85,1-.93,1.52a11.49,11.49,0,0,0,0,3.1c.06.49.56.91.86,1.37a7.45,7.45,0,0,0,1-1.44A3.94,3.94,0,0,0,118.88,112.17ZM148,87.84l-3.66-.36v3l3.66.18ZM51.83,118.7h.41V108.61h-.41Zm-23.56-.08.39,0v-9.91h-.39Zm117.28-82.8c-1-3.4-2.5-4.8-4.2-4,.83,1.38,1.66,2.77,2.59,4.3ZM121.21,70.24A25.36,25.36,0,0,0,120,67c-.09-.17-1.32-.07-1.4.15a20.82,20.82,0,0,0-.73,3.06ZM15.62,83l.29-.7c-.88-.58-1.86-1.72-2.61-1.58S11.78,82.17,11,83l.5.57Zm198.8,34.49h.13v-18h-.13Zm-151-34.6,5,.51.39-.71c-.88-.71-1.69-1.81-2.67-2C65.57,80.6,64.7,81.85,63.46,82.9ZM61.65,83l.42-.74c-.89-.56-1.89-1.69-2.66-1.55S57.92,82.2,57.18,83l.51.53Zm-39.49.41.55-.7c-.87-.72-1.67-1.81-2.65-2-.59-.12-1.47,1.14-2.65,2.16Zm102.1-3H130C127.28,77.57,127.28,77.57,124.26,80.46Zm-9.64.05c-3.14-3.13-3.27-3.13-5.52,0ZM58.33,68.43c4.07.14,4.07.14,4.11-2.07C61.09,67.14,59,65.54,58.33,68.43ZM12.14,68l.47.57a15.12,15.12,0,0,0,3-.31c.34-.1.46-1,.68-1.51a16.16,16.16,0,0,0-3,0C12.85,66.84,12.52,67.59,12.14,68ZM87.87,87.22c2.92-.69,1.29-2.69,1.61-4.14C87.48,83.57,87.48,83.57,87.87,87.22Zm61.62-4.14c-.55,3.48-.5,3.59,1.49,3.86C151.48,83.72,151.48,83.72,149.49,83.08ZM18.87,69.55l-.69.74,2,2.24,1.7-2.77Zm46,0-.54.62,1.85,2.32,2-2.75ZM193.33,85.34H194V77.85h-.65ZM15.44,70.05l-.54-.52-3.4.59,2.44,2.4Zm46.18.16-1-1-2.11,1.68,1.4,1.63Zm75.17,10.7c-2.58-3-2.58-3-4.69-.27ZM67.27,69C67.84,66,66,66.7,65,66.59c-.39,0-.84.54-1.27.84Zm-49.78-2.7c.46,3.12,2.43,1.76,3.94,2.24C21.17,65.66,19.19,66.91,17.49,66.32Zm84.83,14.55,4.1-.21L104.64,78ZM121.25,116l-.73.06a4.41,4.41,0,0,0-.48,1.65c0,.45.58.85.89,1.28a5.66,5.66,0,0,0,1-1.67C122,116.9,121.49,116.4,121.25,116Zm31-84.61,2.61,3.88C154.78,33.12,155.71,31,152.27,31.35ZM117,54.67c.17,1,.29,1.7.49,2.86.35-1.17.55-1.85.93-3.17l1,3.35c.42-1.47.69-2.41,1-3.64Z"/><ellipse class="cls-1" cx="123.41" cy="130.12" rx="174.49" ry="0.34"/><path class="cls-1" d="M229.14,123.27H17.66v-.55H229.13Z"/><path class="cls-1" d="M189.72,126.78H57.08v-.39H189.75Z"/><path class="cls-1" d="M147.33,73.83h-6.14c0-2.47-.33-4.9.13-7.17.25-1.21,1.86-2.15,2.86-3.22,1,1.09,2.72,2,3,3.3C147.69,68.92,147.33,71.3,147.33,73.83Zm-1.55-7.14v5.66a11.82,11.82,0,0,0,.38-5.22c-.17-.87-1.31-1.55-2-2.31-.62.76-1.64,1.45-1.78,2.29a31.41,31.41,0,0,0-.09,5.23h.63V66.69Z"/><path class="cls-1" d="M167.3,115.47c-8.17.74-8.12.74-8.2-6.73,0-1.54-1.08-3.21-.75-4.6a8.15,8.15,0,0,1,2.81-4.38,3.89,3.89,0,0,1,5.25.71c1.26,1.39,3,2.78,1.06,5.21-.75.95-.16,2.95-.17,4.46Zm-7.79-11.56h7.67c-.7-2.19-1.85-3.62-4.08-3.59C161.07,100.35,160,101.64,159.51,103.91Zm.85,10.52h2.28v-4.89h-2.28Zm3.65.11c3.48.21,2-2.27,2.19-3.61.3-1.76-.91-1.6-2.19-1.35Zm-3.94-9.28a18.57,18.57,0,0,0,.73,2.94,2.12,2.12,0,0,0,1.49,0,18.52,18.52,0,0,0,.57-2.91Zm4,3.26c.87-.32,1.87-.39,2.06-.82a6.38,6.38,0,0,0,.08-2.44H164Z"/><path class="cls-1" d="M177.35,101.72a7.63,7.63,0,0,1-1,.17c-5.75.33-6.34-.39-5.14-6.31.44,0,.91-.1,1.37-.1,1.51,0,3,0,4.76,0Zm-5.19-1.06h4.19v-4h-4.19Z"/><path class="cls-1" d="M171.18,102.73h7.06V95.62l.91-.06c.07,1.21.2,2.41.2,3.61,0,4.56,0,4.56-4.53,4.55h-3.65Z"/><path class="cls-1" d="M74,117.63c0-2.3.06-4.27,0-6.24,0-1.07-.66-2.15-.52-3.16.18-1.24.56-2.93,1.43-3.46a4.88,4.88,0,0,1,4.1-.23,4.75,4.75,0,0,1,2,3.47c.14,2.29-.56,4.63-.51,6.95,0,2.05-.47,3-2.65,2.7A30.58,30.58,0,0,0,74,117.63Zm.42-11,.37.64h4.75l.3-.65c-.91-.54-1.83-1.49-2.75-1.5S75.31,106.08,74.42,106.62Zm.68,7.45a6,6,0,0,0,0,1.41,4,4,0,0,0,.65,1c.27-.37.73-.72.79-1.12a10.69,10.69,0,0,0,0-2.59c0-.36-.42-.69-.65-1a5.35,5.35,0,0,0-.8,1.12A3.5,3.5,0,0,0,75.1,114.07Zm2.81,2.49,1.28-.09c0-1.28,0-2.57,0-3.86,0-.28-.38-.58-.66-.78-.08-.07-.56.15-.56.24C77.89,113.57,77.91,115.06,77.91,116.56Z"/><path class="cls-1" d="M79.51,86.46c2-.75,3.09-.48,2.91,1.82-.11,1.43.1,2.88-.09,4.29A1.93,1.93,0,0,1,81,93.88a1.91,1.91,0,0,1-1.4-1.27C79.42,90.57,79.51,88.51,79.51,86.46Z"/><path class="cls-1" d="M76,91.39a12.89,12.89,0,0,1,.06-2.85,1.81,1.81,0,0,1,1.36-1.07c.49,0,1.34.65,1.38,1.07a26.12,26.12,0,0,1,0,5.23c-.07.56-1,1-1.51,1.53-.43-.51-1.07-1-1.24-1.54a8.91,8.91,0,0,1,0-2.37Z"/><path class="cls-1" d="M166,89.91c-.4.27-.45.34-.52.35-6.19.76-6.19.76-6.18-5.38V83.21c0-3,1-4.29,3.43-4.28S166,80.15,166,83.31Zm-1.11-.72c0-2.58.14-5.18-.11-7.74-.05-.53-1.55-1.28-2.37-1.26a2.49,2.49,0,0,0-1.84,1.61c-.22,2.41-.09,4.86-.09,7.39Z"/><path class="cls-1" d="M171,90.38c0-3.26-.19-6.27.07-9.25.15-1.8,1.84-2.26,3.46-2.15s3,.69,3.1,2.61c.08,2.46.1,4.93-.05,7.39a2,2,0,0,1-1.37,1.34C174.54,90.49,172.88,90.38,171,90.38Zm5.52-1.21a60.38,60.38,0,0,0-.1-7.18,2.15,2.15,0,0,0-4.24,0,63.25,63.25,0,0,0-.1,7.18Z"/><path class="cls-1" d="M222.94,115.11c0-2.93,0-5.69,0-8.45,0-3,1-4.33,3.41-4.28s3.3,1.31,3.3,4.18v8.55Zm5.57-2.4a72.13,72.13,0,0,0-.1-7.41,2.72,2.72,0,0,0-2.06-1.64c-.76,0-2.16.88-2.22,1.48-.25,2.49-.11,5-.11,7.57Z"/><path class="cls-1" d="M198,100.51c5.24-.71,5.24-.71,5.25,4.2v7.07H198Zm1.11.91v9.35h2.9v-9.35Z"/><path class="cls-1" d="M204.88,100.4H210v11.41h-5.09Zm4.07,1.12h-3v9.22h3Z"/><path class="cls-1" d="M192.3,112.18c0-3.42-.16-6.84.12-10.24.06-.72,1.68-1.32,2.58-2l.66.46c0,3.56.13,7.12-.12,10.66,0,.62-1.67,1.12-2.57,1.68Zm2-10.58c-1.28,1.48-1.37,7.92,0,9.87Z"/><path class="cls-1" d="M211.65,111.75V100.47h.51v11.28Z"/><path class="cls-1" d="M222.68,68.34c.37-1.21.72-2.11.93-3A35.49,35.49,0,0,1,224.74,60c.65-1.65,2.1-1.61,2.68.06a42.71,42.71,0,0,1,.94,5.35,23.11,23.11,0,0,0,1,2.82C226.45,70.18,226.45,70.18,222.68,68.34Zm4-8.16h-1.2l-.85,7.24,2.9-.18C227.19,64.74,226.91,62.46,226.64,60.18Z"/><path class="cls-1" d="M209.87,86.08a2.45,2.45,0,0,1-.55.24c-4.95.42-4.95.42-4.95-4.51v-.72c0-5.23,0-5.23,5.5-4.48Zm-4.13-8.44v7.5h3.1v-7.5Z"/><path class="cls-1" d="M202.73,76.7V86c-.25.16-.37.29-.51.31-5,.4-5,.4-5.05-4.6v-1C197.17,75.86,197.45,75.65,202.73,76.7Zm-1.06,1h-3.11v7.52h3.11Z"/><path class="cls-1" d="M211.65,86.21V76.63h.53v9.59Z"/><path class="cls-1" d="M223.14,87.36h6.32v.56h-6.3Z"/><path class="cls-1" d="M198.14,116.2h11.78v.55H198.16Z"/><path class="cls-1" d="M62.6,79V74l.58,0v5Z"/><path class="cls-1" d="M16.46,79v-5h.59V79Z"/><path class="cls-1" d="M203.29,93.58c-.53,1.71-.62,3.28-1.17,3.46a6.46,6.46,0,0,1-3.62-.25c-.28-.07-.39-2-.23-2.09A45,45,0,0,1,203.29,93.58Z"/><path class="cls-1" d="M205.24,94.05h4.56c-.12,1,0,2.64-.4,2.79a16.42,16.42,0,0,1-4.16.46Z"/><path class="cls-1" d="M67.83,79.09V74h.53V79.1Z"/><path class="cls-1" d="M195,94.09c.47,3.26.39,3.36-2.43,3.29C192,94.34,192.09,94.22,195,94.09Z"/></g></g></svg>