<svg xmlns="http://www.w3.org/2000/svg" viewBox="0 0 311.56 38.42"><defs><style>.cls-1{fill:#fff;}.cls-2{fill:#fd0002;}</style></defs><g id="Layer_2" data-name="Layer 2"><g id="Layer_1-2" data-name="Layer 1"><path class="cls-1" d="M5.16,21.65c0-.15.07-.29.11-.43,1.67-5.81,3.36-11.62,5-17.46a5.44,5.44,0,0,1,5-3.76c5,.05,10.08,0,15.13,0h.44A.24.24,0,0,1,31,.28c0,.23-.17.31-.32.42-1,.74-2.09,1.46-3.11,2.22-4.29,3.13-8.41,6.47-12.4,10C12,15.66,9,18.56,6,21.58c-.12.12-.23.24-.36.35a.3.3,0,0,1-.35,0A.27.27,0,0,1,5.16,21.65Z"/><path class="cls-1" d="M33.8,17.22c-.45.11-.9.2-1.36.3.13.32.43.25.65.31a8.74,8.74,0,0,1,3.33,1.68A7.19,7.19,0,0,1,39,24.74a11.4,11.4,0,0,1-.72,4.48,11.62,11.62,0,0,1-3.85,5.59,13.56,13.56,0,0,1-5.08,2.35,27.16,27.16,0,0,1-6.53.75q-11.08,0-22.16,0H.63c-.2,0-.45.09-.58-.13s.09-.42.22-.59c2.15-2.68,4.4-5.26,6.73-7.78A189.74,189.74,0,0,1,22,14.75a3,3,0,0,1,.44-.36.22.22,0,0,1,.35.2,1.41,1.41,0,0,1-.09.49L17.88,31.75c-.06.24-.13.48-.21.78,1.24,0,2.39,0,3.53,0a4.22,4.22,0,0,0,3.52-3c.43-1.46.84-2.93,1.26-4.4l7-24.37c0-.16.1-.32.14-.48A.28.28,0,0,1,33.39,0,9.31,9.31,0,0,1,39.9,2a5.92,5.92,0,0,1,2.28,4.56,10.2,10.2,0,0,1-3.88,8.7A11.08,11.08,0,0,1,33.8,17.22Z"/><path class="cls-1" d="M72.28,12.81a10.37,10.37,0,0,1-3.2,7A10.47,10.47,0,0,1,65.28,22l-.53.19s-.07.05-.16.13c1.14,1.49,1.34,3.29,1.75,5,.81,3.43,1.6,6.87,2.41,10.3,0,.06,0,.12,0,.22a.84.84,0,0,1-.47.06H61.6a2.55,2.55,0,0,1-2.85-2.32c-.3-1.33-.57-2.66-.84-4q-1.19-5.7-2.36-11.4a.63.63,0,0,1,0-.43h1a6.65,6.65,0,0,0,6.84-6.16,2.89,2.89,0,0,0-2.71-3.41,28.39,28.39,0,0,0-4,0c-.33,0-.34.21-.4.44-.53,2.06-1.07,4.12-1.6,6.18L49.31,37.32c0,.12-.08.23-.1.36a.25.25,0,0,1-.31.23H41.37c-.72,0-1-.35-.84-1s.28-1.17.44-1.76Q44.78,20.4,48.6,5.67c.2-.8,0-.7.89-.7H61.23a19,19,0,0,1,5.09.59,10.35,10.35,0,0,1,2.92,1.25A6.25,6.25,0,0,1,72.28,12.81Z"/><path class="cls-1" d="M88.11,7.82q-3.83,14.74-7.64,29.5a1,1,0,0,0-.07.24c0,.29-.18.36-.46.36-.94,0-1.88,0-2.83,0H72.28c-1,0-1.24-.31-1-1.26q1.59-6.21,3.2-12.42,2.43-9.33,4.84-18.65a1.29,1.29,0,0,0,0-.19c0-.32.21-.44.55-.43.85,0,1.71,0,2.57,0h4.89a4.13,4.13,0,0,1,.5,0,.72.72,0,0,1,.7,1C88.44,6.57,88.27,7.19,88.11,7.82Z"/><path class="cls-1" d="M118,11.56a6.37,6.37,0,0,0-2-4.27A7.62,7.62,0,0,0,113,5.69a21.06,21.06,0,0,0-5.64-.7C103.22,5,99.11,5,95,5c-.33,0-.5.11-.55.42a1.84,1.84,0,0,1,0,.25L87.06,34c-.24.93-.48,1.86-.71,2.79-.2.78.07,1.12.84,1.14h7.47c2.35,0,4.69,0,7-.11a25.26,25.26,0,0,0,4.59-.65,9.91,9.91,0,0,0,5.57-3.39,15.64,15.64,0,0,0,2.3-4.08,72.65,72.65,0,0,0,3.51-12.45A19.28,19.28,0,0,0,118,11.56Zm-9.43,5.86a91.24,91.24,0,0,1-2.51,9.16,20.36,20.36,0,0,1-1,2.36,5.43,5.43,0,0,1-4.69,3.28c-1.31.1-2.62,0-4,.07.66-2.59,1.3-5.07,1.94-7.55L102,10.81a2.17,2.17,0,0,0,.07-.24c0-.29.16-.41.48-.42a29.8,29.8,0,0,1,4,0l.19,0a2.51,2.51,0,0,1,2.54,2.87A18.65,18.65,0,0,1,108.61,17.42Z"/><path class="cls-1" d="M139.82,12.88a5.31,5.31,0,0,0,0-.69,2.24,2.24,0,0,0-2.06-2.42,6.15,6.15,0,0,0-2.92.14,4.39,4.39,0,0,0-2.32,1.81,15.33,15.33,0,0,0-1.72,3.61c-1,2.74-1.65,5.56-2.38,8.37-.41,1.57-.81,3.15-1.07,4.76a7.41,7.41,0,0,0-.06,1.94,2,2,0,0,0,1.38,1.77,5.75,5.75,0,0,0,1.84.33,20.93,20.93,0,0,0,3.45-.07.52.52,0,0,0,.53-.46c.89-3.31,1.8-6.6,2.7-9.91.15-.56.16-.56.74-.56h8.22a.91.91,0,0,1-.06.57q-1.94,7.24-3.86,14.51a.81.81,0,0,1-.72.69,61.25,61.25,0,0,1-14.62.87,16.48,16.48,0,0,1-4.56-.8A5.51,5.51,0,0,1,118.29,32a20.36,20.36,0,0,1,.39-5.11,84.16,84.16,0,0,1,3.37-12.5,21.73,21.73,0,0,1,2.35-4.76,10.55,10.55,0,0,1,7-4.57,37.37,37.37,0,0,1,8.25-.51,15.79,15.79,0,0,1,4.62.76A7.27,7.27,0,0,1,147,6.83a6,6,0,0,1,1.78,4.9,12.45,12.45,0,0,1-.41,2.78c-.12.46-.12.47-.61.47h-8.35A13.36,13.36,0,0,0,139.82,12.88Z"/><path class="cls-1" d="M172.31,18a1.69,1.69,0,0,1-.12.67c-.34,1.29-.67,2.58-1,3.88-.14.55-.14.55-.74.55H159.89c-.72,0-.72,0-.89.71l-1.71,6.73a2.22,2.22,0,0,0-.09.37c-.19.88,0,1.2.91,1.32a7.31,7.31,0,0,0,.81,0h11.55a31.57,31.57,0,0,1-1.4,3.37A4.46,4.46,0,0,1,165,37.91c-2,0-4.06,0-6.09,0H153a7.89,7.89,0,0,1-2.41-.34A3.56,3.56,0,0,1,148,34.49a9.2,9.2,0,0,1,.22-3.54c.61-2.71,1.36-5.38,2.06-8.06.91-3.48,1.77-7,2.75-10.42a20.58,20.58,0,0,1,1.49-3.91A6.1,6.1,0,0,1,157,5.85a6.86,6.86,0,0,1,2.88-.77c.85-.07,1.71-.11,2.57-.11h13.47c-.1.66-.3,1.25-.45,1.85-.24.95-.49,1.9-.74,2.85-.12.47-.12.48-.62.48h-9.23a3,3,0,0,0-2.9,2.26c-.42,1.4-.75,2.82-1.12,4.23-.09.33-.17.65-.25,1s0,.32.23.31h10.8A1.43,1.43,0,0,1,172.31,18Z"/><path class="cls-1" d="M200.87,11.8a10.53,10.53,0,0,1-.43,2.08c-.07.23-.14.36-.41.36h-7.41s-.07,0-.13-.05c.11-.47.22-.93.32-1.4a3.94,3.94,0,0,0,.06-1.37,2,2,0,0,0-1.25-1.73,5.17,5.17,0,0,0-4.54.24,4.34,4.34,0,0,0-2,3.33,4,4,0,0,0-.05.5,3,3,0,0,0,1.39,2.77A13.11,13.11,0,0,0,189,17.74a48.08,48.08,0,0,1,5,2.1,14.18,14.18,0,0,1,2.09,1.37,6.53,6.53,0,0,1,2.44,5,9.22,9.22,0,0,1-.36,3.09,18.56,18.56,0,0,1-1,2.71A9.9,9.9,0,0,1,190,37.79a28.63,28.63,0,0,1-8.36.54,15.57,15.57,0,0,1-5-1c-.31-.13-.61-.27-.91-.43a5.83,5.83,0,0,1-3.15-6,15.09,15.09,0,0,1,1-3.75.42.42,0,0,1,.45-.33h7.84a1,1,0,0,1,.2,0,14.68,14.68,0,0,0-.54,2.7,4.9,4.9,0,0,0,.09,1.43A2.55,2.55,0,0,0,183.9,33,6.78,6.78,0,0,0,186,33a3.94,3.94,0,0,0,3-2.15,7.64,7.64,0,0,0,.86-2.86,2.67,2.67,0,0,0-1.23-2.58,15,15,0,0,0-3-1.51c-1.38-.55-2.78-1-4.12-1.66A11.09,11.09,0,0,1,179,20.68a6.56,6.56,0,0,1-2.16-4,10.73,10.73,0,0,1,6.68-11.3,17.1,17.1,0,0,1,4.45-1,22.25,22.25,0,0,1,7.54.43,9.71,9.71,0,0,1,2.21.85A5.83,5.83,0,0,1,200.87,11.8Z"/><path class="cls-1" d="M223.91,10.32c-1.38,0-2.77,0-4.15,0-.61,0-.54,0-.69.55q-3.42,13.2-6.85,26.4a1.7,1.7,0,0,0-.1.37.27.27,0,0,1-.34.26h-8c-.76.1-1.19-.42-.95-1.17.18-.54.29-1.09.43-1.64q2.63-10.08,5.23-20.17a7.81,7.81,0,0,1,2.66-4.35s.07-.1.11-.14,0,0,0-.07l0,0h-8.75c.35-1.39.68-2.71,1-4,.09-.34.19-.68.26-1a.35.35,0,0,1,.44-.32c.1,0,.2,0,.31,0h24.69a15.31,15.31,0,0,1-1.69,3.72A4.44,4.44,0,0,1,223.91,10.32Z"/><path class="cls-1" d="M253.53,11a6.55,6.55,0,0,0-4.26-5.5,12.56,12.56,0,0,0-3.34-.82,35.33,35.33,0,0,0-9.13.24,11,11,0,0,0-7.61,4.83,20.45,20.45,0,0,0-2,3.74,57.43,57.43,0,0,0-3.86,14.4,14.32,14.32,0,0,0,.08,4.62,6.14,6.14,0,0,0,3.9,4.84,10,10,0,0,0,1.86.56,26.28,26.28,0,0,0,5.33.44c1.33,0,2.69,0,4-.21.54-.06,1.08-.15,1.62-.24a11.1,11.1,0,0,0,7.69-5,23.57,23.57,0,0,0,2.3-4.57,65.08,65.08,0,0,0,3.12-11.2A18.45,18.45,0,0,0,253.53,11Zm-8.76,2.08a22.23,22.23,0,0,1-.67,4.52,63,63,0,0,1-2.62,9.2,17.76,17.76,0,0,1-1.75,3.45,7.52,7.52,0,0,1-1.09,1.3,4.32,4.32,0,0,1-2.93,1.24A6.77,6.77,0,0,1,234,32.7a2.08,2.08,0,0,1-1.8-2,10.88,10.88,0,0,1,.17-3.12,74.72,74.72,0,0,1,3-11.5,18.16,18.16,0,0,1,1.52-3.29A6.83,6.83,0,0,1,239,10.4a5,5,0,0,1,4.28-.47,2,2,0,0,1,1.37,1.43A6,6,0,0,1,244.77,13.1Z"/><path class="cls-1" d="M283.37,15.64q-2.81,10.85-5.62,21.69c-.18.68,0,.58-.73.58h-7c-.12,0-.25,0-.37,0a.7.7,0,0,1-.68-.81,3.35,3.35,0,0,1,.11-.55q2.76-10.63,5.5-21.28a10.34,10.34,0,0,0,.43-2.65,2.1,2.1,0,0,0-1.81-2.33,6.79,6.79,0,0,0-1.74-.2c-.92,0-1.84.06-2.76.05-.37,0-.5.14-.58.48q-1.5,5.82-3,11.63-2,7.58-3.92,15.15c-.13.51-.13.51-.66.51-2.37,0-4.73,0-7.09,0-.78,0-1.23-.29-1-1.27q.9-3.42,1.78-6.84,3.12-12,6.23-24.06c.2-.77.19-.75,1-.75H268V4.93c1.87,0,3.73,0,5.59,0a20.88,20.88,0,0,1,5.83.75,8.55,8.55,0,0,1,2.05.91,5.15,5.15,0,0,1,2.46,4A14.22,14.22,0,0,1,283.37,15.64Z"/><path class="cls-1" d="M311.49,5.48c-.35,1.37-.71,2.74-1.07,4.12-.14.54-.14.55-.69.55h-9.17a3,3,0,0,0-2.94,2.3c-.3,1-.52,2-.78,3-.21.81-.41,1.61-.64,2.49h11.86c-.44,1.7-.86,3.29-1.27,4.89a.32.32,0,0,1-.4.28H295.47c-.65,0-.58-.14-.77.61l-1.78,7c-.29,1.16,0,1.54,1.21,1.56,1.38,0,2.76,0,4.14,0h7.87a19,19,0,0,1-1.68,3.81,4.45,4.45,0,0,1-3.79,1.85c-2.91,0-5.82,0-8.73,0h-3.33a8.4,8.4,0,0,1-1.93-.22,3.66,3.66,0,0,1-3-3.53,11.71,11.71,0,0,1,.4-3.91q2.24-8.62,4.51-17.26a23.53,23.53,0,0,1,1.35-3.83,13,13,0,0,1,.71-1.33,5.53,5.53,0,0,1,4-2.64A20.31,20.31,0,0,1,298,5H311.5C311.62,5.16,311.53,5.32,311.49,5.48Z"/><path class="cls-1" d="M33.8,17.22c-.45.11-.9.2-1.36.3.13.32.43.25.65.31a8.74,8.74,0,0,1,3.33,1.68A7.19,7.19,0,0,1,39,24.74a11.4,11.4,0,0,1-.72,4.48,11.62,11.62,0,0,1-3.85,5.59,13.56,13.56,0,0,1-5.08,2.35,27.16,27.16,0,0,1-6.53.75q-11.08,0-22.16,0H.63c-.2,0-.45.09-.58-.13s.09-.42.22-.59c2.15-2.68,4.4-5.26,6.73-7.78A189.74,189.74,0,0,1,22,14.75a3,3,0,0,1,.44-.36.22.22,0,0,1,.35.2,1.41,1.41,0,0,1-.09.49L17.88,31.75c-.06.24-.13.48-.21.78,1.24,0,2.39,0,3.53,0a4.22,4.22,0,0,0,3.52-3c.43-1.46.84-2.93,1.26-4.4l7-24.37c0-.16.1-.32.14-.48A.28.28,0,0,1,33.39,0,9.31,9.31,0,0,1,39.9,2a5.92,5.92,0,0,1,2.28,4.56,10.2,10.2,0,0,1-3.88,8.7A11.08,11.08,0,0,1,33.8,17.22Z"/><path class="cls-1" d="M118,11.56a6.37,6.37,0,0,0-2-4.27A7.62,7.62,0,0,0,113,5.69a21.06,21.06,0,0,0-5.64-.7C103.22,5,99.11,5,95,5c-.33,0-.5.11-.55.42a1.84,1.84,0,0,1,0,.25L87.06,34c-.24.93-.48,1.86-.71,2.79-.2.78.07,1.12.84,1.14h7.47c2.35,0,4.69,0,7-.11a25.26,25.26,0,0,0,4.59-.65,9.91,9.91,0,0,0,5.57-3.39,15.64,15.64,0,0,0,2.3-4.08,72.65,72.65,0,0,0,3.51-12.45A19.28,19.28,0,0,0,118,11.56Zm-9.43,5.86a91.24,91.24,0,0,1-2.51,9.16,20.36,20.36,0,0,1-1,2.36,5.43,5.43,0,0,1-4.69,3.28c-1.31.1-2.62,0-4,.07.66-2.59,1.3-5.07,1.94-7.55L102,10.81a2.17,2.17,0,0,0,.07-.24c0-.29.16-.41.48-.42a29.8,29.8,0,0,1,4,0l.19,0a2.51,2.51,0,0,1,2.54,2.87A18.65,18.65,0,0,1,108.61,17.42Z"/><path class="cls-1" d="M253.53,11a6.55,6.55,0,0,0-4.26-5.5,12.56,12.56,0,0,0-3.34-.82,35.33,35.33,0,0,0-9.13.24,11,11,0,0,0-7.61,4.83,20.45,20.45,0,0,0-2,3.74,57.43,57.43,0,0,0-3.86,14.4,14.32,14.32,0,0,0,.08,4.62,6.14,6.14,0,0,0,3.9,4.84,10,10,0,0,0,1.86.56,26.28,26.28,0,0,0,5.33.44c1.33,0,2.69,0,4-.21.54-.06,1.08-.15,1.62-.24a11.1,11.1,0,0,0,7.69-5,23.57,23.57,0,0,0,2.3-4.57,65.08,65.08,0,0,0,3.12-11.2A18.45,18.45,0,0,0,253.53,11Zm-8.76,2.08a22.23,22.23,0,0,1-.67,4.52,63,63,0,0,1-2.62,9.2,17.76,17.76,0,0,1-1.75,3.45,7.52,7.52,0,0,1-1.09,1.3,4.32,4.32,0,0,1-2.93,1.24A6.77,6.77,0,0,1,234,32.7a2.08,2.08,0,0,1-1.8-2,10.88,10.88,0,0,1,.17-3.12,74.72,74.72,0,0,1,3-11.5,18.16,18.16,0,0,1,1.52-3.29A6.83,6.83,0,0,1,239,10.4a5,5,0,0,1,4.28-.47,2,2,0,0,1,1.37,1.43A6,6,0,0,1,244.77,13.1Z"/><path class="cls-1" d="M72.28,12.81a10.37,10.37,0,0,1-3.2,7A10.47,10.47,0,0,1,65.28,22l-.53.19s-.07.05-.16.13c1.14,1.49,1.34,3.29,1.75,5,.81,3.43,1.6,6.87,2.41,10.3,0,.06,0,.12,0,.22a.84.84,0,0,1-.47.06H61.6a2.55,2.55,0,0,1-2.85-2.32c-.3-1.33-.57-2.66-.84-4q-1.19-5.7-2.36-11.4a.63.63,0,0,1,0-.43h1a6.65,6.65,0,0,0,6.84-6.16,2.89,2.89,0,0,0-2.71-3.41,28.39,28.39,0,0,0-4,0c-.33,0-.34.21-.4.44-.53,2.06-1.07,4.12-1.6,6.18L49.31,37.32c0,.12-.08.23-.1.36a.25.25,0,0,1-.31.23H41.37c-.72,0-1-.35-.84-1s.28-1.17.44-1.76Q44.78,20.4,48.6,5.67c.2-.8,0-.7.89-.7H61.23a19,19,0,0,1,5.09.59,10.35,10.35,0,0,1,2.92,1.25A6.25,6.25,0,0,1,72.28,12.81Z"/><path class="cls-1" d="M283.37,15.64q-2.81,10.85-5.62,21.69c-.18.68,0,.58-.73.58h-7c-.12,0-.25,0-.37,0a.7.7,0,0,1-.68-.81,3.35,3.35,0,0,1,.11-.55q2.76-10.63,5.5-21.28a10.34,10.34,0,0,0,.43-2.65,2.1,2.1,0,0,0-1.81-2.33,6.79,6.79,0,0,0-1.74-.2c-.92,0-1.84.06-2.76.05-.37,0-.5.14-.58.48q-1.5,5.82-3,11.63-2,7.58-3.92,15.15c-.13.51-.13.51-.66.51-2.37,0-4.73,0-7.09,0-.78,0-1.23-.29-1-1.27q.9-3.42,1.78-6.84,3.12-12,6.23-24.06c.2-.77.19-.75,1-.75H268V4.93c1.87,0,3.73,0,5.59,0a20.88,20.88,0,0,1,5.83.75,8.55,8.55,0,0,1,2.05.91,5.15,5.15,0,0,1,2.46,4A14.22,14.22,0,0,1,283.37,15.64Z"/><path class="cls-1" d="M148.75,11.73a12.45,12.45,0,0,1-.41,2.78c-.12.46-.12.47-.61.47h-8.35a13.36,13.36,0,0,0,.44-2.1,5.31,5.31,0,0,0,0-.69,2.24,2.24,0,0,0-2.06-2.42,6.15,6.15,0,0,0-2.92.14,4.39,4.39,0,0,0-2.32,1.81,15.33,15.33,0,0,0-1.72,3.61c-1,2.74-1.65,5.56-2.38,8.37-.41,1.57-.81,3.15-1.07,4.76a7.41,7.41,0,0,0-.06,1.94,2,2,0,0,0,1.38,1.77,5.75,5.75,0,0,0,1.84.33,20.93,20.93,0,0,0,3.45-.07.52.52,0,0,0,.53-.46c.89-3.31,1.8-6.6,2.7-9.91.15-.56.16-.56.74-.56h8.22a.91.91,0,0,1-.06.57q-1.94,7.24-3.86,14.51a.81.81,0,0,1-.72.69,61.25,61.25,0,0,1-14.62.87,16.48,16.48,0,0,1-4.56-.8A5.51,5.51,0,0,1,118.29,32a20.36,20.36,0,0,1,.39-5.11,84.16,84.16,0,0,1,3.37-12.5,21.73,21.73,0,0,1,2.35-4.76,10.55,10.55,0,0,1,7-4.57,37.37,37.37,0,0,1,8.25-.51,15.79,15.79,0,0,1,4.62.76A7.27,7.27,0,0,1,147,6.83,6,6,0,0,1,148.75,11.73Z"/><path class="cls-1" d="M200.87,11.8a10.53,10.53,0,0,1-.43,2.08c-.07.23-.14.36-.41.36h-7.41s-.07,0-.13-.05c.11-.47.22-.93.32-1.4a3.94,3.94,0,0,0,.06-1.37,2,2,0,0,0-1.25-1.73,5.17,5.17,0,0,0-4.54.24,4.34,4.34,0,0,0-2,3.33,4,4,0,0,0-.05.5,3,3,0,0,0,1.39,2.77A13.11,13.11,0,0,0,189,17.74a48.08,48.08,0,0,1,5,2.1,14.18,14.18,0,0,1,2.09,1.37,6.53,6.53,0,0,1,2.44,5,9.22,9.22,0,0,1-.36,3.09,18.56,18.56,0,0,1-1,2.71A9.9,9.9,0,0,1,190,37.79a28.63,28.63,0,0,1-8.36.54,15.57,15.57,0,0,1-5-1c-.31-.13-.61-.27-.91-.43a5.83,5.83,0,0,1-3.15-6,15.09,15.09,0,0,1,1-3.75.42.42,0,0,1,.45-.33h7.84a1,1,0,0,1,.2,0,14.68,14.68,0,0,0-.54,2.7,4.9,4.9,0,0,0,.09,1.43A2.55,2.55,0,0,0,183.9,33,6.78,6.78,0,0,0,186,33a3.94,3.94,0,0,0,3-2.15,7.64,7.64,0,0,0,.86-2.86,2.67,2.67,0,0,0-1.23-2.58,15,15,0,0,0-3-1.51c-1.38-.55-2.78-1-4.12-1.66A11.09,11.09,0,0,1,179,20.68a6.56,6.56,0,0,1-2.16-4,10.73,10.73,0,0,1,6.68-11.3,17.1,17.1,0,0,1,4.45-1,22.25,22.25,0,0,1,7.54.43,9.71,9.71,0,0,1,2.21.85A5.83,5.83,0,0,1,200.87,11.8Z"/><path class="cls-1" d="M311.49,5.48c-.35,1.37-.71,2.74-1.07,4.12-.14.54-.14.55-.69.55h-9.17a3,3,0,0,0-2.94,2.3c-.3,1-.52,2-.78,3-.21.81-.41,1.61-.64,2.49h11.86c-.44,1.7-.86,3.29-1.27,4.89a.32.32,0,0,1-.4.28H295.47c-.65,0-.58-.14-.77.61l-1.78,7c-.29,1.16,0,1.54,1.21,1.56,1.38,0,2.76,0,4.14,0h7.87a19,19,0,0,1-1.68,3.81,4.45,4.45,0,0,1-3.79,1.85c-2.91,0-5.82,0-8.73,0h-3.33a8.4,8.4,0,0,1-1.93-.22,3.66,3.66,0,0,1-3-3.53,11.71,11.71,0,0,1,.4-3.91q2.24-8.62,4.51-17.26a23.53,23.53,0,0,1,1.35-3.83,13,13,0,0,1,.71-1.33,5.53,5.53,0,0,1,4-2.64A20.31,20.31,0,0,1,298,5H311.5C311.62,5.16,311.53,5.32,311.49,5.48Z"/><path class="cls-1" d="M175.91,5c-.1.66-.3,1.25-.45,1.85-.24.95-.49,1.9-.74,2.85-.12.47-.12.48-.62.48h-9.23a3,3,0,0,0-2.9,2.26c-.42,1.4-.75,2.82-1.12,4.23-.09.33-.17.65-.25,1s0,.32.23.31h10.8a1.43,1.43,0,0,1,.68,0,1.69,1.69,0,0,1-.12.67c-.34,1.29-.67,2.58-1,3.88-.14.55-.14.55-.74.55H159.89c-.72,0-.72,0-.89.71l-1.71,6.73a2.22,2.22,0,0,0-.09.37c-.19.88,0,1.2.91,1.32a7.31,7.31,0,0,0,.81,0h11.55a31.57,31.57,0,0,1-1.4,3.37A4.46,4.46,0,0,1,165,37.91c-2,0-4.06,0-6.09,0H153a7.89,7.89,0,0,1-2.41-.34A3.56,3.56,0,0,1,148,34.49a9.2,9.2,0,0,1,.22-3.54c.61-2.71,1.36-5.38,2.06-8.06.91-3.48,1.77-7,2.75-10.42a20.58,20.58,0,0,1,1.49-3.91A6.1,6.1,0,0,1,157,5.85a6.86,6.86,0,0,1,2.88-.77c.85-.07,1.71-.11,2.57-.11h13.47Z"/><path class="cls-1" d="M229.18,5a15.31,15.31,0,0,1-1.69,3.72,4.44,4.44,0,0,1-3.58,1.63c-1.38,0-2.77,0-4.15,0-.61,0-.54,0-.69.55q-3.42,13.2-6.85,26.4a1.7,1.7,0,0,0-.1.37.27.27,0,0,1-.34.26h-8c-.76.1-1.19-.42-.95-1.17.18-.54.29-1.09.43-1.64q2.63-10.08,5.23-20.17a7.81,7.81,0,0,1,2.66-4.35s.07-.1.11-.14,0,0,0-.07l0,0h-8.75c.35-1.39.68-2.71,1-4,.09-.34.19-.68.26-1a.35.35,0,0,1,.44-.32c.1,0,.2,0,.31,0Z"/><path class="cls-1" d="M88.58,5.94c-.14.63-.31,1.25-.47,1.88q-3.83,14.74-7.64,29.5a1,1,0,0,0-.07.24c0,.29-.18.36-.46.36-.94,0-1.88,0-2.83,0H72.28c-1,0-1.24-.31-1-1.26q1.59-6.21,3.2-12.42,2.43-9.33,4.84-18.65a1.29,1.29,0,0,0,0-.19c0-.32.21-.44.55-.43.85,0,1.71,0,2.57,0h4.89a4.13,4.13,0,0,1,.5,0A.72.72,0,0,1,88.58,5.94Z"/><path class="cls-2" d="M30.71.7c-1,.74-2.09,1.46-3.11,2.22-4.29,3.13-8.41,6.47-12.4,10C12,15.66,9,18.56,6,21.58c-.12.12-.23.24-.36.35a.3.3,0,0,1-.35,0,.27.27,0,0,1-.12-.32c0-.15.07-.29.11-.43,1.67-5.81,3.36-11.62,5-17.46a5.44,5.44,0,0,1,5-3.76c5,.05,10.08,0,15.13,0h.44A.24.24,0,0,1,31,.28C31.05.51,30.86.59,30.71.7Z"/></g></g></svg>