<svg xmlns="http://www.w3.org/2000/svg" viewBox="0 0 42.91 42.92"><defs><style>.cls-1{fill:#fff;}</style></defs><g id="Layer_2" data-name="Layer 2"><g id="Layer_1-2" data-name="Layer 1"><path class="cls-1" d="M1.49,42.16c.11-.35.17-.59.25-.81.72-2.14,1.44-4.28,2.18-6.41a1.37,1.37,0,0,0-.18-1.39A20.52,20.52,0,0,1,.08,23.47,21.46,21.46,0,1,1,25,42.61a21,21,0,0,1-14.53-2.72,1.41,1.41,0,0,0-1.29-.15C6.68,40.54,4.17,41.32,1.49,42.16Zm26.88-8.43c.32,0,1-.07,1.6-.18a5.33,5.33,0,0,0,4.66-4.37c.14-.75.29-1.64-.56-2.08-1.68-.87-3.41-1.65-5.13-2.45a1.1,1.1,0,0,0-1.47.47c-.36.49-.69,1-1,1.48-.86,1.14-1.51,1.34-2.82.76a18.1,18.1,0,0,1-7.9-7.1A1,1,0,0,1,15.82,19c.49-.54,1-1.1,1.44-1.65a1.5,1.5,0,0,0,.32-1.63c-.43-1.15-.82-2.33-1.35-3.43a11.09,11.09,0,0,0-1.44-2.11,1.42,1.42,0,0,0-1.53-.45A5.76,5.76,0,0,0,8.84,15.1a11.28,11.28,0,0,0,1.23,5.13A25.3,25.3,0,0,0,19.61,30.7,15.89,15.89,0,0,0,28.37,33.73Z"/></g></g></svg>