<svg xmlns="http://www.w3.org/2000/svg" viewBox="0 0 249.16 112.1"><defs><style>.cls-1{fill:#151d31;}</style></defs><g id="Layer_2" data-name="Layer 2"><g id="Layer_1-2" data-name="Layer 1"><path class="cls-1" d="M228.14,83h-5.39c0,1.27,0,2.46,0,3.65,0,.5-.13.77-.69.75s-.69-.16-.68-.68c0-1.39,0-2.78,0-4.28h-7.9V82h7.77c-.5-1.16-.84-2.17-1.35-3.09a3,3,0,0,0-5-.48,8.65,8.65,0,0,0-1,2.19,8,8,0,0,1-.26.79c-.6-1.22-.52-2.87-2.22-3.42V88.25c11-.14,21.93.2,32.85-.83l.06.2c-.58.12-1.14.31-1.72.37-9.71,1-19.45.58-29.17.68q-.9,0-1.8,0c-.07,0-.13.08-.36.22,2.07,0,4-.22,5.88.22v.2h-5.7v1.6c1.07,0,2.15,0,3.23,0,.44,0,.87-.12,1.31.35.26.29,1,.1,1.64.13l.16-1.61h.29l.14,1.54h7.49c0-.56.08-1.13.13-1.7h.29c.06.55.11,1.1.17,1.71h8.11l-.07-1.44.27,0a2.84,2.84,0,0,1,.2.67c0,.65.25.88.93.88,1.88,0,3.77,0,5.66.06.66,0,1-.15.88-.86a3.31,3.31,0,0,1,.06-.7h.21V92.5l-.19,0-.17-.93h-5.69l.13,1.8h5.12v.22h-5v2.52h6.44V91.31h.25v4.85a17.06,17.06,0,0,1,1.92,0c.23,0,.42.33.64.5-.21.15-.4.4-.62.43a16.35,16.35,0,0,1-1.72,0l-.16,1h-.19l-.13-.95c-.22,0-.46-.05-.69-.05-3.89,0-7.79,0-11.68,0a4.48,4.48,0,0,0-1.06.31c-.06,0-.33-.3-.6-.3-4,0-7.93,0-11.89,0a1.67,1.67,0,0,0-.29.07l-.16,1.06-.19,0-.19-1.15h-2.08c-3.17,0-6.34.06-9.51.07l-13.17.07c-1.71,0-3.43,0-5.14,0-2,.06-4,0-6,0s-4.1,0-6.15,0l-21.58,0c-.19,0-.41.06-.56,0a2.19,2.19,0,0,1-.51-.46c.17-.16.33-.45.51-.46.65-.06,1.31,0,2,0,.22-.55.13-.85-.51-.85s-1.41,0-2.19,0l-.13,1.12-.18,0L151,95.57l-1.51-.09-.16.17a18,18,0,0,0,1.41,1.71,12.77,12.77,0,0,0,4.53,2.58c.19.06.33.25.49.37-.19.07-.4.22-.57.17-2.42-.61-4.63-1.58-5.84-4a8.33,8.33,0,0,0-.86-1.72c-.6-.58-.38-1.5-1.1-1.93l-.34.73c-.4-.63,0-1.6-1-1.69-.54,0-1.15-1-1.51-.06a4,4,0,0,0-1.22-.64,3.36,3.36,0,0,0-2.43.2c-1.22-.72-2.55,0-3.82-.2l-.15.24.69.35-.15.3c-1.62-1-3.41-.92-5.27-.94l-.07.32c-.4.15-.71-.81-1,.13-.51-1.68-2-1-3-1.66l-.27.94h-.15l-.18-1c-1-.06-2.06-.55-3-.07a4.33,4.33,0,0,0-1.15-.26c-4.1.16-8.2.35-12.29.54q-4,.19-8,.42c-1.37.07-2.73.13-4.09.31-.32,0-.58.5-.9.78-.24-1-1-.51-1.7-.38A51.3,51.3,0,0,1,85,92.56a11,11,0,0,0-1.72.11,5.13,5.13,0,0,0-1,.37l-1.21-.21a5,5,0,0,1-3.27,4.53c-.31.09-.63.18-1,.24a9.94,9.94,0,0,0-3.74,1c-.72.45-1,.24-.93-.45a36.44,36.44,0,0,0-12.71,1.32,22,22,0,0,1-6.44,1c-13.08.11-26.15.08-39.22.1H7.32v-.94c1.69,0,3.35,0,5,0,8.78.07,17.56.21,26.34.19,5.52,0,11.05-.15,16.56-.44A32.25,32.25,0,0,0,61,98.15a.67.67,0,0,0,.4-.49c.05-.56,0-1.13,0-1.8-1.7,0-3.27,0-4.85,0-.14,0-.37.35-.38.55,0,.69,0,1.39,0,2.08h-.34V95.88c-1.82,0-3.51,0-5.2,0-.16,0-.43.35-.46.56-.09.74-.1,1.49-.15,2.24h-.22V95.89H47.59c-1.23,0-2.46,0-3.69,0-.59,0-.77.19-.75.76,0,1,0,2,0,2.92h-.28V96H37v3.69l-.26,0V96H31.11v3.62h-.3v-3.7H14.92v-.2H30.79c0-.66,0-1.29,0-1.9a.67.67,0,0,0-.4-.48,3.11,3.11,0,0,0-1-.09H9.05A1.12,1.12,0,0,1,8.31,93h.88L29,93c1.23,0,1.38-.21,1-1.67H25.77V91h4.28c.25-.62,0-.76-.47-.76H9.89c-.3,0-.61,0-.92-.07V90a7.21,7.21,0,0,1,.92-.11l19.53,0a3.36,3.36,0,0,0,.79-.19l-.08-.25H24.47l0-.26,2.85-.31v-.13h-.91c-6.34-.09-12.69-.13-19-.28-1.89,0-3.84,0-5.62-1l1.43.08c0-1.45,0-2.87,0-4.3,0-.67-.43-.85-1-.84s-1.25-.06-1.88-.1v-.28H2.39a19.23,19.23,0,0,0-.39-3c-.12-.46-.73-.81-1.16-1.15A3.69,3.69,0,0,0,0,77.37c.77-.36,1.55,0,2.4,1.07a26.67,26.67,0,0,1,1.44,2.37A5.5,5.5,0,0,1,8,77.06H1.78v-.37c4.72,0,9.43-.08,14.15-.09s9.46,0,14.26,0c0-.59.08-1,.08-1.44,0-5,0-10.07.07-15.1a9.42,9.42,0,0,1,.21-1.83.75.75,0,0,1,.51-.44c5.58-.67,11.16-1.6,16.77-1.89,6.24-.33,12.52-.21,18.78,0a81.43,81.43,0,0,1,9,1.19c1.3.19,2.59.43,3.88.64a3.13,3.13,0,0,0,.53,0l.07-.26c-.32-.09-.63-.2-.95-.27a104.15,104.15,0,0,0-26.43-1.89c-2.92.18-5.85.1-8.76.37C40.48,56,37,56.56,33.55,57l-2,.29-.16.28a2.49,2.49,0,0,1-.36-.89c0-4.27,0-8.53,0-12.8,0-1,.34-1.59,1.25-1.79,2.24-.5,4.48-1,6.73-1.38,1.75-.29,3.54-.39,5.31-.54.43,0,.63-.17.62-.64,0-1,0-1.91,0-2.87,0-.16,0-.39-.06-.47-1.3-1.08-.75-2.57-.85-3.9a9.9,9.9,0,0,1,.07-1A23,23,0,0,1,41.63,31a2,2,0,0,1-.94-.68A7.35,7.35,0,0,1,39.88,29a.66.66,0,0,1,0-.6,1.07,1.07,0,0,1,.63-.23c1.33-.19,2.67-.34,4-.56.12,0,.26-.39.26-.59-.14-3.94,1.61-6.85,4.75-9.09A30.51,30.51,0,0,0,52,15.58c.76-.7,1.56-1.35,2.3-2.06s1.34-1.37,2-2.08c.11-.12.08-.36.09-.55,0-.44.07-.88.1-1.33h.31a5.6,5.6,0,0,1,.06,1c-.24,2.18,1.31,3.25,2.7,4.42.28.24.61.42.89.66,1.4,1.22,2.76,2.49,4.21,3.65a6.83,6.83,0,0,1,2.59,4.59c0,.36.43.67.7,1.06l-.58.24.13,2.38c2,0,3.28,1.34,4.84,2.18.16.09.32.5.25.59a1.77,1.77,0,0,1-.82.7,26.68,26.68,0,0,1-2.81.51c-.54.08-.82.26-.86.86q-.26,3.56-.59,7.11c-.06.64.14.83.77.91a35.27,35.27,0,0,1,11.29,2.94c1.11.54,2.12,1.3,3.33,2l-1.23.93c2.61,1.08,3.43,3.08,3.41,5.55l.26,0a14.29,14.29,0,0,0,.21-1.6A2.86,2.86,0,0,1,87,47.77a26.61,26.61,0,0,0,2.38-1.72.9.9,0,0,0,.21-.62Q89.83,35.21,90,25c0-.72,0-1.44,0-2.16l.24-.05-.62-.23,0-.16h4.47v.76q0,3.86.07,7.71c0,.49-.2,1.11.38,1.14-.15.78-.29,1.48-.45,2.27l1.18.07c.2-1.34,1.05-1.71,2.3-1.48-.06-.24-.1-.36-.14-.49-.63-2.11-.26-3.46,1.56-4.7a1.76,1.76,0,0,0,.87-1.87,2.21,2.21,0,0,1,.27-.81c.17.24.51.51.47.72A2.34,2.34,0,0,0,101.81,28a3.67,3.67,0,0,1,1.33,4.22c-.22.71,0,.84.75.59a4.66,4.66,0,0,1,.63-.12c0-.07,0-.12,0-.16-1-2.3-.53-3.8,1.55-5.21a1.09,1.09,0,0,0,.57-1.14,3.57,3.57,0,0,1,0-1c0-.17.23-.32.35-.48.14.17.42.37.39.5-.26,1.27.47,1.85,1.41,2.5,1.62,1.14,2,2.72,1.24,4.94l.57.44.54-.58a4.27,4.27,0,0,1,1.95-5.23.92.92,0,0,0,.26-.58c0-.43,0-.88.07-1.31,0-.16.23-.41.35-.4s.45.23.44.34c-.18,1.64,1.09,2.31,2.08,3.18,1.37,1.2,1.46,2.35.31,3.77a1.46,1.46,0,0,0-.15.24l1.25,1.11h6.57v-.24h-6.69l0-.3.56-.32a.31.31,0,0,0,0-.13,5.71,5.71,0,0,1,2.14-6.49.88.88,0,0,0,.3-.64c0-7.58,0-15.16,0-22.73a5.74,5.74,0,0,1,.29-1.26,9.48,9.48,0,0,1,.79,1c.56,1,1,2,1.6,2.95a7.08,7.08,0,0,0,6.65,3.59c1.57,0,3.14-.2,5-.19a14.17,14.17,0,0,0-1.25.9,2.32,2.32,0,0,0-.7,3.08c.68,1.77.47,2.09-1.42,2.12a20.46,20.46,0,0,1-8.64-1.6,16.71,16.71,0,0,1-1.46-.86c0,.28-.05.54-.05.8,0,3.5,0,7,0,10.5a8.12,8.12,0,0,0,.27,2,2.53,2.53,0,0,0,.76,1.28,4.23,4.23,0,0,1,2,3.47c.39-.76.77-1.56,1.23-2.3a6.7,6.7,0,0,1,1-1.16,2.45,2.45,0,0,0,.75-2.15c0-.26.21-.54.33-.81.14.25.42.51.41.76a3.3,3.3,0,0,0,1.14,2.52c.66.71,1.21,1.52,1.72,2.18.9-1.2,1.9-2.47,2.81-3.8.23-.33.1-.89.2-1.33a2.75,2.75,0,0,1,.35-.65c.14.22.42.45.4.66a4.22,4.22,0,0,0,1.65,3.57,25.61,25.61,0,0,1,1.79,2c.34-.56.85-1.31,1.28-2.11a16.24,16.24,0,0,0,.89-2c.21-.52.33-1.08.52-1.61,0-.1.24-.24.3-.21s.36.2.39.34a7.07,7.07,0,0,1,.26,1.69,1.85,1.85,0,0,0,1.25,1.9c1.76.8,2.12,1.67,1.45,3.5-.12.34-.21.68-.33,1l1.58.15v.27a5.82,5.82,0,0,1-.73.08c-1.12,0-2.24,0-3.36.06-.64,0-1.27.19-1.91.21-.47,0-.95-.09-1.52,0a2.4,2.4,0,0,0,.71.3c1.88,0,3.77,0,5.65,0a1.54,1.54,0,0,1,.57,0,2.72,2.72,0,0,1,.52.39c-.19.13-.36.35-.55.35-1,0-2,0-3,0H139a.59.59,0,0,0-.51.29h8.48a6.52,6.52,0,0,0,.06-.71c.11-3.64.22-7.27.29-10.91,0-.67.2-.91.89-.87,1.23.05,2.45,0,3.58,0v1.4c0,4.53.05,9.06.1,13.59q0,4,.16,8a1.47,1.47,0,0,0,.5.89,10.69,10.69,0,0,0,1.75,1.34A3.24,3.24,0,0,1,156,50.5a3.25,3.25,0,0,0,.33,1.31c.1-.53.22-1.06.29-1.6a4.21,4.21,0,0,1,2.17-3.28,20.59,20.59,0,0,0,2.1-1.62l-2.68-.65-.09-.21a5.4,5.4,0,0,1,1.32-.77c2.25-.59,4.49-1.24,6.77-1.61,3.26-.52,6.56-.84,9.84-1.2.6-.06.81-.23.78-.83,0-.87,0-1.75,0-2.63a3.06,3.06,0,0,0-.46-1.69A6.65,6.65,0,0,1,176,33a13.16,13.16,0,0,1,.08-1.67c-1.05-.59-2.88.59-3.13-1.32l-.88-.92a4.14,4.14,0,0,1,1.11-.81c1.05-.3,2.14-.43,3.2-.7a.85.85,0,0,0,.51-.62c.35-3.47,1.48-6.49,4.5-8.59a29.94,29.94,0,0,0,3.21-2.87c.76-.72,1.47-1.5,2.23-2.22a4.29,4.29,0,0,0,1.65-3.39,1.55,1.55,0,0,1,.07-.48s.08-.06.26-.15a3.82,3.82,0,0,1,.08.92,2,2,0,0,0,.6,1.85c.62.65,1.05,1.59,1.78,2,1.24.71,1.86,2,3,2.8s2.16,1.76,3.22,2.66a6.26,6.26,0,0,1,2.07,3.81c.09.46.35.89.42,1.35.05.3-.14.63-.15.95,0,.85,0,1.69,0,2.69.8.07,1.57.13,2.34.21.23,0,.55,0,.68.13a16.8,16.8,0,0,1,1.74,2c.27.39-.08.73-.53.79-1.23.19-2.46.35-3.84.53-.25,2.91-.51,6-.76,8.9l11,3.38v.13l-1.29-.06a.44.44,0,0,0,0,.12c1.39.74,1.39,2,1.36,3.36-.06,2.89,0,5.79,0,8.71l1.6.33v.26a3.93,3.93,0,0,1-.76,0c-3.16-.49-6.31-1.07-9.48-1.48a55.72,55.72,0,0,0-6.94-.51c-5.09,0-10.18-.09-15.25.2-4.22.23-8.42,1-12.62,1.46-1,.12-2,.22-3,.35a7.94,7.94,0,0,0-.8.22l0,.25c.22,0,.43,0,.64,0,4.07-.54,8.12-1.13,12.2-1.59a57.78,57.78,0,0,1,5.89-.27c5.31,0,10.62-.2,15.92,0,3.55.16,7.09.88,10.63,1.37,1,.13,2,.27,2.91.49.33.08.84.39.85.62,0,.63-.49.57-.94.5,0,0-.09,0-.19.11l.44.29a5.82,5.82,0,0,0-.38,1.24c0,.73,0,1.47,0,2.2a1.91,1.91,0,0,0,.57,1.62c.18.17.2.5.29.76l-.83.1c.34,1.11-.62,2.5.77,3.59l-.7.09v7.63l28.45.25v.38c-1,.1-2.05,0-3.08,0s-2.12,0-3.22.07a5.17,5.17,0,0,1,4.29,3.73c.72-1.64,1.4-3.24,3.16-3.73a4.73,4.73,0,0,1,3.58.74,33.86,33.86,0,0,0-3.72.83c-1.32.45-2,1.6-2.56,3h6.89l0,.42c-.94,0-1.87.11-2.81.13s-2,0-3.06,0c0,1.6,0,3.09,0,4.59,0,.5-.13.78-.68.75s-.67-.21-.66-.71c0-1.47,0-2.95,0-4.5h-6.76c0,1.52,0,3,0,4.56,0,.44-.07.74-.6.75s-.75-.14-.74-.7c0-1.52,0-3,0-4.63h-3.08l1.35.51ZM96.3,36.93c-.44,2-.2,7.48.38,7.83a1.39,1.39,0,0,0,.09-.38c0-1.38-.08-2.77-.1-4.15a1.07,1.07,0,0,1,.15-.6,6,6,0,0,1,2.59-2.17c.12-.05.14-.33.21-.51l3.61.23-2.24.11a4.7,4.7,0,0,1,2.64,3.78,15.9,15.9,0,0,1,1.12-2.23,13.87,13.87,0,0,1,1.63-1.62h-2v-.14h1.86c-1.22-.16-2.44-.28-3.67-.34-2-.1-4-.16-6-.21C96.54,36.53,96.42,36.79,96.3,36.93Zm66.2,13.32c-.63-.09-.85.18-.93.8a5.45,5.45,0,0,1-.6,1.74,1.73,1.73,0,0,0,.23,2.42,1.78,1.78,0,0,1,.42,1.95,13,13,0,0,0-.3,1.38l.93.21v.19l-.88.31v.23l1,.14c.14-3.13,1.18-6.09.91-9.2l-.82-.18c.91-.22.91-.22.73-.87-.53.1-1.18-.1-1.55.6Zm33.8,14.61-.25,1.49L210,66.7a2,2,0,0,0-2-2.5l-11.06.09a1.6,1.6,0,0,0-.41.18,1.05,1.05,0,0,1,1.1-.63c3,0,6.06-.06,9.09-.08,1.15,0,2.36-.28,3.25.89.25-.61.16-1-.37-1.14a10.8,10.8,0,0,0-1.8-.22c-2.69-.2-5.38-.43-8.07-.56-1.57-.09-3.14,0-4.77,0v3.7c.65.21,1,.13,1-.65A2.77,2.77,0,0,1,196.3,64.86ZM86.67,77.29c-.07,1.57,0,3.17-.23,4.73-.3,2.25-.06,2.09-2.24,1.91-.49,0-.7.11-.71.62,0,.71-.07,1.42-.08,2.13,0,.24,0,.58.15.7s.46,0,.46,0c1.51.66,2.9.22,4.13.41-.15-6.76-.29-13.42-.44-20.1H86.4c.09,3.26.18,6.46.27,9.66l-.3-2.94-2.69.45v2.28h.56c1.75,0,2,.2,2,2v2.21h.27c0-.89,0-1.78,0-2.67A11.44,11.44,0,0,1,86.67,77.29Zm105.92,9.82a3.64,3.64,0,0,0,.2-.77c.2-5.1.41-10.21.59-15.32.05-1.43,0-2.87,0-4.36h-1.85V83.25c-1-.06-1.89-.16-2.79-.17-2.6,0-5.19,0-7.79,0a7.43,7.43,0,0,1-.81-.09v-.32h10.52a3.61,3.61,0,0,0,.07-.57c0-2.51,0-5-.15-7.54a5.76,5.76,0,0,0-1.45-3.39l.35,8.78c-.28-2.59-.39-5.18-.48-7.77a3.87,3.87,0,0,0-3-3.56V72.3c-.12-1-.1-2-.13-2.94s-.16-1.26-1.51-1.56V72h-.18V67.77A11.71,11.71,0,0,0,180.11,71a4.08,4.08,0,0,0-1,2.6c-.08,3-.25,6-.39,8.93,0,.27-.05.54-.08.82l-.31,0a3.88,3.88,0,0,1-.23-.92c-.06-2.63,0-5.25-.15-7.87a6.73,6.73,0,0,1,2.31-5.29,11.56,11.56,0,0,1,4-2.75l-.06-.2-7,.35c0,1.16,0,2.17,0,3.18,0,.28-.21.74-.4.79a6.62,6.62,0,0,1-1.48,0v-.28l1.06-.2c-.08-1.13-.16-2.23-.24-3.36l-1.23.07V78.9c.43,0,.83.13,1.24.16.71,0,.93.4.82,1.08s-.13,1.42-.23,2.12c-.05.32-.11.86-.29.91a5,5,0,0,1-1.4,0l0-.35.94-.31V80.41c0-1,0-1-1.14-.91V91.44c1.79,0,3.54,0,5.29,0s3.54-.08,5.31-.1,3.43,0,5.18,0c-.08-1-.15-2-.24-3.14-.48.06-1-.05-1.29.19-.58.55-1.21.38-1.85.38-.92,0-1.85,0-2.77,0-1.15,0-2.3.14-3.44.2a3.11,3.11,0,0,1-.6-.09v-.3l4.92-.43-1.82-1.21a.43.43,0,0,0-.23,0h-6.4v4h-.26V86.29a4.82,4.82,0,0,1,.93-.17c3.94,0,7.87,0,11.8,0,.94,0,2,0,1.86,1.54l.84-.37c-1.34,1.2-.74,2.66-.63,4h2.61c0-.32,0-.64.05-1q.09-5.09.19-10.16.12-6.36.25-12.71c0-.92,0-.92-.83-.77v.63c-.1,3-.2,6-.29,9-.11,3.41-.19,6.82-.32,10.23C193,86.79,192.73,87,192.59,87.11ZM42.55,92l.69.86h7.55c-.78.35-.92,1.16-.46,2.78H55.9c-.08-.75-.17-1.45-.23-2.15,0-.43-.21-.62-.67-.6-.76,0-1.53,0-2.29,0,1-.39,2.1.3,3-.55.15.1.3.31.45.3,3.34,0,6.67-.09,10-.15l.21-.77.17,0,.31.79,4.87-.22v.19l-3.77.21v2.8h6l-.22-3.19.24,0,.25.7,1.56-1.19C77.3,91,77.47,90.61,77,89c-1.29.5-1.28.5-1.27,1.77,0,.32,0,.65,0,1-1.41.15-.4-1.08-.94-1.5a19.76,19.76,0,0,1-1.9.93,3.34,3.34,0,0,1-2,.43c1.1-.58,2.19-1.1,3.3-1.57a1.16,1.16,0,0,0,.74-1.5c0-.27-.09-.53-.15-.88-.32,0-.62,0-.91,0-2.79-.1-5.57-.19-8.36-.31a1.28,1.28,0,0,1-.59-.3s0-.31.12-.34a1.46,1.46,0,0,1,.62-.12c2.93.09,5.85.21,8.77.3.83,0,1.29.31,1.2,1.22a3.57,3.57,0,0,0,.14.88c.88-.44,1.66-.89,2.49-1.22,1.29-.53,1.3-.5,1.27-1.92a.68.68,0,0,0,0-.17c-.92-.11-1-.89-1-1.52,0-1.94.07-3.88.14-5.82,0-.13.16-.26.25-.38l.2.06c0,.56-.08,1.12-.09,1.68,0,1.5-.08,3-.07,4.51a3.41,3.41,0,0,0,.36,1l.25-.09q-.15-8.2-.29-16.41H79v8h-.3V68.08l.59-.1c-.13-.76.3-1.64-.65-2.06a3.81,3.81,0,0,0-1.35-.26c-2.59-.12-5.18-.24-7.78-.3-2.16,0-4.31,0-6.51,0a5.15,5.15,0,0,0-.07.65q-.12,5.53-.22,11.07c-.08,4.82-.14,9.63-.23,14.44a2.88,2.88,0,0,1-.18.7L62,92.15c.16-8.92.31-17.84.46-26.71H42.81V78.9c.41,0,.76.08,1.11.14,1,.17,1.07.31.92,1.3-.09.62-.13,1.25-.22,1.87,0,.33-.07.89-.22.94a5.16,5.16,0,0,1-1.42,0l-.06-.33.92-.33c0-.7,0-1.44,0-2.18,0-1,0-1-1.14-.85,0,1.21,0,2.43,0,3.66,0,3-.08,5.9-.11,8.86-.78.07-.39-.53-.39-.79q0-12.34.14-24.68c0-.34,0-.68,0-1H35.45v-.18h6.84v-2.3l-1.83.28c-2.84.4-5.67.81-8.51,1.23-.19,0-.36.23-.54.36l.1.25c3.21-.24,6.37-1.08,9.61-1a.77.77,0,0,1-.53.29c-2.76.39-5.52.82-8.28,1.13-.75.09-.86.36-.86,1,0,5.06,0,10.12,0,15.17v4.89c.34,0,.64-.05.93-.05,1.91,0,3.83,0,5.74-.06.54,0,1.09-.1,1.63-.09a.81.81,0,0,1,.59.33c.08.12,0,.52-.1.57-.65.27-.44.8-.39,1.25s.24,1,.24,1.54c0,.3-.26.61-.4.91-.22-.22-.58-.41-.64-.68-.22-.86-.32-1.76-.46-2.62h-6c0,1.25,0,2.42,0,3.58,0,.24-.23.47-.35.71-.2-.16-.41-.3-.61-.47a2.47,2.47,0,0,1-.25-.37l-.19,1.73h5.33l.19-.8.14,0,.19.73h5.66Zm105-3.62.27,0a5.11,5.11,0,0,1,.17.73c.14,1.31.28,2.61.37,3.91.14,1.82,1.06,2.6,2.74,2.24V94.08l-.81-.1v-.09l.91-.15v-3.4h.27v3.4h3c-.26-.78.33-1.59-.53-2.3,2,0,3.86,0,5.73,0a3.13,3.13,0,0,0,1-.34c.81.78,1.89.19,2.79.34,0-1.41,0-2.72,0-4,0-.64.28-.83.91-.83,1.91,0,3.82,0,5.73,0,.58,0,1.15-.11,1.72-.09a.86.86,0,0,1,.61.4c.06.13-.15.4-.24.61s-.32.48-.31.72a11.73,11.73,0,0,0,.26,1.86c.09.43.2.91-.35,1-.23,0-.63-.46-.71-.78-.21-.81-.29-1.66-.42-2.48h-6.07c0,.94,0,1.81,0,2.68,0,.34.07.83.29,1a2,2,0,0,0,2-.38c.42.47,4,.67,5.82.31.13-1.82.25-3.65.39-5.6h-5.95l0-.24a5.79,5.79,0,0,1,.8-.13c1.51,0,3,0,4.51,0,.44,0,.73,0,.75-.6.19-5.35.41-10.71.61-16.06a13.08,13.08,0,0,0-.13-1.58l-8.64.7c0,.17-.06.27-.07.38q-.24,7.41-.49,14.83a5.61,5.61,0,0,1-.17.91l-.32-.06c.19-5.54.37-11.08.56-16.65l7.92-.61V67l1.3-.14-.4-2.45c-3.44.2-6.66,1-10,1.11.08-.2.18-.31.3-.32L172.54,64a.8.8,0,0,1,1,.74c.11.54.15,1.09.25,1.62a1.7,1.7,0,0,0,.3.47c.1-.14.27-.28.27-.42,0-1.09,0-2.18,0-3.39l-12,1.72c0,.11,0,.3,0,.49-.14,5.22-.27,10.44-.42,15.66,0,.7-.07,1.34.81,1.55a1.2,1.2,0,0,1,0,.21l-.89.1c0,1.64,0,3.25,0,4.86a10.38,10.38,0,0,1-.21,1.44c-.51,0-.88.07-1.24.06-.6,0-1.2,0-1.8-.1s-1-.43-1-1.16c0-1.27-.06-2.54-.1-3.8h-1.84V86h-.23c-.05-2.49-.11-5-.12-7.48,0-1.57.7-3.22-.47-4.67a16.12,16.12,0,0,1,.36-3.64,9.51,9.51,0,0,0,.27-2.51h-1.19v.94q-.06,9.69-.11,19.36c0,1.3-.05,1.34-1.46,1.21q-.12-5.88-.26-11.77h-.21V89.93H152V66l-2.79.13V83.8h-.07v-9l-1.34.13V85.74l1,.28,0,.3H129.29c.52.39.83,1.24,1.52.8l1.28,1.34.47-.62c.28,1.06.79,1.5,2.74,2.42l.31-1.72.16,0,.14,1.29h1.42L137.15,87h.26l.35,2.89h3l.13-1.26.2,0,.13,1.28,2,.13c.75,0,1.18-.18,1.07-1.06a10.74,10.74,0,0,1,.08-1.69h.32v2.6a4.48,4.48,0,0,0,1.79-.06c.28-.14.26-.88.43-1.57l.44,1.6.23,0Zm2.4-45.23-.29,0v8.39h-.33V43h-1.24c-.08,2.94-.17,5.85-.26,8.83a5,5,0,0,1-.83.07c-1.28-.07-2.55-.19-3.83-.25-1-.05-1,0-1.07,1.06,0,1.2,0,2.4,0,3.61,0,.3,0,.6-.06.91h-.26a5.32,5.32,0,0,1-.14-.78c0-1.28,0-2.57,0-3.85,0-.35-.34-1-.54-1-1.93-.08-3.86,0-5.94,0-.06.71-.14,1.4-.15,2.09,0,1,0,1.92,0,2.87a2.77,2.77,0,0,1-.11.56l-.32,0V51.55h-6.24V57.6H128V51.46h-5.8c-1,0-1.06.08-1,1.1,0,1.56.14,3.11.2,4.67a7.23,7.23,0,0,1-.07.79H121l-.45-6.51c-1.86,0-3.69,0-5.52,0a1.53,1.53,0,0,0-1.15,1.38c.05,1.39.11,2.79.15,4.18a7.67,7.67,0,0,1,0,.82h-.27a6.68,6.68,0,0,1-.13-.78c-.16-1.68.12-3.4-.5-5.06-.15-.43-.31-.57-.71-.56-1.42,0-2.84.08-4.26.09-.79,0-1,.52-1,1.12,0,1.77.15,3.54.21,5.31a1.15,1.15,0,0,1-.11.39H107a8.72,8.72,0,0,1-.19-1.23c0-1.31,0-2.62-.08-3.93s-.47-1.6-1.69-1.56-2.57.1-3.85.16c-.17,0-.46.07-.5.18A9.26,9.26,0,0,0,100,54.2c-.11,1.08,0,2.18,0,3.28a4.06,4.06,0,0,1-.14.76l-.3,0V52.07a9.31,9.31,0,0,0-5,1,5.56,5.56,0,0,0,1,1,1.33,1.33,0,0,1,.26,2.31.82.82,0,0,0-.24.47c-.06.61-.08,1.23-.11,1.82h50.44c0-.42,0-.72.07-1,.07-.58.2-1.09-.39-1.6s-.15-1.55.46-1.94a8.63,8.63,0,0,0,1.07-1l-.84-.44.05-.22h4.86a4.17,4.17,0,0,0,.06-.43c0-1.8,0-3.6,0-5.41,0-5.37-.1-10.75-.13-16.12,0-.76-.31-.89-1-.61l-.28,12.33.78.49ZM195.63,89.3h-.24c1-7.53.1-15.08.34-22.68l-.86.08q-.21,12-.42,24l.47-.12-.49.82H207l-.16-3.7-6.28-.25c-1.06,0-2.13-.06-3.19-.13-.17,0-.33-.26-.49-.4.16-.12.3-.31.48-.35a3.66,3.66,0,0,1,.81,0l3.34.15c1.69.07,3.38.13,5.08.17.69,0,1,.32,1,1,0,1.14.12,2.27.19,3.45h2.37V89.93c0-7.19-.06-14.38-.11-21.57,0-1.69.33-1.53-1.5-1.54-1.06,0-1.06,0-1,1,.12,5.14.26,10.28.38,15.41a6.56,6.56,0,0,1-.09.76h-.26a6,6,0,0,1-.1-.84c0-.87,0-1.75,0-2.62-.13-4.18-.29-8.36-.4-12.54,0-.65-.18-.88-.87-.91-3.11-.1-6.21-.26-9.32-.45-.73,0-1,.2-1,.91,0,2.7,0,5.41.08,8.12,0,2.46.09,4.92.07,7.38,0,1.66-.12,3.32-.21,5A10.85,10.85,0,0,1,195.63,89.3ZM146.35,64.49h-6.49v.25c.39,0,.78,0,1.17.06.19,0,.44,0,.54.1.57.6,1.11,1.25,1.65,1.88s.72,1.08,1.48,1.18c.18,0,.39.37.46.61.3,1-.16,1.62-1.25,1.62h-7.21a2.44,2.44,0,0,0,1,.25c1.18.13,1.27.13,1.28,1.31,0,4,0,8,0,12l-.18.08c-.09-.14-.26-.29-.26-.43,0-2.38,0-4.75,0-7.12,0-1.56,0-3.12,0-4.68,0-.39-.08-.73-.64-.74l-9-.18v.86c0,3.86,0,7.71,0,11.57a2.59,2.59,0,0,1-.35.81c-.14-.26-.39-.51-.4-.77-.07-1.61-.09-3.22-.12-4.83,0-.8,0-.82-.95-.74-.13,1.8.32,3.67-.29,5.44l-.26,0V80.3L114.7,80V82.2h2.81l.16-1.26.19,0L118,82.3h5.5v.32H118v1.59h4.21V83.08l.18,0,.26,1.17h2l.16-1.82h.23l.12,1.79c.57,0,1.11.08,1.65.07s.74.12.69.63c-.07.75.55,1,1,1,4.67.07,9.34.09,14,.11,1,0,2.08,0,3.11,0s1.12-.43,1.09-1.26c-.1-3.09-.15-6.18-.22-9.26,0-.13,0-.26-.06-.44-1.87,0-3.7,0-5.53,0a4.76,4.76,0,0,1-1.13-.31,5.28,5.28,0,0,1,1.1-.24c1.12,0,2.24,0,3.36,0h2.15V66.18l-1.17-.11,0-.26,1.14-.22ZM113.86,76.76c-.09-2.16-.17-4.24-.26-6.21H103c-.23,3.86-.46,7.56-.67,11.27,0,.45-.12.71-.83.64.2-4,.4-7.92.61-12H95.41V87.77L98,87.6a6.11,6.11,0,0,0,.14-3.14,14.57,14.57,0,0,1,.32-3.19h.22v3c1.31.14,1.31.14,1.31-1,0-.61,0-1.21,0-1.82h.35v2.81l1.33-.08.06-.88,1.07,1.2-.61.24.13,2.08,1.75-.21c-.17-.55.29-1.33-.77-1.34-.08,0-.22-.35-.22-.54s.17-.28.3-.39.51-.2.53-.34a10.1,10.1,0,0,0,0-1.46c0-.73,0-1.46,0-2.19h.34a4.93,4.93,0,0,1,0,.86c-.14.72.23.92.86.93,1.25,0,2.5.08,3.75.09,1.63,0,3.26,0,5,0a10.8,10.8,0,0,1,0-1.28c.08-.71-.16-.95-.91-.91-1.47.06-3,0-4.42,0v-.2h5.25v-3h-7.06v-.14ZM13.14,86.6l-.25,0a3.27,3.27,0,0,1-.14-.62c0-.57,0-1.15,0-1.72,0-1.56-.19-1.42,1.34-1.61.26,0,.52-.11.88-.18H12.58c0,1.54,0,3,0,4.49,0,.51-.05.83-.68.83s-.64-.41-.64-.87c0-1.28,0-2.57,0-3.85,0-.23-.29-.63-.46-.64-2,0-3.92,0-5.88,0-.14,0-.28.23-.42.35,1.37-.2,4.56-.07,5,.41a5.72,5.72,0,0,1-.66.07c-.92,0-1.85-.06-2.77,0-.51,0-1.2-.12-1.28.66-.13,1.27-.18,2.53-.26,3.84a4.52,4.52,0,0,0,.63.08L27,88.23c.58,0,.68-.24.67-.73,0-1.43,0-2.85,0-4.27a.84.84,0,0,1,.39-.65,21.26,21.26,0,0,1,2.09-.52V78c-1.67.6-1.57,2.22-2.14,3.43-.29-.71-.41-1.41-.68-2a3.34,3.34,0,0,0-3.08-2.08,2.67,2.67,0,0,0-2.76,1.89c-.34.77-.64,1.55-1,2.46a7.29,7.29,0,0,0,1.25.27c1.86,0,3.72,0,5.58,0a6.82,6.82,0,0,1,.79.1v.29H21.14a3.1,3.1,0,0,0-.12.44c0,.14,0,.27,0,.39a41.73,41.73,0,0,1,6.12-.06v.33H21.73c-.25,1.09-.52,2.07-.7,3.06-.08.45,0,.88-.65.89s-.71-.39-.71-.91c0-1.33,0-2.66,0-4a3.31,3.31,0,0,0-.73.06c-.08.83-.73.52-1.12.53-1.52,0-3,0-4.69,0Zm130.1-18.76.11-.2c-.44-.48-.88-1-1.31-1.43a3.06,3.06,0,0,0-2.45-1q-19.32.15-38.62.22c-.22,0-.52-.06-.64.06-.86.8-1.69,1.65-2.52,2.48l.11.19ZM63.45,49.4c-.05.82-.1,1.55-.14,2.27s.28,1.36,0,2H63l-.31-4.22H58.09v5.49c7.24-.62,14.47.46,21.45,1.89a11.18,11.18,0,0,1,.86-1.6,1.8,1.8,0,0,0,.14-2.51A4.39,4.39,0,0,1,80,51.36c-.12-.55,0-1.15-.17-1.7-.06-.28-.34-.7-.56-.73-1.49-.2-3-.33-4.48-.44-.15,0-.32.26-.47.4.14.16.26.38.44.45a2.5,2.5,0,0,0,.73,0l3.66.18v.16L74.4,49.5v5.11l-.3,0-.23-5.13H71.63c.36.67.71,1.25,1,1.85.21.42.2.73-.4.91a3,3,0,0,0-1.08.89c-.32.33-.5.79-.83,1.09-.58.52-1.12.34-1.23-.43a9.44,9.44,0,0,1-.1-2.19,18.47,18.47,0,0,1,.35-2.17H67c.06,1.14.14,2.23.15,3.32,0,.25-.24.51-.37.76-.13-.22-.36-.44-.38-.68-.12-1.14-.18-2.27-.26-3.45Zm114.75-26c6.8-.35,13.53-.67,20.41,1.09a17.84,17.84,0,0,0-.94-2.82,7,7,0,0,0-1.54-1.77c-1.56-1.4-3.15-2.76-4.71-4.11-.65,0-1.39.12-2.14.12s-1.58-.1-2.36-.14a3.24,3.24,0,0,0-3,1.23A14.77,14.77,0,0,1,181,19.27,7.35,7.35,0,0,0,178.2,23.39ZM66.74,24.53c0-.38,0-.57,0-.75-.15-1.22-.16-1.19-1.35-1.32a11.55,11.55,0,0,1-1.51-.39l0-.07,2.4.41c-.45-1.6-3.48-4.59-6.52-6.64-1.08.05-1.91.11-2.73.11-1,0-2-.11-2.94-.11a1.62,1.62,0,0,0-1.52.84,8.35,8.35,0,0,1-1.79,1.77c-.58.49-1.26.87-1.85,1.34a7,7,0,0,0-2.43,3.63C53.33,23.06,60.05,22.72,66.74,24.53Zm13,34.8,0,.17a2.91,2.91,0,0,1-.51,0c-1.27-.17-2.54-.37-3.81-.54A104.71,104.71,0,0,0,65,57.64c-5.7-.2-11.42,0-17.13,0-1.45,0-2.9.16-4.34.28-.23,0-.63.26-.64.41,0,1.19,0,2.39,0,3.66H62.45V61c-1.14.07-2.22.1-3.3.2A5.11,5.11,0,0,0,58,61.6c-.3,0-.64-.27-1-.28-1.91-.06-3.82-.06-5.73,0a1.09,1.09,0,0,0-.72.22c-.31.32-.43.17-.78,0s-1.45-.39-1.6-.17c-.64.95-.86.44-1.18-.31H43.64v-.26h3.44L47,59.69H43.34v-.33a10.22,10.22,0,0,0,1.75,0c.71-.11,1.59.43,2.13-.5,0-.05.4,0,.55.14a1.48,1.48,0,0,0,2,0,.71.71,0,0,1,.56,0,5.74,5.74,0,0,0,1,.37,23.23,23.23,0,0,0,3.44,0c.91-.09,2,.46,2.74-.48,0,0,.33.08.49.16s.31.29.47.29c1.33,0,2.65,0,3.87,0l.38-1,.24.06V62h1c2.81,0,5.64-.14,8.44.06,2.21.16,4.55,0,6.56,1.26,0,0,.1,0,.13,0v-1l-11.62-1.2-.49.68a4.26,4.26,0,0,0-.48-.62,1.4,1.4,0,0,0-.62-.28c-.66-.14-1.33-.23-2-.35l.05-.37,2.4.28c.15-.69,0-1.06-.71-1.06a16.81,16.81,0,0,1-1.88-.15,2.62,2.62,0,0,1-.58-.19l0-.24a8.22,8.22,0,0,1,.86,0l9,1.21c.25,0,.59.07.75-.07.39-.31.58-.29.83.14.07.14.37.19.57.21.68.08,1.36.12,2,.19a4.15,4.15,0,0,1,.61.14l0,.31-3.09-.16c.07.25.09.56.16.57,1.37.17,2.74.31,4,.45.2-.45.26-1,.49-1,1-.37.74-1.15.73-1.84-5.46-.51-10.73-2.09-16.2-2.08S53,56.66,47.58,57s-10.71,1.17-16.06,1.78l0,.34c1.56-.2,3.13-.41,4.7-.59,3.77-.44,7.53-1,11.31-1.26,2.83-.21,5.68-.1,8.53-.1,3.47,0,7-.2,10.41.11,4.26.38,8.48,1.19,12.72,1.83A2.27,2.27,0,0,1,79.77,59.33Zm87.15-9c0,1.48,0,2.87,0,4.25,0,.27-.41.52-.64.78a2.54,2.54,0,0,1-.35-.8c0-1.39,0-2.77,0-4.2h-1.65a1.84,1.84,0,0,0-.12.32q-.39,2.72-.79,5.43c-.09.58.21.65.67.6,1-.12,2-.19,3-.36a99.91,99.91,0,0,1,20.57-1.55c.59,0,1.18,0,1.76,0-.09-1.66-.17-3.21-.26-4.78h-2.5c0,.51,0,1,0,1.42,0,1.8-.28,2-2.08,2h-.09c-.92,0-1.17-.3-1.1-1.22,0-.69.16-1.38.25-2.11-.81,0-1.52,0-2.22,0-.49,0-.67.17-.66.67q.06,1.56,0,3.12c0,.25-.22.49-.34.74a3.13,3.13,0,0,1-.51-.52,2.13,2.13,0,0,1-.32-.89c0-1,0-2,0-3h-3.61a13.24,13.24,0,0,0,0,2c.12.79-.32,1.15-1,1.67V50.27l-.56,0c-1.07,0-1.08,0-1.08,1v3.29c-.66.14-.9,0-.89-.53,0-.71-.07-1.41-.1-2.12,0-.53,0-1.07,0-1.65-.56,0-1,0-1.43,0-.62,0-.84.24-.77.83,0,.4,0,.82.06,1.22.05.7.11,1.39.17,2.22l-1.69-.24V54l1.11-.2-.18-3.43ZM92.79,66.14c.11,6.52.21,13,.31,19.45H93c-.12-6.49-.24-13-.36-19.53H89.66V87.74c.81,0,1.58.4,1.9-.65.46.78,1.06.91,2.47.61V66.14Zm-38-35.5c.69.51,1.35,1.08,2.08,1.53a4.41,4.41,0,0,1,2.16,3.66c.08,1.09.06,2.18.06,3.27,0,.46.05.79.65.55,0-1.29,0-2.56,0-3.84a2.24,2.24,0,0,1,.14-1.08c.59-1,1.24-2,1.92-3a.79.79,0,0,1,.71-.1,6.44,6.44,0,0,1,3.36,5.11c.1,1.11,0,2.23,0,3.42l1,.09c.25-2.56.43-5,.78-7.5a1.4,1.4,0,0,0-1-1.74,20.13,20.13,0,0,0-9.25-1.69c-1.64.1-3.28.15-4.91.27-2.56.19-5.11.42-7.45.62,0,.59.13,1.09.12,1.59s-.17.92-.17,1.38-.09,1.28.2,1.5c1.1.86.82,2,.83,3.09,0,.75-.07,1.5-.11,2.23.64.19.86,0,.84-.56,0-1,0-1.91,0-2.87a.82.82,0,0,0-.12-.45c-1.16-1.34-.9-2.67,0-4,.32-.51.61-1,1.32-.91s1.59.18,1.89,1a14.11,14.11,0,0,1,.87,3.14,42.11,42.11,0,0,1,0,4.35c.52.2.83.18.85-.4,0-1.12.12-2.23.17-3.35.08-1.87.45-3.57,2.39-4.46C54.38,31.33,54.55,31,54.82,30.64ZM210,62.71l.18-.25c-.22-.13-.44-.37-.68-.39-1.05-.09-2.11,0-3.15-.17-2.3-.28-4.59-.62-6.74-.91-.28.34-.44.56-.63.75,0,0-.33-.17-.33-.26,0-.64-.47-.62-.91-.68-.61-.08-1.21-.2-1.82-.31l.05-.36,2.46.26-.05-1-3.13-.32,0-.35c.71,0,1.42,0,2.12.11,2.6.36,5.19.75,7.79,1.12.23,0,.56.07.69,0,.36-.37.56-.3.83.09a.85.85,0,0,0,.56.23c.71.08,1.42.11,2.13.19a2.41,2.41,0,0,1,.54.21,3.8,3.8,0,0,1-1.49.19c-.51,0-1-.08-1.52-.13l-.13.2c.13.16.25.44.4.46.94.12,1.89.18,2.79.26.07-.1.1-.12.1-.14.26-2,.26-2-1.73-2.36-5.07-.84-10.12-1.78-15.3-1.65-4.4.12-8.8.09-13.2.18-1.63,0-3.26.21-4.91.33v4h19.52V61c-1.13.07-2.22.11-3.3.21a7,7,0,0,0-1.31.43c-.5-.61-1.42-.3-2.29-.32l-3.93,0c-.44,0-.94-.2-1.22.37a.72.72,0,0,1-.54-.1,1.38,1.38,0,0,0-1.91.05,1.08,1.08,0,0,1-.67,0c-.13-.7-.68-.52-1.1-.53-.85,0-1.7,0-2.55,0v-.4H179c.15-.73-.08-.94-.66-.92-.79,0-1.59,0-2.38,0a3.47,3.47,0,0,1-.63-.11l0-.33c.68,0,1.36,0,2,0s1.38.33,1.81-.49c0-.05.4,0,.55.12a1.44,1.44,0,0,0,2,0,.73.73,0,0,1,.56,0c.32.09.63.35,1,.36,1.58,0,3.17,0,4.75,0,.5,0,1.12.25,1.44-.44,0,0,.34,0,.5.07s.35.35.53.35c1.32,0,2.65,0,4,0l.2-1,.28,0v3.74A67.79,67.79,0,0,1,210,62.71ZM198.9,41.05c.29-3.18.59-6.37.88-9.56a5.26,5.26,0,0,0-2.94-1c-4-.21-8.07-.55-12.12-.7a27.79,27.79,0,0,0-7.51.61c-.07,1.18-.17,2.28-.19,3.39a2.67,2.67,0,0,0,.32,1,6,6,0,0,1,.63,1.43,24.35,24.35,0,0,1,0,2.7c0,.56,0,1.12,0,1.67.59.11.86,0,.83-.59-.07-1.14,0-2.29,0-3.44a.87.87,0,0,0-.12-.54c-1.22-1.37-.81-2.73,0-4.09.29-.48.61-.9,1.29-.81s1.59.14,1.83,1a31.74,31.74,0,0,1,1,4.52,27,27,0,0,1,0,3.72c.39.09.63,0,.65-.59.08-1.67.2-3.33.37-5a3.6,3.6,0,0,1,1.72-3,13,13,0,0,0,1.39-1.07c.4.27.91.68,1.47,1a5.13,5.13,0,0,1,2.74,4.71q0,1.68,0,3.36c0,.57.19.73.78.6,0-.9,0-1.79,0-2.69a10.34,10.34,0,0,1,.17-3.11,13.76,13.76,0,0,1,1.85-3,.55.55,0,0,1,.51-.08,10.18,10.18,0,0,1,2.17,1.82c1.45,2,1.57,4.34,1.31,6.71C197.77,41.11,197.73,41.12,198.9,41.05ZM126.52,70.74l-12-.29v6.29l12,.4Zm79.92-20.83c-.13,1.61.16,3.17,0,4.7h-.37c-.08-1.55-.15-3.11-.22-4.69h-2a12.36,12.36,0,0,1,.74,1.52c.06.21-.1.7-.21.72-.85.15-1.2.75-1.56,1.43a2.21,2.21,0,0,1-.78.8.58.58,0,0,1-1-.36,2.76,2.76,0,0,1-.15-.8c0-1.1,0-2.2,0-3.32h-1.93c0,1,.11,2,.11,2.89a2,2,0,0,1-.31.73,3.38,3.38,0,0,1-.45-.64,1.52,1.52,0,0,1,0-.57c-.06-.81-.13-1.61-.18-2.37h-2.85v4.88c4.8-.21,9.41.83,14.09,1.58V45.84l-.79.6c-.34-.28-.63-.57-1-.81s-1.21,0-1.23.46c-.07,1.2,0,2.4,0,3.61a3.72,3.72,0,0,1,.95.12c.3.12.75.34.77.57a27.1,27.1,0,0,1,.16,3c0,.17-.18.35-.33.64-.94-1.35.21-2.77-.49-4ZM43.31,48.18V42.7c-1,.94-2.05,1.77-2.16,3.11s0,2.79,0,4.18,0,3.08,0,4.62l-.33.12c-.16-.21-.42-.39-.47-.62a6.47,6.47,0,0,1-.16-1.46c0-1,0-1.95,0-2.92H38.1v4.8l-1.55-.25V54l1-.15v-4.1H35.94c1.57-.31,1.57-.31,1.53-.54l-2.65-.67.39,1.15a6.49,6.49,0,0,0-.16.87c-.06,1.4-.08,2.79-.18,4.18,0,.24-.36.45-.55.68-.14-.22-.38-.43-.41-.66a10.9,10.9,0,0,1,0-1.4V49.85L32,50v6.68c.39,0,.74,0,1.09-.09,2.71-.38,5.41-.79,8.12-1.13C43,55.28,43,55.32,43,53.63c0-1.33,0-2.66,0-4l-1.17-.06v-.1l1.3-.06v-1H42v-.1Zm48.16-2.65-.43.11c0,1.74,0,3.49,0,5.23a2,2,0,0,1-.26.8,4.49,4.49,0,0,1-.37.52,2.91,2.91,0,0,0,.63.21c2.77.25,5.48-.33,8.22-.6a.8.8,0,0,0,.55-.51,4.54,4.54,0,0,0-3.1-4.85,1.08,1.08,0,0,1-.39-.25,6.29,6.29,0,0,0-1-.86c-.82-.45-.94-.36-.94.62,0,1.72.06,3.45.07,5.17a4.58,4.58,0,0,1-.14.81l-.38,0V45.46c0-2.18,0-4.37,0-6.55s-.41-4.18-.06-6.35l-1.58.13V44.9l1.22.19,0,.31-1.28.31v5.84H92a7.84,7.84,0,0,1-.08-.82c0-1.51,0-3-.07-4.51C91.81,46,91.59,45.76,91.47,45.53Zm-10.5,2-.33.12c.3,1.68.57,3.35.91,5,.17.8.58,1.66,0,2.36-1,1.3-.47,2.69-.54,4.08a5.41,5.41,0,0,0,.56.06h4.76a.93.93,0,0,0,.38-.12l1.31-.62c.17-.08.4-.11.5-.24a2.12,2.12,0,0,0,.46-.86c0-.11-.4-.36-.65-.43-1.3-.35-1.46-.76-.68-1.87l0-.06a7.18,7.18,0,0,0,1.53-5.18,14.25,14.25,0,0,1,.25-2.66c0-.18,0-.36.06-.67a12.76,12.76,0,0,1-1.73,1.28,3.63,3.63,0,0,0-2,3.49,7.13,7.13,0,0,1-.46,1.55c.34.55.27,5-.2,5.64-.39-.43.23-1.28-.59-1.71l-.19,1.63-.35,0c0-.28,0-.57,0-.86-.07-2.2-.16-4.41-.22-6.62C83.83,48.87,82.45,48.15,81,47.53Zm43.24,41.31c0-1.33-.28-1.63-1.61-1.8a7.93,7.93,0,0,0-1-.07c-4.78,0-9.56,0-14.33.11-2.74.06-5.53-.19-8.17.86-.25.1-.6.33-.63.54a12.07,12.07,0,0,0,0,1.79ZM156,52.76a8.36,8.36,0,0,1-.42-2c.1-2.5-2.15-2.9-3.33-4.12,0,1.61,0,3.18,0,4.74a2.16,2.16,0,0,0,.18.88c.5,1,1,2,1.56,2.92s.42,1.34-.63,1.66a3.67,3.67,0,0,0-.86.55,4.2,4.2,0,0,0,.69.9,2,2,0,0,0,.9.19c.54,0,1.08,0,1.62,0h4.92a7.73,7.73,0,0,0-.33-2.78,3.39,3.39,0,0,1-.21-3.26c.73-1.59.42-3.29.66-5-1.79.69-3.1,1.57-3.14,3.58,0,2.16-.11,4.31-.17,6.47,0,.28,0,.56-.06.83l-.25,0-.31-1.59-.31.07-.12,1.6-.38,0C156.19,56.5,155.67,54.58,156,52.76ZM54.57,49.43c0,.68,0,1.28,0,1.88,0,2-.37,2.31-2.38,2.13-.58,0-.93-.31-.88-.93.09-1,.2-2,.3-3H48.69c0,1.42,0,2.76,0,4.09a3.79,3.79,0,0,1-.31,1,6.47,6.47,0,0,1-.83-.73c-.11-.14-.07-.42-.07-.64V49.6H43.56v5.32H57.32L57,49.43ZM177.38,63.82l0-.33a2.36,2.36,0,0,1,.51-.12c4.89,0,9.78.08,14.67.17a1.07,1.07,0,0,1,.75.64,15.13,15.13,0,0,1,.3,2,1.65,1.65,0,0,0,.11.26l.7,0V62.87H174.9v4l1.16-.26,0-.19-.89-.41c1.24-.38,1.74-.24,2.15.4h13.1v-.33H178.11v-.3h13.33c.23.77.52.87,1.95.56-.09-.78-.18-1.57-.28-2.51ZM145.13,44.55c-.06-.11-.16-.21-.17-.32a8.07,8.07,0,0,0-.28-2.17A21.13,21.13,0,0,0,142.87,39a4.81,4.81,0,0,0-1.07-.86,7.72,7.72,0,0,0-.71,1.11,9.6,9.6,0,0,1-.88,2.38c-.8,1-.36,2.05-.55,3.11h7.13V37.17h-4.18C145.18,39.07,145.1,41.82,145.13,44.55ZM121.48,4.71a2.79,2.79,0,0,0,.74,2.87,10.32,10.32,0,0,0,3,2.06,6.55,6.55,0,0,0,4,.57,2.85,2.85,0,0,1,.51,0c-.13.18-.19.32-.26.32-1.18.08-2.37.13-3.62.19l-.31,1.28,2.75.23c-1.3.77-4.12.06-6.82-1.55.55,1.68.76,1.93,2.31,2.52a10,10,0,0,0,2,.61c2,.3,3.94.57,5.92.75.92.09,1.18-.34.94-1.23a7.25,7.25,0,0,0-.38-1.17,1.68,1.68,0,0,1,.64-2.34,2.4,2.4,0,0,0,.38-.43c-5,.27-6.9.15-9.79-2.42a8.18,8.18,0,0,0,1.77,1.71,12.39,12.39,0,0,0,2.29.9l-.19.26C124.19,9.73,123.05,7,121.48,4.71ZM56.94,48.21a5.73,5.73,0,0,0-3.18-6.15.86.86,0,0,0-.32-.05c-1.32-.1-2.53.08-3.27,1.38-.12.21-.32.38-.43.59a6.38,6.38,0,0,0-1,4.26c1.13-.14,2.22-.29,3.31-.39a8.15,8.15,0,0,1,1.71,0C54.8,47.91,55.88,48.08,56.94,48.21Zm123.63-.45H189a4.15,4.15,0,0,0-1.21-3.93c-.47-.41-.91-.87-1.38-1.28a4.45,4.45,0,0,0-3.28-.19A7.55,7.55,0,0,0,180.57,47.76Zm-42.49-3a.82.82,0,0,0,0-.17,8.86,8.86,0,0,0-1.43-4.86,3.44,3.44,0,0,0-1.47-1.27c-.19-.1-.69.46-1.06.72-1,.7-1.24,1.87-1.6,2.92a10,10,0,0,0-.26,2.44c-.64.12-.82-.09-.78-.59.07-.79.06-1.59.16-2.37.24-1.8.64-3.53,2.59-4.28h-5c2.15,2.16,1.71,4.87,2,7.46ZM42.86,65.17H62.41v-2.3H42.86Zm83.71,15V77.34l-11.91-.43v2.94Zm72-53.79.2-.17c-.19-.45-.3-1.21-.59-1.29a20.55,20.55,0,0,0-4.49-.9c-4.17-.19-8.35-.23-12.53-.29a19.29,19.29,0,0,0-2.62.22.85.85,0,0,0-.59.4,11.81,11.81,0,0,0-.3,1.53C184.75,25.17,191.69,24.74,198.59,26.33ZM66.89,25a42.41,42.41,0,0,0-9.45-1.35c-3.39,0-6.78.09-10.17.17-.33,0-.85.16-1,.39A6.68,6.68,0,0,0,46,25.76c7-.56,14-1.05,20.93.69ZM130.73,44.7c0-2,.27-3.88-1.2-5.46-.51-.55-1-1.18-1.83-1.14s-1.75,1.21-2,1.93a3.59,3.59,0,0,1-.48.82c-.11.2-.3.41-.3.61,0,1.06,0,2.12,0,3.24Zm-33.33.08c-.06,0,0,0,.1,0,1.74,0,3.49-.05,5.24-.13a.8.8,0,0,0,.48-.62c-.09-1.28.09-2.55-.58-3.81a8.59,8.59,0,0,0-1.85-2.07,1,1,0,0,0-.92,0,3.41,3.41,0,0,0-1.11.82,6,6,0,0,0-1.33,3.22A15.9,15.9,0,0,0,97.4,44.78ZM162.32,64c3.64-.5,7.12-1,10.61-1.44.65-.09,1.33-.37,1.4-.87a24.52,24.52,0,0,0,.06-3.54c-3.8.49-7.48,1-11.15,1.46a1,1,0,0,0-.63.65C162.46,61.45,162.41,62.66,162.32,64Zm-97.45.26,0-.29a2.94,2.94,0,0,1,.58-.1c3.58,0,7.16-.1,10.74-.1a2.3,2.3,0,0,1,1.25.46A17.74,17.74,0,0,1,79,65.61l.25-.15a4.38,4.38,0,0,0-.54-1.13,3.84,3.84,0,0,0-3-1.09c-2.72-.06-5.44-.36-8.16-.49-1.52-.08-3,0-4.61,0v2.34l15,.38a2.79,2.79,0,0,0-2.37-1.27c-3.3.12-6.61.1-9.92.13C65.42,64.31,65.15,64.27,64.87,64.25Zm30.4,3.92c1.68.46,2.47-.75,3.4-1.72.3-.31.64-.59.93-.92A1.63,1.63,0,0,1,101,65l37.16-.18a9.86,9.86,0,0,0,1.07-.09v-.25a4.81,4.81,0,0,0-.65-.08c-5.14,0-10.28,0-15.42.07q-9.13.06-18.27.15c-3,0-6,.07-8.92.06-.83,0-.81.4-.63,1l1,.16V66l-1,.18Zm25.85-41.46c-.3.28-.66.65-1.06,1a4,4,0,0,0-1.55,2.86c-.08.72.17.93.79,1s1,.13,1.43.19l0,.37-2.1-.14c.59.95.59,1,1.51,1,1.14,0,2.29,0,3.44.09.55,0,1.3-.36,1.56.57,0,.06.3.07.46.07,1.58,0,3.17,0,4.75,0a4.41,4.41,0,0,0,.62-.09v-.27c-.24,0-.49,0-.74,0-1,0-2.08,0-3.11,0s-2.14,0-2.52-1.24l-.55.64-.26,0C124.64,29.92,123.33,28.14,121.12,26.71ZM110.47,44.64a3.44,3.44,0,0,1-.43-.82c-.24-1.2.22-2.54-.83-3.59-.55-.55-.95-1.25-1.51-1.8a.92.92,0,0,0-.92,0,13.56,13.56,0,0,0-2.07,3,12.46,12.46,0,0,0-.53,3.21Zm6.67,0c-.07-2,.11-3.89-1.41-5.45-.49-.51-1.55-1.09-1.93-.74A4.19,4.19,0,0,0,112.55,40c-.55,1.51-.92,3.08-1.38,4.7Zm-105.09,37a2.54,2.54,0,0,0,.78.28q3.27,0,6.53,0c.45,0,.72-.24.5-.76s-.35-1-.58-1.52a3.42,3.42,0,0,0-4.08-2A4.06,4.06,0,0,0,12.05,81.65ZM229.61,82c-.16-2.74-2-4.56-4.44-4.5-1.63,0-3.42,2.16-3.48,4.13C224.29,82.24,226.93,81.81,229.61,82ZM205.88,49a10.46,10.46,0,0,1-.4-1.58c-.19-1.89-1-3.22-3-3.7-1-.25-1.57-.23-2.17.6-.34.46-.59,1-.94,1.44A2.72,2.72,0,0,0,199.1,48ZM31.52,59.63v1.61c.68-.38,1.68.22,1.88-1,0,0,.49-.09.52,0,.29.67.81.44,1.31.36,1-.17,2.05-.3,3.07-.51.25-.05.44-.36.69-.49a1.23,1.23,0,0,1,.65-.13c.4.06.79.23,1.19.28a10.26,10.26,0,0,0,1.24,0l0,.31c-.37,0-.73.11-1.1.14-1,.07-1,.09-.82,1.22l2-.22c-1,.46-1.78.83-2.56,1.17-.11,0-.26,0-.39,0a3.79,3.79,0,0,0-.94-.12c-.84.06-1.68.15-2.52.28-.66.1-1.44-.19-1.94.53,0,.06-.25,0-.38,0l-2.05-.41.05,1.22c3.39-.47,6.66-.9,9.93-1.4.34,0,.86-.5.88-.79.11-1.16,0-2.32,0-3.54ZM73.57,48.12c-.21-3-1.27-3.79-2.57-4.65a2,2,0,0,0-1.57-.22c-1.35.58-2.58,3.28-2.3,4.87ZM95.31,59.59h51C145.76,59,95.78,59.18,95.31,59.59Zm37.33-27.27-.06.16c.24.11.47.32.71.33,1.17,0,2.35,0,3.52,0a.72.72,0,0,0,.45-.26,2.66,2.66,0,0,0-.21-3.26c-.86-.92-1.75-1.82-2.62-2.71l-.93,1.25a16.09,16.09,0,0,0-1.44,2.08c-.61,1.25-.13,1.92,1.25,1.94.35,0,.69,0,1,.07v.29ZM125.09,32a5.43,5.43,0,0,0,.78.51c1.36.61,2.79.27,4.19.29.19,0,.48-.31.55-.54a3.53,3.53,0,0,0-.66-3.39c-.63-.78-1.32-1.51-2.09-2.4a36.05,36.05,0,0,0-2.21,3.2c-.86,1.54-.51,2,1.25,2,.29,0,.57.05.85.07l0,.27ZM63,45.28h-.07c-.05-.87-.11-1.74-.14-2.61,0-.58-.39-.72-.83-.6a3.29,3.29,0,0,0-1.26.61C59.22,44,57.92,45.36,58,47.5c0,.44.2.63.65.62,1.22,0,2.45,0,3.68,0,.52,0,.65-.2.62-.68C62.93,46.69,63,46,63,45.28ZM177.59,27.09c3.54-.05,7-.19,10.52-.12s7,.35,10.69.54c-.15-.23-.3-.69-.5-.72-2.34-.36-4.59-1.16-7-1-4.24.23-8.52-.3-12.74.52C178,26.39,177.44,26.37,177.59,27.09Zm52.68,54.57c2.36.57,4.75.16,7.13.29-.06-2.24-2.23-4.37-4.15-4.11A3.31,3.31,0,0,0,230.27,81.66ZM4.51,82c2.14,0,4.27,0,6.41,0,.15,0,.42-.31.44-.5a3.35,3.35,0,0,0-3.49-3.54C6,78.15,4.64,79,4.51,82Zm41.42-54.9c4.88,0,9.69,0,14.49,0,2,0,4,.23,6,.34.18,0,.36-.13.54-.2-.14-.14-.26-.37-.42-.39-2.34-.29-4.58-1.2-7-1.06-4.24.25-8.52-.34-12.74.49C46.29,26.36,45.74,26.32,45.93,27.05Zm171.64,64.6h-6.11c-.39.6.58,1.7-.76,1.89h5.73l.11-1.77.27,0,.09,1.81h6.33l-.09-1.94h-5L218,93.07h-.27ZM104.16,82.56l.14,1.7h13.18V82.69c-1.12.18-2.24-.3-3.16.4a5.16,5.16,0,0,0-1.1-.32C110.26,82.69,107.29,82.63,104.16,82.56Zm37.23-55.71L140,28.48c-.21.25-.53.47-.61.75a7.18,7.18,0,0,0-.33,2.14c0,.14,1,.24,1.54.33.33.05.67.07,1,.1v.3h-2.44c.66.68,3,.88,4.68.56.15-.54.29-1,.43-1.5.37-1.25,0-2.18-1-2.56A2.73,2.73,0,0,1,141.39,26.85Zm53.37,20.91c0-1.69,0-3.29,0-4.89a.61.61,0,0,0-.25-.45,2.33,2.33,0,0,0-2.15.41,25.64,25.64,0,0,0-2,2.79,3.89,3.89,0,0,0-.31,1.65c0,.15.3.47.46.47C191.91,47.78,193.3,47.76,194.76,47.76Zm-4.65,2.14v4.87h4.67c0-.69.14-1.23-.42-1.87s-.38-1.54-.6-2.33c-.07-.25-.3-.63-.48-.64C192.28,49.86,191.27,49.9,190.11,49.9ZM114.33,31.67l0,.37-2.58-.11-.11.19c.31.18.61.51.92.53,1.11.06,2.23,0,3.31,0,.21-.36.43-.72.64-1.09a1.8,1.8,0,0,0-.07-2.4,23.76,23.76,0,0,0-1.9-1.55c-.08-.07-.27,0-.41,0A2.73,2.73,0,0,0,112,29.56c-.58,1.56-.73,1.87,1.28,2Zm-9,.36-.11.36c.22.11.44.31.67.32,1,0,2.08,0,3.11,0a.73.73,0,0,0,.53-.37,3.49,3.49,0,0,0-2.26-5,5.32,5.32,0,0,0-.74.67,11.19,11.19,0,0,0-1.46,2.13c-.51,1.13-.17,1.55,1.06,1.58.48,0,1,0,1.45,0V32ZM128,51.22a23.31,23.31,0,0,0-1.61-3,2.45,2.45,0,0,0-1.6-.8c-2.06-.19-3.5,1.48-3.33,3.77Zm7.05.13h6.14a4.05,4.05,0,0,0-2.68-3.82,2.09,2.09,0,0,0-2.59,1A22.69,22.69,0,0,0,135.08,51.35ZM98.47,32.83c1.36,0,2.5,0,3.64,0a.68.68,0,0,0,.47-.42c.43-1.42.58-2.81-.85-3.83a2.26,2.26,0,0,1-.34-.35,1.22,1.22,0,0,0-2.16.18,2.43,2.43,0,0,0-.41,1C98.67,30.47,98.59,31.58,98.47,32.83Zm22,18.42.24-.23c-.47-1-.87-2-1.42-3a1.58,1.58,0,0,0-1.12-.71c-2.06,0-4,2-3.39,3.93ZM190.2,34.37l-1.75,1.35c-.35.28-.87.51-1,.87-.4,1.17-.65,2.38-1,3.71h4.16A15.11,15.11,0,0,0,190.2,34.37Zm-150,14a5.39,5.39,0,0,0-.86-3.73c-.76-1-1.58-1.2-2.45-.21A16.26,16.26,0,0,0,35,47.37c-.17.32-.34,1,.45,1C37,48.41,38.56,48.39,40.17,48.39Zm66,3.15c-.1-.47-.15-.79-.24-1.1-.19-.62-.36-1.26-.61-1.86a1.8,1.8,0,0,0-3-.73,4.93,4.93,0,0,0-1.54,3.69Zm60.87-3a32,32,0,0,0,5.15-.23,5.39,5.39,0,0,0-1.09-4,1.06,1.06,0,0,0-1.42-.39,4,4,0,0,0-2,2.19,1.24,1.24,0,0,0,0,.89C168,48,168,48.12,167,48.5ZM49.9,95.65c0-.72,0-1.34,0-2s-.2-.67-.69-.66c-.9,0-1.8,0-2.7,0-1.13,0-2.25.07-3.44.12l.12,2.52Zm57.45-44.28c1.81,0,3.44,0,5.07,0,.17,0,.5-.38.47-.53a11,11,0,0,0-.65-2.34,2.38,2.38,0,0,0-2.4-1.17,1.78,1.78,0,0,0-1.65,1.28C107.86,49.45,107.65,50.35,107.35,51.37ZM124.4,44.7a7.93,7.93,0,0,1-.37-1.45,7.85,7.85,0,0,0-.64-3.27c-.59-1.17-1.39-2-2.52-1.79l.27,6.51Zm49.83,22.38L174,67a2.66,2.66,0,0,0-.18.61l-.57,16.45c0,.58-.25,1.24.35,1.38a5.45,5.45,0,0,0-.51,1.34c-.15,1.44-.21,2.89-.31,4.44l1.41.25ZM120,37.26H107.9A3.3,3.3,0,0,1,110,40c.23,1.16.34,2.34.51,3.56a8.53,8.53,0,0,1,.19-1.49,16.88,16.88,0,0,1,1.05-3.15,2.77,2.77,0,0,1,2.92-1.42,2.51,2.51,0,0,1,2.24,2c.25.8.41,1.63.62,2.54C117.91,40.13,118.26,38.38,120,37.26Zm8.64,14h5.73c0-2.16-1.12-3.63-2.7-3.71S128.87,48.88,128.62,51.27ZM67.47,95.6V92.8c-.58-.17-.81,0-.79.51a7.3,7.3,0,0,1-.09,1.14l-.31,0-.09-1.61H61.72V95.6ZM47.29,48.14c.42-2.67-1.42-5.66-3.48-5.58v5.58ZM92.1,32c2.08,0,1.65,0,1.65-1.52,0-2.32,0-4.65-.08-7,0-.23,0-.46,0-.71h-2C92.05,25.87,91.91,29,92.1,32Zm25.45,53.34H104.34v1.26l13.21-.27ZM192,95.9c0-.64,0-1.16,0-1.67s-.2-.59-.65-.56c-1,0-2,0-2.94,0h-2.66v2.22h1.71v.16l-1.73.09,0,.19h6.1v-.27h-1.72V95.9ZM58.7,39.64a14.65,14.65,0,0,0-.52-5.28c-.63.5-1.19.92-1.72,1.36s-.92.6-1.09,1a26.65,26.65,0,0,0-.78,2.91Zm135.86,1c.89.06,1.54.06,2.18.15.48.06.67-.1.68-.56,0-1.52.09-3.05,0-4.57a1.67,1.67,0,0,0-.89-1.22c-.67-.21-1,.42-1.29,1a1.09,1.09,0,0,0-.07.24C195,37.33,194.77,39,194.56,40.68Zm-18.63,2V48.1l3.37-.19C179.64,45.4,177.8,42.57,175.93,42.73Zm-26.56-.4V29.79h-1c-.12,4.19-.23,8.34-.35,12.54ZM56.27,95.64h5V92.89H56ZM42.73,93.22H37v2.43h5.72ZM233,95.59v.25h-2.93l0,.27h6.13V93.79h-6.16v1.8ZM79.63,48.71a3.63,3.63,0,0,0-1-3.65c-.35-.3-1.21-.6-1.37-.43a10,10,0,0,0-2.61,3.61Zm62.67,2.76h4.19a3.72,3.72,0,0,0-.55-3.08,2.21,2.21,0,0,0-1.4-.73A1.46,1.46,0,0,0,143,48.71C142.71,49.56,142.54,50.43,142.3,51.47ZM36.52,95.67V93.25H31.2v2.42Zm29-55.58c0-.94.06-1.78,0-2.61A8.56,8.56,0,0,0,65,35.06c-.34-.85-1-.84-1.44,0a9.11,9.11,0,0,0-.77,4.84Zm144.6,18.84,0-.27c-15.71-3.18-31.4-2.14-47.08.39,1.34,0,2.67-.17,4-.35,2.6-.35,5.18-.91,7.79-1.09,4.19-.27,8.4-.35,12.6-.43,6.67-.13,13.34-.22,19.9,1.27C208.27,58.66,209.2,58.77,210.13,58.93Zm-62.6,7.22v8.22l1.7-.18-.32-8ZM96,44.79c0-.4-.06-.69-.07-1,0-2.16-.14-4.31-.11-6.46,0-1-.41-1.52-1.49-1.34v8.53Zm52.57-15.68c.75.21,1.07,0,1.07-.81,0-1.44.1-2.89.16-4.34a6.45,6.45,0,0,1,.11-.73l.23,0v5.82c.73.23.93,0,.92-.63,0-1.87,0-3.74,0-5.58h-2.48Zm68.34,66.74h6.42a12.51,12.51,0,0,0,0-1.51c0-.17-.26-.45-.4-.45-2,0-4,0-6,0Zm-12.88,0v-2.1h-5.78l.19,2.1Zm.43,0h5.73V93.8h-5.73ZM191.9,91.7h-6.27l.09,1.8h6.18Zm37.71,2v-2h-3.33l-.2,1.33-.26,0-.14-1.33h-2.2a14.64,14.64,0,0,0,.15,1.58.71.71,0,0,0,.5.44C225.93,93.69,227.73,93.68,229.61,93.68Zm-50,2.17h5.69v-2h-5.69Zm18.21-2.19c-1.36,0-2.64,0-3.92,0-1.58,0-1.55,0-1.61,1.6,0,.55.18.65.64.65,1.18,0,2.35,0,3.53,0h1.58Zm-18.64.22h-6c0,.67-.07,1.28-.11,2h6.08Zm37.22,2V93.84h-5.78V95.9Zm-12.34-2.42V91.66H198l.2,1.82Zm19.67,2.44c1.57-.06,3-.11,4.45-.2s1.58-.1,1.43-1.67c0,0,0-.09-.07-.12h-5.92C223.68,94.6,223.71,95.19,223.75,95.92Zm-56.68-2.24c1.74,0,3.39,0,5.05,0,.42,0,.77,0,.74-.58s0-1.32-.63-1.36c-1.7-.12-3.41,0-5.16,0Zm-6.57-1.92h-5.69v1.95h5.69Zm-70.44-33h4.71L95,56.42h-5Zm77,35.15c0,.44,0,.76,0,1.08-.05.63.17.9.83.84s1.2,0,1.8,0c1,0,2,0,3.1,0V93.93ZM82,73.52l.21-.15V87.63h.92c0-.53.09-1,.11-1.45a6.51,6.51,0,0,0,0-2.2,14.93,14.93,0,0,1-.43-6.23c0-.24.29-.46.31-.7a7.53,7.53,0,0,0,0-2.32C83.05,74.26,82.42,73.92,82,73.52Zm128.09,20V91.69h-5.59v1.82Zm-122.6-3,.18-1.25.29,0,.14,1.17h1.36l-.33-2.26H84.48c0,.63,0,1.25,0,1.86a.62.62,0,0,0,.43.43C85.78,90.58,86.62,90.56,87.51,90.56Zm142.54,2.88h6.1c.07-2,0-2-1.18-1.74l-.14,1.19h-.26l-.2-1.25h-4.32Zm-63.41-1.9-2.35.47a1.49,1.49,0,0,1-.47,0l-3-.43.12,2.12h5.68Zm18.69.18h-5.86l.14,1.76h5.72Zm-12.06-.11v2h5.91c0-.41,0-.73,0-1,.06-.7-.26-.89-.91-.85-.93,0-1.86,0-2.79,0a6.09,6.09,0,0,0-1.09.24ZM145.81,54.85h6.64c-.49-.73-.77-1.57-1.33-1.88a5.22,5.22,0,0,0-2.18-.1c-.78,0-1.6-.22-1.9,1C146.92,54.25,146.23,54.52,145.81,54.85Zm-52.08-2c-.75,0-1.81,0-2.87,0a.77.77,0,0,0-.52.14c-.41.56-.78,1.15-1.25,1.86h6.55Zm104,40.64c-.07-2.32.15-1.76-1.82-2-.27,0-.55.08-.81,0-.47-.06-.76.08-.87.55,0,0-.09,0-.19,0l-.14-.63-1.58.14v1.82ZM82.31,90.45l.23-1.27.26,0,.12,1.26h1V88c-.63.16-1.3.13-1.61.45a2,2,0,0,1-2.79.12,1.76,1.76,0,0,0-1.3-.22,1,1,0,0,0-.68.64,7.93,7.93,0,0,0,0,1.66l1.86-1.45.31,1.22ZM166.66,94H161v1.75c1.4,0,2.73,0,4.07,0C166.78,95.84,166.78,95.85,166.66,94Zm28.62-51.3v4.4c0,.08,0,.18,0,.24s.2.46.32.46c.83,0,1.66,0,2.48,0A6.84,6.84,0,0,0,195.28,42.74ZM135.6,37.15c2.6,1.55,2.54,4.12,3,6.68.27-2.64,0-5.27,2.84-6.68ZM63.39,42.72V48h2.77A8.26,8.26,0,0,0,63.39,42.72ZM83.5,74.18h.71c1.89-.08,1.89-.08,2-2s-.19-2.26-2.09-1.8c-.08,0-.18,0-.23.06s-.39.34-.4.51C83.48,72,83.5,73.06,83.5,74.18ZM77.27,91.43c-1.08.73-1.94,1.3-2.77,1.91a.66.66,0,0,0-.27.53c.06,1,.18,2,.27,2.89l2.77-2Zm96-43.19,2.09-.16V42.84A4.67,4.67,0,0,0,173.26,48.24ZM117,46.66h-6.27l-.13.18c2.36.61,2.58,2.51,2.85,4.45C114.12,49.29,114.89,47.46,117,46.66Zm34.41,9.76h-4.37l.15,2.17h4.33Zm3.29,39.17h5.81V94.08h-5.81Zm-87.14.3h-5.8v1.93l5.8-.78ZM185,66.58c2,.92,4.09,1.77,5.46,3.81V66.58Zm-81-20a3,3,0,0,1,1.9,2.1c.3.87.49,1.78.73,2.67.42-2.1.71-4.2,3.32-4.77Zm14.26-1.88h1.88V38.9C118.46,40.55,118.33,42.54,118.28,44.7Zm62-4.21c.62-.09,1.46.31,1.51-.46.14-1.84.05-3.69.05-5.54-.77-.08-.94.36-1,.9a2,2,0,0,1-.68,1.76.44.44,0,0,0-.12.36C180.09,38.49,180.17,39.46,180.24,40.49ZM68,97.05h6.16L74,95.8H68ZM185.23,15.37h5.53l-2.42-2.9Zm-41,31.49h-6.15c2.52.37,3.55,2,3.8,4.4a11.44,11.44,0,0,1,.53-2.53A8.82,8.82,0,0,1,144.21,46.86ZM57.34,60.79c.1-1,.09-1-.89-1H50.58l-.19.27c.17.27.33.76.51.76C53,60.81,55.2,60.79,57.34,60.79Zm132-1h-6.82l.06,1h6.86ZM48.19,39.94l1.6-.11V34.46a.86.86,0,0,0-1,.9c-.06.48-.06,1.08-.35,1.38a1.76,1.76,0,0,0-.42,1.57C48.08,38.82,48.13,39.34,48.19,39.94Zm78.93,30.41v6.93l1,.07c0-2.16,0-4.23,0-6.3C128.17,70.34,127.88,70.18,127.12,70.35Zm-43.7-5.58h2.42l-.42-3.2h-2ZM190.13,49.7h3.44c0-.1.06-.15.07-.2l.21-.81a2,2,0,0,0,.46.45c.12,0,.45-.06.46-.13a5.42,5.42,0,0,0,0-1h-4.67ZM94.77,90.49V88.24H91.89v2.25Zm5.44-39c.11-2.21.6-4.16,3.23-4.68l-.14-.19H98.56C99.86,48.43,99.86,48.43,100.21,51.44ZM75.43,96.59c2.65.44,4.53-.9,5.29-3.56-.59.21-1.32.24-1.65.63a13.33,13.33,0,0,1-3.26,2.78A3,3,0,0,1,75.43,96.59Zm10.18-35c.09.67.17,1.28.26,1.89.22,1.44.22,1.45,1.67,1.35a.2.2,0,0,0,.11-.06c.12-.94.27-1.87.34-2.8,0-.16-.31-.48-.48-.49A17.88,17.88,0,0,0,85.61,61.55ZM125.1,46.78c1.64.55,2.34,1.88,2.93,3.35,1.18-2.43,1.18-2.43,2.45-3.35ZM179.45,50l-.1-1.87-3.41.19V50ZM59.07,15.46l-2.37-2.8-2.4,2.58ZM32,44.44c0,1,0,1.82,0,2.68,0,1.39-.29,1.26,1.34,1.29.48,0,.69-.13.67-.65A3.28,3.28,0,0,0,32,44.44ZM150.74,61.9h-3.27v1.6h4.46ZM95.3,90.43c.78,0,1.49,0,2.19,0,.17,0,.47-.18.48-.3,0-.65,0-1.31,0-2-.76,0-1.46,0-2.16,0a.66.66,0,0,0-.5.44A15.52,15.52,0,0,0,95.3,90.43Zm-83.48-11,3-2.36h-6C11.22,78.32,11.36,78.43,11.82,79.48ZM133.25,61.29h13.17C145.9,60.79,134.09,60.78,133.25,61.29ZM226.76,77.1l3,2.41c.38-1.32,1.69-1.74,2.82-2.41ZM86.2,69.65c0-.5,0-1-.1-1.53,0-.19-.21-.5-.34-.51-.75,0-1.5,0-2.21,0V70Zm78-25V49a13.08,13.08,0,0,0,1.34-.12.66.66,0,0,0,.41-.39A3.77,3.77,0,0,0,164.23,44.63ZM219,77c.68.89,1.35,1.77,1.91,2.52L223.63,77ZM17.93,77l2.73,2.53L22.57,77ZM180.7,49.91c1.41,0,2.83.34,3.89-.87a3.92,3.92,0,0,0-3.89-.89ZM128.15,86.32l-.24.13c.1.66,0,1.54.34,1.92a13.73,13.73,0,0,0,2.64,1.74c0-.63,0-1.09-.1-1.55a1.25,1.25,0,0,0-.31-.77C129.73,87.26,128.93,86.81,128.15,86.32ZM83,74.17l.28,0a6.51,6.51,0,0,0,0-.77c0-1.63,0-3.26,0-4.9,0-1.07-.14-1.16-1.26-.86v3.71h0l.13-1.72.34,0C82.79,71.12,82.45,72.72,83,74.17Zm69.32-8.64c-.26-.52-.42-1.12-.6-1.13-1.43-.08-2.86,0-4.34,0v1.17Zm5.51-2,.29-.06V61.9h-3.73v1.7l1.34-.23c.47.41,1.11.12,1.72.14l.09-.82Zm-84-2.3L74,61c-.19-.15-.35-.38-.57-.44A14,14,0,0,0,72,60.27l-4.61-.73v1Zm132,0L206,61c-.22-.16-.42-.42-.67-.47-1-.21-2.09-.37-3.14-.53l-2.79-.41-.21.25c.2.26.37.72.59.75C201.81,60.84,203.82,61,205.82,61.27ZM137,46.82h-5a5,5,0,0,1,2.77,3.1A3.31,3.31,0,0,1,137,46.82Zm2.95,15.07-.21.27c.21.16.41.45.62.45,1.83,0,3.66,0,5.49,0,.56,0,.62-.27.41-.73Zm-13.21-.82H115.82C116.25,61.6,126.09,61.68,126.73,61.07ZM77.56,94.17c2-1.4,2.24-2.11,1.54-4.13A13.3,13.3,0,0,0,78,90.9a1.18,1.18,0,0,0-.43.69C77.52,92.4,77.56,93.22,77.56,94.17ZM189.05,48H186.3c.18,1.89.18,1.89,2,1.81l.78,0ZM118,86.46h4.42l-.08-1.07H118Zm8.78-49.17h-4.13a12.56,12.56,0,0,1,1.09,1.52,11.6,11.6,0,0,1,.62,1.74A3.84,3.84,0,0,1,126.77,37.29Zm35.07,12c1.82-.11,1.46,0,1.45-1.39,0-.55,0-1.09-.06-1.63s-.08-.81-.12-1.28C161.58,46.18,161.94,47.76,161.84,49.29Zm-103.69-1-.2.2c.17.25.33.7.51.7,1.48.06,3,0,4.53,0l-.07-.93Zm137.13-.19a11.88,11.88,0,0,0,0,1.22c0,.14.19.38.3.38.85,0,1.71,0,2.54,0,.1-1.59.1-1.59-1.28-1.62C196.37,48.08,195.89,48.09,195.28,48.09ZM92.13,63l-.32,1-.27,0-.19-1.06c-1.66-.3-2,0-1.7,1.44L93.93,64V63Zm35.19.56H133l.15-.23c-.21-.17-.42-.48-.64-.49-1.68,0-3.36,0-5.08,0ZM39,60.47c-1.47.24-2.83.47-4.21.67-.59.08-.73.35-.47.92L39,61.54ZM130,62.68v0c.78,0,1.57,0,2.36,0,.17,0,.33-.23.5-.35-.17-.13-.34-.35-.51-.36-1.52,0-3,0-4.57,0-.16,0-.31.25-.47.38.16.13.32.35.48.36C128.56,62.71,129.29,62.68,130,62.68Zm-24.89.25h4.63l0-.87H105Zm-.72-.89H99.9v.9h4.57Zm87.84-26.72c0,1.55,0,3.09,0,4.63,0,.66.47.66,1,.57C193.35,38.66,193.47,36.85,192.26,35.32ZM126.74,63.63c.08-.56,0-.8-.59-.78-1.52.07-3.05.07-4.57.14-.26,0-.5.28-.75.42l.1.22Zm-1.66,21.83c.06.35,0,.85.21,1,.7.57,1.49,1,2.3,1.56C127.79,85.7,127.19,85.09,125.08,85.46Zm11.21-22.84v0c.79,0,1.58,0,2.37,0,.2,0,.37-.26.56-.39-.17-.12-.34-.33-.52-.33-1.55,0-3.11,0-4.67,0-.18,0-.35.21-.52.33.19.13.37.36.57.37C134.81,62.64,135.55,62.62,136.29,62.62Zm-14.67-.72-.22.79h5.24c.24-.61,0-.8-.53-.8Zm24.61,1.67.22-.29c-.2-.16-.4-.44-.61-.44-1.82,0-3.65,0-5.48,0-.19,0-.37.26-.55.4.18.11.35.32.53.32C142.3,63.58,144.27,63.57,146.23,63.57Zm-30.73-.7.22-.23c-.19-.22-.37-.62-.57-.63-1.58,0-3.15,0-4.79,0l.06.89Zm-24-29.58h-.26c0,2,0,4,0,5.94,0,1.75-.07,3.49-.09,5.24,0,.16.18.32.27.49.1-.16.28-.31.29-.48,0-.57,0-1.14,0-1.71C91.67,39.61,91.61,36.45,91.54,33.29Zm59.93,62.06,2.85.17V94.1h-2.85ZM82.3,90.72H79.71l.19,1.77,1.26-.21C82.41,92.12,82.42,92.11,82.3,90.72ZM190.35,60.79c1.19-.07,2.33-.17,3.46-.18.67,0,.83-.22.64-.83h-4.1Zm-69.49-14,.18,3a3.6,3.6,0,0,1,3.3-3ZM58.31,60.81l4.19-.27,0-.74H58.31Zm23.7.72v3.24h1.14V61.53Zm72.73,34.39c-.14.36-.1.62.44.61,1.61,0,3.22,0,4.83,0,.21,0,.41-.19.61-.3l-.09-.3Zm-21.09-33.1-.18.29c.2.16.4.45.61.45,1.56,0,3.11,0,4.67,0,.16,0,.32-.24.48-.38-.15-.12-.29-.34-.44-.34C137.08,62.81,135.36,62.82,133.65,62.82Zm-46.1,28h-3v1.12h3Zm69.93-16.72c0-1,0-2,0-3,0-.68-.26-.88-1-.76,0,1,0,2.05,0,3.08C156.49,74.09,156.77,74.23,157.48,74.09ZM125,89.05l2.59.25c.1-.71-1.19-1.79-2.49-2.14ZM26.86,77l1.32,2,2.11-1.82L30.14,77ZM43.64,49.3h3.71v-.87H43.7ZM211.41,77l-.14.2L213.38,79l1.34-2ZM199.1,48.23v1.31c1.64.46,2.29.23,2.82-1Zm-23.74.06-2.15.14v1.7c.62-.24,1.44.41,1.61-.84l.54.73ZM91.29,90.5V88.26H89.68a7.83,7.83,0,0,1,.3,1.38C90,90.48,90.35,90.76,91.29,90.5ZM48.69,49.14h4.06c-1.34-1.09-2.69-.87-4.06-.81Zm51.59,37.59H102l-.16-2-1.44.1Zm-39.91-47h.93c-.09-1.58-.14-3.08-1.17-4.37ZM172.15,50.07V48.58c-2.06-.14-2.28,0-1.92,1.49ZM124.67,85.4h-2.09c.19.5.23,1,.51,1.25a7.88,7.88,0,0,0,1.58.82ZM86.8,60l0-.3H80.94l.26.73a4.87,4.87,0,0,1,.53-.21,3.9,3.9,0,0,1,.93-.21C84,60,85.42,60,86.8,60ZM121.46,8.57c-.08,1,1.12,2.4,2.4,2.82,0-.4-.07-.8-.15-1.19a.8.8,0,0,0-.31-.48C122.78,9.33,122.15,9,121.46,8.57ZM113,63.71h0c.7,0,1.41,0,2.12,0,.19,0,.37-.21.55-.31-.17-.11-.35-.32-.53-.31-1.42,0-2.83,0-4.25.09-.15,0-.29.19-.44.29.14.09.28.24.42.25C111.53,63.72,112.24,63.71,113,63.71ZM116.23,62c-.12.59,0,.89.63.85a15.44,15.44,0,0,1,2,0c.62,0,.88-.24,1-.84ZM110,33.52V33.3h-5.93v.22ZM99.2,62.07H95.7l.09.8H99.2Zm-4.46-2.39.08-.13a1.38,1.38,0,0,0-.44-.27c-1.08-.21-5.14,0-5.57.4Zm71.94,36.76,0-.26a1.12,1.12,0,0,0-.4-.16c-1.66,0-3.32-.07-5-.07-.15,0-.29.2-.44.31.17.09.33.25.49.25,1.44,0,2.88,0,4.32,0C166,96.52,166.36,96.46,166.68,96.44ZM67.11,48.33v.91c1.12-.16,2.35.49,3.16-.91Zm49.74-14.81v-.27c-1.9,0-3.81-.2-5.71,0v.3Zm-87,49-.25.08c0,1.73,0,3.47,0,5.2,0,.13.19.26.29.39.08-.15.23-.29.23-.44,0-1.55,0-3.11,0-4.66C30.17,82.92,30,82.73,29.89,82.54ZM167.05,50.06h2.53v-1l-2.53-.14ZM89.49,65.15A10.1,10.1,0,0,0,94,65.5l0-.72Zm41.93-33.08c-.45.68-.08,1.6.49,1.61,1.85,0,3.7,0,5.56,0,.13,0,.27-.13.41-.19l0-.19h-6.07Zm-77,16.24-.19.22c.19.23.36.65.58.67a19.35,19.35,0,0,0,2.3,0L57,48.31Zm11.75.87-.07-.89h-2.6v.89ZM147,59.51h5.77C151.82,59,147.79,59,147,59.51Zm-19.67,1.78a34.07,34.07,0,0,0,5.44,0C132.37,60.88,128.27,60.83,127.36,61.29Zm-28,2.1-.13-.24H95.83v.67c1,0,2,0,3,0C99,63.79,99.14,63.54,99.31,63.39ZM156.1,74.1l.26-.12c0-1.11,0-2.22,0-3.33,0-.14-.21-.28-.33-.42-.09.13-.27.26-.28.4,0,1,0,2,0,2.93C155.72,73.74,156,73.92,156.1,74.1ZM73.76,49.29l.17-.2c-.15-.22-.29-.63-.45-.64-.93-.06-1.86,0-2.92,0C71.46,49.84,72.74,49,73.76,49.29ZM110.13,61c.41.55,4,.68,5,.22A25.29,25.29,0,0,0,110.13,61Zm56.94,35.11,0,.24h5.62v-.24ZM104.44,63.77l.34-.48a3.57,3.57,0,0,0-.55-.11c-1.35,0-2.71,0-4.07,0-.1,0-.2.19-.3.29.12.1.24.29.36.29C101.63,63.77,103,63.77,104.44,63.77ZM86.16,65.33c-.12,1.27,0,1.34,1.56,1.66V65.33ZM99.93,86.8V84.88H98.74V86.8Zm19.76-23.11.15-.26c-.16-.14-.33-.4-.49-.41-.93,0-1.86,0-2.78,0-.12,0-.24.22-.35.33.12.1.25.29.37.29C117.62,63.7,118.66,63.69,119.69,63.69Zm4.6-29v-.16h-6.94v.16Zm-90.36,14c-2.19-.23-2.1-.14-1.83,1.14l1.83-.11Zm71.24,14.5-.08.26c.14.09.28.28.42.28,1.3,0,2.61,0,3.91,0,.12,0,.23-.17.34-.26-.1-.09-.21-.26-.31-.27ZM85.78,66.5l.31-.22c-.2-.33-.35-.89-.6-1a11.89,11.89,0,0,0-2.19,0C83.86,66.66,85.09,66,85.78,66.5ZM105,61.35a31.5,31.5,0,0,0,4.74.17C109.17,61,106.14,60.89,105,61.35Zm51.58,6.24c-.2,2.2-.19,2.22.85,2.28V67.59ZM70.76,49.35l-.31.1.1,2.3,1.53-.59Zm47.57-2.68.32-.25,2,2-.29.32V46.67ZM96.39,33.38v.16h6.51v-.16Zm8.06,28.07c-.62-.52-4-.53-4.75,0Zm27-26.89v.18h6.34v-.18Zm.95,55.8c.21-1.26,0-1.64-1.2-2C131.11,90.27,131.11,90.27,132.42,90.36Zm51.81-53.59h-.18l-.19,3.61,1-.1ZM154.42,65.32v1.75h1.09V65.32ZM157.36,77V74.71l-.79,0V77Zm21.74,19.4v-.18h-6v.18ZM125,34.52v.19h5.84v-.19Zm80.84,15.06.07-.28-3.16-.71A2.45,2.45,0,0,0,205.84,49.58ZM147.21,60.93c.72.69,3.83.6,4.14,0ZM204,51.2c-.47-1.29-.73-1.48-1.5-1.23,0,.63.07,1.24.1,1.78Zm-39.88-2c.12.37.17.83.29.85a3.28,3.28,0,0,0,1.43,0c.15,0,.14-.6.21-1-.35,0-.56,0-.77,0S164.61,49.17,164.09,49.24ZM89.84,91.83c-.18-1.19-.31-1.25-1.72-1v1ZM38.09,48.59l.12.95,2.23-.12c-.28-.44-.45-1-.69-1A6.32,6.32,0,0,0,38.09,48.59Zm73.1-14.09v.16h5.5V34.5Zm68.44,61.71v.13h5.65v-.13Zm-23-30.88v1.75l.87,0v-1.7ZM99.21,61.46c-.65-.54-3.14-.48-3.56,0Zm56.51,15.73c.62-.16.87-1.09.62-2.28,0-.18-.3-.31-.46-.47l-.16.17ZM95.49,90.89l0-.09h-3.7l.07.72Zm51.51.75c-.18-.57-.24-1.16-.41-1.19a11,11,0,0,0-1.9,0l0,.34Zm-94.76-55-.24,0v3.11l.72-.07ZM83.38,66.45c.12.2.23.56.36.57.73,0,1.48,0,2.21,0l0-.22A4.12,4.12,0,0,0,83.38,66.45ZM48,59.83l0,.87h1.64l0-.87Zm133.61.86c.08-1-.15-1.11-1.54-.8C180,60.8,180,60.83,181.62,60.69ZM84,90.8H82.86l-.11,1.31L84,92ZM94.08,62.32l-.2-.29c-.49,0-1,0-1.46,0a.51.51,0,0,0-.34.33.49.49,0,0,0,.32.34,2.87,2.87,0,0,0,1,.07C93.68,62.74,93.87,62.48,94.08,62.32Zm62.24,5.17c-1,.47-.44,1.25-.55,1.83,0,.12.25.31.39.46l.16-.16ZM33.15,61.41a11.89,11.89,0,0,0-1.39.21.47.47,0,0,0-.27.39c0,.11.23.27.36.28a8.66,8.66,0,0,0,.89-.07C33.36,62.19,33.38,61.89,33.15,61.41ZM134.87,90.59,133,89.3C132.75,90.61,132.87,90.69,134.87,90.59Zm-10.5-80.41c-.28.9-.14,1.17.66,1.38C125.56,10.5,125.52,10.43,124.37,10.18ZM158,70V67.56C157.58,67.82,157.49,69.27,158,70ZM102.86,34.61v-.14H98v.14Zm41.93,12.3,1.81,1v-1ZM104.14,34.49v.15h5.76v-.15Zm53.8,36.1h-.22v3.54h.22Zm-1.57-4.38.15-.07-.47-.84a9.37,9.37,0,0,0-.28.9.79.79,0,0,0,0,.48,1.8,1.8,0,0,0,.32.42,1.77,1.77,0,0,0,.26-.41A1.92,1.92,0,0,0,156.37,66.21ZM82,66.09V67h1.17C83.39,65.84,82.59,66.2,82,66.09Zm8.15,24.73c.09.43-.06.94.62.87s.64-.37.46-.87ZM90,62.39l.13.29a5,5,0,0,0,1,0c.11,0,.15-.34.23-.52a3.64,3.64,0,0,0-.85-.1C90.37,62.07,90.2,62.27,90,62.39Zm119.82,33.9V96.2h-5.19v.09ZM92.13,61.2l0,.33c.6,0,1.23.21,1.77-.33Zm100.46,35v.11h5.29v-.11Zm6.13,0v.09h5v-.09Zm-50.89-4.13-.33-1.89C147.08,91.32,147.12,91.7,147.83,92.08Zm10.34-26.87c-.46.35-.66,1.5-.42,1.73.05,0,.17.09.21.06s.2-.18.2-.28C158.19,66.26,158.17,65.8,158.17,65.21ZM225.81,96l0,.13h3.73V96ZM83.26,66c-.12-1.09-.78-.61-1.33-.67C82.11,66.14,82.69,65.9,83.26,66Zm6.79-4.83v.24h1.44v-.24ZM157.69,77h.17V74.83h-.17ZM36.81,42.87l-1.55.3C36,43.91,36.4,43.34,36.81,42.87Z"/><path class="cls-1" d="M93.76,10.26A17.38,17.38,0,0,0,93,8a1.17,1.17,0,0,0-2.18-.1,6.64,6.64,0,0,0-.58,1.6,1.54,1.54,0,0,1-.31.67c-.06-.13-.18-.26-.16-.38.14-1.18.35-2.33,1.6-2.93.16-.07.26-.38.3-.59.06-.41.06-.84.09-1.26h.31A7.54,7.54,0,0,1,92.13,6c0,.43.15.61.47.9a5.79,5.79,0,0,1,1.19,1.78,7.23,7.23,0,0,1,.35,1.59,9.81,9.81,0,0,1,1.37.21c.22.07.38.33.57.5a2.16,2.16,0,0,1-.63.4,1.87,1.87,0,0,0-1.4,1.75c.09.54.27,1.07.45,1.75.32,0,.8,0,1.29,0s.69.41.38.76A5.75,5.75,0,0,0,94.78,20c0,.44-.14.67-.77.6a20.31,20.31,0,0,0-3.82,0c-.67.05-.91-.06-.92-.72a4.69,4.69,0,0,0-1.83-4.16.65.65,0,0,1-.22-.6.91.91,0,0,1,.63-.35c.56,0,1.13,0,1.8,0l-.19-1.15c1.09-.33.42-1.23.63-1.87L88,11l0-.3C89.86,10,91.77,10.54,93.76,10.26Zm-2,9.73H94a6.08,6.08,0,0,1,1.43-4.62h-2c-.14,1.19-.26,2.37-.44,3.55a2.6,2.6,0,0,1-.43.8c-.11-.26-.34-.54-.32-.8.09-1.19.24-2.37.38-3.6H90.75C92,16.73,91.62,18.38,91.74,20Zm-1.07.08.23-.1c0-1.61.19-3.25-1.06-4.71l-1,0a7.48,7.48,0,0,1,1.57,4.35C90.4,19.8,90.58,19.93,90.67,20.07Zm3.16-6.18H90.07l.09.88h3.75Zm-2.3-2.32c0,.4,0,.73,0,1,0,.64.26.83.87.8s.51-.47.46-.86-.06-.63-.1-1Zm-1-.15c0,.51,0,.91-.07,1.31a1.71,1.71,0,0,0,0,.32c0,.11.1.26.19.3a.42.42,0,0,0,.36-.06A2.26,2.26,0,0,0,90.57,11.42Zm3.55,0c-.35.09-.72.11-.74.21-.12.55-.16,1.13-.23,1.69l.3,0Z"/><path class="cls-1" d="M147.08,14.91c.16-.65.26-1.14.4-1.63a1.88,1.88,0,0,0-1.26-1.85,2.59,2.59,0,0,1-.72-.37c.23-.2.42-.48.68-.57a6.71,6.71,0,0,1,1.24-.19c.33-1.4.35-3,2.09-3.68V5l.25,0a5.93,5.93,0,0,1,.13,1,1,1,0,0,0,.58,1,3,3,0,0,1,1.08,3.33c-.11-.44-.16-.71-.25-1a7,7,0,0,0-.68-1.64,1.11,1.11,0,0,0-2,.15,17.63,17.63,0,0,0-.82,2.39c2,.25,3.91-.23,5.77.65-.4.16-.8.31-1.19.51s-.85.36-.88.59c-.06.55-.34,1.31.58,1.53l-.2,1.21c.64,0,1.21,0,1.77,0,.23,0,.59.12.66.29a.75.75,0,0,1-.23.68,4.69,4.69,0,0,0-1.82,4c0,.83-.13.84-1,.79a24.7,24.7,0,0,0-3.75.09c-.51.05-.65-.1-.72-.5a2.7,2.7,0,0,1,0-.57,5.18,5.18,0,0,0-1.23-3.71,1,1,0,0,1-.21-.7c0-.12.4-.21.62-.23A10.89,10.89,0,0,1,147.08,14.91Zm-.72.46a15.92,15.92,0,0,1,1,2.25,14.74,14.74,0,0,1,.3,2.38h2.16c0-1.62-.18-3.26,1-4.67H149c.14,1.2.31,2.33.39,3.47,0,.3-.23.62-.36.93a3.22,3.22,0,0,1-.38-.85c-.18-1.17-.3-2.36-.45-3.51Zm5.15-.06a2.17,2.17,0,0,1-.22.65c-.86,1.13-.61,2.44-.64,3.71,0,.11.16.23.25.34.09-.1.25-.21.26-.32a7.54,7.54,0,0,1,1.57-4.38Zm-3.83-.54h3.78l-.05-.92H148.1a1.94,1.94,0,0,0-.42.1Zm2.35-1.5a9.38,9.38,0,0,0-.17-1.68c0-.09-.7,0-1.05,0C148.62,13.58,148.62,13.58,150,13.27Zm.36.12c.28-.05.64-.07.64-.12,0-.59,0-1.18,0-1.77l-.47,0Zm-2.3-.05h.34c-.08-.57-.13-1.15-.26-1.71,0-.09-.4-.09-.71-.16Z"/><path class="cls-1" d="M19,111.3a6.69,6.69,0,0,1,1-.12l18.13.2c12.7.14,25.41.32,38.11-.41,2.56-.15,5.11-.51,7.66-.77.22,0,.44,0,.67,0l.08.28a2.9,2.9,0,0,1-.76.31c-2.72.29-5.43.65-8.15.8-12.46.69-24.92.54-37.38.37-6.13-.08-12.25-.13-18.37-.2a8,8,0,0,1-1-.11Z"/><path class="cls-1" d="M73.62,105.47a1.84,1.84,0,0,1,.52-.23c5.49-.65,11-1.49,16.51-1.1,2.8.2,5.57.79,8.37,1.07,4.32.44,8.65.79,13,1.15,4.11.34,8.23.64,12.35,1,.43,0,.87,0,1.31.06.18,0,.34.18.52.27-.19.1-.37.3-.55.29-1.94-.09-3.88-.19-5.81-.33-4.09-.29-8.19-.54-12.27-.94s-8.25-.92-12.36-1.51a58.43,58.43,0,0,0-14.89,0l-5.86.68c-.25,0-.5,0-.76,0Z"/><path class="cls-1" d="M124.6,100.63a1.08,1.08,0,0,1,.49-2,7.61,7.61,0,0,1,2.18.2c1.58.42,3.14.93,4.71,1.42a8.16,8.16,0,0,0,5.3-.28,3.31,3.31,0,0,1,3.72.58,6.53,6.53,0,0,0,.56.35,1.44,1.44,0,0,0,1.88,0,12.27,12.27,0,0,1,2.86-.92c.12,0,.29.13.43.21-.09.11-.17.27-.29.32-1.16.49-2.31,1-3.49,1.4a1.07,1.07,0,0,1-.95-.14c-1.53-1.83-3.47-1.67-5.42-1.08a8.42,8.42,0,0,1-6.58-.61,7.8,7.8,0,0,0-4.27-.92c-.65,0-1.18.14-1,1C124.8,100.32,124.68,100.46,124.6,100.63Z"/><path class="cls-1" d="M61.1,102.68c.61,1.23,1.56,1,2.52.74a4.94,4.94,0,0,1,3.65.44,1.66,1.66,0,0,0,2,0,5.67,5.67,0,0,1,2.18-.59c2.42-.44,4.86-.79,7.26-1.29a22.74,22.74,0,0,0,3-1.09,1.37,1.37,0,0,1,.5,0c-.06.16-.07.41-.18.47a8.16,8.16,0,0,1-1.93.88c-2.91.6-5.84,1.09-8.75,1.68-.79.16-1.52.56-2.3.76a2,2,0,0,1-1.29,0,6.21,6.21,0,0,0-4.91-.51,1.54,1.54,0,0,1-1.82-.61,2.23,2.23,0,0,1-.18-.65Z"/><path class="cls-1" d="M1.6,91.67c9.32.41,18.59-.11,27.83.18l0,.3a4.55,4.55,0,0,1-.63.09q-11.76,0-23.53-.06a28,28,0,0,1-3-.27A2.83,2.83,0,0,1,1.6,91.67Z"/><path class="cls-1" d="M149.54,20.84a15.42,15.42,0,0,1,1.8,0c.26,0,.49.28.74.44-.22.21-.43.61-.66.62-1.36.07-2.72.07-4.08,0-.18,0-.36-.31-.54-.48.18-.19.35-.53.55-.55.72-.07,1.46,0,2.19,0Z"/><path class="cls-1" d="M92.09,20.89a19.81,19.81,0,0,1,2,0c.23,0,.43.36.65.55-.21.18-.41.49-.63.5-1.3,0-2.61,0-3.92,0-.26,0-.5-.41-.76-.63a2.64,2.64,0,0,1,.83-.43,15.25,15.25,0,0,1,1.79,0Z"/><path class="cls-1" d="M165.47,13a3,3,0,0,1,1.9-2.53c.13-.06.32,0,.49,0,0,.12,0,.31-.06.35A3.55,3.55,0,0,0,166,14.2c-1-.87-1.73-1.52-2.46-2.19-.1-.09-.06-.31-.08-.47.17,0,.38,0,.5.1C164.4,12,164.85,12.47,165.47,13Z"/><path class="cls-1" d="M236.81,86.93c0-.4,0-.81,0-1.22-.1-3,.15-2.38-2.43-2.48-.77,0-1.53,0-2.3,0l0-.22c.15-.07.29-.2.44-.21,1.23,0,2.45-.07,3.68-.08a1,1,0,0,1,1.08,1.07c0,.92,0,1.85,0,2.78a1.31,1.31,0,0,1-.18.38Z"/><path class="cls-1" d="M219.91,83.4h-5.55v-.19a2.21,2.21,0,0,1,.5-.15h4.83c.53,0,.8.19.8.76s.08,1.21.12,1.82l-.34,0Z"/><path class="cls-1" d="M159.17.35c-.64.49-1.29,1-1.91,1.49-.39.32-.68.92-1.11,1s-.72-.52-1.09-.81C155,2,155,2,154.92,2c-.23-.26-.44-.52-.66-.78a7.14,7.14,0,0,1,.93.28,8.88,8.88,0,0,1,.91.6A10.51,10.51,0,0,1,159,0Z"/><path class="cls-1" d="M240.08,82.94a1.15,1.15,0,0,1,.4-.17c1,0,2,0,2.94,0a1,1,0,0,1,1,.85c.17.88.33,1.76.47,2.65,0,.13-.07.28-.31.46-.08-.28-.19-.55-.25-.83a9.1,9.1,0,0,1-.29-1.76c0-.88-.47-1-1.15-.93-.94,0-1.87,0-2.81,0Z"/><path class="cls-1" d="M77.54,9a1.68,1.68,0,0,1-.36,1.92c-.43.45-.93.21-1.32-.09A7.06,7.06,0,0,1,75,9.85a5.54,5.54,0,0,1,1.07.42c.59.37.88.19,1-.43A6.34,6.34,0,0,1,77.54,9Z"/><path class="cls-1" d="M80,5.56c-.55-.26-1-.45-1.46-.7-.13-.08-.16-.33-.24-.5a1.45,1.45,0,0,1,.51,0,4.48,4.48,0,0,1,.65.34c.65.32,1.12-.06,1.62-.4.16-.12.42-.08.63-.11-.1.19-.15.46-.31.56A15.53,15.53,0,0,1,80,5.56Z"/><path class="cls-1" d="M228.13,83c.23.07.65.13.65.21,0,1.06,0,2.11,0,3.17,0,.08-.1.16-.32.47,0-.59,0-.94-.08-1.29-.07-.86-.14-1.72-.22-2.58Z"/><path class="cls-1" d="M249.06,79.49l-2.68-.88.06-.19,2.72.83Z"/><path class="cls-1" d="M46.17,83.61c-.1-.14-.27-.28-.27-.41.09-3.24.14-6.48.35-9.71a5.36,5.36,0,0,1,1-2.52,11.82,11.82,0,0,1,5-4.13,1.4,1.4,0,0,1,.85-.09c2.46.78,4.71,1.84,5.82,4.44V66.06H46.11v-.29h13.4V83.26a11.28,11.28,0,0,0-1.43-.19c-3,0-6,0-9,0-.3,0-.6-.07-.91-.1l0-.28H59.12v-4.8c0-.79,0-1.59,0-2.38,0-.51.17-1.1-.56-1.33-.11,0-.15-.28-.2-.43a10.68,10.68,0,0,1-.33-1.1,6.17,6.17,0,0,0-4-4.41,2.89,2.89,0,0,0-3.48.54c-.69.62-1.4,1.23-2.06,1.88a6.45,6.45,0,0,0-1.68,4.66c-.08,2.46-.13,4.92-.21,7.38a6.69,6.69,0,0,1-.14.86Z"/><path class="cls-1" d="M75,83.92a5.76,5.76,0,0,1-.7.44,1,1,0,0,1-.53,0,8.38,8.38,0,0,0-1.45-.32c-1.83,0-3.66,0-5.49,0a1.42,1.42,0,0,1-.84-.24c2.48-.27,5-.21,7.67-.28,0-3.61.23-7.15.11-10.67a5,5,0,0,0-2.83-4.17c-.41-.22-.75-.31-1.08.09a1.27,1.27,0,0,1-.25.21,7.78,7.78,0,0,0-2.82,4c-1.14,2.79-.88,5.65-1,8.5,0,.64,0,1.29,0,1.93l-.31,0a3.08,3.08,0,0,1-.15-.72c0-2.3,0-4.6.12-6.89a22.25,22.25,0,0,1,.42-4,5.12,5.12,0,0,1,1.25-2.22,13.58,13.58,0,0,1,2.57-2,1.6,1.6,0,0,1,1.22-.07,6,6,0,0,1,3.53,3.65c.9,2.06.72,4.23.62,6.38-.08,1.77-.29,3.54-.39,5.31A3.18,3.18,0,0,0,75,83.92Z"/><path class="cls-1" d="M44.78,86.78v4h-.2V86.22c2.47-.07,5.06-.19,7.66-.22,1.68,0,3.37.09,5.06.16.36,0,.7.12,1.06.17a.68.68,0,0,1,.69.73,2.82,2.82,0,0,0,.41.9,2.44,2.44,0,0,0-.32.84c0,.71.1,1.41.11,2.12,0,.19-.19.38-.3.57-.15-.15-.41-.29-.44-.46-.11-.91-.17-1.83-.26-3l-1.51.5a1.57,1.57,0,0,1-.7.19c-2.43-.41-4.84.12-7.26.18a.51.51,0,0,1-.39-.15c1.54-.77,3.3-.15,4.91-.71a5.26,5.26,0,0,0-3.63-1.34C48.08,86.9,46.46,86.78,44.78,86.78Z"/><path class="cls-1" d="M65.35,66.25a2.1,2.1,0,0,1,.5-.09l9,.5c.45,0,.72.14.78.63.14,1.41.43,2.81.44,4.22,0,3.93,0,7.87-.1,11.8a4.2,4.2,0,0,1-.11.71h-.29c0-.27-.06-.53-.06-.8,0-4.62,0-9.23,0-13.85,0-2.65,0-2.18-2.31-2.36s-4.69-.25-7-.37a8,8,0,0,1-.79-.17Z"/><path class="cls-1" d="M50.42,74.68l-.14,2.44a3.66,3.66,0,0,1-.2-2.78.85.85,0,0,1,.56-.25c1.29,0,2.57,0,3.85.11a1.12,1.12,0,0,1,1.22,1.16c0,1.88,0,3.77,0,5.65,0,.09-.1.17-.31.49-.07-.46-.13-.69-.14-.92-.06-1.72-.12-3.44-.16-5.16,0-.46-.12-.74-.63-.74Z"/><path class="cls-1" d="M44,66.4l-.72-.33,0-.28a5.26,5.26,0,0,1,1.56.19c.23.11.34.68.35,1,0,.9-.06,1.8-.11,2.7-.07,1.15-.84,1.49-1.89.84,0,0,.06-.12.08-.12.94.08,1-.42.94-1.21S44.09,67.34,44,66.4Z"/><path class="cls-1" d="M47.44,84.59H60.21v.28c-4.26.25-8.52-.16-12.77-.05Z"/><path class="cls-1" d="M72,82.2c0-.42-.09-.69-.1-1,0-1.75-.08-3.5-.09-5.25,0-.73-.31-1-1-1-1,0-1.94,0-2.91,0,0-.14,0-.24,0-.24,1.24,0,2.47-.1,3.71-.08.18,0,.51.41.52.63.1,2.21.14,4.42.19,6.63C72.29,82,72.22,82,72,82.2Z"/><path class="cls-1" d="M75.93,85.35c-.49.52-10.42.4-11,0Z"/><path class="cls-1" d="M43.15,77.71l.78-.18c-.22-1.23.35-2.55-.56-3.67,1.05-.52,1.62-.17,1.55,1-.05.76-.09,1.52-.18,2.27,0,.3-.11.79-.28.84a4.47,4.47,0,0,1-1.32,0Z"/><path class="cls-1" d="M64.5,67.49a147.26,147.26,0,0,1-.67,15.72Q64.18,75.35,64.5,67.49Z"/><path class="cls-1" d="M172.43,76.8l-.33,5.89c0,.44,0,.88,0,1.31l-1.23-.06c-1.48,0-3,0-4.43,0a2,2,0,0,0-.91.23c-.56.28-1,.09-1-.54s.26-1.49.32-2.24c.14-2,.17-4,.38-6a42.41,42.41,0,0,1,.81-4.59,5.05,5.05,0,0,1,.64-1.4A2.6,2.6,0,0,1,169,67.83a2.77,2.77,0,0,1,2.58,1.86,15.62,15.62,0,0,1,.71,3.51,36,36,0,0,1,0,3.6Zm-1-1.77,0,0a12.85,12.85,0,0,0-.41-2.07,22.14,22.14,0,0,0-1.52-3.41c-.44-.79-1.11-.79-1.6,0a6.23,6.23,0,0,0-1.07,2.52c-.45,3.75-.76,7.53-1.12,11.29h5.87c.1-2.11.24-4.21.27-6.31A9.27,9.27,0,0,0,171.46,75Z"/><path class="cls-1" d="M150.4,67.32c.93,5.52.19,11.09.22,16.65C150.47,78.43,151,72.87,150.4,67.32Z"/><path class="cls-1" d="M123.09,52.74l.24-.06c1.64.37,1.64.37,1.73,2.07,0,.38,0,.76.08,1.14,0,.54,0,1-.71,1s-1.27-.08-1.32-.84C123,55,123.09,53.85,123.09,52.74Zm1.47,3.6c0-.76,0-1.54,0-2.33s-.32-.86-1-.62c0,.8.1,1.63.13,2.46C123.67,56.5,124,56.57,124.56,56.34Z"/><path class="cls-1" d="M116.61,53.33c1.65-.28,1.94,0,2,1.38,0,.62.09,1.24.12,1.87s-.29.76-.79.86-.67-.29-.74-.64C117,55.66,116.81,54.52,116.61,53.33Zm1,3.54.17.2c.14-.19.4-.38.41-.58,0-.71,0-1.42,0-2.13s-.34-.76-.9-.61Z"/><path class="cls-1" d="M138.74,56.35c-1.8.32-1.93.22-1.88-1.48A10.29,10.29,0,0,1,137,53.4a3.11,3.11,0,0,1,.39-.8c.31.17.81.26.9.51a10.09,10.09,0,0,1,.46,2.06A7.76,7.76,0,0,1,138.74,56.35ZM137.5,56l.78-.11c-.09-2.16-.2-2.57-.78-2.79Z"/><path class="cls-1" d="M109.46,53.59c1.38,0,1.66.27,1.71,1.35,0,.6,0,1.2,0,1.8a.8.8,0,0,1-.87.86.73.73,0,0,1-.84-.79C109.44,55.76,109.46,54.7,109.46,53.59Zm.79.45-.23.08c0,.9,0,1.81,0,2.72,0,.1.18.23.3.27s.24-.15.25-.24a19.77,19.77,0,0,0,.12-2.18C110.69,54.47,110.41,54.26,110.25,54Z"/><path class="cls-1" d="M132.4,54.67c0,.38,0,.77,0,1.15s-.15,1-.83,1-1-.28-.95-1,0-1.52,0-2.29.56-.59,1-.62.84,0,.81.61c0,.39,0,.77,0,1.15Zm-1.26.17h0a3.76,3.76,0,0,0,0,.89c0,.21.28.37.43.55.13-.17.36-.33.37-.51a14.1,14.1,0,0,0,0-2c0-.16-.27-.3-.41-.45-.13.17-.33.31-.37.49A5.33,5.33,0,0,0,131.14,54.84Z"/><path class="cls-1" d="M103,53.78c1,0,1.23.2,1.25,1.13a18.58,18.58,0,0,1,0,2.36c0,.27-.34.52-.53.78-.29-.29-.82-.57-.84-.88C102.87,56.06,103,55,103,53.78Zm.71.57c-.56,1.88-.48,2.88,0,3Z"/><path class="cls-1" d="M143.36,56.49V53.15A4,4,0,0,1,143.36,56.49Z"/><path class="cls-1" d="M182.45,74.62l-.14,2.31L182,77c0-.36-.06-.71-.06-1.07,0-1.67,0-1.66,1.71-1.7.9,0,1.8-.09,2.7-.13.54,0,.95.18,1,.76.08,2.15.13,4.3.19,6.45,0,0-.07.07-.24.21a4.2,4.2,0,0,1-.17-.81c-.07-1.72-.13-3.44-.15-5.16,0-.49-.15-.69-.64-.71C185,74.75,183.79,74.68,182.45,74.62Z"/><path class="cls-1" d="M192.23,84.82h-13v-.23h13Z"/><path class="cls-1" d="M175,77.75l.94-.22c-.25-1.2.36-2.52-.62-3.81a3.65,3.65,0,0,1,1.38.13c.21.09.26.66.26,1,0,.77-.13,1.53-.2,2.29C176.66,78.18,176.1,78.42,175,77.75Z"/><path class="cls-1" d="M198,83.69h7.89c.05-1.11.12-2,.12-3,0-2.59,0-5.19-.09-7.77a9.42,9.42,0,0,0-.7-2.35l-.24.07v10.5h0c0-.86-.1-1.72-.12-2.59-.05-2.62-.14-5.24-.11-7.86,0-1-.83-1.16-1.24-1.72l-.29,0-.23,3.8h-.18c.08-1.14.17-2.27.21-3.41a1,1,0,0,0-.32-.76,1.1,1.1,0,0,0-.81.24c-.35.21-.62.54-1,.78A5.22,5.22,0,0,0,199,72.6a28.19,28.19,0,0,1-1,2.64,2,2,0,0,0-.06.65q0,3.36-.11,6.72a7.61,7.61,0,0,1-.09.82h-.22a2.14,2.14,0,0,1-.13-.48c0-3.83.12-7.65.16-11.48a2.35,2.35,0,0,1,1-2,38.35,38.35,0,0,1,3.46-2,1.41,1.41,0,0,1,.94.06,5.18,5.18,0,0,1,3.64,5c.12,2.8.1,5.61.14,8.42,0,.76,0,1.53.06,2.29,0,.24.25.47.44.82H198Z"/><path class="cls-1" d="M204.57,81.82l-.6.34c-.06-2-.13-4-.17-5.89,0-1.19-.13-1.3-1.33-1.29h-2.62l-.13-.27a1.86,1.86,0,0,1,.31-.1c1.12,0,2.24-.09,3.35,0a1.18,1.18,0,0,1,.74.87c.13,1.82.15,3.65.23,5.47A4.1,4.1,0,0,0,204.57,81.82Z"/><path class="cls-1" d="M197,85.34H208.1C207.58,85.82,197.77,85.8,197,85.34Z"/><path class="cls-1" d="M140.83,76.91a16.79,16.79,0,0,1,4.85.09.7.7,0,0,1,.42.49,17.09,17.09,0,0,1,0,2.77c0,.33-.5.85-.77.86-1.33,0-2.67-.09-4-.2-.58,0-.73-.48-.65-1s.16-1.14.2-1.71C140.92,77.84,140.86,77.47,140.83,76.91Z"/><ellipse class="cls-1" cx="132.49" cy="77.62" rx="0.06" ry="8.06"/><path class="cls-1" d="M130.32,82.91V71.81h.09V82.92Z"/><path class="cls-1" d="M95.6,77l4.23.19c.61,0,1,.21,1,1s.06,1.42.08,2.13c0,.54-.24.81-.8.78-1.2-.06-2.4-.07-3.6-.17a1.09,1.09,0,0,1-.8-.53A6.71,6.71,0,0,1,95.6,77Z"/><path class="cls-1" d="M40.08,84.14A11.37,11.37,0,0,0,38.63,84c-1.42,0-2.84,0-4.26,0a2.24,2.24,0,0,0-.9.24c-.53.24-.83.09-.93-.47a2.18,2.18,0,0,1,0-.57c.24-2.79.42-5.58.77-8.36.19-1.59.65-3.14,1-4.7a1.54,1.54,0,0,1,.23-.44c1.12-1.74,2.5-2.82,4.2-.51A9.36,9.36,0,0,1,40,71.69c.31.89.39,1.87.65,2.79a3.92,3.92,0,0,1-.22,1.92,16.3,16.3,0,0,0-.08,2.53c-.07,1.33-.16,2.67-.23,4C40.06,83.35,40.08,83.77,40.08,84.14Zm-3.79-4-.24,0c0-1.59,0-3.19,0-4.78,0-.15.4-.39.63-.4.91,0,1.83,0,2.81,0-.11-.49-.2-1-.32-1.44a9.68,9.68,0,0,0-1.7-4c-.56-.65-1-.72-1.45,0A5.52,5.52,0,0,0,35,71.78c-.49,3.86-.84,7.74-1.23,11.59h5.92c.08-2.12.19-4.22.24-6.32a12.24,12.24,0,0,0-.19-1.71h-3.1C36.4,77,36.82,78.6,36.29,80.11Z"/><path class="cls-1" d="M31.88,83.87l.56-16.68,7.9-.62c-2.36,1-4.88.83-7.42,1l-.61,16.3Z"/><path class="cls-1" d="M35,85.66c.62-.41,5.93-.51,6.8,0Z"/><path class="cls-1" d="M78.12,54.94V51.32A4.63,4.63,0,0,1,78.12,54.94Z"/><path class="cls-1" d="M179.1,22.26l7.61-.26v.15l-7.6.32Z"/><path class="cls-1" d="M53.34,21.46l7.48,1,0,.17-7.48-1Z"/><path class="cls-1" d="M176.41,52.4l2.68.21,0,.25a4.05,4.05,0,0,1-2.7-.19Z"/><path class="cls-1" d="M91.12,67.79V84.3H91V67.78Z"/><path class="cls-1" d="M44.23,52.36l3,.28A2.73,2.73,0,0,1,44.23,52.36Z"/><path class="cls-1" d="M61,63.77H45.36V63.4c5.22-.12,10.44.1,15.66.13Z"/><path class="cls-1" d="M174.08,60.06l-2,.28v1.07l1.89-.18.05.12c-.29.12-.6.22-.88.35-.43.2-.84.42-1.26.61a.78.78,0,0,1-.47.07c-1.69-.46-3.33.28-5,.22-.12,0-.25.17-.38.26s-.29.23-.32.21c-.83-.72-1.83-.09-2.71-.35,0,0-.06-.08-.2-.29.67-.08,1.26-.17,1.86-.2s.7-.28.49-.8l-2.36.26,0-.39,1.57-.24c.43-.06,1,0,1-.67,0,0,.62-.12.64,0,.22.51.58.37,1,.31l3.15-.52c.38-.07.86,0,.92-.58,0-.08.41-.23.44-.19.64.78,1.47.27,2.21.36l.37.08Zm-3.12.4-4.36.72c-.62.09-.44.46-.34.88l4.7-.52Z"/><path class="cls-1" d="M171.46,75a2,2,0,0,1-.67.28c-.71,0-1.41,0-2.19,0-.24,1.6.27,3.24-.32,4.76H168V78.76c0-1.1,0-2.19,0-3.28,0-.45.16-.65.62-.62.94.08,1.88.13,2.82.19Z"/></g></g></svg>