<svg xmlns="http://www.w3.org/2000/svg" viewBox="0 0 44.66 44.66"><defs><style>.cls-1{fill:#fff;}.cls-2{fill:#151d31;}</style></defs><g id="Layer_2" data-name="Layer 2"><g id="Layer_1-2" data-name="Layer 1"><path class="cls-1" d="M44.66,22.33A22.33,22.33,0,1,0,18.84,44.39V28.79H13.17V22.33h5.67V17.41c0-5.6,3.34-8.69,8.44-8.69a34.14,34.14,0,0,1,5,.44v5.49H29.46c-2.77,0-3.64,1.73-3.64,3.49v4.19H32l-1,6.46h-5.2v15.6A22.32,22.32,0,0,0,44.66,22.33"/><path class="cls-2" d="M31,28.79l1-6.46H25.82V18.14c0-1.76.87-3.48,3.64-3.48h2.82V9.16a34.14,34.14,0,0,0-5-.44c-5.1,0-8.44,3.09-8.44,8.69v4.92H13.17v6.46h5.67v15.6a22.69,22.69,0,0,0,7,0V28.79Z"/></g></g></svg>