<svg xmlns="http://www.w3.org/2000/svg" viewBox="0 0 261.86 57.41"><defs><style>.cls-1{fill:#04a1e1;}</style></defs><g id="Layer_2" data-name="Layer 2"><g id="Layer_1-2" data-name="Layer 1"><path class="cls-1" d="M261,54.25h0a15.84,15.84,0,0,0-2.25-3.52c-.32-.32-.63-.67-.92-1a36.58,36.58,0,0,0-2.16-3.2c-.23-.42-.45-.84-.66-1.27a6,6,0,0,0-1-1.81c-1.45-2-2.5-4.32-4.35-6l-.26-.08a2.48,2.48,0,0,0-.65-1l0-.08a.94.94,0,0,0-.22-.64,1.12,1.12,0,0,1-.24-.34,2.42,2.42,0,0,1,.43-1c.52-.82,1-1.7,1.44-2.55a.29.29,0,0,0,.22-.4c.57-.6,1.13-1.2,1.7-1.79,0-.23.07-.45.1-.67h0l1-1.11L254.7,25a.22.22,0,0,1,0-.08c.34.11.48-.18.63-.45l3.27-5.21h0A16.41,16.41,0,0,0,261.35,15a87,87,0,0,1-9.17-.07c-2.75-.3-4.1.89-4.94,3.2a3.37,3.37,0,0,0-.09.34c-.39.23-.72.5-.68,1A8.75,8.75,0,0,0,245,22h0c-.56.84-1.11,1.69-1.66,2.53-.29.42-.58.84-.89,1.25-.17.23-.36.41-.63.14-.57-.53-.75-1.31-1.26-1.87-.71-1-.74-2.34-1.75-3.16-1.21-1.77-1.95-3.82-3.3-5.51-.1-.07-.19-.18-.3-.19-4-.44-8.07-.12-12.11-.17-.89,0-.53.61-.28,1,1.3,1.78,2.16,3.87,3.78,5.43h0a32.88,32.88,0,0,0,3.29,5.26h0l.35.4h0l2.15,3.82c.38.59.59,1.31,1.24,1.7a.91.91,0,0,1,.16.11l.06.29c.23.35.46.7.68,1l.32.25c0,.13.07.25.09.38.34,1.11-.73,1.66-1,2.52-.17,0-.28.19-.38.34-.55.81-1.06,1.66-1.59,2.49a13,13,0,0,0-2.38,3.81,6.82,6.82,0,0,1-.31.9,17.05,17.05,0,0,0-2.47,3.66l-.27.28c-1.62,1.3-2.36,3.26-3.59,4.85a1.63,1.63,0,0,0-.17,1.2c-.33.47-1.08,1.11.09,1.14l1.14,0a1.66,1.66,0,0,0,.67,0h0a78.59,78.59,0,0,0,9.46-.12l.26.17q.32.21.42-.15l4.3-8.27c1-.78,1.2-2.07,2-3,.57-.36.87,0,1.12.43l1.79,3.21c.67.69.76,1.75,1.5,2.4l1.28,1.83a1.68,1.68,0,0,0,.68,1.13h0c.39.76.78,1.51,1.18,2.26.47.54,1.1.25,1.66.27,3.23.09,6.46-.14,9.69.14.67.05,1.37.25,1.72-.45S261.43,54.69,261,54.25ZM246.05,39.58h0Zm-2,6.82v.06l-.05,0ZM232,25.61l-.07-.07.13.07Z"/><path class="cls-1" d="M39.26,2.42C39.32,1.17,38.9.83,37.68.83Q19.58.89,1.49.84C.31.84,0,1.23,0,2.36Q0,28.48,0,54.6C0,55.66.27,56.05,1.38,56,4,56,6.68,55.88,9.32,56c1.78.11,2.32-.4,2.29-2.21-.11-6.41,0-12.83-.07-19.24,0-1.48.44-1.86,1.9-1.84,6.88.08,13.77,0,20.65.06,1.28,0,1.78-.31,1.71-1.67a61.14,61.14,0,0,1,0-6.35c.06-1.31-.37-1.75-1.68-1.74-7.47.05-14.93.05-22.39.06-.38-3.45,0-6.92-.2-10.37-.1-1.67.39-2.24,2.14-2.21,7.88.09,15.76,0,23.65.07,1.39,0,2-.26,1.92-1.82A58.67,58.67,0,0,1,39.26,2.42Zm-29,7.08V9.38a.31.31,0,0,0,.05.1Z"/><path class="cls-1" d="M212.92,19c-.21-.59-.5-1.08-1.25-1l-.06.05v0a7.66,7.66,0,0,0-.87-.84,17.21,17.21,0,0,0-9.54-3.1c-4.43-.21-8.79,0-12.68,2.56h0c-1.93.69-3.06,2.35-4.49,3.65a20.05,20.05,0,0,0-2.87,5.55c-.19.39-.39.78-.59,1.16-.06,1.06-.62,2-.49,3.11h0A28.51,28.51,0,0,0,180.83,44h0a9.78,9.78,0,0,0,.94,2.84,9.38,9.38,0,0,0,2.14,3.52,8.69,8.69,0,0,0,3.26,3.22h0c6.67,4.14,13.64,4.6,20.89,1.75a13.7,13.7,0,0,0,7.06-5.7h0l1-1.18.45-1.23h0c.23-.47.5-.92.69-1.4.69-1.78.66-1.83-1.28-1.83-2.64,0-5.28,0-7.92,0-.49,0-1.1-.18-1.38.47-1,2.36-3.06,3.42-5.43,4h0c-.64,0-1.28,0-1.91-.05-3-.25-5.72-1-7.22-4l-.57-.49c-.33-1.12-.7-2.24-1-3.38-.46-2-.33-2.13,1.67-2.13,8.17,0,16.34,0,24.5,0,1.2,0,1.59-.31,1.61-1.57a38.1,38.1,0,0,0-1.91-11.94A44,44,0,0,0,212.92,19ZM190.78,30.49c1-.8.85-2.16,1.51-3.12.08-.14.16-.28.23-.43.33-.81,1.08-1.38,1.33-2.23l.17,0a1.34,1.34,0,0,0,.52-.1c3.47-1.78,6.86-1.49,9.52.81A4.24,4.24,0,0,1,206,27.93a4.84,4.84,0,0,1,.18.49c.8,2.69.78,2.72-2,2.72H193.21a2.9,2.9,0,0,1-2.3-.61Zm12.69-7.31,0,0h0Zm-22.25,3.51h0Zm1.63,20-.24.12h0A.3.3,0,0,1,182.85,46.69Z"/><path class="cls-1" d="M172.43,2.26c0-1.07-.32-1.44-1.4-1.42-2.53.07-5.07.11-7.59,0-1.43-.06-1.77.44-1.76,1.79,0,8.6,0,17.19,0,25.78h0c0,8.65,0,17.3,0,26,0,1.34.38,1.71,1.69,1.66,2.52-.09,5.06-.05,7.59,0,1,0,1.48-.14,1.47-1.32Q172.39,28.48,172.43,2.26Z"/><path class="cls-1" d="M96.52,15.11c-5.78-2.25-12.74-1-16.36,3-1,.55-1.32,1.69-2.52,2.63V15.12c-2.88,0-5.75,0-8.62-.11-1.37-.06-1.64.43-1.64,1.71.05,11.09,0,22.18,0,33.28,0,2,.06,4,.09,6,3,0,6,0,9,.05,1.34,0,1.66-.37,1.64-1.69-.07-6.7,0-13.4,0-20.1a16.67,16.67,0,0,1,1.41-7.54l.24-.37h0C82,23.48,85,22.76,88.37,23.45c2.86.2,4.32,1.46,4.88,4.17a18.08,18.08,0,0,1,.36,3.68c0,7.7,0,15.41,0,23.12,0,1.22.33,1.64,1.58,1.59,2.64-.09,5.29-.06,7.94,0,1,0,1.29-.27,1.28-1.3,0-9.24,0-18.47-.06-27.71C104.28,21.31,101.41,17,96.52,15.11Z"/><path class="cls-1" d="M57.17,16.4c0-.42.27-.95-.3-1.25h0l-.68,0h0c-2.71,0-5.41,0-8.11-.11-1.39-.06-1.77.39-1.76,1.79.06,12.46,0,24.93.06,37.4,0,.55-.27,1.18.27,1.65a83.51,83.51,0,0,0,9.88.07c1.09-.11.63-1,.63-1.48Q57.21,35.41,57.17,16.4ZM47,22.07v0a.75.75,0,0,1,.18-.07Z"/><path class="cls-1" d="M56.91.58C55.82-.59,53.57.41,52.19.21c-1.82,0-3.29,0-4.76,0-.85,0-1.13.29-1.11,1.13,0,2.52.06,5.06,0,7.58,0,1.14.42,1.4,1.47,1.35,1.58-.09,3.17,0,4.76,0s3.35.63,4.27-.26.32-2.91.34-4.42C57.17,3.84,57.9,1.64,56.91.58Z"/><path class="cls-1" d="M149.11,21.25h0c-.91-1.79-2.64-2.75-4-4a.21.21,0,0,1-.23-.11c-1.14-1.29-2.82-1.45-4.29-2.05-1.84-.24-3.59-1-5.5-.77a8.5,8.5,0,0,0-4.42,0h0l-.64,0a15.85,15.85,0,0,0-9.21,3.06h0a4.17,4.17,0,0,0-1.44,1,22.06,22.06,0,0,0-6.23,9c-1.52,3.68-1.54,7.57-1.35,11.41a10.4,10.4,0,0,0,1.93,5.93.35.35,0,0,0,.14,0,14.33,14.33,0,0,0,3.4,5.69h0c.39,1,1.39,1.44,1.9,2.31a24.74,24.74,0,0,0,5.58,3.15c3.63,1.59,7.5,1.65,11.3,1.32,1.64-.14,3.65,0,5-1.53l0,0h.08l.91-.13c2-1.06,4-2,5.44-3.78h0a2.11,2.11,0,0,0,1-1h0l1-.89.27-.29.18-.55c.8-.58.94-1.63,1.64-2.29a35.35,35.35,0,0,0,2.12-6.66,39,39,0,0,0,.13-7C153.32,28.71,152.14,24.61,149.11,21.25Zm-31,.16,0,0-.06,0Zm10.24,25.12a6.74,6.74,0,0,0-.74-.3,2.15,2.15,0,0,0-.71-.11c-.21-.89-1.11-1.39-1.39-2.23a14.14,14.14,0,0,1-1.73-7.1c0-1.36.38-2.8-.26-4.11a2.32,2.32,0,0,1,.19-.31,6.18,6.18,0,0,0,.52-1.68c1.12-4.4,3.28-6.34,7.75-7,3.47-.49,7.05.91,8.42,3.81,2.68,5.67,2.88,11.41-.39,17a3.52,3.52,0,0,1-1.31,1.37C135.34,48.05,131.87,47.88,128.32,46.53Zm6.25,2.07v0h0Zm15.16-.33,0-.05v.05Z"/></g></g></svg>