<svg xmlns="http://www.w3.org/2000/svg" viewBox="0 0 37.27 37.28"><defs><style>.cls-1{fill:#fff;}</style></defs><g id="Layer_2" data-name="Layer 2"><g id="Layer_1-2" data-name="Layer 1"><path class="cls-1" d="M36.29,16.68l-7.41,0H21.5c-.72,0-.88-.17-.88-.9V.9c0-.73.16-.89.89-.89h14.8c.58,0,.81.16,1,.45V16.23c-.15.29-.38.45-1,.45ZM21.83,15.45H36.07V1.23H21.83Z"/><path class="cls-1" d="M.45,37.28c-.3-.15-.45-.38-.45-1,0-3.68,0-7.42,0-11V21.51c0-.73.16-.89.89-.89H15.76c.73,0,.9.17.9.89v3.82c0,3.6,0,7.32,0,11,0,.6-.15.83-.44,1Zm.77-1.2H15.45V21.84H1.22Z"/><path class="cls-1" d="M21.05,37.28c-.29-.15-.44-.38-.44-1,0-3.67,0-7.4,0-11V21.51c0-.72.16-.89.89-.89h7.37l7.41,0h0c.58,0,.81.16,1,.45V36.84a1,1,0,0,1-.44.44Zm.79-1.21H36.07V21.84H21.84Z"/><path class="cls-1" d="M.87,16.67c-.69,0-.86-.18-.86-.88V.88C0,.17.17,0,.88,0H15.81c.68,0,.85.18.85.86V15.81c0,.68-.17.86-.85.86H.87Zm.35-1.21H15.44V1.23H1.22Z"/></g></g></svg>