<svg xmlns="http://www.w3.org/2000/svg" viewBox="0 0 214.78 36.87"><defs><style>.cls-1{fill:#fd0002;}.cls-2{fill:#c01d1f;}.cls-3{fill:#b42828;}.cls-4{fill:#bd2223;}.cls-5{fill:#c01b1c;}.cls-6{fill:#b32021;}.cls-7{fill:#bd1c1c;}.cls-8{fill:#bc1a1b;}.cls-9{fill:#be1f1f;}.cls-10{fill:#b32326;}.cls-11{fill:#bf1e1e;}</style></defs><g id="Layer_2" data-name="Layer 2"><g id="Layer_1-2" data-name="Layer 1"><path class="cls-1" d="M34.81,18.23q0,8.54,0,17.05c0,.37-.09.48-.47.48q-3.68,0-7.35,0c-.38,0-.47-.1-.47-.48q0-6.81,0-13.62c0-.85.06-.7-.68-.7-5.66,0-11.31,0-17,0-.54,0-.54,0-.54.53V35.24c0,.51,0,.51-.49.51H.55c-.54,0-.54,0-.54-.54q0-16,0-32.08C0,2.41,0,1.69,0,1,0,.71.08.63.34.63c2.55,0,5.1,0,7.65,0,.32,0,.37.12.37.4q0,3.54,0,7.1c0,1.91,0,3.83,0,5.74,0,.35.1.47.47.46q8.67,0,17.36,0c.43,0,.37-.25.37-.5V1.23c0-.66-.1-.59.58-.59,2.4,0,4.81,0,7.22,0,.39,0,.47.11.47.48,0,5.71,0,11.42,0,17.12Z"/><path class="cls-1" d="M206.66,18.19v-17c0-.51,0-.51.51-.51H214c.73,0,.73,0,.73.71V34.5c0,.3,0,.6,0,.9s-.07.36-.35.36c-1,0-2.07,0-3.1,0-1.41,0-2.81,0-4.21,0-.37,0-.48-.09-.47-.47C206.66,29.58,206.65,23.89,206.66,18.19Z"/><path class="cls-2" d="M123.7,35.42c-.29-.65-.56-1.3-.85-1.94-.65-1.47-1.31-2.93-2-4.4L118,22.6c-.62-1.41-1.25-2.82-1.87-4.22l-2.19-5-1.89-4.25c-.49-1.11-1-2.23-1.46-3.34-.7-1.6-1.42-3.19-2.11-4.79A.51.51,0,0,0,108,.63c-2.47,0-5,0-7.42,0H98.25a.39.39,0,0,0-.43.25q-1,2.22-2,4.42c-.89,2-1.78,3.89-2.68,5.84l-2,4.41C90,18,88.89,20.53,87.76,23l-2.29,5-3.35,7.38c-.14.31-.13.39.24.39h9.07a.53.53,0,0,0,.58-.39c.86-2.06,1.74-4.11,2.59-6.17a.52.52,0,0,1,.58-.37q7.66,0,15.32,0a.45.45,0,0,1,.47.31c.93,2.12,1.87,4.23,2.79,6.34a.39.39,0,0,0,.43.28h9.27C123.74,35.76,123.82,35.68,123.7,35.42ZM97.25,21.81c.56-1.3,1.09-2.6,1.64-3.89q1-2.51,2.12-5c.61-1.45,1.23-2.9,1.84-4.36l.11-.18c.37.91.71,1.77,1.05,2.62l2.33,5.85,2,4.85c.12.29.11.43-.28.43-3.44,0-6.88,0-10.33,0h-.23C97.22,22.11,97.14,22.06,97.25,21.81Z"/><path class="cls-3" d="M163.81,18.2q0-8.56,0-17.13c0-.37.12-.45.46-.45,3,0,5.89,0,8.84,0,.38,0,.44.14.44.47,0,4.13,0,8.25,0,12.37,0,.36.09.47.45.47h15.87c.37,0,.42-.14.42-.46,0-4.12,0-8.25,0-12.37,0-.38.1-.48.48-.48,3,0,5.92,0,8.88,0,.4,0,.46.14.46.5q0,16.68,0,33.38a7.48,7.48,0,0,0,0,.82c0,.34-.08.46-.43.45-1,0-2,0-3,0-2,0-3.9,0-5.85,0-.38,0-.51-.08-.51-.49,0-4.51,0-9,0-13.51,0-.8,0-.8-.81-.8H174c-.37,0-.49.09-.48.48,0,1.37-.05,2.75,0,4.12.11,2,0,3.93.08,5.88.07,1.31,0,2.62.06,3.92,0,.31-.08.41-.39.41-3,0-6.07,0-9.11,0-.33,0-.39-.1-.39-.4q0-8.58,0-17.16Z"/><path class="cls-4" d="M71.64.63c5.73,0,11.46,0,17.2,0,.39,0,.47.12.47.49,0,1.94,0,3.87,0,5.81,0,.68,0,.58-.56.58H76.68c-.56,0-.53-.1-.53.56q0,13.6,0,27.21c0,.39-.09.5-.49.5q-4,0-8.09,0c-.28,0-.35-.08-.35-.35,0-3.65,0-7.3,0-10.95.11-5.51,0-11,.06-16.53,0-.35-.09-.46-.44-.44-1.79.12-3.58,0-5.37.11-1.32.07-2.64,0-4,.07-1.07.06-2.14,0-3.21.07-.32,0-.43-.07-.42-.41q0-3.15,0-6.32c0-.38.18-.38.46-.38H71.64Z"/><path class="cls-5" d="M130.57,3.08a14.05,14.05,0,0,1,2.19-1.19A21.61,21.61,0,0,1,137.32.44a24.47,24.47,0,0,1,2.55-.37c1-.1,2.07-.06,3.1-.06a20.14,20.14,0,0,1,5.5.84,18.26,18.26,0,0,1,5.31,2.43,13.62,13.62,0,0,1,3.56,3.42,12.05,12.05,0,0,1,2.17,5.52,10.85,10.85,0,0,1,.1,1.4c0,.32-.09.43-.42.43-1.32,0-2.64,0-4,0h-4c-.55,0-.57,0-.59-.56a7.2,7.2,0,0,0-1.77-4.57A8.24,8.24,0,0,0,144,6.25a10,10,0,0,0-6.54.93,9.69,9.69,0,0,0-4.38,4.32,13.41,13.41,0,0,0-1.43,4.79,16.72,16.72,0,0,0,0,3.74,13.9,13.9,0,0,0,1.95,6,.71.71,0,0,1,.08.18c0,.08,0,.18-.14.17a.81.81,0,0,1-.33-.38,14.81,14.81,0,0,1-1.93-6.63,17.42,17.42,0,0,1,.45-5.1,11.5,11.5,0,0,1,2.57-5,10.94,10.94,0,0,1,2.6-2.12,10.05,10.05,0,0,1,2.47-1,14.29,14.29,0,0,1,4.17-.32,6.89,6.89,0,0,1,1.59.41,7.79,7.79,0,0,1,4.75,3.49,7.61,7.61,0,0,1,1.09,3.57c0,.35.17.46.52.46h7.34c.47,0,.54-.06.51-.53a12.62,12.62,0,0,0-.53-2.92,10.34,10.34,0,0,0-1.29-2.8,13.94,13.94,0,0,0-2.93-3.25,16.41,16.41,0,0,0-3.28-2,21.08,21.08,0,0,0-7-1.83,24,24,0,0,0-2.54-.13,25,25,0,0,0-4.56.53,17.52,17.52,0,0,0-2.83.8,15.9,15.9,0,0,0-2.87,1.33c-.24.16-.53.17-.77.31S130.57,3.16,130.57,3.08Z"/><path class="cls-6" d="M51.27,18.23q0,8.52,0,17c0,.4-.1.5-.49.5q-4.44,0-8.88,0c-.34,0-.44-.08-.44-.43q0-7.56,0-15.11V1.29c0-.58,0-.58.59-.58h7c.56,0,1.12,0,1.68-.07s.54,0,.54.53V6.77Q51.28,12.5,51.27,18.23Z"/><path class="cls-7" d="M133.55,26.32a.15.15,0,0,1,.07-.15,17.79,17.79,0,0,0,1.68,2,10.78,10.78,0,0,0,5,2.69,8.71,8.71,0,0,0,4.56-.12,7.61,7.61,0,0,0,4.34-3.33,9.27,9.27,0,0,0,1.36-4c0-.18.06-.35.08-.53a.24.24,0,0,1,.28-.25h8.33c.31,0,.39.08.4.39a12.52,12.52,0,0,1-1,4.64A17.57,17.57,0,0,1,156,32.16a11,11,0,0,1-3.34,2.91,1,1,0,0,1-.18.06.19.19,0,0,1-.18,0c-.06-.25.15-.3.29-.4a12.2,12.2,0,0,0,1.84-1.34,17.11,17.11,0,0,0,3.25-4.52,19.07,19.07,0,0,0,.82-1.94,10.81,10.81,0,0,0,.75-3.51c0-.42,0-.45-.44-.45h-7.42c-.44,0-.5.07-.56.52a10,10,0,0,1-1.7,4.51,7.71,7.71,0,0,1-4.83,3.18,9.46,9.46,0,0,1-4.84-.2,11.87,11.87,0,0,1-3.63-1.89,14.28,14.28,0,0,1-2-2.05A.84.84,0,0,1,133.55,26.32Z"/><path class="cls-8" d="M130.57,3.08a.13.13,0,0,1,.07.14c0,.2-.16.22-.26.3a32.22,32.22,0,0,0-2.69,2.09,15.38,15.38,0,0,0-1.22,1.33,14.66,14.66,0,0,0-2,3,17.7,17.7,0,0,0-1.64,5,21.24,21.24,0,0,0-.28,4.21,17.37,17.37,0,0,0,.45,3.29,19.29,19.29,0,0,0,.81,2.91,18.94,18.94,0,0,0,2,3.91.35.35,0,0,1,.06.14c0,.14-.09.23-.22.07s-.19-.22-.29-.32a18.85,18.85,0,0,1-2.63-6.19,19.12,19.12,0,0,1-.54-5.93,17.92,17.92,0,0,1,2-7.29,18.67,18.67,0,0,1,2.31-3.33,18.25,18.25,0,0,1,3.85-3.22Z"/><path class="cls-9" d="M125.44,29.08c.22,0,.21.36.48.31a1.09,1.09,0,0,1,.51.46,11.89,11.89,0,0,0,2.19,2.4,15.58,15.58,0,0,0,3.39,2.3A18.51,18.51,0,0,0,135.85,36a20.49,20.49,0,0,0,2.09.49,7.77,7.77,0,0,0,1,.1h6.83a12.92,12.92,0,0,0,3.55-.52,20.22,20.22,0,0,0,2.51-.89c.16-.07.33-.19.52-.05h.19a11.45,11.45,0,0,1-3.13,1.25,13.43,13.43,0,0,1-3.94.48c-2.3,0-4.61,0-6.91,0a11.51,11.51,0,0,1-2.83-.54A19.28,19.28,0,0,1,132.12,35a16.94,16.94,0,0,1-4-2.76A16.69,16.69,0,0,1,125.44,29.08Z"/><path class="cls-1" d="M123.37,35.23c-.31-.6-.49-1.26-.8-1.86a15.32,15.32,0,0,1-.84-1.79c-.39-1-.85-2-1.28-2.94-.34-.76-.68-1.51-1-2.27-.61-1.38-1.23-2.75-1.79-4.15-.25-.61-.61-1.16-.83-1.77-.38-1-.87-2-1.29-3s-.94-2.1-1.41-3.15c-.27-.62-.51-1.26-.8-1.86-.51-1.08-1-2.17-1.49-3.27l-1.59-3.68c-.56-1.28-1.14-2.54-1.67-3.82-.19-.47-.39-.84-1-.84-3,0-5.94,0-8.91,0a.77.77,0,0,0-.63.32,9.78,9.78,0,0,0-1,2.09c-.29.58-.54,1.18-.8,1.77s-.58,1.3-.9,1.94c-.2.4-.31.85-.54,1.23s-.44.95-.67,1.43-.3.87-.53,1.26c-.38.66-.65,1.36-1,2s-.58,1.25-.86,1.87-.66,1.4-1,2.11-.63,1.48-1,2.21-.73,1.52-1.08,2.29c-.42.92-.88,1.82-1.25,2.76s-.77,1.71-1.16,2.56-.74,1.49-1,2.27-.7,1.43-1,2.18-.57,1.23-.83,1.85-.68,1.43-1,2.16c-.13.29,0,.45.3.45h7.82c.73,0,1.31-.15,1.54-1a11.86,11.86,0,0,1,.79-1.93c.52-1.11.93-2.25,1.43-3.36.22-.49.26-.67,1-.68h14.92a.94.94,0,0,1,1,.62c.15.39.3.78.48,1.16.52,1.14,1.07,2.27,1.55,3.43.18.45.43.86.58,1.31a.67.67,0,0,0,.76.47c1.38,0,2.77,0,4.16,0H123C123.26,35.59,123.53,35.55,123.37,35.23ZM97.25,21.81c.56-1.3,1.09-2.6,1.64-3.89q1-2.51,2.12-5c.61-1.45,1.23-2.9,1.84-4.36l.11-.18c.37.91.71,1.77,1.05,2.62l2.33,5.85,2,4.85c.12.29.11.43-.28.43-3.44,0-6.88,0-10.33,0h-.23C97.22,22.11,97.14,22.06,97.25,21.81Z"/><path class="cls-1" d="M190.35,21l-.08-.08a1.07,1.07,0,0,0-.47,0q-7.8,0-15.61,0a1.34,1.34,0,0,0-.66,0c-.18.09-.16.25-.16.41,0,1.56-.06,3.12,0,4.67.1,1.87,0,3.74.07,5.61,0,1,.07,2.09.07,3.13V35c0,.55-.09.59-.63.59h-8.13c-.72,0-.75,0-.75-.72V1.38c0-.58,0-.58.59-.58h8.13c.54,0,.58,0,.63.56,0,.12,0,.23,0,.35V13.45c0,.55.13.69.7.69H189.9a.42.42,0,0,0,.45-.24.86.86,0,0,0,0-.42V1.63c0-.87,0-.87.86-.87,2.54,0,5.08,0,7.61,0,1.2,0,1.08-.2,1.08,1.09V35c0,.6-.08.68-.67.68H191c-.53,0-.57,0-.62-.56,0-.12,0-.24,0-.36,0-4.47,0-8.95,0-13.42A.65.65,0,0,0,190.35,21Z"/><path class="cls-10" d="M190.35,21a.38.38,0,0,1,.1.32q0,6.73,0,13.46c0,.16.06.31.06.47s.16.36.4.36h8.32c.58,0,.64-.06.64-.62V1.36c0-.56,0-.56-.57-.56-2.76,0-5.52,0-8.28,0-.37,0-.53.12-.56.47,0,.14,0,.28,0,.43q0,5.87,0,11.74c0,.16.07.34-.07.48q0-6.4,0-12.8c0-.3.08-.4.39-.4,3,0,5.89,0,8.84,0,.33,0,.45.13.44.44a2.43,2.43,0,0,0,0,.27V34.88a2.44,2.44,0,0,1,0,.27c0,.48-.05.52-.51.52h-8.68c-.34,0-.48-.06-.48-.45Q190.36,28.11,190.35,21Z"/><path class="cls-10" d="M173.53,20.9a.19.19,0,0,1,.22-.12,9,9,0,0,0,1.56,0h14.47c.16,0,.34-.06.49.08Z"/><path class="cls-1" d="M71.49.8H88.06c1,0,1,0,1,1,0,1.69,0,3.38,0,5.07,0,.28-.08.36-.37.39-1.69.14-3.37,0-5.06.06-2,0-4,0-6,0a3.82,3.82,0,0,1-.82-.06A.71.71,0,0,0,76,8V34.67c0,.78.22.93-.93.92-2.35,0-4.71,0-7.07,0-.51,0-.56-.05-.56-.57,0-3.41-.06-6.83,0-10.25.13-5.58,0-11.17.06-16.76,0-.69,0-.73-.7-.69-1.58.09-3.17,0-4.75.09s-3.06,0-4.58.07c-1,.06-1.91.06-2.86.08-.37,0-.47-.12-.47-.48,0-1.88,0-3.77,0-5.65,0-.57.06-.63.63-.63H71.49Z"/><path class="cls-1" d="M152.32,35.12a1.72,1.72,0,0,0-.7.24,20.53,20.53,0,0,1-2.16.77,15.06,15.06,0,0,1-4.62.57c-1.84,0-3.67,0-5.5,0a11.67,11.67,0,0,1-3.26-.51c-.87-.25-1.74-.52-2.58-.85a16.48,16.48,0,0,1-3.31-1.77,17.67,17.67,0,0,1-2.3-1.84,8.26,8.26,0,0,1-1.43-1.64c-.16-.26-.43-.41-.54-.69a18.5,18.5,0,0,1-1.84-3.28,15.5,15.5,0,0,1-1-3,22.18,22.18,0,0,1-.55-3.14,24.72,24.72,0,0,1,0-3,15.67,15.67,0,0,1,.48-3.19,14.81,14.81,0,0,1,.82-2.6,16,16,0,0,1,2.32-3.95l1.23-1.42a8.52,8.52,0,0,1,1.19-1c.69-.53,1.41-1,2.11-1.54.6-.3,1.2-.62,1.81-.92A20.25,20.25,0,0,1,138.12.51a20.5,20.5,0,0,1,5.3-.32c1,.1,2.06.22,3.09.42a20.28,20.28,0,0,1,3.19.86A20.49,20.49,0,0,1,153,3.05a13.83,13.83,0,0,1,3.79,3.31,9.85,9.85,0,0,1,1.52,2.42,11.67,11.67,0,0,1,.93,3.17c.05.51.15,1,.15,1.52,0,.27-.1.37-.37.37h-7.82c-.29,0-.37-.12-.39-.4a11.42,11.42,0,0,0-.34-1.91,6.91,6.91,0,0,0-1.87-3.17,8.77,8.77,0,0,0-4-2.18,13.15,13.15,0,0,0-3.53-.27,11.17,11.17,0,0,0-2.13.43,10.92,10.92,0,0,0-1.94.78,9.76,9.76,0,0,0-1.34.93A8.11,8.11,0,0,0,134,9.71a8.45,8.45,0,0,0-1.06,1.63,11.8,11.8,0,0,0-1.18,3.1,23.12,23.12,0,0,0-.39,2.86,16.75,16.75,0,0,0,.34,4.58,10.92,10.92,0,0,0,1.15,3.21,5.87,5.87,0,0,0,.73,1.23,3.86,3.86,0,0,0,.73,1.06,10.06,10.06,0,0,0,3,2.55A10.67,10.67,0,0,0,139.85,31a9.7,9.7,0,0,0,3.68.22,7.29,7.29,0,0,0,3-1,7.72,7.72,0,0,0,3.05-3.2,14.32,14.32,0,0,0,1.1-3.23c.06-.29-.06-.66.21-.84s.63-.07,1-.07c2.33,0,4.65,0,7,0,.52,0,.52,0,.52.5a6,6,0,0,1-.29,1.92c-.14.47-.18,1-.36,1.43a21.88,21.88,0,0,1-2,4,16,16,0,0,1-2.52,3,11.1,11.1,0,0,1-1.61,1.09A.87.87,0,0,0,152.32,35.12Z"/><path class="cls-1" d="M51.07,18.19V35c0,.57-.06.63-.63.63-2.76,0-5.53,0-8.29,0-.39,0-.52-.17-.51-.52V1.62c0-.66,0-.64.65-.68,2.53-.14,5.05,0,7.57-.07.24,0,.47-.05.7-.07s.53.1.51.47c0,.14,0,.28,0,.43Q51.06,10,51.07,18.19Z"/><path class="cls-11" d="M108.45,21.56q-.66-1.56-1.26-3.15c-.33-.88-.68-1.78-1-2.65-.49-1.17-.93-2.36-1.43-3.53s-.94-2.41-1.43-3.61c-.07-.17-.15-.39-.34-.38s-.29.2-.36.38c-.52,1.36-1.16,2.67-1.71,4-.33.82-.67,1.65-1,2.47-.47,1-.93,2.09-1.34,3.15s-1,2.19-1.39,3.34c-.17.51-.08.71.46.71h10.36C108.56,22.32,108.69,22.14,108.45,21.56Zm-.44.56c-3.44,0-6.88,0-10.33,0h-.23c-.23,0-.31-.05-.2-.3.56-1.3,1.09-2.6,1.64-3.89q1-2.51,2.12-5c.61-1.45,1.23-2.9,1.84-4.36l.11-.18c.37.91.71,1.77,1.05,2.62l2.33,5.85,2,4.85C108.41,22,108.4,22.12,108,22.12Z"/></g></g></svg>