<svg xmlns="http://www.w3.org/2000/svg" viewBox="0 0 142.37 136.57"><defs><style>.cls-1{fill:#151d31;}</style></defs><g id="Layer_2" data-name="Layer 2"><g id="Layer_1-2" data-name="Layer 1"><path class="cls-1" d="M21.71,67.58c-.15,0-.36.06-.43,0a1.5,1.5,0,0,1,.35-1.63.71.71,0,0,0,.46-.83c-.05-1,0-1.91-.05-2.87,0-.31-.12-.63-.12-.94,0-.79.69-1,1.21-1.34s1.24-.54,1.84-.84a.62.62,0,0,0,.29-.48c0-1.78,0-3.56-.13-5.34,0-.56,0-1.28-.65-1.65.16-.59-.26-1-.41-1.51,0-.09.09-.3.19-.36a1.09,1.09,0,0,0,.55-1.21c-.18-1.63.69-2.7,1.79-3.69a.85.85,0,0,0,.25-.52c0-.87.08-1.74,0-2.61,0-.51-.31-1-.21-1.5a10.18,10.18,0,0,1,1-2.76,3.86,3.86,0,0,1,1.52-1.09c.78-.41,1.6-.74,2.54-1.17L31.1,35l.5-.45-.47-1.11.57-.17L31.48,32l.26-.07a5.6,5.6,0,0,1,.35,1.22c0,.76-.05,1.53-.09,2.36l.5.23c-.5.38-.22.6.12.79l.62.28a2.27,2.27,0,0,1,1.36,1.46c.23.88.35,1.79.51,2.69a.42.42,0,0,1,0,.29c-.69,1.06-.44,2.29-.68,3.43a1.78,1.78,0,0,0,.42,1.79,2.62,2.62,0,0,1,.41,2.19,23.57,23.57,0,0,0-.1,2.66,2.24,2.24,0,0,1-.66,1.86c-.1.08-.17.18-.27.26a2.39,2.39,0,0,0-.85,2c0,1.34-.18,2.68-.25,4a1.18,1.18,0,0,0,.27.76c.4.44.87.82,1.29,1.25a.89.89,0,0,1,.23.49c.05.58.27,1.27,0,1.72-.46.89-.16,1.78-.29,2.65a16.83,16.83,0,0,0,0,2.15c.5-.36.88-.65,1.26-.91,1.42-1,2.83-2,4.26-2.94,1-.66,1-.64,2.1-.21,0-1.17,0-2.31,0-3.45A1.59,1.59,0,0,0,42,60.3a1.72,1.72,0,0,1,.29-2.07,1.36,1.36,0,0,0,.29-1.08,1.5,1.5,0,0,1,.3-1.45A6.07,6.07,0,0,1,46,53.43c.46-.1.36-.49.34-.8a1.69,1.69,0,0,1,1.26-2.07c0-.24,0-.49,0-.73s.1-.43.15-.64l.19,0c0,.14,0,.29,0,.44,0,.56.05,1,.74,1.23,1,.35,1.05,1.29.31,2.46,1.36.84,3.24,1.14,3.48,3.3.92-.6,1.77-1.14,2.59-1.71.11-.07.14-.29.14-.44.06-2.12.12-4.24.13-6.36a1.41,1.41,0,0,0-.41-.88c-.62-.67-1.32-1.27-2-1.93a2,2,0,0,1-.6-1.64c.13-.93.23-1.86.38-2.78a.91.91,0,0,1,.25-.53,1.54,1.54,0,0,0,.37-1.83,7.71,7.71,0,0,1-.19-3.69.78.78,0,0,1,.29-.44c.47-.48,1-.93,1.42-1.42.13-.13.13-.37.18-.53a2.42,2.42,0,0,0,.84-.15c.19-.11.28-.38.46-.64,0-1.39,0-2.9,0-4.41a1.54,1.54,0,0,0-.61-1.4c-1.2-.92-1.32-2.21-1.26-3.57.07-1.55.13-3.11.15-4.66a1.72,1.72,0,0,1,.48-1.35c.25-.22.41-.53.67-.73,1.28-1,.9-2.25.72-3.52-.32-2.25-.85-4.57,1.14-6.4A8.17,8.17,0,0,1,59.37,4.6c.41-.22.87-.36,1.2-.5L61.24,0h.21c.07.09.18.17.2.26.26,1.24.46,2.48.77,3.7a1,1,0,0,0,.67.85c2.17.78,2.88,2.68,3.32,4.7a5.55,5.55,0,0,1,0,1.77c-.12,1-.33,1.88-.42,2.83a1.27,1.27,0,0,0,.4.88,6.52,6.52,0,0,1,1.87,5.48,3.86,3.86,0,0,0,.26,1.42c.13.58.28,1.15.4,1.73a.6.6,0,0,1-.1.41c-.63,1-1.29,1.92-1.92,2.89a1.38,1.38,0,0,0-.16.64c-.09,1.41-.16,2.82-.25,4.23,0,.38,0,.64.51.72a1.85,1.85,0,0,1,1,.6c.51.64.88,1.39,1.39,2s.27,1.32.26,2c0,1.24-.06,2.49-.08,3.73a1,1,0,0,0,.13.49,6.63,6.63,0,0,0,.58.81,2,2,0,0,1,.29,2.32.14.14,0,0,0,0,.06c0,1.48-1.16,1.82-2.16,2.33a1.94,1.94,0,0,0-.6,2.47L68,48.2c.61.95.06,2.13.83,3l-.78.32a5.42,5.42,0,0,0,.84.54A3,3,0,0,1,71,54.29c0,.22.41.44.67.55,5,2.1,9.91,4.17,14.87,6.25l1,.42a1.74,1.74,0,0,1,0-2.07c0,.05.12.1.12.13-.26.75.3,1.36.38,2a.35.35,0,0,0,.18.22l7.68,3.52.15-.23-.52-.56.14-.7c-.37-.18-.46-1.58,0-2.38v1.9l.74.36c-.13.33-.39.65-.31.84a1.6,1.6,0,0,0,1.19,1.15c.55.11,1.09.26,1.57.38l.26-1.29c-.71-.44-.81-1-.33-1.75a1.18,1.18,0,0,0,.13-.62c0-.7-.06-1.41-.15-2.11-.06-.5-.22-1-.3-1.48s-.38-.87.37-1.21a5.88,5.88,0,0,0,1.52-1.4c.08-.08.06-.27,0-.4-.15-1.21-.33-2.42-.47-3.64a3,3,0,0,0-.57-2,1.18,1.18,0,0,1,0-1.5,5.19,5.19,0,0,1,3.85-2.15,6.92,6.92,0,0,1,5,.9c-.52-1.06-2.32-1.72-4.28-1.54-2.22.21-4.14,1-5.19,3.24-.61,0-.83-.21-.82-1a26,26,0,0,0-.41-4c-.13-.88.49-1.36.89-2a1.3,1.3,0,0,0,.29-.59c0-1.09,0-2.19-.07-3.29a.61.61,0,0,0-.12-.26A3.24,3.24,0,0,1,98,35.57a5.17,5.17,0,0,1,2.72-4.25c-.53-.61.06-.91.32-1.2-.16-.51-.31-1-.44-1.41a5.63,5.63,0,0,0-.14-.59,1.09,1.09,0,0,1,.18-1.24c.31,1.18.6,2.29.92,3.48.46,0,.31.39.12.74a4.88,4.88,0,0,1,4.53,5.34c0,1.33.31,2.58.33,3.87,0,.57.54.48.89.62.15.06.41.09.45.2a6.52,6.52,0,0,1,.44,1.55c.12,1,.15,2,.24,3,0,.09.14.17.23.25.56.52.5.92,0,1.49a2.85,2.85,0,0,0-.88,2.31c.2,1.57.38,3.13.59,4.7,0,.13.14.35.23.36a4.67,4.67,0,0,1,2.37,1.25,1.84,1.84,0,0,1,.45,1.16c.11,1.23.12,2.47.21,3.71,0,.15.18.3.3.43a1.86,1.86,0,0,1,.67,1.54.37.37,0,0,0,.08.28c.4.31.14.56-.09.76a4.12,4.12,0,0,0-1.52,2.42,2.23,2.23,0,0,0-.09.76c.39,2.59.81,5.17,1.22,7.76.87.27,1.78.55,2.7.81a.87.87,0,0,1,.71.76c.11.88.23,1.76.31,2.64.11,1.09.17,2.18.29,3.26,0,.23.28.43.37.66s.21.69.31,1,.15.6.25,1l-.41.22a10.29,10.29,0,0,0,.47,3.32c.47,1,.33,1.91.67,2.81a.65.65,0,0,0,.33.27c.43.21.46.48.07.73s-1,.5-1.41.8a2,2,0,0,0-.6.64,4.08,4.08,0,0,0-.49,1.28c0,.26-.08.52-.11.77a1,1,0,0,0,0,.24c.3,2.72.55,5.45.92,8.17.64,4.56,1.36,9.12,2,13.68.46,3.1.89,6.2,1.33,9.31a6.26,6.26,0,0,1,0,.75l-.19,0a2.54,2.54,0,0,1-.15-.44c-.65-4.55-1.29-9.09-2-13.63-.54-3.75-1.13-7.48-1.67-11.22-.22-1.48-.41-3-.54-4.45,0-.56-.22-.79-.77-.76a5.88,5.88,0,0,1-.8-.09c.61,4.76,1.2,9.46,1.81,14.16s1.21,9.3,1.79,14l-.37,0c-1.2-9.37-2.41-18.73-3.63-28.21l-2.27-.14c1.09,9.51,2.24,18.93,3.32,28.36l-.36,0q-1.68-14.14-3.35-28.31h-1.56a8.32,8.32,0,0,1,.46,1c.14.42-.07.68-.47.8s-.58-.17-.65-.49a8.3,8.3,0,0,0-.22-1.18,1.45,1.45,0,0,0-.11.48c.35,2.36.76,4.71,1.07,7.08q1.17,9.18,2.27,18.37a9.31,9.31,0,0,1-.09,2.23q-1.78-14-3.59-28l-.86,0c.94,9.49,1.87,18.92,2.81,28.36l-.36,0c-1-9.42-1.87-18.86-2.83-28.29l-.16,0q1.24,14.1,2.5,28.22l-.22.06a4.41,4.41,0,0,1-.26-.83q-.33-3.19-.6-6.39c-.6-6.79-1.18-13.58-1.8-20.36-.08-.9-.37-1.77-.52-2.66-.06-.35,0-.71-.05-1.06-.07-.51-.18-1-.3-1.5,0-.09-.18-.17-.29-.2l-4.28-1c1.15,12.12,2.34,24.16,3.47,36.2l-.28,0a5.23,5.23,0,0,1-.15-.66c-.31-3.19-.62-6.37-.92-9.56l-1.47-15.19c-.34-3.48-.68-6.95-1-10.43,0-.32-.09-.51-.47-.6-7.25-1.7-14.5-3.43-21.75-5.14-2.49-.59-5-1.14-7.47-1.71a1.46,1.46,0,0,0-.21,0l-.29.75,2.24.26c.81.11.94.23.94,1,0,2.16-.05,4.32-.07,6.48,0,.62-.3.83-.91.74-.81-.11-1.64-.16-2.47-.24-.14.42,0,.67.43.76.79.16,1.58.34,2.37.51s1,.29,1,1.21,0,1.66,0,2.49c.08,1.66.23,3.31.29,5,0,1.33-.21,1.56-1.55,1.55-.73,0-1.45-.09-2.22-.13v.78c.85,0,1.69,0,2.53,0,1.23,0,1.32.13,1.34,1.37.06,2.91.14,5.82.2,8.73,0,.56,0,1.12-.08,1.68s-.26.78-.82.73-1.37-.05-2.06-.07c-.22,0-.43,0-.65,0l0,.26,3.63.22c.29,1.36.34,8.41,0,9,0-.35-.1-.57-.11-.79,0-1.77,0-3.53-.06-5.3a.65.65,0,0,0-.45-.69c-.78-.32-.92-1-.89-1.84l-2-.2v3.59L71,123l1.55-1.55c.45.7,1.38,1.16,1.28,2.42-.15,1.87,0,3.76,0,5.69h.74l.13-.84.18,0,.2.86.17,0a4.28,4.28,0,0,0,.1-.59c0-1.91-.09-3.82-.14-5.73l-.36-14.65q-.25-10.53-.49-21.07c0-.37,0-.74,0-1.1l.21,0a2,2,0,0,1,.12.53c.15,6.21.28,12.42.43,18.63q.3,11.72.61,23.44a.69.69,0,0,0,.22.54l.12-.86h.19l.21.79h.16c-.18-4.74-.38-9.48-.54-14.21s-.29-9.56-.4-14.33-.19-9.5-.17-14.25h.36c.08,14.3.5,28.59,1.17,42.86l.27.06a5.25,5.25,0,0,0,.37-1.41c-.18-7.93-.36-15.87-.62-23.8-.17-5.42-.47-10.84-.71-16.25a8.07,8.07,0,0,1,0-1.1c.58.62,1.36.57,2,.73q10.23,2.34,20.47,4.65a.94.94,0,0,1,.54.33l-.36.15c1.26,12.09,2.51,24.14,3.77,36.23.32.06.37-.19.36-.52a7,7,0,0,1,.08-.79h.22l.11,1.1h.65c-.26.32-.57.54-.67.84a4.08,4.08,0,0,0,0,1.17l2.94-.26c.17-.47,0-.59-.43-.58a7.36,7.36,0,0,1-.82-.06l0-.25,1.23-.11c-.1-.62-.2-1.25-.31-1.87,0-.27-.1-.52.33-.43l0,0,.42,2.38h1.74v-2.85h.23l.22,2.84h3.32l-.41-3.46.31,0c.11.57.22,1.13.32,1.7s.19,1.18.27,1.75h2.24l-.23-2,.28,0,.39,2.05,2.28-.2-.31-2.38.3,0,.45,2.37c.8-.14,1.57-.26,2.34-.43.11,0,.23-.31.22-.47,0-.51-.1-1-.15-1.55a5.42,5.42,0,0,1,0-.57l.27,0,.38,2.45,1.5-.28.07.24-1.53.51.12,1.11,2.34-.15c-.26-1.44-.51-2.81-.76-4.17l.26,0a26.4,26.4,0,0,1,.86,4.1l.66.1v.13l-.55.27c.91,0,1.71,0,2.51,0,2.89-.07,5.77-.12,8.66-.24,2-.08,3.94-.25,5.91-.38.16,0,.36-.08.49,0a3.1,3.1,0,0,1,.56.47c-.16.18-.3.48-.5.52-.56.12-1.16.08-1.73.19a42.52,42.52,0,0,1-7.56.69,9.9,9.9,0,0,0-1.89.43l0,.18,1.75.21v1h-8v1.58h-.24L124,133.7h-5.33v1.78h-.27c0-.41-.11-.82-.11-1.22s-.13-.65-.61-.61-1,0-1.46,0l-.4,1.33h-.2l-.13-1.22a3.1,3.1,0,0,0-2.44.61,2.93,2.93,0,0,0-.88-.18q-3.34.39-6.68.83a3.45,3.45,0,0,0-.62.29,2.85,2.85,0,0,1-.86.3c-2.8.18-5.59.42-8.39.48-3.56.08-7.11,0-10.67,0a21.85,21.85,0,0,1-2.79-.22c-.35,0-.94,0-.84-.61H63.86v.18a5.12,5.12,0,0,1,1.05.12c.2.06.34.31.5.47a2,2,0,0,1-.42.36,1.75,1.75,0,0,1-.71.16c-4.78,0-9.56-.11-14.34-.12-3.63,0-7.27.07-10.9.06-1.07,0-2.14-.26-3.22-.33-.76-.05-1.53,0-2.3,0-4.45,0-8.89.08-13.34,0-1.8,0-3.6-.28-5.4-.44a2.18,2.18,0,0,1-.44-.11v-.18a3.85,3.85,0,0,1,.57-.07c2.7.18,5.39.38,8.09.55.7,0,1.4,0,2.12,0,.06-.52-.18-.61-.61-.61-1.52,0-3-.07-4.55-.13-.27,0-.53-.21-.81-.26a6.41,6.41,0,0,0-1.36-.21c-2.43,0-4.86,0-7.29,0-.35,0-.76,0-.65-.6H8.07c-.54,0-1.08,0-1.62,0-.24,0-.58,0-.69-.21-.35-.53-.85-.4-1.32-.4l-3.49,0a.87.87,0,0,1-.43-.06A4.32,4.32,0,0,1,0,133a2.5,2.5,0,0,1,.53-.5,1.51,1.51,0,0,1,.61-.07l12.71-.22c.24,0,.65-.12.67-.23a2.22,2.22,0,0,0-.15-.79,5.13,5.13,0,0,0,.37-1.06c.12-.69.15-1.4.23-2.1a4.37,4.37,0,0,1,.12-.52l.24,0-.23,3.3h1.67l.13-2.46c.53.32.28.76.3,1.14s0,.82,0,1.26h1.3v-3l.3,0c.18,1,0,2,.1,3,.36-.32,3.73-28,3.8-31.06-.66.14-1.3.25-1.92.42-.12,0-.23.28-.24.44-.22,2.29-.42,4.59-.63,6.89q-.78,8.8-1.58,17.63l-.42,5a4.8,4.8,0,0,1-.15.63l-.28,0c.89-10.09,1.79-20.18,2.69-30.33H19.7l-.43.07-3,27.31h-.23a2.24,2.24,0,0,1-.08-.57q.75-7,1.52-14,.69-6.31,1.36-12.62c0-.15-.08-.31-.07-.47a3.56,3.56,0,0,1,.11-1.23c.13-.31.13-.43-.16-.57-.75-.39-.78-1.17.12-1.8a6.66,6.66,0,0,0-1.37-.48c-.52-.06-.59-.29-.56-.73,0-.66,0-1.33,0-2a.82.82,0,0,1,.28-.53,1.39,1.39,0,0,0,.6-1.21c0-.7.09-1.4.13-2.11a1.41,1.41,0,0,0-.35-1.19.9.9,0,0,1,.29-1.41.86.86,0,0,0,.58-.85c0-1.11-.05-2.22-.05-3.33a11.89,11.89,0,0,1,.08-2,1.3,1.3,0,0,1,.61-.81,17.76,17.76,0,0,1,2.06-.84,6.43,6.43,0,0,1,.88-.19l.6-5.57c.08-.75.17-1.49.25-2.23a2.41,2.41,0,0,0-1-2.13c-.45-.4-.61-.73-.26-1.24.09-.12.23-.22.25-.34.16-.84,1.11-.8,1.51-1.38,0,0,.15,0,.23,0a12.15,12.15,0,0,0,1.92-.26,6.67,6.67,0,0,1,3.26,0,7,7,0,0,1,1,.2c.57.18,1.09.49,1.66.61A3.58,3.58,0,0,1,34,67.8s.07,0,.11,0a1.55,1.55,0,0,0-.86-1.53,13,13,0,0,0-3.45-1.37c-2.59-.4-5.23-.68-7.59,1C21.54,66.41,21.34,66.72,21.71,67.58Zm16.2.08-1,.57.22.07c0,.58.07,1.17.1,1.75-.75-.12-.17-.78-.49-1.14l-1.25.29,0,.18c.81.27.45.94.48,1.57l1.2-.91,2.55-1.41-.22-1.13c-.68,0-.74-.1-.44-.89l-1.15,1Zm10.33-7-1.08.46.13,2.79c1.09-.7,2.05-1.3,3-1.93a.48.48,0,0,0,.21-.34c0-.63,0-1.27,0-2.13l-2.29,1.18ZM88.6,85.76,85,84.93c.11.25.2.43.28.63s.13.38.21.62l.29-.33c.55-.6.81-.56,1.18.17.12.23.23.46.34.68l1.26-1c.29.44.56.89,1.23.72a.63.63,0,0,1,.86.56c0,.24.1.48.17.85a6.46,6.46,0,0,1,.46-.84c.07-.1.32-.19.39-.14.41.28.79.6,1.2.93.9-.29,1.12-.19,1.38.54.3-.17.73-.56.89-.47s.45.62.68,1a3.49,3.49,0,0,1,.32-.35c.18-.13.4-.34.55-.31s.26.32.36.52.22.51.33.76c.39-.26.75-.69,1-.64s.53.54.78.84c.61-.59.6-.58,1.12.2a2.63,2.63,0,0,0,.24.31l1.31-.73.33,1.16c1.21-.89,1.21-.89,1.7.39a.86.86,0,0,0,.23-.05c.31-.12.62-.26.93-.39l.41,1s.06,0,.12,0c.27-.44.14-1.19.91-1.26l1.74-.1c.25-.51.8-.37,1.27-.12a1,1,0,0,0,1.35-.27h-5.3V89.7a47.61,47.61,0,0,1,11.8.2,1.13,1.13,0,0,0-.34-.7,5.72,5.72,0,0,0-3-.83,41.2,41.2,0,0,0-4.16.06,14.64,14.64,0,0,1-5.77-.44c-3.13-1-6.34-1.7-9.51-2.54L73.22,79.81c-.26-.07-.53-.12-.74-.17v.9l.3.09,10.88,2.92,18.1,4.87c1,.27,2,.52,2.93.83.2.07.33.38.49.58a5.27,5.27,0,0,1-.72.27c-.13,0-.28-.07-.42-.1l-2.17-.5a3.27,3.27,0,0,0-.51-.22c-3.31-.89-6.63-1.77-9.94-2.67C90.47,86.35,89.54,86,88.6,85.76ZM55.68,60.29c-1,.13-1,.13-1.07,1.16a4.08,4.08,0,0,1-.11.59h-.15l-.21-.55-2.5,1.36-.12-.2a3,3,0,0,1,.39-.32l2-1.13a3,3,0,0,0,.36-.35l-.14-.15c-.68.42-1.35.88-2.06,1.26a1.32,1.32,0,0,0-.78,1.37c.06,1.1,0,2.2,0,3.3l.13,0-.41.51c-.1.06-.28.13-.29.2,0,1.19-.09,2.39-.1,3.58a2.57,2.57,0,0,0,.22.68l.2-.07c0-.63-.12-1.27-.13-1.9a.64.64,0,0,1,.22-.49c.94-.63,1.89-1.26,2.86-1.83a.83.83,0,0,0,.4-1.13l-.63.24-2.37.93c-.22.08-.48.22-.39-.23a5.85,5.85,0,0,1,.68-.3.68.68,0,0,0,.56-.88c0-.22,0-.46,0-.68a2.61,2.61,0,0,1,.7-2.56c.15-.15.41-.38.51-.33.31.13.77.09.83.6.08.72.2,1.43.31,2.17L55.91,65c.08-.89.11-1.72.23-2.53a1.27,1.27,0,0,1,.48-.85.82.82,0,0,0,.49-.92H56c-.37,0-.42-.16-.32-.45a12.51,12.51,0,0,0,4.59-.51l0-.19Zm50.05-5.58h2.36l-.67-6.28a6.74,6.74,0,0,0-7.61,1.65c.92,1.92.44,4,1,5.89.46-.17,1-.21,1.27-.51.65-.75,1.52-.35,2.24-.59.48-.16,1,.37,1.43-.18ZM28.58,127.59c.4,0,.4.25.39.55,0,.69,0,1.38,0,2.07h.13L31.75,95c-.95.35-1.75.63-2.53.94a.94.94,0,0,0-.64.94c0,1.3-.11,2.61-.24,3.91-.63,6.26-1.29,12.52-1.93,18.78-.08.85-.15,1.7-.22,2.55l.13,0,.36-.71c.21.52.17.81-.19,1.08a1,1,0,0,0-.38.59c-.13,1.38-.26,2.77-.32,4.16-.05,1,0,2.1,0,3.17h.85l.19-1.75.24,0v1.71c.28,0,.49,0,.69,0,.55.08.78-.12.76-.7s0-1.45.08-2.18ZM79.43,72c-1,.73-1.54.61-2-.25a5.66,5.66,0,0,1-1.81-.27,4.06,4.06,0,0,0-1.33-.57.87.87,0,0,1-.53-.64c0-.21.28-.46.44-.69l.41-.57c-1-.49-1.06-.48-1,.46,0,.52-.22.74-.7.7s-.83.14-.86.77a1.66,1.66,0,0,1,1.42,1.92c0,.23,0,.46-.05.68-.13.88-.27,1.75-.41,2.67l1.09.23.24-4.7,4.54,1.63-.08.23a21.57,21.57,0,0,1-4.09-1.31,26,26,0,0,0-.07,4.4,9,9,0,0,0,.39-1.29c.12-.33.29-.81.55-.9.53-.19,1-.32,1.07-.84.54.57,1.1,1.1,1.59,1.69a1.16,1.16,0,0,1,.24,1.19,10.59,10.59,0,0,0-1-1.34c-.36-.36-.73-1-1.38-.45a3.78,3.78,0,0,0,.69.84,2.42,2.42,0,0,1,.94,2.06c0,.16,0,.32,0,.53l2-.09c.05-1,.12-2,.14-3,0-.48-.06-1-.1-1.53,1.43.51,3,1,4.4,1.63l-.09.29-3.81-1.29v2.39c.58-.65,1.72-.37,1.85-1.53.22.5.28,1,.56,1.22a3,3,0,0,1,1.28,3.29l1.19.23V75.44a15.09,15.09,0,0,1,3.92,1.24l-.09.29c-.55-.17-1.11-.33-1.66-.52s-1.15-.41-1.76-.63V78c.53-.6,1.6-.25,1.58-1.35l.19.13a.24.24,0,0,1,0,.1A2.3,2.3,0,0,0,88.7,79a1.28,1.28,0,0,1,.19,1.65c-.29-.6,0-1.49-1.19-1.67a1.52,1.52,0,0,1,.51,2.2l1.92-.09v-4c.9,0,3.34.86,3.53,1.34l-3.16-.93.13,2.28,1.77-1.38a1.29,1.29,0,0,0,.92,1.39c.15,0,.25.37.31.58.17.68.3,1.36.46,2.07l.9,0-.35-4c1-.07,3.54.85,3.66,1.37l-3.26-1,.3,2.12c1.27.27.91-.89,1.27-1.52A2.68,2.68,0,0,0,98,81.31a1.31,1.31,0,0,1-.2,2.16l.34.39-.38,1.5.81.17L98.3,86l1,.27v-4c.48-.26,1.33-.35,1.49-1.32A1.72,1.72,0,0,0,102,82.27h0a3.1,3.1,0,0,1,.11,1.93c-.25.91-.09,1.08,1,1.11l-.74-1.93,1.17-.67-.18,0c0-.87.06-1.75.18-2.61,0-.25.39-.45.6-.68.24.23.61.41.68.68a23,23,0,0,1,.38,2.37l2.4-.29h0a36,36,0,0,1,8.35.44c-.08-.74-.16-1.4-.23-2-.23-2-.27-2.06-2.22-2.42a28,28,0,0,0-9.36.22c-.45.07-.85.63-1.23,1-.19.19-.24.62-.44.69s-.48-.23-.78-.4a1,1,0,0,1-1.48-.12c-.8.34-1.11-.24-1.41-.78-.21.06-.41.19-.56.15-.75-.22-1.49-.48-2.23-.74-.12,0-.25-.21-.34-.18-.6.16-.91-.12-1-.66-.92.23-1.23.05-1.41-.78l-.06,0c-.33.32-.71.59-1.14.21a.78.78,0,0,1,0-1.25c.12-.11.09-.38.13-.57l-.22-.06a5.64,5.64,0,0,1-.31.81c-.15.26-.36.65-.58.68A1.49,1.49,0,0,1,90.1,76c-.14-.1-.17-.34-.25-.53-.87.65-1.32.58-1.8-.26a1.33,1.33,0,0,1-.47.08c-.28-.07-.69-.14-.77-.32a1.42,1.42,0,0,1,.16-.87,4.31,4.31,0,0,1,.44-.7c-.44-.3-.66-.17-.72.27a1,1,0,0,1-1,1,.85.85,0,0,1-1.08-.82c-.19.07-.38.2-.49.16a1.81,1.81,0,0,1-.85-.47c-.24-.33,0-.53.37-.68.19-.09.31-.34.47-.52-.45-.31-.81-.09-1,.4-.11.3-.39.69-.65.75s-.65-.21-1-.37c-.09,0-.14-.17-.2-.25-1.14.51-1.86.15-1.9-.9l1.2-.93c-.88-.38-1.07-.27-1.12.52A3,3,0,0,1,79.43,72ZM60.53,85.72a1.05,1.05,0,0,0-.07.23c0,4.51,0,9,.09,13.52q.14,14.4.29,28.8c0,1.37,0,1.37,1.41,1.27,0,0,.07,0,.18-.14v-1.51c.53.56,0,1.36.72,1.74l.14-1.31.25,0c0,.26,0,.51.05.77s0,.59.48.39v-1.05h.15l.37,1.19.24-.06v-.66q0-4.12-.1-8.23c-.06-4-.14-8-.2-12Q64.38,97.81,64.25,87a5,5,0,0,1,.09-.66h.21a6.06,6.06,0,0,1,.09.73c0,3.39,0,6.78.06,10.16.13,8.73.31,17.45.46,26.18,0,1.83,0,3.66,0,5.49a2.74,2.74,0,0,0,.23.74c.09-.24.19-.47.26-.71a4.85,4.85,0,0,0,.08-.55H66l.24,1.29.21,0,.15-1.3.25,0c0,.21,0,.43.07.64s-.19.66.3.64c.09,0,.21-.44.25-.68a7.2,7.2,0,0,0,0-.93l.29,0a9,9,0,0,0,.09.91,6.23,6.23,0,0,0,.24.73,2.64,2.64,0,0,0,.2-.7c-.09-5.42-.14-10.85-.29-16.27-.24-8.55-.56-17.11-.83-25.66,0-.38-.15-.53-.48-.57ZM56.76,86c-.13,15.75-.26,31.29-.39,46.84h4.08v-3l-1.81-.11-1.65-.1v-.27h3.44c-.13-14.56-.26-29.1-.4-43.78Zm20,1.74c.22,5.47.44,10.88.66,16.29a9.43,9.43,0,0,1,4.47-5.47c1.23-.73,2.53-1.34,3.75-2.09a19.92,19.92,0,0,0,2.76-2c.62-.54.52-1-.08-1.57a1.54,1.54,0,0,1-.09-2.25,4.72,4.72,0,0,0,.72,0,.86.86,0,0,1,1,1A3.27,3.27,0,0,1,89.57,93a1.79,1.79,0,0,0,.2,2.2A16.1,16.1,0,0,0,91.56,97a50.65,50.65,0,0,1,5.29,4.43,12.81,12.81,0,0,1,3,4.69c0,.14.1.28.15.42l.1,0L98.48,92.7Zm10.7,41.6c0-1.33,0-2.57,0-3.81a.58.58,0,0,0-.32-.4c-.34-.15-.38-.3-.17-.61a2.07,2.07,0,0,0,.47-1c0-1.89,0-3.78-.14-5.66-.11-1.53-.49-3-.62-4.56a8.3,8.3,0,0,0-2.2-5,.61.61,0,0,0-.85-.17,7,7,0,0,0-3,2.71c-1.28,2.07-1.34,4.43-1.41,6.72-.12,3.44.06,6.89.07,10.34,0,.33.36.92-.4,1,0,.15.06.36.17.44s.31,0,.46,0l.17-1,.2,0,.14,1,1.25-.29,1,.27.15-1.15h.21a5.82,5.82,0,0,0,.09.73,2.46,2.46,0,0,0,.28.5,2.38,2.38,0,0,0,.22-.49c0-.26.06-.53.09-.79l.25,0,.09,1.21c.26,0,.47,0,.67,0,.5.06.62-.16.54-.62a3.41,3.41,0,0,1,0-.71h.22c.06.31.11.62.19.92a1.57,1.57,0,0,0,.19.33,1.25,1.25,0,0,0,.22-.36,6.53,6.53,0,0,0,.14-.77l.22,0,.12,1.06ZM49.19,132.9c.48-15.13,1-30.19,1.42-45.36l-.92.44c-1.23.56-2.43,1.18-3.69,1.66-4.42,1.69-8.86,3.33-13.29,5a.79.79,0,0,0-.63.83c0,1-.13,1.91-.2,2.86L31,109.5c-.1,1.3-.19,2.61-.28,3.92a33.65,33.65,0,0,0,.82-4.53c.39-4.24.72-8.48,1-12.73A1.13,1.13,0,0,1,33.44,95c2.2-.82,4.39-1.65,6.57-2.52,3-1.21,6.08-2.45,9.12-3.67a1.93,1.93,0,0,1,.55-.07l0,.21-9.19,3.61c1.54.84,1.49,1.61,0,2.69a2.77,2.77,0,0,0,1.26,2.15c1.45,1.08,2.86,2.2,4.23,3.39a14,14,0,0,1,1.71,2,4.54,4.54,0,0,1,.61,2.68c.1,1.8.29,3.6.34,5.4,0,1.42-.1,2.85-.13,4.28-.13,5.65-.24,11.3-.36,17a5.4,5.4,0,0,1-.08.69H47.9V130h-.21v2.93Zm7.1-46.62c-.6.25-1.1.49-1.63.67a.65.65,0,0,0-.46.7c-.07,2.2-.17,4.4-.25,6.6q-.27,6.9-.51,13.82c-.08,2.4-.12,4.81-.17,7.22q-.15,8.56-.28,17.13a2,2,0,0,0,0,.44h2.81C56.33,117.35,56.26,101.89,56.29,86.28ZM21.62,130.61c.14-.92-.08-1.81.14-2.64l.27,0v2.52H23.3c.52-10.33,1.51-20.57,2.17-30.9H23.16c-1.2,10.38-2.4,20.7-3.6,31.09ZM52.27,94l-.22,0a2.36,2.36,0,0,1-.16-.62c0-1.83,0-3.65,0-5.47a.69.69,0,0,1,.39-.53c.9-.07,1-.66,1-1.37,0-.37,0-.75,0-1.12a1.19,1.19,0,0,0-.65-1.29c-.16-.09-.23-.33-.43-.62l-.5,1.49a8.74,8.74,0,0,0-.59-.69.83.83,0,0,0-.46-.16c-.27.4-.5.83-.73,1.23a3.84,3.84,0,0,1,1,.43,2.89,2.89,0,0,1,.76.91c.08.17-.07.51-.2.72s-.33.13-.41.16q-.76,22.91-1.52,45.72h2.47a25.45,25.45,0,0,0-.35-6.59,2.32,2.32,0,0,1,.37-2.34.34.34,0,0,0,.1-.23c0-1.25,0-2.51,0-3.82l-.79.19a46.6,46.6,0,0,1-.17,7.2.81.81,0,0,1-.17-.56c0-2.08,0-4.16-.07-6.23,0-.62.13-.91.74-.9s.6-.27.6-.72a19.5,19.5,0,0,0-.2-3.88,20.67,20.67,0,0,1-.23-3.53,2.09,2.09,0,0,1,.16-.78c.16-.38.49-.72.53-1.1.08-.82,0-1.65,0-2.68-.38.3-.84.48-.9.75a8.12,8.12,0,0,0-.08,1.85c0,1.47.07,2.94.1,4.41a2.43,2.43,0,0,1-.08.53h-.21c0-.19-.07-.37-.08-.56,0-2.2-.05-4.39-.1-6.59,0-.44.14-.6.56-.72s.78-.4.82-.67a19.77,19.77,0,0,0,0-2.44c-.59.07-.71-.29-.68-.81s.18-1.15-.07-1.45a1.53,1.53,0,0,1-.28-1.11c0-1,0-2-.05-3-.06-.69.18-1,.82-1.09.42-.05.54-.29.53-.68,0-.64,0-1.28,0-2-.52.08-.6-.25-.59-.67a18.82,18.82,0,0,1,0-2,3.94,3.94,0,0,1,.47-1.44,2.47,2.47,0,0,0,.28-1.65c-.36.15-.84,0-.85.58,0,1.76,0,3.52,0,5.28ZM73.88,57.62c0,.74,0,1.34,0,1.94a.55.55,0,0,0,.27.41c.6.26,1.22.48,2,.76,0-.81,0-1.51,0-2.22,0-.42.15-.53.52-.4a9.56,9.56,0,0,1,1.15.47c.14.07.22.29.32.43a1.43,1.43,0,0,1-.59.13,7.27,7.27,0,0,1-1-.39l-.09,2.11,2.28.87c0-.54,0-1,.06-1.4,0-1.46.09-1.48,1.43-.85,0,0,.09,0,.11.06s.19.31.28.47a1.6,1.6,0,0,1-.55.1,7,7,0,0,1-.9-.31v2.11l2.09.79c0-.78.12-1.44.14-2.1,0-.44.11-.59.55-.35s.73.29,1.07.48c.15.08.23.28.34.43-.15.06-.32.2-.46.17a8.57,8.57,0,0,1-1.1-.29c-.06.53-.13,1-.15,1.47a.52.52,0,0,0,.23.42c.63.27,1.29.5,2,.79V61.09l1.6.76-.09.22-1.12-.3-.18,2,2.06.78.13-2.52,1.49.86-.12.23-1-.38-.11,2,14.19,5.55c0-.71,0-1.34,0-2,0-.16.11-.42.2-.43a2.1,2.1,0,0,1,.64.11c-.06.17-.1.35-.17.51s-.18.22-.2.34c-.07.53-.11,1.06-.16,1.6l.86.31v-3c-.72-.23-1.34-.41-2-.63-.8-.29-1.57-.64-2.37-.93-1.45-.54-3-1-4.37-1.59C89.48,63,85.86,61.15,82,59.71c-4-1.51-7.93-3.31-11.89-5l-2.39-1c-.13.44-.09.68.35.74a5.3,5.3,0,0,1,.84.24c.89.27,1,.4,1,1.31a6.68,6.68,0,0,1,0,1c-.07.5.2.68.7.85,0-.62-.06-1.18-.14-1.72q-.09-.58.42-.45a16.46,16.46,0,0,1,1.59.53c.13,0,.18.28.27.42-.17.05-.36.18-.51.14A12.55,12.55,0,0,1,71,56.4c-.19,2.43-.09,2.47,2.45,3.24a19.57,19.57,0,0,0,0-2.17c-.07-.55.16-.61.55-.48a9,9,0,0,1,1.31.57c.14.08.2.3.3.45-.18,0-.38.15-.54.1A9.24,9.24,0,0,1,73.88,57.62Zm33,8.19q.38,4.35.77,8.68l-.25,0c-.57-2.88-.6-5.83-.9-8.87-1.14.21-2.25.35-3.33.61s-1,.35-.88,1.3c.08,1.11,0,2.22,0,3.34l1.18.72a4.84,4.84,0,0,0-.87,1.2,16.38,16.38,0,0,0-.34,2.25l1.59.34c0-.46-.31-1,.34-1.11s.56.51.66.81l6.91-.41a.56.56,0,0,0,0-.2q-.57-3.69-1.15-7.38c-.15-.94-.53-1.17-1.54-1,.08.72.17,1.44.25,2.16s.13,1.4.2,2.11.16,1.44.2,2.17a5.84,5.84,0,0,1,.09,2,1.07,1.07,0,0,1-.27-.62c-.24-2.21-.45-4.42-.71-6.62-.18-1.56-.2-1.56-1.76-1.58A1,1,0,0,0,106.91,65.81ZM58,31.47c.33-.62,3.3-.81,4-.34.37-.26.76-.49,1,.11L63.6,31c.2.64.54.68.87.31l1.65.8c.06-1.56.13-3.1.2-4.63,0-.25.05-.49.06-.74a2.89,2.89,0,0,0,0-1A2.91,2.91,0,0,0,64.68,24,7.56,7.56,0,0,0,60,23.54a4.88,4.88,0,0,0-3,1.57,1.5,1.5,0,0,0-.37.88c0,.74.17,1.47.19,2.21,0,1.12,0,2.24,0,3.19ZM31.75,70.58l0-.15a10.67,10.67,0,0,0-1.33-.4,19,19,0,0,0-6.56.22c-.45.07-.57.27-.6.68-.1,1.31-.23,2.61-.35,3.91s-.26,2.51-.4,3.75c.07,0,.1.06.14.06l.43,0c2.19-.11,4.39-.45,6.54.34.39.14,1-.34,1-.75s.11-1,.11-1.43a2.57,2.57,0,0,0-.15-1.15c-.12-.22-.54-.27-.94-.45,1.27-.74.87-1.93.85-3,0-.21,0-.42,0-.62,0-.83,0-.83.79-.89C31.44,70.64,31.59,70.6,31.75,70.58ZM98.4,73.69,99.16,72l.12,0c.15.73.3,1.45.46,2.27l.49.15.16-1.89h.26c.1.61.18,1.22.29,1.83a1.74,1.74,0,0,0,.25.46l.23-.08.22-1.76.12,0,.46.94c.17-.86.08-1-.78-1.36L91.28,68.52,77.63,63.26c-1.68-.65-3.37-1.3-5.06-1.93-.14-.06-.34.05-.51.08.09.15.19.3.29.44s.2.15.19.2c-.1.56.26.82.61,1.14a1.07,1.07,0,0,1,.25.8,9.13,9.13,0,0,1-.35,1.39l1.11.35c.16-.52.17-1.12.48-1.43A1.7,1.7,0,0,0,75.13,63a1,1,0,0,1,.12-.31h.2c0,.28,0,.56,0,.84s-.06.44,0,.51A2.09,2.09,0,0,1,76,66.36l.9.31,1.29-2.93c.19.88.39,1.68.52,2.5a4.33,4.33,0,0,1-.06,1l.92.3,1-2.72c.12,1.11,1.25,2,.54,3.24l1,.34,1-2.72c.07.3.1.48.15.65a2.56,2.56,0,0,0,.16.49,5,5,0,0,1,.44.94A6.22,6.22,0,0,1,84,69l.65.21,1-2.32a2,2,0,0,1,.26.78,6,6,0,0,1,.32,1.26c0,.92,0,.92.81,1L88,67.71a7.69,7.69,0,0,1,.61,1.38,6.71,6.71,0,0,1,0,1.42l1,.32c-.5-1.15.73-1.41.73-2.29.15.1.21.12.21.15.08.61.17,1.21.21,1.82,0,.9,0,.9,1,.95l.91-2c.07.31,0,.65.18.74.5.33.43.84.41,1.29s.17.76.63.76l1-2.14a14.23,14.23,0,0,1,.45,1.9c.09.89,0,.9,1,1l.74-2a10.16,10.16,0,0,1,.52,1.92C97.56,73.48,97.85,73.67,98.4,73.69Zm-26.86,2a2.81,2.81,0,0,0,.12-.47c0-1.45,0-2.9,0-4.35a.87.87,0,0,0-.36-.57,11.53,11.53,0,0,0-6.91-2.82,43.34,43.34,0,0,0-5.21-.18,15.22,15.22,0,0,0-7.25,2.21c-.16.09-.41,0-.59,0v5.37l.15.09c.12-.15.31-.29.35-.45a2.82,2.82,0,0,0,0-.87,5.59,5.59,0,0,1,1.09-4,1.32,1.32,0,0,1,1.23,1.44c0,.66,0,1.33,0,2a5.42,5.42,0,0,0,.1.65c1.44-.42,1.44-.42,1.4-1.81a2.8,2.8,0,0,1,0-.5c.15-.8,0-1.66.57-2.36.29-.33.8-.55.74-1.14,0,0,.43-.24.55-.17a6.38,6.38,0,0,1,1.19.87c.81.74.68,1.73.66,2.68,0,.51-.07,1-.11,1.59l1.92-.2c0-.93,0-1.83.17-2.71a3,3,0,0,1,.53-1.21,7.5,7.5,0,0,1,.84-1c1.51.76,1.83,1.28,1.82,3,0,.67,0,1.35,0,2h1.8c0-.84,0-1.65,0-2.46,0-.46-.1-1.12.77-1,.08,0,.17-.16.27-.22a4.93,4.93,0,0,1,.48-.28c.19.23.3.52.47.57.61.15.67.62.7,1.1.07,1,.13,2,.13,2.92,0,.67.31,1,1,1.11,0-1.05,0-2.09,0-3.12a2.19,2.19,0,0,1,.27-.64c.23.12.55.19.65.37a3.51,3.51,0,0,1,.39,1.29C71.58,73.51,71.54,74.51,71.54,75.68Zm-2.78,53.95c.79-.09,0-1,.65-1.19a6.79,6.79,0,0,0,.12.84c0,.13.17.23.26.34a4,4,0,0,0,.26-.35.53.53,0,0,0,0-.25c-.17-5.67-.35-11.33-.5-17q-.33-12.1-.61-24.22a.57.57,0,0,0-.15-.37c-.36-.26-.75-.48-1.28-.8C67.92,101,68.34,115.29,68.76,129.63Zm3-64.28c-.3,1.5-.3,1.5,1,1.94l17.88,6.15,12.18,4.22a2,2,0,0,0,.38,0l-.2-2Zm-8.66-10V44.46c-1.22.08-2.41.17-3.6.23-.54,0-.74.23-.73.8,0,3.18,0,6.36,0,9.53,0,.2,0,.4,0,.61Zm6.15-14.65c0-1.08,0-2.1,0-3.11a2.36,2.36,0,0,0-.49-1.31c-2-2.51-4.61-4-8-3.53-1.33.17-2.63.56-4,.84a3.12,3.12,0,0,0-1,.24,19,19,0,0,0-2,1.64,1,1,0,0,0-.32.75c.07,1.11.21,2.21.33,3.3.91-.14,1.12-.6,1-1.34a13.49,13.49,0,0,1,0-1.68c0-.56.41-.58.83-.6s.64.14.62.61c0,.66,0,1.32,0,2.05l1.09-.31c0-.55,0-1,0-1.46a7.68,7.68,0,0,1,.27-1.58.91.91,0,0,1,1-.69,1.53,1.53,0,0,1,.91.78,4.64,4.64,0,0,1,.19,1.46c0,.32,0,.64,0,1l1.22-.15c0-.75,0-1.47,0-2.19,0-.27.12-.66.3-.75a2.43,2.43,0,0,1,1.32-.31,1.15,1.15,0,0,1,1,1.17c0,.62,0,1.24,0,1.86a.57.57,0,0,0,.24.47,5,5,0,0,0,.91.21c0-.77,0-1.47.13-2.16a.85.85,0,0,1,.93-.75c.48,0,.64.39.66.77,0,.78,0,1.57,0,2.36a1,1,0,0,0,.19.64,6.05,6.05,0,0,0,1,.59c0-.48,0-.87.09-1.26s.18-.75.29-1.19c1,.84,1.18,2.65.49,3.2.11.12.22.24.34.35A2.74,2.74,0,0,0,69.26,40.66ZM32.16,107.4a25.21,25.21,0,0,1,4-5.86,16.49,16.49,0,0,0,3.6-4.88c.25-.62.6-1.17,0-1.81-.18-.2-.17-.58-.21-.89a7.17,7.17,0,0,1,0-.81c-2,.75-4,1.5-6,2.21a.72.72,0,0,0-.54.77c-.12,2.36-.28,4.72-.44,7.09C32.43,104.61,32.29,106,32.16,107.4ZM50.89,60.19c0,.43,0,.89,0,1.34s.24.59.65.32c.81-.52,1.62-1,2.43-1.52a1.51,1.51,0,0,1,.57-.24c1.84-.28,3.68-.6,5.54-.82,3.08-.35,6.16-.56,9.06,1a3.88,3.88,0,0,1,1.63,1.37c.29.5.63,1,.93,1.42-.09-.7-.17-1.41-.27-2.11a1.19,1.19,0,0,0-.08-.16,5,5,0,0,0-2.88-2.52c-.51-.17-1-.36-1.51-.57a9.7,9.7,0,0,0-5.37-1c-.76.1-1.53.18-2.3.23a13.48,13.48,0,0,0-7.13,2.49C51.79,59.71,51.36,59.91,50.89,60.19Zm16.3-3.9a2.15,2.15,0,0,0,.08-.47c0-2.4,0-4.81-.13-7.22a2.39,2.39,0,0,1,.39-1.43l.31-.5a7,7,0,0,0-4.32-1.91V55.31C64.77,55.35,66.1,55.07,67.19,56.29ZM25.85,99.78c-.15,2.09-.3,4.17-.46,6.26-.35,4.83-.75,9.65-1.06,14.48a67.6,67.6,0,0,0-.45,9.44c0,.25-.07.56.37.56s.43-.24.46-.56c.32-4.3.64-8.61,1-12.91.45-5.26,1-10.51,1.44-15.76.12-1.31.09-1.31-1.23-1.53ZM66.18,64.91c0-1,0-1.74,0-2.53,0-.53,1-1.18,1.43-.93a9.32,9.32,0,0,1,1.5,1.17c.08.07,0,.27.08.58l-.63-.56c.08.91.16,1.85.26,2.79a.55.55,0,0,0,.2.4,11.35,11.35,0,0,0,1.1.53c0-.57,0-1,.08-1.51s.13-.88.2-1.32h.22l.55.78.14-.1-1.16-1.67.21-.16.78.83a4.07,4.07,0,0,0-2.45-2.65c-.74-.31-1.5-.6-2.26-.88a6.54,6.54,0,0,0-.83-.21v3.19h-.25v-2.6H61.11v-.26l4.16-.16v-.09h-4.5l-.15,1.87h-.23l-.09-1.26-2.49.59c.38.15.62.27.87.34a1.33,1.33,0,0,1,1.05,1.47c0,.74,0,1.48.09,2.28l1-.13v1.47h4.59c.14-1.09.15-1.15-.89-1.24s-2,0-3,0a2,2,0,0,1-.45-.07,6,6,0,0,0,.27-1.14c0-.53-.05-1.07-.06-1.61A2.13,2.13,0,0,1,63,60.45a2.48,2.48,0,0,1,1.55,1.66c0,.76,0,1.53,0,2.31ZM30,81.36c1.18-1.09,18.61-11.36,20.29-12v-2l-.51.28L42,72.26,30.3,79.21A1.65,1.65,0,0,0,30,81.36Zm16.48-17,0-.19c-.2,0-.44-.08-.6,0-.92.47-1.83,1-2.72,1.48-.68.39-1.61.69-1.91,1.29s0,1.58,0,2.39,0,1.85,0,2.88l.74-.43c0-.09,0-.15,0-.21,0-1.32-.31-2.72.91-3.77.14-.11.14-.38.24-.56s.23-.27.28-.25a4.48,4.48,0,0,1,1,.53c.14.11.15.42.15.64,0,.65,0,1.3,0,2,.26-.13.4-.19.51-.26.36-.23.8-.33.7-1,0-.3.3-.72.57-1s.55-.14.7.18a2.54,2.54,0,0,1,.11.55l.59-.36c0-.11-.06-.18-.08-.26-.08-.52.27-1.31.65-1.36.63-.07.46.57.72.87l.5-.32-.18-.07c.1-.39.09-.87.32-1.14a3.52,3.52,0,0,1,1.15-.56V63.42l-5.62,3.35L45,66.5l.42-.22c1.63-1,3.26-2,4.91-2.94.65-.37.69-.38.46-1.16a66.69,66.69,0,0,1-6.19,3.67l-.14-.24ZM72,79.28l.17-.07c0-.26.17-.63,0-.77-.63-.75-1-1.69-2.1-2a24.89,24.89,0,0,0-10-1.4c-2.92.23-5.83.49-8.52,1.81-1.08.52-1.09.49-1,1.69a.47.47,0,0,0,.06.09c.26-.06.52-.11.78-.18a1.76,1.76,0,0,0,.39-.19c.28-.18.54-.39.83-.54a7,7,0,0,0,1.07-.5,1.45,1.45,0,0,1,2-.08,6.83,6.83,0,0,1,1.55-.51A8.29,8.29,0,0,1,59,76.8a1.77,1.77,0,0,1,2.12-.32,1.1,1.1,0,0,0,.76,0c.75-.31,1.46-.52,2.11.14,1.2-.78,1.93-.66,3,.49,1-.5,1.14-.46,1.82.44a.69.69,0,0,0,.52.16c.41,0,.82-.13,1.23-.16a.61.61,0,0,1,.75.54A5.2,5.2,0,0,0,72,79.28ZM58.37,44.81a16.06,16.06,0,0,0-2,1.13,1.9,1.9,0,0,0-.61,1,5.8,5.8,0,0,0,0,1.25c0,2.45-.07,4.89-.1,7.34a4.35,4.35,0,0,0,.05.48l2.63-.32Zm52.91,16c-.09-1.16-.14-2.24-.28-3.3a1.13,1.13,0,0,0-.57-.69,2.17,2.17,0,0,0-1-.27c-1.63,0-3.28-.11-4.91,0a8.53,8.53,0,0,0-4.92,1.91c-.2.16-.48.39-.48.59,0,1.11.08,2.22.14,3.43.26-.17.42-.29.59-.39.33-.19.29-.43,0-.53-.62-.22-.49-.77-.49-1.15s.36-.7.55-1.05l.3.07.24,2.29,1-.41c-.07-.53-.09-1-.2-1.47a1.15,1.15,0,0,1,.66-1.38c.46-.27.66-.09.73.35.12.65.21,1.3.32,2l.84-.19c0-.92,0-1.78,0-2.63a.69.69,0,0,1,.34-.45,1.25,1.25,0,0,1,1.83,1.11c0,.51,0,1,.08,1.6l1-.09a3.49,3.49,0,0,1,.1-2.55c.12-.31.4-.54.72-.2a2,2,0,0,1,.77,1.79,6.34,6.34,0,0,0,0,1l1.3.17c-.74-.51-.45-1.13-.51-1.68,0-.35.08-.69.47-.64a.79.79,0,0,1,.5.55c.06.61,0,1.23,0,1.9Zm-88,30.24c0-.62.08-1.19.11-1.77a2.06,2.06,0,0,1,1.35-1.44c.43,0,1.28.83,1.29,1.31,0,.66,0,1.31,0,2l1.13.09c.11-.83.21-1.61.32-2.38.06-.37,1.16-.9,1.39-.65a3.67,3.67,0,0,1,.7,1.19,3.38,3.38,0,0,1,0,1c.21-.19.35-.26.36-.34.07-.73.14-1.47.14-2.2a.77.77,0,0,0-.38-.54,1.55,1.55,0,0,0-.72-.16c-2,0-4-.12-6-.08a9.2,9.2,0,0,0-4.26,1c-.42.23-.58.48-.35.87l.73-.23a2.89,2.89,0,0,1,.22.8c0,.57,0,1.14-.07,1.71.69,0,1.06-.14,1.05-.88a11,11,0,0,1,.26-1.59.74.74,0,0,1,.82-.74c.57,0,.58.46.59.85,0,.7,0,1.39,0,2.11Zm-1.7-5.84a13.15,13.15,0,0,0,.16-1.69.74.74,0,0,1,.83-.84c.19,0,.47.53.52.85a10.85,10.85,0,0,1,0,1.61h1.73c0-.74,0-1.42,0-2.09a.66.66,0,0,1,.49-.41,1.3,1.3,0,0,1,1.17,1.09c.1.45.18.91.27,1.34l1.39.21,0-.2A2.43,2.43,0,0,1,27.7,85a2.78,2.78,0,0,1-.42-.42,1.78,1.78,0,0,1,.44-.21,1.2,1.2,0,0,1,.43,0c.52-.64-.09-1.08-.22-1.6.41-.36.73-.27.86.2a7,7,0,0,1,.26,1.65,3.18,3.18,0,0,1-.26,1l1.62.6A17.4,17.4,0,0,1,30,83.32c0-.87-.49-1-1.08-1.14a14.62,14.62,0,0,0-9.66.94.6.6,0,0,0-.33.37c0,.85,0,1.69,0,2.57l.44-.25-.18,0a15.46,15.46,0,0,1,0-1.67c0-.19.28-.37.43-.56.15.19.4.36.43.57a8.79,8.79,0,0,1,0,1.36ZM67.68,20.18l.19,0a4.75,4.75,0,0,0-.1-1.47c-.46-1.15-1-2.31-2.27-2.78a1.48,1.48,0,0,1-.47-.31,3.73,3.73,0,0,0-2.75-.91,12,12,0,0,0-2.16,0,6.94,6.94,0,0,0-4.06,2.1.8.8,0,0,1-.29.23,6,6,0,0,1-.64.13V20a1,1,0,0,0,.7-1.32,2.21,2.21,0,0,1,0-.68,1,1,0,0,1,1-.85c.49.07.52.46.54.85,0,.18,0,.35,0,.61l1.22-.52v-.75c0-.5-.14-1,.35-1.45s.77-.41.94.19a14.84,14.84,0,0,1,.26,1.64c.37-.25,1.12.25,1.08-.59a1.93,1.93,0,0,1,.75-1.5c.43-.43.83-.37,1.06.21s.21,1,.34,1.45c0,.15.13.36.25.41.6.21,1.22.37,2,.59l-.23-1.44-.2,0-.29,1-.24-.06a3.48,3.48,0,0,1,0-1,1,1,0,0,1,.52-.51c.07,0,.37.19.42.35a3.37,3.37,0,0,1,.27,1.2,1,1,0,0,0,.82,1.11l.33-.7C68.07,18.63,67.65,19.5,67.68,20.18ZM30.24,64.41c0-1-.29-2.2,1.24-2.52a1.1,1.1,0,0,1,.16.36c.13.85.26,1.71.36,2.58,0,.36.14.59.58.54.09-.64.15-1.28.27-1.9,0-.18.24-.32.36-.47.13.17.37.33.38.51a8.9,8.9,0,0,1,0,1.86.72.72,0,0,0,.51.9c.45-.84-.14-1.82.48-2.62a3.28,3.28,0,0,0-1.83-2,12.68,12.68,0,0,0-7.23-1,5.78,5.78,0,0,0-1.62.42c-1.33.53-1.47.78-1.45,2.2v2.05h.17c0-.53,0-1,0-1.58,0-.75.18-1.07,1-1.41l.3,2.16c.42,0,.61-.09.54-.53a1.84,1.84,0,0,1-.05-1,3.88,3.88,0,0,1,.87-1.28c.11-.11.66,0,.84.25a1.32,1.32,0,0,1,.3.91,1.7,1.7,0,0,0,.34,1.38A3.89,3.89,0,0,0,27,63a2.24,2.24,0,0,1,1.28-1.59c.07,0,.2,0,.23,0,.28.46.9.7.86,1.37,0,.31.06.62,0,.93C29.36,64.33,29.65,64.5,30.24,64.41ZM103.42,78c1.48-.15,2.67-.32,3.87-.37,2.78-.12,5.59-.42,8.33.78-.05-.32,0-.75-.17-.85a6,6,0,0,0-1.31-.4l0-.51,1.13.36.16-.2c-.18-.23-.32-.57-.55-.66a10.75,10.75,0,0,0-4.59-1c-2.17.13-4.32.42-6.48.63-.35,0-.48.23-.38.55C103.63,76.86,104.15,77.32,103.42,78Zm1.41-33.41c-.15-.63-.27-1.09-.35-1.55-.16-.84-.12-.88.81-1.07.1.88.59,1.73,0,2.59h1.65c-.08-.69-.67-1.37.18-1.94a1.72,1.72,0,0,1,.62,1.75c-.14.54,0,.72.44,1-.06-.55-.13-1-.16-1.46-.13-1.77-.13-1.77-1.81-2.35l-.24-.08c-2.54-.8-4.83,0-7.05,1.16A1.75,1.75,0,0,0,98,43.82a29,29,0,0,0,.24,3.6l.93-1.09A1.86,1.86,0,0,1,98.67,44c1.19.35.65,1.42.88,2.13L102.29,45a19,19,0,0,1-.38-2.17c0-.24.35-.51.53-.76.2.17.52.32.57.54a13.35,13.35,0,0,1,.11,1.43c0,.16.1.45.19.46C103.82,44.53,104.34,44.54,104.83,44.57Zm-71.6,8.91a7.55,7.55,0,0,0-3.62-1.1l-.89,6.4,3.44,1c.26-1.65.51-3.26.78-4.88C33,54.49,33.12,54,33.23,53.48ZM100.6,41c-.9-.22-.38-.89-.56-1.4.77,0,.77.63.95,1.15l1.84-.27a14.36,14.36,0,0,1-.28-1.55c0-.09.27-.28.44-.3s.32.16.35.28,0,.5,0,.74.11.41.21.44c.81.19,1.63.33,2.51.51-.11-.87-.2-1.55-.29-2.23A2,2,0,0,0,104,36.6a5.51,5.51,0,0,0-4.6,1.6A1.31,1.31,0,0,0,99,39c0,.85.08,1.69.13,2.6C99.66,41.42,100.23,41.62,100.6,41ZM28.3,59l.93-6.66a6.35,6.35,0,0,0-3.21.44c-.3.14-.56.31-.5.74A21,21,0,0,1,25.71,59Zm19.36,70.52.23,0,.36-17.4A10.13,10.13,0,0,0,47,117.19c-.15,3.9-.27,7.8-.4,11.7v.63c.53.14.65-.06.63-.46s0-.78,0-1.17l.28,0Zm22.65-19.79c1-.39,1-.39.9-1.29,0,0,0,0,0-.06.12-.22.2-.57.39-.64.36-.14.45.19.54.49a6.29,6.29,0,0,0,.41,1,5,5,0,0,1,.49.91,8.25,8.25,0,0,1,.31,1.83c.05,1.17,0,2.35,0,3.55l-2.69.26v2.4h3V106.71l-3.45-.23,0,1h.14l.37-.79a.74.74,0,0,1-.16,1.11.85.85,0,0,0-.34.45A13.47,13.47,0,0,0,70.31,109.74ZM40.84,69.62c-.65.41-1.21.75-1.76,1.12-2.46,1.65-4.93,3.3-7.37,5-.67.45-.67.61-.51,1.43l.16-.77h.16l.28,1.39H32a8,8,0,0,0,.67-2.23l.57,1.36.2,0,.59-2.31.54,1.51.23,0,.3-.62c.14-.29.28-.59.43-.89l.81.6a6,6,0,0,0,.53-2.6l.19,0,.57,1.75.55-.34.2-2.27.11,0,.77,1.66.58-.36a3.4,3.4,0,0,1,.25-2.48l.63,1.85.08,0ZM34.52,50.84c.13-.71.23-1.24.34-1.77.22-1.06.11-1.39-.81-2a9,9,0,0,0-6.64-1.21A5.28,5.28,0,0,0,25.47,47c-.2.15-.21.56-.31.86l.18,0,.3-.89c1.05.75.44,1.62.32,2.41L27.31,49c-.8-.92-.74-1.71.3-2.69l.48,2.4,1.32-.16a1.4,1.4,0,0,1-.37-1.7.65.65,0,0,1,.86-.49c.8.16,1.13,1.38.6,2.19l1.09.43a1.44,1.44,0,0,1,.08-1.81c.3-.44.73-.38,1,.1a1.28,1.28,0,0,1-.76,1.86ZM54.34,86.67A5.55,5.55,0,0,1,55,86.4a13.54,13.54,0,0,1,3.57-1c3.51,0,7.11-.22,10.39,1.48.13-1.36.13-1.36-1.18-1.82q-.63-.21-1.26-.36a26.89,26.89,0,0,0-6.88-.36,9.8,9.8,0,0,0-4.63,1C54.41,85.69,54.13,86,54.34,86.67Zm11-72.3.21-.1c0-.49.13-1,.16-1.46a.58.58,0,0,0-.17-.42,11.53,11.53,0,0,0-2.24-1.14,7.74,7.74,0,0,0-4.54.23c-1.77.57-1.78,1-1.4,2.87.19-.36.27-.76.44-1.12.08-.17.32-.38.48-.37s.29.27.41.44,0,.19,0,.3l1.76-.34a2.51,2.51,0,0,1,0-.31c.13-.45.28-1,.82-.95s.46.57.57,1a1,1,0,0,0,.45.44c.15.09.37.06.54.11.4.12.67.11.88-.36a.48.48,0,0,1,.92-.06c.12.19.14.43.24.63S65.17,14.15,65.31,14.37Zm4.87,88.49c0,.65,0,1.19,0,1.72a.54.54,0,0,0,.36.37c.74.08,1.49.11,2.23.16.55,0,.81-.21.79-.77-.07-1.91-.12-3.81-.21-5.72-.05-1-.15-1.9-.22-2.81L70,95.11v3.46c.18-.47.23-1,.9-1,.45,0,.65-.28.59-.75a1.73,1.73,0,0,1,.11-.53h.17c.08.28.15.57.25.84s.14.36.25.39A1,1,0,0,1,73,98.59c0,1.35,0,2.7,0,4,0,.5-.24.64-.72.55C71.61,103.06,70.91,103,70.18,102.86ZM51.31,81.21a3.56,3.56,0,0,0-1.05,0c-.8.32-1.58.71-2.36,1.07l-6.19,2.92-13,6.07a2.11,2.11,0,0,0-.43.37l.16.24C36,88.18,43.85,85.41,51.31,81.21ZM33.75,45.43h.13c.08-.58.15-1.17.22-1.75a.36.36,0,0,0-.08-.28,6.34,6.34,0,0,0-1.36-1.14A5.47,5.47,0,0,0,29,41.88c-1.74.43-1.86.84-1.62,2.48l.31-.89h.21l.26.92h.69l.53-1.55c.92.37.22,1.14.68,1.64l1.12.15c0-.32,0-.59.06-.76a2.85,2.85,0,0,1,.6-.54c.12.17.31.33.34.51a7.93,7.93,0,0,1,0,1.09l.89.28a1.83,1.83,0,0,1,.08-.48,2.8,2.8,0,0,1,.34-.45,2.08,2.08,0,0,1,.28.47A3,3,0,0,1,33.75,45.43ZM47.5,55.69c.46,0,1,.15,1.32,0s.39-.74.57-1.14l.18,0-.14,1.4c.3,0,.66.16.89,0s.31-.48.45-.74h.17l0,1,1.17.69.2-.16c-.24-.51-.34-1.18-.74-1.49A24.53,24.53,0,0,0,48.7,53.6c-.08,0-.2,0-.31,0-.41,0-.82.08-1.24.1a4.73,4.73,0,0,0-3.62,1.66,6.94,6.94,0,0,0-.7,1.29l.24.2c.32-.22.75-.38.92-.68a2.6,2.6,0,0,0,.11-1.13h.25l.13,1,.63-.13.49-1.39.26.08-.24,1.11L47,55.56l.3-1.12.19,0Zm58-20.95.12-.12a4.85,4.85,0,0,0-2.42-2.75,2.71,2.71,0,0,0-3.05.25,4.32,4.32,0,0,0-1.68,3.35l1.07-.62A1.39,1.39,0,0,1,101,34c.07,0,.14,0,.22-.06a9.42,9.42,0,0,1,1.3-.16c.43,0,.87.12,1.31.16s1.09,0,1.4.56C105.25,34.63,105.39,34.67,105.48,34.74ZM56.77,8.68l.31-.28.58-.56a1.64,1.64,0,0,0,.28-.37c.18-.31.3-.68.79-.42.07,0,.27-.08.34-.17.38-.48.75-.57,1.13,0,.74-.64.74-.64,1.58-.12.43-.48.87-.6,1.24.07.78-.39.78-.39,1.36.49.6-.43.72.39,1.2.58a5,5,0,0,0-5.82-3C58.11,5.29,56.58,7.18,56.77,8.68Zm-22.2,31a3,3,0,0,0-1.9-2.76,1.37,1.37,0,0,1-.71-.55c-.26-.55-.73-.44-1.06-.33a14.69,14.69,0,0,0-2.19,1,2,2,0,0,0-1.13,1.93,2.06,2.06,0,0,1,1.93-.47l.43-.4.53.43,0-.16,1.61.1.3.52.43-.19C33.46,39.08,33.75,39.78,34.57,39.69ZM72,59.56l-.14.19c.23.18.42.44.68.53,7,2.69,14.07,5.35,21.09,8,2.89,1.12,5.72,2.35,8.59,3.51a1.88,1.88,0,0,0,.71,0l0-.2ZM52.79,82.72a2.09,2.09,0,0,0,.35-.21,7.24,7.24,0,0,1,4.29-1.63c1.49,0,3,0,4.48,0,2.76.09,5.57-.07,8,1.68a1.45,1.45,0,0,0-.38-.5,7.86,7.86,0,0,0-4.94-1.94,34.08,34.08,0,0,0-3.78,0c-2.53.16-5.13-.16-7.49,1.31C52.73,81.86,52.72,82.11,52.79,82.72Zm-2.41-8.38a3.5,3.5,0,0,0-.56.21q-1.95,1.1-3.87,2.22c-.37.21-.31.55-.11.85l1.48,2.12,1.42-.39a4.28,4.28,0,0,1,1-3.46.61.61,0,0,1,.34-.14c.43,0,.46-.27.42-.59S50.43,74.67,50.38,74.34ZM70.6,86.5c.09.67-.17.89-.7.94l-.12,2.21.15,0A4.21,4.21,0,0,1,71.43,87c.16.19.3.32.41.47,1,1.33.89,2.89,1,4.41a.62.62,0,0,1-.44.39c-.84-.07-1.68-.2-2.51-.31a9.31,9.31,0,0,0,0,1.2c0,.16.19.42.32.44.87.14,1.76.23,2.78.35,0-2.44,0-4.78,0-7.12,0-.13-.31-.36-.49-.38-.72-.11-1.44-.15-2.16-.22l.24.25a1.34,1.34,0,0,0-.51.17c-.1.09-.08.3-.12.46l.12,0ZM55.5,44.43a7.8,7.8,0,0,1,6.32-1.92c2.28.17,4.53.54,6.07,2.61-.13-1.5-1.54-1.81-2.11-2.56-.46-.15-.85-.15-1-.35a1.82,1.82,0,0,0-1.61-.56c-.6,0-1.22-.39-1.8.07-.05,0-.19-.07-.29-.09a1.2,1.2,0,0,0-.32-.06l-1,.07,0,0-2.47.6C56.78,42.78,55.47,43,55.5,44.43ZM84.87,84.88l-.34-.13L71.92,81.36c-.7-.18-1.06.11-1.06.87,1.12-.79,1.12-.79,2.18.84l1.14-.77c.47.42.62,1.3,1.51,1.18.72-.8,1-.82,1.58-.08a2.39,2.39,0,0,0,.13.21c.41.66.5.66.95,0a1.64,1.64,0,0,1,.23-.21,3.44,3.44,0,0,1,.51.49.86.86,0,0,0,1.35.26c.11-.07.48.09.59.24a13.18,13.18,0,0,1,.71,1.32,3.37,3.37,0,0,1,.34-.55c.57-.59.92-.57,1.48,0a4.12,4.12,0,0,0,.66.46Zm-51.4,1.74.1.24c-.2,0-.39.12-.59.16-.52.12-.81.55-.59.93l.54.94,1.13-.54-.15-.61-1.08.34-.09-.14a2.17,2.17,0,0,1,.46-.4,6.58,6.58,0,0,1,.74-.23c0-.32,0-.71-.14-.91a1.34,1.34,0,0,1-.07-1.56c.19-.44.45-.85.63-1.28a4.78,4.78,0,0,0,.19-.87l-3.94,1.72L30.68,86h.16l.73-1.74,1,2.43ZM100,66.12l-.7.27,1.47.66a1.41,1.41,0,0,1,1-1.56c2.8-1.25,5.67-1.87,8.7-.84.19.07.38.12.58.18l.14-.14c-.15-.18-.26-.46-.45-.54a10.28,10.28,0,0,0-5.08-.86,9.31,9.31,0,0,0-4.08,1.57c-.59.35-1.11.76-1,1.57,0,.08-.16.18-.29.33Zm-.18-2.73c.44-.25.83-.43,1.17-.67s.37-.55.62-.62a8,8,0,0,1,2-.39c1.65,0,3.24-.68,5-.31a8.61,8.61,0,0,1,3.69,1.19A2.41,2.41,0,0,0,110.39,61a14.92,14.92,0,0,0-10.32,1.42,3.21,3.21,0,0,0-.84.72A1.12,1.12,0,0,0,99,64.29l.22.1Zm-31.4-22.5.14-.19a8.51,8.51,0,0,0-3.68-2.22,12.87,12.87,0,0,0-6.83,0A26.85,26.85,0,0,0,54.1,40a1.49,1.49,0,0,0-1,1.65c.41-.35.78-.69,1.18-1a10.09,10.09,0,0,1,1.22-.73,7.26,7.26,0,0,1,3.35-.9c.24,0,.48-.21.73-.27a7.36,7.36,0,0,1,1.3-.22,7,7,0,0,1,1.2.14c.77.09,1.54.17,2.3.28.13,0,.24.16.36.23a1.84,1.84,0,0,0,.38.17l2.27.79s.07,0,.1.08ZM45.35,77.21l-.16-.07-3.72,2,1.62,2.39c.48-.15,1-.39,1.56.11-.74.17-1.71-.14-1.69,1l1.64-.44c0-.28.07-.68-.08-.87a1.33,1.33,0,0,1-.13-1.4c.23-.69.53-1.35.8-2C45.26,77.62,45.3,77.41,45.35,77.21ZM98.77,58.72a8.41,8.41,0,0,1,5.88-2.53,14.45,14.45,0,0,1,6.36.45c-.43-.94-1.45-1-2.18-1.35a5.4,5.4,0,0,0-2.39-.19c-.82,0-1.64.15-2.46.24-.42,0-1,0-1.24.22-.57.61-1.4.64-2.06,1.11a13,13,0,0,1-1.93,1.56S98.75,58.48,98.77,58.72ZM27.28,41.23a4.45,4.45,0,0,1,3.55-.82,6.21,6.21,0,0,1,3.41,1.46c.68-.93.55-1.34-.44-1.73-.07,0-.11-.1-.16-.15-.32-.25-.72-.76-.92-.69-.61.21-.66-.24-.8-.43l-2.07-.19c-.17.25-.44.44-.63.21L28.13,39l-1.08,1.18a2.17,2.17,0,0,0,.28-.07,7,7,0,0,1,3.78-.49,4.24,4.24,0,0,1,3,1.4,3.67,3.67,0,0,1,.24.49c-.29-.13-.45-.15-.52-.24A3.92,3.92,0,0,0,31,40a5.87,5.87,0,0,0-3.64.51C27.13,40.7,26.88,40.87,27.28,41.23ZM34.4,62.45l.19-.09a4.6,4.6,0,0,0-.42-.63,4.49,4.49,0,0,0-1.48-1.12A29.27,29.27,0,0,0,29,59.26a.24.24,0,0,0-.17,0c-.38.52-.78.15-1.2.07a5.52,5.52,0,0,0-1.35,0,5.38,5.38,0,0,0-2.78.91c-.44.32-1.25.39-1.17,1.26A11,11,0,0,1,34.4,62.45ZM22.81,69.34c3.54-1.18,6.91-1.58,10.2.31A2,2,0,0,0,31.48,68a12.87,12.87,0,0,0-6.55-.14,8.27,8.27,0,0,0-2,.83C22.4,68.94,22.64,69.2,22.81,69.34ZM17.25,93.49l.17.13a3,3,0,0,0,.54-.26,4.57,4.57,0,0,1,2.92-.88,22.77,22.77,0,0,0,2.86-.08c1.11-.12,2.25.26,3.36-.32.59-.31.68-.13.9-.33a2.36,2.36,0,0,1-.62.06,26.07,26.07,0,0,0-6.54-.26c-.58,0-1.27,0-1.65.6-.66-.19-1.07.29-1.51.62C17.47,92.92,17.39,93.25,17.25,93.49Zm52-10.73.08-.18a10.23,10.23,0,0,0-1.69-.7,35.17,35.17,0,0,0-10.83-.53,6,6,0,0,0-3.9,2,21.2,21.2,0,0,1,8-1.69A17.24,17.24,0,0,1,69.21,82.76ZM108,84.48l-.17-.13-4.48.63c.08.89.14,1.62.2,2.4l.59.15c-.08-.49-.14-.91-.22-1.33a1.19,1.19,0,0,1,.55-1.29,3.84,3.84,0,0,1,.57.92c.16.53.19,1.1.31,1.65a.7.7,0,0,0,.3.45c.4.15.82.23,1.35.37C106.85,86.86,106.32,85.39,108,84.48ZM39.48,83.29l1.43-.08a10.56,10.56,0,0,1,0-1.6c.09-.63.31-1.23.44-1.85a1.83,1.83,0,0,0-.08-.56l-2.61,1.37c-.6.32-.66.59-.26,1.15Zm67,14.08a29.88,29.88,0,0,1,9-.08,1.53,1.53,0,0,0-1.4-1.05c-1.47-.08-2.94-.13-4.4-.07-1.11,0-2.21.25-3.34.39,0,.21,0,.34,0,.46S106.42,97.21,106.47,97.37ZM33.85,53.2c0-.05,0-.11-.08-.14A6.61,6.61,0,0,0,29,50.81a3.81,3.81,0,0,0-3.58,1.44c-.06.08,0,.24,0,.36C28.37,51.38,31.11,51.86,33.85,53.2ZM26.74,92.86H20.79a5.1,5.1,0,0,0-3.11,1.08c-.17.13-.22.42-.32.63l.16.09,1.69-.82a1,1,0,0,1,.31,0c.85-.07,1.69-.15,2.54-.2.46,0,.92,0,1.38,0s.77-.16,1,0a1.09,1.09,0,0,0,1.09,0,.67.67,0,0,1,.42,0C26.75,93.76,26.83,93.69,26.74,92.86Zm-7.2,5.87c1.32-.15,2.61-.36,3.91-.44s2.64,0,4,0l.11-1a29,29,0,0,0-8.23.77ZM110.82,66c.29-.52.14-.79-.37-1-3-1-5.81-.39-8.57.81a1.88,1.88,0,0,0-.67.62.44.44,0,0,0,.09.41.51.51,0,0,0,.46-.07,2.48,2.48,0,0,1,1.6-1A12.74,12.74,0,0,1,110.82,66ZM30.21,86.86l.09-.12c-.05-.07-.09-.19-.15-.22a7.91,7.91,0,0,0-3.38-1c-1.68,0-3.36.09-5,.09a6.65,6.65,0,0,0-3.83,1.6c-.06,0-.06.16-.14.39.42-.21.72-.33,1-.5a5.94,5.94,0,0,1,3.08-.84c1.72,0,3.45-.07,5.17,0a21.46,21.46,0,0,1,2.74.46C29.91,86.77,30.06,86.82,30.21,86.86Zm86.31-3.06c0-.41-.1-.59-.5-.72a13.19,13.19,0,0,0-4.37-.47c-2.47.07-4.93.16-7.39.29a3.07,3.07,0,0,0-1.16.39c-.13.06-.15.34-.23.51a1.82,1.82,0,0,0,.5.09c.86-.14,1.71-.3,2.57-.45a22.18,22.18,0,0,1,7.79-.28C114.66,83.34,115.57,83.58,116.52,83.8Zm-67.91-26-.22.6h-.14L48,57.69c-.7,0-1.41-.1-2.11-.08s-1.38-.09-1.36.92c0,0-.07,0-.18.08L44.19,58c-1.31.33-1.92,1-1.71,1.89.11-.07.22-.13.31-.2a4.64,4.64,0,0,1,3-.94c1,0,2,0,2.91.13a1.84,1.84,0,0,0,1.45-.66Zm17.06-35A3.44,3.44,0,0,0,62.9,21.4c-.9,0-1.81.11-2.7,0a3,3,0,0,0-2.39.59A12.52,12.52,0,0,0,56.31,24l0,0C59.17,21.47,62.36,21.85,65.67,22.85ZM20,80.55c.18.52,0,.73-.52.84-.26,0-.81.28-.5.87,3.33-1.79,6.89-1.19,10.47-1.07-.19-.15-.38-.43-.61-.47a17.57,17.57,0,0,0-2.95-.4c-1.41,0-2.81.16-4.3.26L21.52,80c-.79-.19-.09.68-.61.73l-.24-.48-.13,0L20.4,81h-.14Zm92,3.82h-3.44c1.41.91.83,2.46,1.28,3.62,1.32.09,1.32.09,1.26-1.16a1.09,1.09,0,0,1,0-.18C111,85.79,110.81,84.92,112,84.37ZM56,25.54l.22.12a4.56,4.56,0,0,1,3.25-2.39,8.43,8.43,0,0,1,4.67.1,3.71,3.71,0,0,1,2.39,1.77c.16.29.28.59.47,1,.07-.26.16-.41.13-.51A3.59,3.59,0,0,0,64.89,23a10.92,10.92,0,0,0-4.43-.49,5.28,5.28,0,0,0-4,2.07A5,5,0,0,0,56,25.54Zm4.43,39.65-5.54.3v1.43l.41,0c1.48-.24,2.94-.53,4.43-.68C60.45,66.11,60.56,65.82,60.44,65.19Zm-6,20c4.36-1.81,8.81-1.32,13.16-.62-3-1.5-12.3-1.4-13.27.21ZM44.74,63.21l.81-.36a16.93,16.93,0,0,1,.24-2.17c.16-.66.55-.78,1.18-.57a.52.52,0,0,0,.39,0c.42-.25.82-.53,1.22-.81l0-.13H44.74Zm13.69-54c2.42-.67,4.66-.75,6.74.81l.16-1-.61.35c0-.23-.1-.46-.12-.7a4.42,4.42,0,0,1,0-.63l-.17,0a6.15,6.15,0,0,1-.25.76c-.06.12-.21.2-.32.3-.09-.14-.25-.28-.26-.43s.11-.4.11-.6a3.89,3.89,0,0,0-.13-.68h-.21a4.77,4.77,0,0,1-.15.84,2.92,2.92,0,0,1-.35.54,2.12,2.12,0,0,1-.28-.59,9.1,9.1,0,0,1-.07-1l-.32,0c-.07.28-.13.56-.22.83a5.36,5.36,0,0,1-.26.54,3.23,3.23,0,0,1-.37-.54c-.06-.12,0-.29,0-.42-.1-.39-.34-.52-.61-.2s-.17.52-.29.77a1.69,1.69,0,0,1-.35.41A1.71,1.71,0,0,1,59.83,8a6,6,0,0,1-.11-.74h-.28c0,.29,0,.58-.1.87a5,5,0,0,1-.2.62,4.93,4.93,0,0,1-.42-.49,2.13,2.13,0,0,1-.14-.38h-.15Zm44.81,75.32a38.75,38.75,0,0,1,13.33-.06,12.52,12.52,0,0,0-5.11-1.1A30.5,30.5,0,0,0,103.24,84.48ZM30.39,130.37v-12c-.29,3.7-.61,7.87-.93,12.08H30A2.46,2.46,0,0,0,30.39,130.37Zm-3-31.71a28.14,28.14,0,0,0-8.07.56c-.15,0-.25.32-.37.49l.14.15c1.36-.19,2.7-.4,4.06-.55a8.2,8.2,0,0,1,4.09.39Zm-4.2-29,.08.23c.15,0,.31,0,.47,0,1.06-.14,2.13-.33,3.2-.4a9.33,9.33,0,0,1,5.16.72c.1,0,.26,0,.38,0,0-.14,0-.35-.12-.4a7.09,7.09,0,0,0-1.55-.74,14.13,14.13,0,0,0-6.53.15A6.89,6.89,0,0,0,23.22,69.69ZM37.89,81l-2.62,1.3c-.44.22-.58.68-.22,1a2.06,2.06,0,0,1,.83,1.79l.85-.13a7.42,7.42,0,0,1,.17-1.31c.21-.6.53-1.17.77-1.76A7.63,7.63,0,0,0,37.89,81ZM99.4,49.68c.17,0,.22,0,.25-.06a1.12,1.12,0,0,0,.24-.19A7.31,7.31,0,0,1,107.44,48a1.6,1.6,0,0,0,.49,0l0-.25a5.78,5.78,0,0,0-1.56-.64,19.25,19.25,0,0,0-3.64,0A4.24,4.24,0,0,0,99.69,49,4.79,4.79,0,0,0,99.4,49.68ZM65.94,65.29a3.15,3.15,0,0,0-.07.71c0,.16.17.39.3.42a14.07,14.07,0,0,1,5.22,2.1,3.4,3.4,0,0,0-2.23-2.2A7.63,7.63,0,0,0,65.94,65.29Zm-1.37-46c.15,0,.48-.18.55-.1a3.75,3.75,0,0,1,.46.87l.46-.6c-1.22-1.27-4.47-1.72-6.49-.86l.57.62.5-.56a4.76,4.76,0,0,1,.3.7c0,.22,0,.46,0,.68s.14.2.22.3c.06-.09.17-.16.19-.26a6,6,0,0,1,.1-.61c.09-.26.26-.71.37-.7.5,0,.24.45.25.72s0,.58,0,.87l.17,0c.06-.11.16-.2.18-.31a6.39,6.39,0,0,1,.1-1,.69.69,0,0,1,.46-.39c.12,0,.31.21.42.37s0,.27.06.42l-.34-.37a2.72,2.72,0,0,1,.81-.19C64.16,19,64.36,19.2,64.57,19.32Zm2.37-3,.11-.12a5.31,5.31,0,0,0-2.76-1.9,32.39,32.39,0,0,0-3.93-.59,3.28,3.28,0,0,0-2.43.59c-.82.64-1.55,1.38-2.32,2.08l.1.12c.18-.16.35-.32.54-.47A7.27,7.27,0,0,1,57.69,15a7.1,7.1,0,0,1,2.44-.7,37.62,37.62,0,0,1,4,.19c.08,0,.15.13.24.19ZM25.5,136l9.6-.25,0-.27a1.88,1.88,0,0,0-.47-.1c-2.88,0-5.76,0-8.64,0C25.59,135.38,25.46,135.56,25.5,136Zm7.14-25.52c-1.2,4.43-.89,9-.88,13.49ZM89.88,96.18a14.2,14.2,0,0,0,1.17,1.28c1.3,1.12,2.7,2.14,3.94,3.33s2.36,2.54,3.52,3.83a3.43,3.43,0,0,1,.37.65c.11.19.22.39.34.58A10.21,10.21,0,0,0,97,102.09C95,99.7,92.17,98.24,89.88,96.18ZM31,75.38c.89-.64,1.72-1.29,2.61-1.88,2.23-1.47,4.48-2.92,6.72-4.38a3.64,3.64,0,0,0,.46-.42c-3.77,1.61-6.77,4.36-10.33,6.4Zm31.42,57.49c0-.59,0-1.13,0-1.66,0-1.34,0-1.34-1.37-1.29a.52.52,0,0,0-.15.07v2.88ZM51.94,69.14a26.07,26.07,0,0,1,2.43-1.2,17.1,17.1,0,0,1,7.08-1.08c1.16.07,2.32.18,3.48.29.43,0,.58-.08.42-.56-2.62.12-5.25-.23-7.88.25A10.25,10.25,0,0,0,51.94,69.14ZM19.07,80.46c3.35-1.64,6.84-1.1,10.34-.84.11-.44-.32-.39-.58-.45a21.11,21.11,0,0,0-7.56.07A3.61,3.61,0,0,0,19.07,80.46Zm93.5,3.87-.07.16c1.44.81.67,2.24,1,3.42l.92.07c.22-1.18-.42-2.38.54-3.43ZM45.44,86.16c.24-.71.61-1.2,1.41-1.07a.33.33,0,0,0,.24-.15c.3-.7.79-.69,1.38-.32.39-.5.62-1,1.44-1.05.57,0,1.11-.46,1.75.15,0-.69.91-.93.56-1.81l-7.53,3.7ZM44,57.19l.23,0a13.4,13.4,0,0,1,6.13.43c.32.08.56.32.8-.09C49.88,56.1,46.06,55.86,44,57.19Zm46.4,26.75a5.1,5.1,0,0,0,.13-.84c0-.3-.25-.64.19-.84-.13-.24-.24-.66-.4-.69a11.92,11.92,0,0,0-1.69,0v1.93ZM44.74,63.81A33.62,33.62,0,0,0,40,66.58l.38,1.58.19,0c0-.25.1-.5.17-.75s.09-.8.29-.9c1.74-.87,3.12-2.37,5.18-2.85-.15-.2-.26-.44-.35-.43C45.37,63.33,44.86,63.44,44.74,63.81Zm-.44-4.55a7.48,7.48,0,0,0-1,.43c-.27.16-.66.42-.67.65-.07,1.35,0,2.71,0,4.06l.19.09c.14-.21.37-.41.39-.62.06-.8,0-1.61.09-2.42a1.11,1.11,0,0,1,.43-.65c.11-.08.38.05.61.08ZM92.62,84.52l2,.51c.14-.35.17-.73.35-.82.45-.23.35-.63.3-.92s-.41-.41-.64-.44a15.6,15.6,0,0,0-1.66,0ZM34.14,42.8c.28-.67-.32-.71-.59-.94a5.43,5.43,0,0,0-5.94-.41c-.17.11-.26.35-.39.53l.16.1A6.06,6.06,0,0,1,34.14,42.8Zm53.24,87c-.34,0-.64,0-.95,0-.13,0-.36.14-.36.22a4.56,4.56,0,0,0,.18,2.37l1.52-.18Zm28.24-35.34c-1.19-.85-8.64-.71-9.61.23C109.21,94.46,112.41,93.91,115.62,94.45ZM65.91,66.69c-.27.47-.06.56.29.63a11.24,11.24,0,0,1,4.44,2c.39.29.79.56,1.19.84L72,70a1.92,1.92,0,0,0-.32-.64,6.54,6.54,0,0,0-2.64-1.67C68,67.41,67,67,65.91,66.69Zm-38.26,30,.08-.16a1.22,1.22,0,0,0-.46-.19c-1.12,0-2.24-.13-3.36-.07-1.43.07-2.85.25-4.27.41a.81.81,0,0,0-.75.77A24.56,24.56,0,0,1,27.65,96.7ZM99.93,34.93l-.11,0-.29,1.49-.15,0-.3-.89-.15,0a7.08,7.08,0,0,0-.31,1,8.93,8.93,0,0,0-.07,1l.17,0a5.66,5.66,0,0,1,3.36-2.1,3.84,3.84,0,0,0-.15-.88c-.06-.15-.29-.23-.44-.34a1.41,1.41,0,0,0-.25.44,4.17,4.17,0,0,0,0,.79l-.24,0-.22-1.13h-.23l-.16,1.45h-.16ZM78.27,129.85l-.39,2.68,1.64-.1v-2.75l-.92.56a1.13,1.13,0,0,0-.12-.17Zm-52-84a9.56,9.56,0,0,1,8.48,1.1,1.45,1.45,0,0,0-.57-.73,14,14,0,0,0-5.56-1.42A2.39,2.39,0,0,0,26.22,45.84Zm-4.59,86.47V131c-.39,0-.74,0-1.08,0a8,8,0,0,0-1,.12,6.45,6.45,0,0,0-.67.2v.95Zm84.69-36.24c3-.13,6.06-.88,9.26.2-.25-.25-.35-.44-.51-.5a6,6,0,0,0-1.3-.42C111.24,95,108.79,95.59,106.32,96.07Zm-65-31.54c-.15,0-.2,0-.22,0q-4.05,2.84-8.08,5.69c-.08.06-.09.2-.13.3.13,0,.28,0,.36,0,.76-.54,1.5-1.09,2.25-1.64L40.75,65C40.94,64.88,41.11,64.72,41.35,64.53Zm45.52,32-.11-.18c-1.43.77-2.87,1.54-4.3,2.33a10.26,10.26,0,0,0-3.18,2.64,7.18,7.18,0,0,0-1.57,4.19c.26-.63.44-1.29.7-1.91a10.44,10.44,0,0,1,5.4-5.44C84.84,97.66,85.85,97.08,86.87,96.53Zm-3.24,33.4v2.43h1.45l-.18-2.43ZM57.32,73.59c-.79.06-1.55.1-2.3.19a.48.48,0,0,0-.3.36,7.35,7.35,0,0,0,.22,1.12l2.38-.42Zm5.74-.36H60.55l-.07,1.3h2.66Zm-14-20.78c0-.87-.32-1.33-.81-1.39a1.77,1.77,0,0,0-1.71,1c-.06.26,0,.45.36.45a6.61,6.61,0,0,1,1.38.22c.17,0,.4.18.51.12S49.05,52.51,49.09,52.45ZM64.92,79.78l.52-3.21c-.6-.09-1.2.14-1.25.56-.09.83-.12,1.68-.18,2.55ZM67.7,51.9c0,.3,0,.69,0,1.08,0,.13.06.33.15.36.87.35,1.75.68,2.71,1a2.31,2.31,0,0,0-1.47-1.8C68.62,52.38,68.16,52.13,67.7,51.9Zm-1.58,23,2.34.55v-1.2l-2.34-.86ZM24,130.93v2h1.48v-2ZM60.08,74.62V73.26l-2.34.28v1.28Zm55.46,11.25-.09,0c0,.22.07.44.1.66s0,.46,0,.69c.08,1,.08,1,1.22,1.27-.15-1.06-.33-2.1-.44-3.14-.07-.59-.4-.67-.89-.64.6,1.27.6,1.27.34,1.65ZM63.44,73.3a8.66,8.66,0,0,0,.09,1,.53.53,0,0,0,.33.34c.59.09,1.19.14,1.86.21a4.71,4.71,0,0,0,0-1.07.66.66,0,0,0-.45-.44A17.89,17.89,0,0,0,63.44,73.3Zm-33.2,57.52-.77,0c-.07.37,0,.85-.22,1-.48.33-.3.68-.26,1h1.76C31.45,131.92,30.1,131.65,30.24,130.82Zm2.09-58.71-.67-.35a6.64,6.64,0,0,1,.51-.55,1.38,1.38,0,0,1,.41-.18l0-.1-1.66.16.19,3.16C32.68,73.44,32.38,73.75,32.33,72.11Zm51.3,26.57a9.77,9.77,0,0,0-4.73,4.78l.15.13c.61-.9,1.23-1.79,1.81-2.63l1.4-.4L82,100l.89.1-.13-.59.86.35-.24-.68,1,.19,0-.19ZM76.28,132.9l-.26-3h-.28c0,.26,0,.53,0,.8s0,.54,0,.81l-.25,0L75.24,130H75a25.91,25.91,0,0,0-.06,2.93ZM47.33,82.13c.52-.25,1.05-.47,1.56-.74a.47.47,0,0,0,.2-.39c0-.09-.24-.21-.37-.21-.52,0-1,.06-1.71.1.61-.79,1.43-.36,2.13-.53l-.07-.72c-.58.18-1.1.31-1.58.51s-.71.65-.45,1.24C47.15,81.61,47.22,81.85,47.33,82.13ZM81,132.41v-2.57H80v2.57ZM70.54,58.79c-2-1.36-3.94-2.77-6.44-2.57ZM52.38,76.13c.66-.24,1.32-.46,1.95-.73a.59.59,0,0,0,.23-.45,7.36,7.36,0,0,0-.13-1c-.51.24-1,.44-1.39.66C52.27,75,52.21,75.12,52.38,76.13Zm5-65.61a7.1,7.1,0,0,1,3.85-1,8.36,8.36,0,0,1,3.9,1C63.14,8.58,58.92,8.57,57.4,10.52ZM55.22,55.34l-6,4,.12.19L55.28,56Zm-11.87,75.6L42,130.83v2h1.34ZM39.5,85.8l1-.49a1,1,0,0,0,.52-1.44c-.08-.18-.57-.2-.89-.24a.83.83,0,0,0-.54.09,10.42,10.42,0,0,0-.77.72l.14.16a2.4,2.4,0,0,1,1.92-.32l-1.62.58ZM27.06,130.9v2h1.32v-2ZM52.82,96.32c-.37.12-.85,0-.85.55v3.38A4.75,4.75,0,0,0,52.82,96.32ZM81.71,76.64a4.94,4.94,0,0,1,1.89,2.77c.53-.92,0-1.93-1.58-3.25-1.27.42-1.73.79-1.71,1.29Zm-13.56.74c-.37-.35-1.15,0-1.38.7s-.31,1.23-.46,1.89l.57.16Zm-27.43,53v2.59l.86,0V131C41.57,130.33,41.49,130.26,40.72,130.33ZM77.93,78.47l-.07.16c.22.22.42.57.69.65a17.16,17.16,0,0,0,2,.4c.33-.69.15-1.1-.69-1.2A17.18,17.18,0,0,0,77.93,78.47Zm40.19,51.26c.21.28.34.62.49.64.77,0,1.55,0,2.39,0l-.16-1.14ZM67.57,55c.11.53.08,1.08.33,1.36a4.11,4.11,0,0,0,1.31.64C69.49,55.65,69.32,55.43,67.57,55Zm4.24,75-.18,2.87h.88V130Zm10.46-.18h-.85v2.54h.85ZM37,133h.82c0-.73,0-1.43,0-2.12,0-.2-.36-.36-.56-.54a1.54,1.54,0,0,0-.22.54C37,131.57,37,132.25,37,133Zm2.33-.09h.87v-2.58h-.87Zm-6.17-2.22v2.23h.94v-2.15c-.19,0-.35-.06-.51-.07Zm4-44.65c-1.25.72-1.25.72-1.11,1.32,1.67-.71,1.59-.38,1.28-2.05-.54.11-1.18-.16-1.58.44a1.73,1.73,0,0,0-.1.66C36.41,85.84,36.56,85.8,37.17,86.05Zm-.61,47v-2.87c-.33.32-.7.52-.73.76a18.44,18.44,0,0,0,0,2.11ZM72.05,71.33c.26,1-.25,2.2,1,2.94a18,18,0,0,1,0-1.81C73.11,71.77,72.75,71.51,72.05,71.33ZM31.78,130.78h-.3l-.23,2.14h1.46c0-.65,0-1.27,0-1.88,0-.12-.16-.23-.24-.34a1.1,1.1,0,0,0-.22.37c-.06.43-.07.86-.11,1.3a2.36,2.36,0,0,1-.11.44l-.24,0ZM68.63,80.92c-.13-1.45,1.06-2,1.69-3-1.84-.08-1.73,1.56-2.43,2.53ZM23.41,130.84c-.51.1-1,.06-1.28.3a1.11,1.11,0,0,0,0,1.09c.29.23.81.16,1.27.22ZM53.07,74c.53,0,.76-.26.71-.8s0-1.15,0-1.73c0-.27,0-.53-.07-.87A4.91,4.91,0,0,0,53.07,74ZM105,36.37c-1.72-1.17-5.22-.19-5.9,1.56A6.45,6.45,0,0,1,105,36.37Zm-37.5,93.71c-.43-.15-.62-.05-.6.4,0,.63,0,1.27,0,1.91s.21.61.65.45c0-.65,0-1.29,0-1.92C67.52,130.64,67.49,130.35,67.46,130.08ZM58.55,79.94l.27-.22c-.23-.77-.48-1.54-.68-2.33-.12-.47-.39-.5-.73-.43.23.91.42,1.79.67,2.65C58.12,79.75,58.39,79.83,58.55,79.94Zm14.38,49.57c.62.09.84-.71.42-1.8-.16,1.19-1.06.43-1.6.69l.07,1.19.61-.05.06-.88.22,0ZM83,81.79l.06.22,2.42.62c0-.18,0-.27,0-.37.08-.86,0-.92-.87-.77-.36.06-.74.05-1.1.11A2.67,2.67,0,0,0,83,81.79ZM69.26,84c-2.27-1.39-4.79-1.41-7.33-1.35A22.42,22.42,0,0,1,69.26,84Zm5.59-5.76a.71.71,0,0,0-.16-1A5.73,5.73,0,0,0,73,76.65c-.06,0-.22.43-.28.53ZM33.18,71c-.8.59-.28,1.41-.38,2.14.49-.31,1.06-.61,1.25-1.06S33.58,71.34,33.18,71Zm11.87,60.29v1.58h1V131ZM61.46,43c-2.3-.29-5.23.69-5.78,2.32C57.19,43.45,59.37,43.32,61.46,43ZM60.39,79.77l-.62-3-.18-.06c-.12.28-.36.57-.33.82.09.75.29,1.49.46,2.27Zm1.15-62.2H63l-.46-1.86A2.08,2.08,0,0,0,61.54,17.57ZM47,130.53c-.21.2-.48.34-.49.51-.06.61,0,1.23,0,1.85h.78c0-.9,0-1.77,0-2.63,0-.11-.16-.21-.24-.31l-.13.09Zm-3.17.29v2.07h.82c0-.53,0-1,0-1.52C44.61,130.65,44.54,130.61,43.8,130.82ZM34.1,90.2l0,.29c.26,0,.71.12.74.05a1.39,1.39,0,0,1,1.49-.86.37.37,0,0,0,.19-.14,1.21,1.21,0,0,1,1.21-.46c.68,0,.87-.13,1.06-.88Zm44.19,15.85-.22,0a17.8,17.8,0,0,0-.47,5.35c.47.13.59-.17.42-.45a1.44,1.44,0,0,1,0-1.2,1.55,1.55,0,0,0,0-.31c0-.45,0-.91,0-1.36C78.12,107.39,78.21,106.72,78.29,106.05ZM59.18,44.31A14.05,14.05,0,0,1,67,45.4C65.55,44.12,60.76,43.51,59.18,44.31ZM48.06,71.5c-.26.41-.85.42-.46,1a4.64,4.64,0,0,1,.51,1,7.09,7.09,0,0,1,.19,1c.54-.14.81-.35.58-.88S48.38,72.29,48.06,71.5Zm26.47,61.41V130H74v2.89Zm-40-2V133h.79v-1.88Zm27.8-54.19a.79.79,0,0,0-.64.94c.05.67,0,1.34,0,2l.63-.08ZM25.82,130.9v2h.8v-2Zm43-55.3,1.79.58c.13-.78-.39-1.25-1.7-1.61Zm4.3,54.32-.15.16c0,.82,0,1.64,0,2.46,0,.13.16.26.24.38.1-.12.26-.25.27-.38,0-.72,0-1.44,0-2.16C73.49,130.22,73.26,130.07,73.13,129.92Zm30-.46-1.07.12v1.54l1.07-.17ZM61.43,1.57h-.17l-.17,2.76,1.08.15ZM43.35,84,45,83.23l-.09-.73c-.2,0-.43.09-.67.11C43.23,82.72,43.12,82.88,43.35,84Zm-5.11,49.07.65,0v-2.66c-.47,0-.68.21-.66.67C38.26,131.67,38.24,132.31,38.24,133.06Zm31-3L69,130c-.12.12-.33.24-.34.37,0,.83,0,1.67,0,2.54h.57V130.1ZM41,89.68c-.53.16-.89.09-1-.5,0-.13-.39-.3-.55-.27s-.25.33-.38.5c.14.09.29.16.43.26a3,3,0,0,1,.65.5c.38.53.62.62,1.13.28ZM18.47,131.22c-1.27-.2-1.47,0-1.29,1.05h1.29Zm51.18-49.6c.29-.54.52-1,.82-1.49s.62-.83.94-1.24c-1.08.26-1.28.51-2.08,2.46ZM54.82,80.35c-.57-1.63-1.26-2.35-2-2.28l1.64,2.43ZM72.57,65.21c.65-1.09.65-1.56-.08-2L71.73,65ZM52,75.26c-1.3.26-1.54.55-1.33,1.52C52.24,76.16,52.06,76.45,52,75.26ZM50.07,73l-.44-2.36c-.82.34-.88.61-.32,1.21a1.65,1.65,0,0,1,.29.66c.08.32.11.64.18,1.06l.75-.53-.07-.12ZM16.69,132.15v-.84H15l-.08.84ZM56.41,57v-.18a8.29,8.29,0,0,0-1.89.46c-1.1.56-2.14,1.26-3.2,1.9a4.59,4.59,0,0,0-.41.36l.1.13C52.75,58.67,54.37,57.42,56.41,57ZM42.46,87.64c.22.4.36.67.52.92a1.63,1.63,0,0,0,.36.42,1.8,1.8,0,0,0,.53.28,3.93,3.93,0,0,0,.6.06l0-.2a3.14,3.14,0,0,1-.63-.23c-.15-.1-.35-.33-.33-.47.1-.56-.19-.93-.56-1.4Zm35.11,45.2c-.44-1,.06-2-.42-2.92a8.41,8.41,0,0,0-.12,1.2c0,.33.32.86-.42.93l.06.79Zm12.94-1.69c-.16-.25-.32-.71-.5-.72-.51,0-.63.42-.62.87s-.09.73.47.75S90.34,131.6,90.51,131.15ZM77.82,80.46l0,.17,2.25.58c.07-.93.07-.93-.76-.92-.35,0-.71,0-1,0A2.18,2.18,0,0,0,77.82,80.46Zm-13.6,51.08h0c0-.43-.07-.87-.13-1.29,0-.09-.19-.16-.3-.23-.06.09-.18.18-.17.27,0,.79.09,1.57.16,2.36,0,.09.17.17.26.25.07-.1.2-.2.21-.3C64.28,132.24,64.24,131.89,64.22,131.54ZM65.71,133c0-1,0-1.88,0-2.74,0-.09-.13-.17-.2-.25-.09.08-.26.16-.26.24,0,.81,0,1.61,0,2.41C65.26,132.76,65.48,132.85,65.71,133Zm6.87-53.77,1.92.49c0-.72-.8-1.15-1.84-1.06Zm14.89-.77c-.25-.7-.63-.83-1.21-.43a2,2,0,0,0-.68,1.84A1.85,1.85,0,0,1,87.47,78.47ZM63.38,133c-.06-1-.1-1.88-.17-2.72,0-.13-.15-.24-.32-.48,0,1.08,0,2,0,2.84C62.9,132.75,63.14,132.84,63.38,133Zm-18.9-59.2c1.12.33.71,1.4,1.18,2.07.7-.49.11-1.1.25-1.43l-1-.91ZM18.09,88.09a11.8,11.8,0,0,1,4.81-1.38A6,6,0,0,0,18.09,88.09Zm9.4,5.4.88.16c.07-.63.44-.8,1-.61l.18-.63-2.1.47Zm42.57,38h0c0-.37,0-.74,0-1.11,0-.12-.17-.22-.26-.33-.07.1-.2.2-.2.3,0,.77,0,1.54,0,2.3,0,.1.15.19.23.28.06-.11.18-.21.19-.32C70.07,132.21,70.06,131.84,70.06,131.46Zm47.75-1.7c-.69.06-1.34.11-2,.19-.1,0-.17.17-.26.26.1.08.2.21.3.21.67,0,1.34,0,2.08,0ZM54.17,77.31l1.66,2.63a4.45,4.45,0,0,0-.89-2.38C54.66,77.12,54.44,77.13,54.17,77.31Zm58.23,53.2v-.32H109c.07.13.11.31.17.31C110.26,130.52,111.33,130.51,112.4,130.51Zm-29.26,1.86V130l-.2-.09c-.09.18-.25.35-.25.52C82.61,132.13,82.66,132.3,83.14,132.37ZM66.41,130l-.22,0q0,1.35,0,2.7c0,.05.16.15.23.14a.28.28,0,0,0,.17-.21C66.52,131.81,66.46,130.93,66.41,130ZM40.05,94.41l-.12.1c.21.09.45.3.61.24a1,1,0,0,0,.69-1c-.06-.45-.4-.57-.9-.53,0,.29.05.54.1.79a2,2,0,0,0,.14.41Zm-4.66-24-.92-.31.16,1.81.75-.52a4.84,4.84,0,0,1-.06-.5A4,4,0,0,1,35.39,70.41Zm82.05,20.48c-.08-.17-.13-.48-.23-.5-1.3-.22-2.6-.4-3.91-.6l0,.32a10.54,10.54,0,0,0,1.13.1A5.18,5.18,0,0,1,117.44,90.89ZM73.1,119.45c.13.65.12,1.31.91,1.55v-1.55Zm-.88-45.27c-.43,1.21-.25,2,.46,1.88C72.55,75.44,73,74.68,72.22,74.18ZM59.68,17.85l-.16-1.93c-.85.66-.42,1.38-.58,2.06Zm-3.42,1.32c.75-.23.84-.44.63-1.48C56.05,17.69,56,17.89,56.26,19.17ZM71.07,75.83c-.09,1,.93,1.23,1.14,2.13C72.45,76.76,72.33,76.56,71.07,75.83Zm-.09,57h.25c0-.87.11-1.74.15-2.62,0-.07-.15-.14-.23-.21s-.17.14-.17.21C71,131.1,71,132,71,132.84ZM46.12,88.56l.12-.2c-1.29,0-1.75-.7-1.46-1.92l-.18,0-.3.36a2.64,2.64,0,0,0,1.29,2ZM58.43,11l4-.46A6,6,0,0,0,58.43,11ZM47.5,74.9c-.35-.79-.08-1.9-1.49-2.08.15.2.23.42.34.44.5.06.57.41.58.8s0,.62,0,.93c0,0,.06.09.1.15Zm9.39,5,.34-.1-.71-2.5-.32.09ZM36.09,90.53a10.52,10.52,0,0,1,.79.73,8,8,0,0,1,.55.75l.28-.19-1-1.59ZM50.81,72v3.31H51C50.87,74.21,51.41,73.09,50.81,72ZM115.4,93.45c-.5-.89.27-1.44.57-2.12a1.38,1.38,0,0,0-1.11,1.34C114.83,93,114.75,93.47,115.4,93.45Zm-85-42.89L30.67,49H30C29.85,50.44,29.85,50.44,30.43,50.56ZM50.17,80.69h0v-3l-.19,0a2.44,2.44,0,0,0-.27.9C49.84,79.24,50,80,50.17,80.69ZM68,132.81c.39-1.3.34-2.53,0-2.79ZM57.71,32.94a6.89,6.89,0,0,0,0-.8,1.22,1.22,0,0,0-.17-.37c-.13.07-.35.11-.39.22a9.8,9.8,0,0,0-.29,1.11Zm45.52,2.43.88.14L104,34.45l-.81-.09Zm11.92,95,.07-.14c-.13-.08-.24-.22-.37-.23a2.61,2.61,0,0,0-2,.37Zm-28-33.67.56.43.07-.09-.33-.55.64.08v-.49l.63.28v-1ZM45.88,86.81c0,.19-.28.52.29.7a8.38,8.38,0,0,1,1.13.56s.22-.24.18-.35-.25-.25-.41-.34C46.7,87.19,46.32,87,45.88,86.81ZM102,129.14l.23,0-.17-2.41c-.46,0-.86,0-.55.54.16,0,.35.15.36.27C101.91,128.06,101.93,128.6,102,129.14ZM23.46,81.42a9.25,9.25,0,0,0-4.21,1.18Zm17.72-5.66c-.6,1,.51,1.38.46,2.12.35-.21.48-.82.21-.89C41.24,76.82,41.3,76.31,41.18,75.76ZM89,91c.53.92.46,1.11-.34,1.52l.49.52C89.71,92.07,89.7,91.5,89,91ZM59.66,32.46a7.31,7.31,0,0,0-.07-.88c0-.12-.13-.22-.2-.33-.08.07-.2.13-.23.22-.12.36-.21.72-.33,1.16Zm-34,16.87-.23-.56-.89,1.51c.11.28.3.31.54-.06Zm81.33,80.79-.13.19c.15.09.28.27.43.28a6.88,6.88,0,0,0,1.11-.05c.11,0,.21-.13.32-.2-.11-.07-.21-.2-.32-.21C107.89,130.11,107.41,130.12,106.94,130.12ZM71.83,84l0,.29,1.42.39.09-.74Zm11.56-3.36,0,.33c.71.54,1.51-.18,2.24.15l0-.24ZM60,32.34c.78.14.65-.39.65-.77,0-.11-.2-.34-.27-.33C59.66,31.38,60.12,31.93,60,32.34ZM72.53,69.27c.26-1.06.1-1.27-1-1.26ZM34.65,91.43l1.57,1c.14-.91-1-.7-1.1-1.38Zm44.1,35,.1.06v-4.17h-.1ZM43,77.17a.8.8,0,0,0,.19-1.12c-.12-.17-.45-.2-.7-.31ZM71.2,82.53c-1.13.61-1.22.93-.48,1.46ZM23.76,95.86l.26,0V94C23.2,94.59,23.93,95.24,23.76,95.86ZM43.94,75.18l.32,1.41c.79-.47.11-1,.22-1.41Zm17-43H62l-.64-1ZM114.12,91.3l-.05,0L113.35,93l.55.13ZM83.25,80v.31h1.92V80.1Zm26.62,13c.4-1.18.29-1.63-.28-1.68ZM88.16,131.3v.88l.73-.06C89.09,131.45,88.74,131.3,88.16,131.3Zm-47-43.39a2.18,2.18,0,0,0-.25.51c0,.1.1.26.2.32.28.17.58.3,1,.49ZM33.77,52.36l.82-1.06c-.38-.46-.58,0-.79.21S33.43,52.07,33.77,52.36Zm73.89,40.83.18-.09c.06-1-.2-1.54-.71-1.34ZM74.26,78.5A1.35,1.35,0,0,0,73,77.82c-.1,0-.22.1-.34.16.1.09.18.22.29.25C73.38,78.34,73.81,78.41,74.26,78.5ZM39.37,91.25l.07-.26-1.13-.41.3,1Zm4.22-23.43-.13-.06a5.27,5.27,0,0,0-.79.92,5.19,5.19,0,0,0-.38,1.11h.1ZM29.24,50.41c.44-.46.29-1,.21-1.53C28.89,49.3,29.3,49.9,29.24,50.41ZM50.48,86.57c0-.7-.64-.54-1.09-.84C49.67,86.26,49.68,87,50.48,86.57ZM63,32.3l-.45-1.06h-.24l-.17,1ZM40.65,87.6l-.1-.11-1.39.59.81.31Zm34.28-3.3-.79.65,1.22.28ZM58.53,31.6l-.19,0L58,32.83l.59-.14Zm6.18,101.15h.05V130h-.22ZM76.44,69.81l0-.25-1.07-.37.14.76Zm9.1,62.42v-2.35h-.2Zm-7.38-2.78c.41-.6.34-1.32,0-1.54Zm-6.63-.37-.36-.46c-.07.16-.21.33-.21.49a1.71,1.71,0,0,0,.22.48Zm30.82-94.87a2.26,2.26,0,0,0,0,.48,6,6,0,0,0,.22.72c.07,0,.21-.06.21-.09a6.67,6.67,0,0,0-.13-.88C102.65,34.36,102.51,34.32,102.35,34.21ZM65.78,33.13c.19-.55-.11-.81-.56-1.07C65.08,32.66,65.17,33,65.78,33.13ZM78.51,70.47l-.05-.23L77.83,70l-.35.72.11.1ZM64.65,32.68l.13-.11-.15-.9-.25,0a2,2,0,0,0-.17.69C64.22,32.46,64.49,32.56,64.65,32.68ZM47.81,86.58l-.3-1h-.2a2.65,2.65,0,0,0-.13.77C47.19,86.44,47.54,86.49,47.81,86.58ZM84,98.51,85,99l-.36-.5.5-.3L85.05,98Zm17.83,28,.23-.2-.34-.65-.47.39ZM82.49,71.79l0-.18-.61-.19-.34.59.12.18ZM86,87.63l.93.25-.4-1c-.08,0-.12.06-.14.09C86.23,87.15,86.12,87.34,86,87.63ZM28,49.13c-.45.22-.39.64.19,1.42Zm83.19,43.7.25,0c.27-.48,0-1,.1-1.52l-.22,0ZM78.63,118.05h.12v-1.89h-.12ZM30.83,50.69l.3,0,.21-1.35-.29,0Zm-2.15-1.53-.18,0c-.23.41,0,.82.18,1.23ZM79.87,85.43l-.16-.13L79,86l.83.12Zm-3.22.06,1,.17-.25-.84ZM66,9.52l-.48.73.48.59Zm12.31,96.12.62-1.56C78.54,104.16,78.46,104.34,78.33,105.64ZM67.56,34.3l-.22-1.09c-.11.07-.28.11-.31.2C66.92,33.77,66.86,34.14,67.56,34.3Zm-35.32,17,.38-1.19C32,50.21,31.86,50.75,32.24,51.27ZM48.37,86.61l-.14.17.29.74.62-.37Zm7.69-66.38-1,.82.07.09,1.24-.55ZM85.38,98c.13,0,.34,0,.38,0,.18-.33.36-.24.59-.06.07,0,.2,0,.3,0-.05-.1-.06-.22-.13-.29C86,97.15,85.74,97.7,85.38,98Zm23.3-34.85.24-1.21C108.37,62.05,108.28,62.48,108.68,63.13Zm-61.92-10v.23l1.43-.08v-.15ZM68.39,35.22l.84,1,.07,0-.71-1.36ZM28.08,80l0-.1-1.46-.17,0,.27ZM63.39,31.39c-.23,1-.21,1,.49.91ZM56,33.26c.6-.07.69-.35.4-1Z"/><path class="cls-1" d="M106.41,127.34l-1.3-1.59c.08,1,.18,2.25.28,3.48l-.22.05a1.84,1.84,0,0,1-.17-.48c-.34-3.43-.65-6.86-1-10.3-.47-4.79-1-9.58-1.45-14.38-.36-3.55-.71-7.11-1.06-10.66a1.26,1.26,0,0,1,.12-.7,8.61,8.61,0,0,1,.44,2.47l.81-.94a4,4,0,0,1,1.64,3c0,1.51.08,1.5-1.39,1.36a5.72,5.72,0,0,0-.73,0l.12,1.17,2.39.17v.23c-.72.31-1.49-.11-2.26.06v.58l2.09.13v.19c-.61.34-1.29,0-2,.13l.21,2.06a8.13,8.13,0,0,1,.62-.65c.16-.13.41-.35.56-.3s.56.3.6.51a30.5,30.5,0,0,1,.57,3.55c.08,1-.16,1.16-1.17,1.07a6.39,6.39,0,0,1-.74-.17l.12,1.33,2,.12v.25h-1.91c-.13.63,0,1,.62,1,.49,0,1,.07,1.49.12a1.1,1.1,0,0,1,.55.21,7.82,7.82,0,0,1-2.6,0c.09.94.18,1.87.28,2.93.27-.31.45-.54.66-.75.43-.4.63-.35.9.18a8.68,8.68,0,0,1,.76,3.68c.05,1-.36,1.28-1.3,1.13l-.6-.13.14,1.65,2.62-.11,0,.35-2.61.16.13,1h2.79v.26h-2.78l.22,2.4.16.1.83-1c1.65,1.21,1.6,3.09,1.88,4.84,0,.19.05.37.08.56.09.41,0,.72-.47.79s-.62-.22-.72-.61a3.23,3.23,0,0,0-.21-.47Z"/><path class="cls-1" d="M71.76,119.56c.24.71-.12,1.23-.74,1.18Z"/><path class="cls-1" d="M38,67.57l.71-.23c.06.51.13,1,.14,1.42a.43.43,0,0,1-.28.32c-.1,0-.24-.14-.34-.25s-.25-.35-.4-.49-.08-.47.09-.68Z"/><path class="cls-1" d="M95.33,96.06c0-1,.19-1.27.86-1.44a1.27,1.27,0,0,1,1.67.81,5.5,5.5,0,0,1,.34,2.16,1.51,1.51,0,0,1-.78,1,1.1,1.1,0,0,1-1.29-.36A3.15,3.15,0,0,1,95.33,96.06Zm.7.23c.43-.71.8-.92,1.2-.67s.62,1.43.26,1.78c-.7.69-1.06-.23-1.75-.52a4.16,4.16,0,0,0,.62,1,1.34,1.34,0,0,0,1,.32,1,1,0,0,0,.52-.78,5.84,5.84,0,0,0-.35-1.86A.91.91,0,0,0,96.22,95C95.63,95.35,95.85,95.82,96,96.29Zm.77-.37,0,.06c.08.14.26.35.22.4a4,4,0,0,1-.62.56l.69.32a1.86,1.86,0,0,0,.18-.73C97.18,96.31,97,96.12,96.8,95.92Z"/><path class="cls-1" d="M81.67,93.32c-.11,1.22-.71,1.94-1.61,1.79a1.64,1.64,0,0,1-.85-.45,2.82,2.82,0,0,1,0-3.19,1.31,1.31,0,0,1,1.88.33A8.46,8.46,0,0,1,81.67,93.32Zm-2.48.19-.12.09c.11.22.15.51.33.64a1.61,1.61,0,0,0,1,.46c.25,0,.59-.46.65-.76A4.21,4.21,0,0,0,81,92.36a.8.8,0,0,0-1-.61A1.08,1.08,0,0,0,79.38,93a1.56,1.56,0,0,0,.69.54.52.52,0,0,0,.47-.14,1.89,1.89,0,0,0,0-.64c-.22.1-.26.3-.35.34a1.35,1.35,0,0,1-.49,0,1.86,1.86,0,0,1,.16-.73.64.64,0,0,1,.58-.1,1.06,1.06,0,0,1,.4,1.4,1,1,0,0,1-1.37.2A2.2,2.2,0,0,1,79.19,93.51Z"/><path class="cls-1" d="M48.25,93.51c-.11.72-.15,1.47-.33,2.17s-.47,1.27-1.2,1.26-1-.65-1.24-1.24a2.67,2.67,0,0,1,1.85-3.26C47.93,92.33,48.2,92.68,48.25,93.51Zm-1.52.83c.73,0,.87.18.65.82a1.75,1.75,0,0,1-.15.34c-.27.47-.54.46-.81,0-.65-1.15-.1-2.08,1.29-2.19,0-.53-.24-.65-.67-.37A2.52,2.52,0,0,0,45.77,95a2.41,2.41,0,0,0,.55,1.3.48.48,0,0,0,.87-.06,9.77,9.77,0,0,0,.61-2c0-.16-.29-.53-.48-.56A.5.5,0,0,0,46.73,94.34Z"/><path class="cls-1" d="M107.57,82.15c-1.38,0-1.38,0-1.63-1.37a1.85,1.85,0,0,1,1.25-2.2,2.24,2.24,0,0,1,1.56.94,7.53,7.53,0,0,1,.3,1.82c0,.17-.29.41-.5.52a6.78,6.78,0,0,1-1,.3Z"/><path class="cls-1" d="M112.64,80.73c-.12.24-.2.72-.48.9a1.64,1.64,0,0,1-1.71,0,.55.55,0,0,1-.29-.37,6.05,6.05,0,0,1,0-1.9c.1-.35.74-.86,1-.79a2.78,2.78,0,0,1,1.24,1C112.59,79.82,112.55,80.23,112.64,80.73Z"/><path class="cls-1" d="M115.44,81.06c0,.48,0,1-.67,1a1,1,0,0,1-1.16-.93,4.64,4.64,0,0,1-.06-1.23c.11-.75.61-.9,1.19-.45A1.75,1.75,0,0,1,115.44,81.06Z"/><path class="cls-1" d="M102,82.27c0-.12-.11-.25-.09-.36.17-.87-.33-1.15-1.06-1.29-.46-.1-.9-.27-1.49-.46v2h-.24V79.68l3.4,1.1c-.09.42-.15.71-.22,1s.15.55-.32.48Z"/><path class="cls-1" d="M23.46,113.82c-.05.22,0,.53-.18.64a2.09,2.09,0,0,1-.89.39c-.08,0-.26-.39-.33-.62a1.46,1.46,0,0,1,0-.55c.05-.34,0-.77.57-.67S23.55,113.18,23.46,113.82Z"/><path class="cls-1" d="M93.33,65.75,93.21,67l-.16,0a1,1,0,0,1-.15-.32c0-.47,0-.94,0-1.42s.16-.5.51-.32a8.11,8.11,0,0,1,.92.49c.11.08.16.25.24.38-.15.07-.31.22-.45.21A4.5,4.5,0,0,1,93.33,65.75Z"/><path class="cls-1" d="M94.9,67.79c.12-.64.23-1.28.38-1.91a1.15,1.15,0,0,1,.58.12c.31.26.93.12,1,.72a.73.73,0,0,1-.49.16,5.05,5.05,0,0,1-.83-.39l-.33,1.35Z"/><path class="cls-1" d="M97.53,67.46l-.12,1.19h-.26c0-.6,0-1.19,0-1.78,0-.08.29-.14.44-.21s0,0,.06,0c.27.23.81.53.78.69C98.29,68,97.85,67.31,97.53,67.46Z"/><path class="cls-1" d="M90.55,66V63.88l1.84.75-.08.26-1.39-.39-.13,1.57Z"/><path class="cls-1" d="M88.63,63.11l1.46.75-.09.23-1.19-.33-.2,1.58C88.22,65,88.25,63.9,88.63,63.11Z"/><path class="cls-1" d="M99,69.39c0-.16,0-.32,0-.48a2.54,2.54,0,0,0,.05-.86c-.19-.62.12-.7.59-.61a1.47,1.47,0,0,1,.48.3,4.09,4.09,0,0,0-.38.33,1.49,1.49,0,0,0-.29.46,6.77,6.77,0,0,0-.21.89Z"/><path class="cls-1" d="M28.84,114.21a2.7,2.7,0,0,1,.81,1.82,18.39,18.39,0,0,1,0,2.1c-.09,1.06-.49,1.41-1.55,1.46-.37,0-.71-.1-.69-.53.1-1.35.23-2.71.37-4.06,0-.14.21-.29.35-.39A7.52,7.52,0,0,1,28.84,114.21Z"/><path class="cls-1" d="M28.59,127.58l-1.4-.09c-.21,0-.42,0-.63-.07v-.26l1.92-.11a11.46,11.46,0,0,1-.39-1.7,13.21,13.21,0,0,1,.1-1.85,2.4,2.4,0,0,1-.84-.08,2.49,2.49,0,0,1-.59-.58c.2-.19.39-.51.61-.54a7.52,7.52,0,0,1,1.42.08l.14-.7h.28c.05.8.13,1.6.15,2.4a7.71,7.71,0,0,1-.1,1.36,5.64,5.64,0,0,1-.29.78c-.06.2-.08.41-.14.62s-.15.49-.24.74Z"/><path class="cls-1" d="M28.8,101.83l.48-.26c-.08-1.1-.16-2.14-.21-3.18,0-.14.16-.34.3-.42a1,1,0,0,1,1.66.89,4.23,4.23,0,0,1-.57,2.56A1.85,1.85,0,0,1,28.8,101.83Z"/><path class="cls-1" d="M29.56,105.23a4,4,0,0,1,.42,3.91c-.19.28-.69.39-1.06.48a1.29,1.29,0,0,1-.35-.72c0-.87,0-1.74.11-2.6a1.31,1.31,0,0,1,.32-.57A5.39,5.39,0,0,1,29.56,105.23Z"/><path class="cls-1" d="M27.76,112.36l2.54-.47A2.55,2.55,0,0,1,27.76,112.36Z"/><path class="cls-1" d="M31.16,96.41,29,97,29,96.73l2.11-.66Z"/><path class="cls-1" d="M28.83,102.72l2-.93A1.81,1.81,0,0,1,28.83,102.72Z"/><path class="cls-1" d="M30.79,103.47l-2,.86A1.81,1.81,0,0,1,30.79,103.47Z"/><path class="cls-1" d="M26.86,119.89h2v.19a4.81,4.81,0,0,1-2,0Z"/><path class="cls-1" d="M27.87,110.38l1.77-.24A1.17,1.17,0,0,1,27.87,110.38Z"/><path class="cls-1" d="M27.11,121.24l1.7-.11,0,.27a5.34,5.34,0,0,1-1.69.16Z"/><path class="cls-1" d="M29.61,114.24c-.22-.12-.54-.19-.58-.33a5.24,5.24,0,0,1-.08-1.12l.21,0Z"/><path class="cls-1" d="M27.25,114l.42-.81h.16a1.66,1.66,0,0,1,0,.63c-.08.15-.31.22-.47.33Z"/><path class="cls-1" d="M30.23,104.58l.3.9c-.2,0-.43,0-.45-.11a5,5,0,0,1-.11-.76Z"/><path class="cls-1" d="M24.72,77.88,26,70.39l.36.06-1.28,7.47Z"/><path class="cls-1" d="M27.79,76.35a51.64,51.64,0,0,1,.92-5.9,39.33,39.33,0,0,1-.6,5.94Z"/><path class="cls-1" d="M94,74.12c-.61-.22-1-.39-1.47-.53l-3.15-1c-.1,0-.16-.23-.24-.34.13,0,.28-.15.39-.11,1,.33,2,.68,3.06,1,.42.14.86.22,1.26.39C94,73.63,94,73.93,94,74.12Z"/><path class="cls-1" d="M85.94,71.28a5.8,5.8,0,0,1-.59-.19c-.33-.12-.64-.28-1-.38-.74-.24-1.48-.44-2.22-.67a.45.45,0,0,1-.27-.21.33.33,0,0,1,.15-.28c.08,0,.21,0,.32.06.5.16,1,.31,1.5.49s.78.31,1.18.47L86,71Z"/><path class="cls-1" d="M86.82,71.74l.14-.51,1.36.63-.1.27Z"/><path class="cls-1" d="M71.85,66.1l.66-.29v.71l-.69-.23Z"/><path class="cls-1" d="M77.78,67.63l.53.74-.08.15a1.73,1.73,0,0,1-.6-.22C77.57,68.25,77.7,68,77.78,67.63Z"/><path class="cls-1" d="M105.75,54.69c-.13-.09-.36-.17-.38-.28-.31-1.8-.6-3.59-.89-5.39a.47.47,0,0,1,.07-.17c.33.19,1.18,4.4,1.18,5.86Z"/><path class="cls-1" d="M33.51,98.91a5.17,5.17,0,0,1,.25-1.1c.14-.31.54-.81.65-.77.43.16,1.11.13,1.1.87a14.1,14.1,0,0,1,0,1.72,1.11,1.11,0,0,1-1.08,1.08c-.64-.06-.72-.59-.84-1.08C33.54,99.44,33.54,99.23,33.51,98.91Zm.54-.45h-.11c0,.48,0,1,.09,1.45,0,.13.25.29.39.31s.45-.1.47-.2c.13-.7.23-1.41.3-2.12,0-.09-.16-.19-.25-.29l-.19,0c-.06.6.5,1.32-.25,1.91Z"/><path class="cls-1" d="M62.5,57.36l-.06.79-.2.07c-.12-.15-.38-.32-.36-.44s.26-.34.4-.51Z"/><path class="cls-1" d="M56.45,58.25l.69-.56.1.78h-.73Z"/><path class="cls-1" d="M67.75,58.5,67.2,59c-.09-.15-.24-.29-.23-.43a.46.46,0,0,1,.28-.35C67.36,58.19,67.51,58.35,67.75,58.5Z"/><path class="cls-1" d="M63.7,57.4l.06.59-.64,0-.06-.18.43-.48Z"/><path class="cls-1" d="M61.26,57.39a5.08,5.08,0,0,1-.33.66,1.59,1.59,0,0,1-.33-.14l.36-.67Z"/><path class="cls-1" d="M60.12,57.75c-.23.15-.36.3-.5.31s-.21-.18-.32-.28a1.75,1.75,0,0,1,.42-.36C59.77,57.39,59.92,57.58,60.12,57.75Z"/><path class="cls-1" d="M66.39,60.05,70,61.54C69.38,61.84,66.72,60.78,66.39,60.05Z"/><path class="cls-1" d="M44.76,71.36l.68-.24a2.81,2.81,0,0,1,.35-.17s.16.19.14.23a.7.7,0,0,1-.28.26c-.83.47-1.67.92-2.56,1.4-.21-.18-.35-.36.11-.55a15.74,15.74,0,0,0,1.44-.68C44.74,71.56,44.75,71.36,44.76,71.36Z"/><path class="cls-1" d="M48.35,69.24l.18.11.37-.44.2.06c-.05.18,0,.43-.16.51a7.8,7.8,0,0,1-1.18.7c-.09,0-.26-.08-.4-.13a1.45,1.45,0,0,1,.24-.38A7.84,7.84,0,0,1,48.35,69.24Z"/><path class="cls-1" d="M43,73c-.43.25-.77.45-1.11.63a.24.24,0,0,1-.22,0,.27.27,0,0,1-.07-.21C41.61,73.05,42.55,72.72,43,73Z"/><path class="cls-1" d="M27.74,82.85l-.48,1C27.1,83,27.16,82.9,27.74,82.85Z"/><path class="cls-1" d="M110.36,76.62l-.1-.67,3.54.46,0,.27c-.15.06-.32.19-.45.17-.76-.12-1.51-.3-2.27-.42C110.9,76.4,110.68,76.54,110.36,76.62Z"/><path class="cls-1" d="M109,76.37c.37-.63.73-.45,1.08-.18v.18Z"/><path class="cls-1" d="M108.68,76.06v.77l-.82-.5Z"/><path class="cls-1" d="M100.35,42.6a3.73,3.73,0,0,1,.79,2.27c.06.32-.32.49-.63.33A1.78,1.78,0,0,1,100.35,42.6Z"/><path class="cls-1" d="M31.61,53.45l-.15,3.4h-.21V53.45Z"/><path class="cls-1" d="M105.39,39l.23,1.44c-.66-.28-.76-.75-.47-1.41Z"/><path class="cls-1" d="M73.19,108.1c-.16,0-.39,0-.48-.15a2.11,2.11,0,0,1-.27-.63l.18-.08.62.69Z"/><path class="cls-1" d="M34.87,48.73c-.29.45-.51.84-.78,1.2a.48.48,0,0,1-.44.11.49.49,0,0,1-.15-.42,3.67,3.67,0,0,1,.24-1.09c.1-.23.37-.38.56-.58Z"/><path class="cls-1" d="M70.89,96,70.65,97,70.33,97l.2-1.07Z"/><path class="cls-1" d="M72.26,96c.22.25.45.5.67.77,0,0,0,.19-.05.2s-.29.07-.33,0a9.19,9.19,0,0,1-.52-.85Z"/><path class="cls-1" d="M72.39,86.77l.35,1.11c-.19,0-.44-.06-.46-.13a7.34,7.34,0,0,1-.14-.94Z"/><path class="cls-1" d="M48.22,60.69l1.48-.38.1.18a4.45,4.45,0,0,1-.89.62.62.62,0,0,0-.46.75c0,.37,0,.74,0,1.12l-.32,0-.24-1.91.34-.43Z"/><path class="cls-1" d="M94.25,83.45v1.29h-.19V83.47Z"/><path class="cls-1" d="M31.49,71.86v1.75C31.08,73.34,31,72.46,31.49,71.86Z"/></g></g></svg>