<svg xmlns="http://www.w3.org/2000/svg" viewBox="0 0 44.66 44.66"><defs><style>.cls-1{fill:#151d31;}.cls-2{fill:white;}</style></defs><g id="Layer_2" data-name="Layer 2"><g id="Layer_1-2" data-name="Layer 1"><path class="cls-1" d="M22.33,0A22.33,22.33,0,1,1,0,22.33,22.33,22.33,0,0,1,22.33,0"/><path class="cls-2" d="M22.33,10.8c3.75,0,4.2,0,5.68.09a7.78,7.78,0,0,1,2.61.48,4.41,4.41,0,0,1,1.62,1.05,4.28,4.28,0,0,1,1,1.62,8,8,0,0,1,.49,2.61c.06,1.48.08,1.93.08,5.68s0,4.2-.08,5.68a8,8,0,0,1-.49,2.61,4.62,4.62,0,0,1-2.67,2.67,8,8,0,0,1-2.61.49c-1.48.06-1.92.08-5.68.08s-4.2,0-5.68-.08A8,8,0,0,1,14,33.29a4.62,4.62,0,0,1-2.67-2.67A7.78,7.78,0,0,1,10.89,28c-.07-1.48-.09-1.92-.09-5.68s0-4.2.09-5.68A7.78,7.78,0,0,1,11.37,14a4.28,4.28,0,0,1,1.05-1.62A4.41,4.41,0,0,1,14,11.37a7.78,7.78,0,0,1,2.61-.48c1.48-.07,1.93-.09,5.68-.09m0-2.53c-3.82,0-4.3,0-5.8.09A10.11,10.11,0,0,0,13.12,9,7.17,7.17,0,0,0,9,13.12a10.33,10.33,0,0,0-.66,3.41c-.06,1.5-.08,2-.08,5.8s0,4.3.08,5.8A10.28,10.28,0,0,0,9,31.54,6.86,6.86,0,0,0,10.63,34a6.94,6.94,0,0,0,2.49,1.62,10.33,10.33,0,0,0,3.41.66c1.5.06,2,.08,5.8.08s4.3,0,5.8-.08a10.28,10.28,0,0,0,3.41-.66,7.17,7.17,0,0,0,4.11-4.11,10.28,10.28,0,0,0,.66-3.41c.07-1.5.08-2,.08-5.8s0-4.3-.08-5.8a10.33,10.33,0,0,0-.66-3.41A6.94,6.94,0,0,0,34,10.63,6.86,6.86,0,0,0,31.54,9a10.05,10.05,0,0,0-3.41-.65c-1.5-.07-2-.09-5.8-.09"/><path class="cls-2" d="M22.33,15.11a7.22,7.22,0,1,0,7.22,7.22,7.22,7.22,0,0,0-7.22-7.22m0,11.91A4.69,4.69,0,1,1,27,22.33,4.69,4.69,0,0,1,22.33,27"/><path class="cls-2" d="M31.52,14.83a1.69,1.69,0,1,1-1.68-1.69,1.68,1.68,0,0,1,1.68,1.69"/></g></g></svg>