<svg xmlns="http://www.w3.org/2000/svg" viewBox="0 0 44.66 44.66"><defs><style>.cls-1{fill:#fff;}.cls-2{fill:#151d31;}</style></defs><g id="Layer_2" data-name="Layer 2"><g id="Layer_1-2" data-name="Layer 1"><path class="cls-1" d="M44.66,22.33A22.33,22.33,0,1,1,22.33,0,22.33,22.33,0,0,1,44.66,22.33"/><path class="cls-2" d="M24.06,19.28c.37-.41.67-.83,1-1.18a5.77,5.77,0,0,1,4.13-1.63,9.5,9.5,0,0,1,2.6.32,5.08,5.08,0,0,1,3.6,3.78,15.89,15.89,0,0,1,.48,4.34c0,3.09,0,6.17,0,9.26,0,.29-.08.36-.37.36H30.77c-.28,0-.34-.08-.34-.35,0-2.93,0-5.87,0-8.8a8.1,8.1,0,0,0-.26-2.19,2.44,2.44,0,0,0-2.7-1.91,3,3,0,0,0-3.11,2.94,10.64,10.64,0,0,0-.08,1.38c0,2.86,0,5.71,0,8.57,0,.28-.07.36-.37.36h-4.8c-.25,0-.33-.07-.33-.33q0-8.48,0-17c0-.28.09-.35.36-.34,1.52,0,3,0,4.56,0,.28,0,.35.09.34.36,0,.67,0,1.35,0,2"/><path class="cls-2" d="M15.35,25.74q0,4.2,0,8.39c0,.31-.08.41-.4.4H10.19c-.25,0-.33-.06-.33-.32q0-8.51,0-17c0-.23.05-.32.3-.31,1.61,0,3.22,0,4.84,0,.3,0,.35.12.35.39,0,2.82,0,5.63,0,8.45"/><path class="cls-2" d="M15.79,11.3a3.18,3.18,0,1,1-3.17-3.16,3.18,3.18,0,0,1,3.17,3.16"/></g></g></svg>