<svg xmlns="http://www.w3.org/2000/svg" viewBox="0 0 304.29 68.76"><defs><style>.cls-1{fill:#fff;}</style></defs><g id="Layer_2" data-name="Layer 2"><g id="Layer_1-2" data-name="Layer 1"><path class="cls-1" d="M35.67,0C16,.05-.56,16.08,0,35.75.56,54.5,12.19,63.59,19.34,67.43a8.72,8.72,0,0,0,9.74-1s0,0,.07-.05c1.59-1.34,3.5-3,5.55-4.94l-2.88-2.88c-1.42,1.33-2.77,2.53-4,3.58a6.7,6.7,0,0,1-7.74.73,31.29,31.29,0,1,1,30.25.6,5.19,5.19,0,0,1-5.82-.67c-1.68-1.45-3.7-3.26-5.82-5.31L35.84,54.6C29,47.53,22,38.58,22,31.34,22,23,27.91,16.75,35.77,16.75S49.54,23,49.54,31.34c0,7-6.16,15.32-12.61,22.13l2.86,2.86c7-7.41,13.8-16.74,13.8-25a19.1,19.1,0,0,0-5-13.13,17.68,17.68,0,0,0-25.65,0,19.14,19.14,0,0,0-5,13.13c0,8.52,7.62,18.46,15,26.11l2.87,2.86v0c2.45,2.37,4.75,4.42,6.61,6l1,.81a6.87,6.87,0,0,0,7.48.9C58,64.52,71.52,55.23,71.52,35.68A35.7,35.7,0,0,0,35.67,0Z"/><path class="cls-1" d="M41.16,31.72a5.39,5.39,0,1,1-5.39-5.39A5.39,5.39,0,0,1,41.16,31.72Z"/><path class="cls-1" d="M106.62,21.33V25H93.83v5.94H105v3.63H93.83v18H90.2V21.33Z"/><path class="cls-1" d="M110.12,25.82h3.63v3.63h-3.63Zm0,6.74h3.57v20h-3.57Z"/><path class="cls-1" d="M118.71,32.56h3.58V34a8.27,8.27,0,0,1,13,6.81V52.57h-3.58V40.84a4.7,4.7,0,0,0-9.4,0V52.57h-3.58Z"/><path class="cls-1" d="M155.48,52.57V50.31a10,10,0,1,1,0-15.49V21.9h3.68V52.57Zm0-8.88V41.44a6.43,6.43,0,1,0,0,2.25Z"/><path class="cls-1" d="M180.41,52.57h-3.58V51.1a8.27,8.27,0,0,1-13-6.81V32.56h3.57V44.29a4.71,4.71,0,0,0,9.41,0V32.56h3.58v20Z"/><path class="cls-1" d="M189,52.57h-3.57v-20H189V34a8.23,8.23,0,0,1,4.71-1.47,8.48,8.48,0,0,1,2,.24v3.79a4.64,4.64,0,0,0-2-.45,4.73,4.73,0,0,0-4.71,4.7V52.57Z"/><path class="cls-1" d="M213.23,47a5,5,0,0,1-2.13,4A8.07,8.07,0,0,1,206,52.57a8.7,8.7,0,0,1-4.13-1,9.44,9.44,0,0,1-3.34-3.18l-.49-.72L201.58,46l.46.69c.82,1.22,2.05,2.53,3.78,2.53a4.36,4.36,0,0,0,1.67-.33,2.56,2.56,0,0,0,1.12-.83A1.73,1.73,0,0,0,209,47c0-3.15-9.14-4.63-9.14-9.77a4.19,4.19,0,0,1,.82-2.54A5.65,5.65,0,0,1,203,32.89a8.19,8.19,0,0,1,6.51.09,10.29,10.29,0,0,1,3.16,2.5l.61.67-3.31,2-.55-.59A7,7,0,0,0,207.53,36a3.12,3.12,0,0,0-3,.12,1.2,1.2,0,0,0-.54,1,1.52,1.52,0,0,0,.21.78c.72,1.3,3.33,2.55,4.67,3.35C211.12,42.66,213.23,44.3,213.23,47Z"/><path class="cls-1" d="M217.47,32.56h3.68v2.26a10,10,0,1,1,0,15.5V63.23h-3.68Zm3.68,8.88v2.25a6.43,6.43,0,1,0,0-2.25Z"/><path class="cls-1" d="M257.24,32.56h3.55v20h-3.55V50.23a10,10,0,1,1,0-15.33Zm-12.86,10a6.43,6.43,0,1,0,6.43-6.43A6.43,6.43,0,0,0,244.38,42.57Z"/><path class="cls-1" d="M275,49a6.39,6.39,0,0,0,4.54-1.88l2.53,2.53a10,10,0,1,1,0-14.15L279.52,38A6.43,6.43,0,1,0,275,49Z"/><path class="cls-1" d="M303.13,47.24a10,10,0,0,1-18.7-2.89,10.7,10.7,0,0,1,0-3.57,10,10,0,0,1,19.7,0,10,10,0,0,1,0,3.57h-16a6.43,6.43,0,0,0,10.59,2.89Zm-2.67-6.46a6.44,6.44,0,0,0-12.36,0Z"/></g></g></svg>