<svg xmlns="http://www.w3.org/2000/svg" viewBox="0 0 670.17 751.05"><defs><style>.cls-1,.cls-2{fill:none;stroke-miterlimit:10;}.cls-1{stroke:#201f34;}.cls-2{stroke:#7d7b87;stroke-width:0.5px;}</style></defs><g id="Layer_2" data-name="Layer 2"><g id="Layer_1-2" data-name="Layer 1"><path class="cls-1" d="M150.47,9.63c-.39,1.57-5.41-.2-6.82,0s-3.2-1.81-4.61-2-1.4,2.64-2.8,2.32a8.56,8.56,0,0,0-3.81,0c-1.21.26-.2,2.86-1.21,3.67s-5.81,7-6.61,7.41-3.21-.8-3.81,0-.6,4.61,0,5.82-.2,5.61.8,5.61,3.21-1.6,4-2.21,1,1.41,2.41,1.41,3.2-1.81,4.41-1.2-.2,3.8.8,5.21,3.41,2.2,4.61,3,1.4,4,2.81,4,4.81-2,5.41-1.8-2.81,6-1.81,7,3.21.61,4.82,1.41,3.6,1.6,4,3-1.6,3.71-2.2,4.62-.4,2.9-.7,3.4-5.82.4-6.52,1.11-.2,4.41-1,4.81-4-.5-4.61.4-.7,5.71-.6,6.91,1.2,1,1.6,1.71.2,5.91.3,7.21,1.11,3.31,1.31,4.51a39.46,39.46,0,0,1-1.21,8.32c-.3.5-.1,7.42.4,8.32s4.81,1.61,6.12,2.11.3,2.8,1.5,3.4a51.36,51.36,0,0,0,6.22,1.81c1.1.3,1.9,2.3,3.5,2.81s3.91-2.41,5-2-1.1,2.91-1,3.71,1.51,2.3,1.91,3.51,3,1.4,4.21,2,3.4-.9,4-.6,2.1,2.71,2.9,3.71,2.51.4,3.11,1.6-.7,1.71-1.4,2.61-1,2.7-3.21,3.51-6-.6-7.32,0-1.4,2.4-2.7,3-3.51,1.11-4.41,3-1.31,4.21-.91,4.51,2.11,2.81,2.71,3.11.4,2.4-.2,3.2-2.71.21-2.91,1.61-.7,4.91.1,5,3.41.1,3.91.5a1.63,1.63,0,0,1-1,2.41c-1.3.3-4.61,1-5.21,1.6s-2.41,3.61-3.11,4.41a23.75,23.75,0,0,1-4.71,3.31c-.8.3-.6,2.9-1,3.71s-2.61.6-2.81,1.3-.5,3.11-.6,4,1.4,2,1.2,2.8-2,2-3,2.11-1.91-.5-4.61.4-5.42,1.7-5.82,2.31-.3,6.11-.9,7.21-2.2.8-2.71,1.91.2,4-.3,4.61-2.1,3.91-2.7,4.41.3,3-.3,3.4-3.91,2.21-4.81,2.71-1.21,1.91-3.31,2.71-5.72,1-6.32,1.5-3,4.71-3.6,5.21-.91,3.81-1,4.71-2,1.31-2.8,1.61a7.88,7.88,0,0,0-2.91,3.1c-.4,1-2.81,2-3.31,2.61s-.1,4.81-1.1,5.31-3.41-.4-4.61-.5-2.31,1.1-4.21,1.3-5.61,0-6.82,0-4.51,3-6,3.31a12,12,0,0,1-5,0c-1-.4-.2-2.7-.8-3.91s-1.21-3.1-2.21-3.41-3.71-2.1-4.91-1.9-3.81,5.21-4.31,5.91-2,1.41-3.21,2.21-1.6,5-3.1,5.51-5,3.81-6,4-2.6,3.41-2.5,4.91-2.81,2.11-2.51,4.51a13.38,13.38,0,0,0,2.11,5.21c.6,1.11,2.5.51,3.4,1.31s2.61,2,3.61,1.9,2.71-1.2,4-1.4,1.91,1.8,2.31,2.6.5,3.91-.4,5.12-.51,3.5-.3,4.71-2,2.8-2.51,3.71.2,3.9,1.5,4.61,2.51,1.3,3.11,2.6,2.31,3.11,3.91,2.81,3.21-1.31,4.51-.9-.5,7-.1,8,3.31,3.51,4,4.51-.7,3.61-.6,4.61a11.55,11.55,0,0,0,2.5,4.31c.7.61-.6,2.31-.9,3.21s2,3.41,2,3.91-1.41,1.2-1.81,1.91,2,3.5,1.91,4.2-4.11.61-4.52.91-1.2,2.9-2.6,2.9-4.21-1-5.21-1.2.1-4-1-4-3.8,1.4-4.51,1.51-3.5-.81-4.51-.41-1.4,3.21-2.1,3.51a38.21,38.21,0,0,1-5.71.6c-.61,0-2.81-4.11-3.61-4.51s-5.61,0-6.52,0-2,1.91-3.1,1.91-2.11-1.81-3-2.31a17.48,17.48,0,0,0-5.61-1.1c-1.11.1-2.41,6.41-3,6.61s.3,2.81,1.1,3.81-.39,1.91-1.3,2.41-4.61,2.1-5.61,2.5-3,1.51-2.91,3,.9,5.51,1.4,6,2.31-.61,2.71,0-.6,4.21-.3,4.91,4.11,3.1,5.51,3.5a18.59,18.59,0,0,1,4.51,1.81c.5.5,2.11,4.41,2.81,4.71a79.17,79.17,0,0,0,9.32.8c1.5,0,2.5-2.7,3.51-2.91s4.31.41,5.61,0,4-2.4,4.81-2.8.3-3.71,1.7-4.11a39.57,39.57,0,0,1,4.51-.7c.61-.1,1,2.2,2.21,2.3s4.51-.9,5.21-.6-4.61,3.31-5.11,4,.4,3.71-.2,4.31-4.31,1.3-5,1.7-3.31,5.62-4.31,6.42-4.21.2-5.51.5-5,3.81-6.32,3.91a45.65,45.65,0,0,1-6.41,0c-1-.2-4.21,2-5.11,2.2a1.7,1.7,0,0,1-2-1.1c-.1-.7,1.9-2.3.9-3.11s-3.3-2.7-3.81-1.8.3,5.71.4,6.52,3.81,5.41,5.12,6.51,2.4.2,3,.8,5.82,7.92,6.72,9.22,2.5,2.31,3.31,3.41,2.4,6.21,3.5,7.12,6.12,5.81,7.12,6.31,2.71,0,3.41.5,6.11,5.72,7.11,6,1.61-1.71,2.51-1.81,1,2.17,2.21,1.84,4.2-.64,5.41-1.14,1.1-2.7,2.1-2.7,4.11.6,4.91.3.1-4.11.91-4.21,3.5,1.2,4.51,1.1,4.31-2.4,5.71-2.91,3.11-.7,3.71-1.4.4-3.11,1.1-3.81a28.84,28.84,0,0,0,3.21-4.11,5,5,0,0,0,.5-3.71,3.17,3.17,0,0,0-2.81-2.2c-1.5-.1-3.51-1.2-4-1.3s-.1-2,0-2.51,1.71.9,2.41.1,2.5-2.81,3.51-4.11.2-3.91.8-4.61a51.8,51.8,0,0,1,4.11-3.21c.5-.4,0,2.81.4,3.41s1.9.6,3.11.9,1.3-1.8,2.1-1.9a28.49,28.49,0,0,1,5.81.2c.91.3.4,2.71-.3,3.71s-2.4-.4-3-.9-1.81.5-2.91,1-1.6,2.6-1.4,3.61,3.5-.2,4.31,0-2,4-2.71,4.41-.4,2.8-.3,3.71,4.21.2,5.21.5-2.5,3.7-3.21,4.41.1,3.81-.3,4.61-1.7,1.5-1.1,2.4,3,2.21,3.11,3-1,2.3-1.41,2.91,2.81,4.61,3.51,5.41-1.4,5-1.4,6.11-2.91,5.92-3.41,6.42-.3,3.81-.4,5.11-1.9,3.91-2.1,4.71,0,7.42.8,7.92,2.3.9,2.8,1.3-2.3,1.4-2.4,2.41.5,5.51.6,6.81.7,2.61,1.7,2.61,2.21-1.31,3.11-.9,1.2,3.6.3,4.21-2.4,1.2-2.2,2,1.5,3.51,1.6,4.11-2.71-1.4-3-.4,1.11,6.81.81,8.22a3.8,3.8,0,0,0,1.3,3.6c.9.71.1,2.41-.3,3.21s.3,4.11,1,4.71a8.33,8.33,0,0,1,2.2,2.81c.61,1.3.21,5.71.11,6.81s1.8,2.81,2,4.21-.2,7.82.1,10.33,1.8,6.21,1.4,8.72-.5,8.22.1,9.32,1.61,4.11,2.41,5.41,1,4.31,1.1,5.41,4.11,5.32,4.71,6.32,1.1,7,1.51,8.12,2,2.3,2.5,3.5.2,5.42,1,6.52,3.11,3.21,3.81,3.11,2-.6,2.41,0-.7,2.8-.5,3.91,2.1,1.5,2.6,2.8,1.51,4,1.81,5.21,1.2,8.42,1.5,9.53,3.21,3.7,3.91,4.91.2,5,0,5.91,2.2,1.7,2.6,2.31-1.4,1.3-1.6,2-.1,2.81-.2,3.91,1.1,3.21,1.6,4.31.31,7.22.51,8.52,2.5,3.11,3.3,3.71,0,2.6,0,3.4,2.81,3.31,4.61,7.52,1.21,7.32,1.91,7.92,2.1,1.4,3,2.1,0,2.21,1.31,3.91,3.61,6.42,4.11,7.12,2.3.4,3,1.5,2.81,5.12,3.41,6.32,1.1,5.81,1.1,7.31,2,1.31,2.51,1.61-1.2,3-1.2,3.51a59,59,0,0,0,2.3,6.51c.6,1.4,3,2.91,3.16,3.81a22.4,22.4,0,0,0,1.15,5,31.86,31.86,0,0,0,2.61,3.31c.6.8,1,3.41,1.2,4.71s2.21.9,2.71,1.5-.7,2.51-.5,3.71,2.3,3.31,2.4,4.21-4.11,1-5,1.5,1.7,7.92,2.21,9a10.52,10.52,0,0,0,2.8,3.1c.8.6.8,3,1.51,4.11s2.9,1.81,4,3.91.71,4.21,2.51,5.71,3.91,2.41,4.71,3.81,1.7,1,2.51,1.41a14.45,14.45,0,0,1,3.4,2.8c.71.9,3.91,2.51,4.92,2.81s3.8-1.51,6.51-2.81,5.31-2.7,7.22-3.11,2.8-2.5,3-4.1-1.3-6,0-8.12,2.81-5.82,4.11-7a10.44,10.44,0,0,1,6-2.4c2,0,4,.5,5-.51s.5-2.3,2.1-2.8,6.42.4,7.12-.3-2.91-3-2.81-4.11a18.81,18.81,0,0,1,2-6.32c1.1-1.7,2.4-3.3,3.71-3.71s3.1-4.2,2.9-5-1-4-.6-5.21,5.41-3.71,6.22-4.51,2,2,2.9,2.41,2.61-.6,3.51-.5,2.31,2.1,3,1.9,1.1-12.83,1.2-14.13-1.6-3.61-1.6-5,2.21-3.81,1.6-5-1.9-4.71-2.71-5.81a15.49,15.49,0,0,1-1.6-5.51c0-.9,2.3-4,2.3-4.91a20.56,20.56,0,0,1,0-3.51,21.36,21.36,0,0,1,3.51-6.31c1.21-1.11,4.31-4.82,4.61-5.92s-2.7-3-2.7-3.81,2.6.3,3.51.3,2-3,2.4-4.71-.7-4.31,0-5.71,1.8-4.21,2.21-5.11-.1-5.11,0-6.22-2.61-2.5-4.11-3.2-3-1.91-2.91-2.81a8.39,8.39,0,0,1,1.4-3c.4-.5,3.11,0,3.61-.5s-3-8.82-3.51-10.22-2-1.3-2.5-1.7,2.3-3,2.6-3.71,1-8,.2-9.12-2.5-5.72-2.9-6.62-.2-5.81.8-7.32,1.8-1.1,3.11-3.5a57.35,57.35,0,0,0,2.5-6.22c.7-1.6-1-2,.6-3.41s5.62-3.3,7.22-4.11,4.31-1,5.21-.1,2.61,4,3.41,4.51,2.2-3.2,3.41-4.81,3.71-3.5,4-5.41a19,19,0,0,1,3-6.41c.91-1.11,2.71-.1,4.91.1s4.51,1.7,6.12.6,4.91-3.61,6.41-4.41,5.62-1.1,6.22-1.91.5-6,.8-6.71-3-2-2.71-3.21,4.41-6.11,5-6.91,3.31,0,4.82-1.21,7.71-5.91,9.42-6.81,5.21-1.81,6.31-2.61,1.81-5.21,2.81-6.51,5.51-5.42,7-6.92,4.61-3.41,6.42-3.41,3.71-.6,4.21-1.7,1.3-4.21,2.6-5.51,9.93-9.73,10.43-10.53,1-4.61,2.3-6,1.71-2,3.51-3.71,8.92-5.41,9.72-6,.91-3.51,1.81-4.11,4.21-2.21,5.61-3.11a8.42,8.42,0,0,1,4.81-1.2c1.5.1,5.21-.5,6-1.91s4.31-.2,5.62-1.2,1.9-4.41,2.5-5.31.6-2.61,1.81-3.71,4.41-1.2,4.81-1.9-1.81-3.71-1.4-4.51,4.71-3,5.11-3.81,1.8-2.31,1.6-3.31-1.9-1.5-2.2-2,1.3-1.8,1-2.5-3.11-3.61-3.71-5,1-4.31,1.8-5.31,5-4.62,5.72-5.42,3.5,1,4.61.7a6.1,6.1,0,0,0,2.8-1.9c.7-.8,4-.9,5.52-1.2s2.8-1.61,4.31-3.61,2.7-4.61,3.8-5.91,2.11-2.71,2.11-3.41-3.31-2.69-2.81-3.1,2.11-1.41,2.81-.71,1.4,4.11,2.3,4.91-1.5,4.31-1.2,5.81,1.91,2.21,3.71,2.21,4-2.61,5.11-2.81.7-3.91.8-4.71,1.91-.5,2.41-.6,1.1,2.31,2.1,3,3.21.3,4.71.7,1.91-4.11,1.11-5.71-2-6.72-2.91-7.42-.2-3-.2-4.61-1.9-5.41-2.51-6.82-1.4-3.61-.2-5.51a5.19,5.19,0,0,0-.1-5.11c-.5-.6-3.6-.3-4.11-.5s1.81-2.91,1.61-3.71-6.32-4.31-6.52-5.21a44.69,44.69,0,0,1,.2-5.12c0-1,3.91-2.9,4.21-4s-1.6-3.41-1.6-4.41.7-3.11,0-3.91-6,.6-7.42.2-5-3.61-6-4.51-3.51-3.71-3.31-4.31a4.76,4.76,0,0,1,2.31-2.11c.9-.3-.1-3.71.4-4.81s2.3-1.5,2.9-2,2.51,1.5,3.21.5a9.22,9.22,0,0,0,.8-4.41c-.1-.7,2.61-.7,4.11-1s4.11,1.1,5.21,1,2.11-3.21,2.41-3.91-2.91-2.31-3.31-2.71-.4-2.7-1.1-3.2-3.91,2.1-4.91,2-2.11-2.1-2.81-2.61-.2-2.7-.8-3.3-2.1.4-2.91-.1.1-2.41-.8-2.61-2.8,1.2-3.51.7.2-6.61,0-7.52,2.81-2.8,4.11-3.7,2.71-2.71,2.71-3.61-2.21-2.31-2.41-3,1.31-1.9,1.71-2.5,2.4,2.4,3,3.1,2.61-.4,3.21.2-.6,4.51.2,4.81,3.11-.5,4.11-.9.3-4.31,1-4.91,2.81-.2,3.71.1S486,275,487,276a45.88,45.88,0,0,0,5.81,4.21,6.85,6.85,0,0,0,4.21.2c.7-.31-.7-5.82,0-6.32s3.61-1,3.91-1.2.4,3.91.7,4.41,2.1,1.6,2.41,2.7-.31,6.92,0,7.82,1.9,2.71,2,3.41-1.9,5.11-1.7,6,2.5,1.41,4.21,1.51,5-.4,5.71.1a16.34,16.34,0,0,0,3,1.9c.7.2,7-1.3,7.81-1.9s3.41,1.1,4.41.9,5.62-2.41,6.32-2.51,5.91,1.31,7.82,1.61,5-1.31,6-1.61,2.1-1.6,3.21-1.6a34.34,34.34,0,0,1,4.61.7c1,.2.1,1.61,1.5,2.21a43.33,43.33,0,0,0,4.51,1.2c1.3.4,1,2.2,1.6,2.71s1,2,1.41,2.6-2.41.5-2.71.6-1.5-1.5-2.4-1.5-.3,3.51,0,4.71-1.21,3.31-1.61,4.11.1,3,0,3.91-3.81.5-4.61,1.1.7,4.51,0,5.11-2.7.2-4,.1-2.5,1.61-3.51,1.91-.7,1.7-2.2,2a4.56,4.56,0,0,0-3.61,2.51c-.6,1.5-1.2,7.62-2.4,8.52s.3,2.9,1.4,4.31,2.1,4.61,3.11,4.91,2,0,2.9.6,2.51,6.21,3.51,6.51,3.11-2.1,4.21-2.5A4.93,4.93,0,0,0,557,349.7c.2-.6-3.41-3.7-3.31-4.51s2.2-3.3,2.8-4.11-1.2-3.91-.7-4.91.2-2.1,1.71-1.6,3.1,1.7,4,1.5,2-.8,2.9-.4.5,4.11,1.31,4.81,1.6,1.91,2.5,2.91-1.1,4.41-1,5.31,2.2,6,2.61,7.12a33,33,0,0,0,2.8,5.11c.9,1.3-.3,5.61,0,7.12s1.71,2.6,2.51,3.7.9,3.41,2.1,3.51,5.51,2.11,6.82,1.71.9-6.22,1.6-6.52,2.31-.8,2.61-2-1.21-4.61-1.61-6-2.7-1.7-2.3-4,1-5.31,1.2-6.21-1.3-3.41-1.3-3.81,5.71.3,6-.2-.2-6.31-.5-7.22,1.3-2.5,1.2-3.91-.5-4.51-.6-6.21a14.26,14.26,0,0,0-1.8-5.61c-.7-.9-1.71-2-1.31-3s2-.6,2.81.3,1.2,3.81,2.61,3.31,2.2-1.91,3.81-2.21,3.6,2,4.71,2.11,5.21.6,6.11.6,1.5-6,1.7-7.42a41.51,41.51,0,0,1,2.41-7.21c.6-1.11,4.31-7.22,4.91-8.52s.3-4.11.7-5.62,1.71-4.31,1.21-4.81-3.91-.9-4.21-1.8.6-4.61.3-5.51,3.91-2.91,4.51-3.51,4.31-2,4.71-2.91-1.31-5.81-1.31-7,2.41-3.11,2.71-3.81-1.8-2.91-1.8-3.31,1.3-2.41,1.2-2.91-2.21-3.6-2.31-4.41a5.5,5.5,0,0,1,1.21-3.6c.9-1,4.41-1.51,5.11-2s3.91-4.51,4.91-5.51,4.31-5.51,5.41-5.51,2.21-4.51,3.71-5.42,7.52-1.8,8.62-2.1,2.81-3.31,4-3.91,2.41,1.3,3.31,1.8,2.3,3.81,3.71,4.51,5.21.81,5.71.2-5.31-6.51-6.12-7.11-1.9-5-2.1-5.61,4.71-4.62,5.51-5.42,1-3.1,1.71-3.3,2.7-.61,2.9-1.11-1.7-3-1.7-3.91.9-3.1-.2-3.7-3.61.2-4.71-.31a13,13,0,0,0-4.81-1c-.8.2-2.31,1.31-2.91,1s-3.81-1.9-4.81-1.8-3.51,4.41-4.31,4.31A9.92,9.92,0,0,1,643,206c-.5-.51,2-5.52,2.21-6.22s2.9-2.4,3.3-3-1.9-8.11-2.7-8.41-5,4.31-5.71,4.2-2.11-4-2.51-4.2,4.71-2.71,4.21-3.61-3.41-2.91-4.11-3.71-2.51-2-3.31-1.81-3.1,4-4.31,4.31-4.31,1.71-5.11,2-.4,6-1,6.41-4.91.2-5.91.2-2.81-2.5-3.81-2.6-5.42-.3-6.12-.4-2.9-3.71-3.71-3.61-1.9,4-2.5,4.11a47.34,47.34,0,0,0-5.41,2.2c-.71.4-.1,4.51-.91,5.22s-3.4,1.4-4.11,2.1.41,5.21-.4,5.41-6-.1-7.11.2-1.81,1.31-3,1.51-3.11-.2-4.21.3-.6,7.51-1.8,8.22-4.51,1.1-5.22,1.3-1.8,2.81-2.5,3.11-2.51-.51-3.21.5-.3,3.91.2,4.61-1.3,2.5-1.9,2.8-.6,2.31-1.61,2.41a42.05,42.05,0,0,1-6.11-.2c-1.1-.2-3.81,3.61-5.21,3.71a24.7,24.7,0,0,1-4.61.1c-.6-.2-2-2.91-3.31-2.81s-.6,4.11-1.1,4.81-1.61,2.21-1.2,3,3.8.7,5.21.8,4.91-1.5,5.81-1.2,1.3,4.81,1.7,5.81-.6,2.71-1,3.81,2.51,5,2.91,5.61-2,1.61-2.51,1.61-2.5-1.51-3.91-1.21-4.11,3-5.51,3.31-4.41-1-5.61-.9-2.21,2.4-3.21,2.4-4-.7-5-.6-2.71,1.11-4.41,1.41-5-.2-5.91-.2-2.41-2.51-3.71-2.61-3.21,4.51-4.41,4.91-10.23,1.3-11,.9-1-1.9-2.1-2.6a15,15,0,0,0-6-1.21c-.9.21-.9,2.41-1.8,2.61a9,9,0,0,1-3.51-.5c-.4-.2-7.52-7.32-7.72-7.72s2.51-3.81,2.41-4.31-3.31-3.61-3.31-4.41,1.71-4.41,1.71-4.91,1.5.2,1.5-1.6-.6-6.92-1.1-7.42-4.91-1.1-5.72-1.1-5.21,4.61-6.11,4.61-4.91-.6-5.31-.2,2.7,4.91,2.2,5.61-2.6,4.41-2.8,4.91,1.4,9,1.1,9.62-2.11,1.11-2.11,1.81,4.92,5.31,5.12,6.21-.91,4.21-1.31,4.91.4,3.41,0,3.61-1.5,2.81-1.9,2.91-.7-1.81-1.91-1.91-4.21,2-4.81,2.31-3-.7-3.91-.8a36.68,36.68,0,0,0-4.71.1c-.8.1-1.7,2.1-2.5,2.1s-4.31-4-5.31-4.11-5.62,3.21-6.42,3.41-5.81-3.91-6.91-4.11a52.59,52.59,0,0,0-5.62,0c-.8,0-1.4,1.2-2.2,1.2s-1.71-2-2.51-2.2-2.5,2.6-3.11,2.6-3.8-3.1-4.2-3.4.3-3.71-.41-4.11-5.71,2.4-6.81,2.8a10.29,10.29,0,0,1-4.21.3c-.5-.2-.4-2.1-1-2.4s-2.91-.3-3.71-.5-.7-2.31-1.4-2.71-6.12-.8-6.52-1.2.6-6.92-.4-7.52-6.92-.5-7.82-1.1a35.5,35.5,0,0,0-4-2.71c-.7-.2-4.51,1.51-4.51,1.51s-1.3,3.1-1.7,3.2-2.41-3.1-3.31-3.2-5-.5-6.11-.5-.91,4-1.91,4.11-2.1-2.81-3-3.11-7.72-.5-8.92-1-2.51-2.31-3-2.81-.29-2.71-.8-3-4.81.6-6,.3-7.61-5.61-8.62-5.41-2.5,2-3.71,1.91-3.1-1.91-3.9-2.41-2.61-3.71-4.31-4.91-4.82-1.3-5.52-2-.7-3.3-2.2-4.31-4-1.3-5.41-1.5-7.12-4.61-8.12-4.81-2.31,1.5-3.21,1.5S280,216.6,279.36,216s.3-6.22.4-6.82,3.71-2.3,3.91-3-.6-5.92-.3-6.62,2.41-1.5,2.61-2.2.2-5.32.4-6.12,2.6-3.71,3-4.71,3.1-.1,4-.9a43.37,43.37,0,0,0,3.81-3.91c.3-.5,3.21-.7,3.61-1.2s-3.31-1.61-4.41-2.21-3.81-3.91-4.41-4-3.81.1-4.91-.2-4.81-2.4-5.31-3.2,2.1-4,1-4.62-3.81-.7-4.81-1-2.71-3.71-4.21-4.21-3.41.2-4.21.4-1.4,1.21-1.7,1.11-2.81-4.11-3.41-4.31a15.92,15.92,0,0,1-3.61-2.91c-.5-.7.7-3.91.2-4.21s-2.4-1.9-3.11-2.3-2.9,3.9-3.81,4.2-2-1-2.3-1.5-2-2.91-2.31-3.61,2.11-1.5,2.31-2-1-2.91-2-4.51-.3-3.51-.3-3.81,1.81-.5,1.81-.9-5-7.72-5.51-8.42-1.51-.1-1.71-.8,1.1-4.91.6-5.32a3.49,3.49,0,0,0-3,0,3.76,3.76,0,0,1-3,0c-.2-.3,2.1-2.1,2.2-2.6s2.31,1.1,3.51.1,4.81-3.61,5.72-3.61,1.1,4.61,1.1,5.41,3.31,2,3.91,2.51a2.55,2.55,0,0,0,2.4.4c.8-.3,5.82-5.71,6.42-5.81s1.2.6,1.8.5a10.1,10.1,0,0,0,3.31-2.41c.2-.5-3.91-5.81-4.21-6.71a17.61,17.61,0,0,1,.2-5.12,3.09,3.09,0,0,0-.8-3c-.9-.7-4,.1-5.21-.1A22.58,22.58,0,0,1,253.8,99c-.3-.3-.1-5.21-.1-5.91s3.91-.1,4.11-.6-4.21-6.52-4.21-7,.6-3.41.6-3.71,9.53.9,10,.7,1.4-3.3,2-3.91,2.61-1.7,3-2.2-1.7-5.11-1.5-5.51,5.11,0,5.61-.5.7-5,1.2-5.22,3.21.2,3.81-.1,1.9-5.61,1.9-6.31,1.51-4,2-5.91-.5-2.71-.3-3.41,2.3-3.71,2.3-4.31a10.4,10.4,0,0,0-.9-3.91c-.6-.9-3.31-.7-4-1.2s-.5-3.61-1.3-4-3.71,1.8-4.61,1.7-4.81-3-6-3.11-2.31-2.6-3.21-2.9a4.21,4.21,0,0,0-3.61,1.5c-.7,1-1,3.21-1.7,2.91s-2.11-1-3.61-1.51-6.22-.5-7.12,0-1.5,3.21-2.5,3.51-2.41-1-3.41-.1-3.71,5.62-4.61,6-1.41-2.11-2.41-2-1.7,2.41-2.5,2.61-1.91-.9-2.91-1.11-4.21.71-5.71,1.11a5.86,5.86,0,0,1-4-.6c-.5-.4,1.8-1.81,1.7-2.51s2.61-1.9,1.4-2.81-4.11-.3-5.11-.7-3.51-2.5-4.21-2.9-1.7.9-2.5.6-2.21-2.11-2.61-2.61,1-5.41-.1-5.91-3.31-1.51-4.51-1.91-2.61-3.71-3-4.11-3.2-.4-4.11-.6-1.4-3.51-2-3.71-3.61-.4-4.21-.6-3.61-2.9-3.81-3.91-1.3-3-2.6-3.5A7.68,7.68,0,0,1,181,5.92c-.4-.9-1.2-5.21-2.21-5.41s-3.3,4.21-4.41,4.31-3.3.1-4,.2-2.8-3.81-4.41-3.81-2.2,3-3,3.21-3.11-.61-3.91-.41-3.21,2.31-4.71,2.61-4.41-1.1-5.62-1.3S150.67,8.83,150.47,9.63Z"/><path class="cls-1" d="M13.91,332c.8-.34-5-.6-5.87-.75s-2.85-2.4-3.91-2.1-3.3,3-3.6,3.76,2.1,4.51,2,5.11,0,2.55.6,2.4,2.25-2.85,3.46-4.06S12.85,332.41,13.91,332Z"/><path class="cls-1" d="M96.75,387c-1.24.85-2.86,1.65-2.56,2.55s1.35,3.31,2.56,3.31,3.45-2,3.75-2.93S97.53,386.44,96.75,387Z"/><path class="cls-1" d="M179.73,705c-.77.55-.15,6.17.76,6.32s3,.9,3.15,0S181.24,703.91,179.73,705Z"/><path class="cls-1" d="M484.86,387.06a2.09,2.09,0,0,0-1.21,2.56c.3,1.05-1.2,6.54-.45,6.61s3.54-2,4-2.33,3.23,0,4.06,0,.9-3.23.82-3.6-1.43-2.18-1.88-2.11-3.15,1.05-3.68.83S485.57,386.87,484.86,387.06Z"/><path class="cls-1" d="M479.59,391.64c-.67.16-2.55,1.81-3.3,2.19s0,2.48.45,2.78,2.63,1.35,3.23,1.05,1.13-4.28,1-5A1.38,1.38,0,0,0,479.59,391.64Z"/><path class="cls-1" d="M474,392.78c-.5-.29-2.86-1.81-3.31-2a1.7,1.7,0,0,0-1.81,0c-.82.45-2,3.83-1.5,4.28s2.65.08,3.24.3,3.08,2.33,3.38,2.11S475,393.4,474,392.78Z"/><path class="cls-2" d="M242.62,119.92s-.34-5-1.55-5.25-1.8,3.4-3,3.61-2.41-1.17-3.41-1-2.2,2.88-2.81,2.63-.2-3.87-.6-5.26-4-6-5.21-5.81-3,3.61-4.21,3.61-3.61,1-5,.6-5.61-2.41-7-4.21-.6-6-2.2-6-2.21,1.6-3.61,1.4a33.46,33.46,0,0,0-6.21-.4c-1.21.2-1.61,3.21-2.81,3.81s-4.21,3.47-5.41,3.74-4-1.53-4.61-.93,2.8,6.21,2.6,7-2,.92-1.8,2.47,1.2,3.75.8,4.35a27.55,27.55,0,0,1-3.81,2.81c-.6.4-1.4,4.21-1.6,4.81s4.21,1.8,5,2.2,1.6,4.41,1.4,5.61,1.41,3.61,2.41,4.82,2,7.21,3,7.61,2.4,0,3,0,.6-2.6,1.41-2.6,1.2,3.61,2,3.81,2.81.2,3.41.8-1.41,4.61-1.21,5.41,2.41,2.61,3.21,2.81,2.41-1.61,3.61,0,1.6,3.4,2.21,4.21,2.8.6,3.4,1.6-.6,4.81-.4,5.41,3.41,1.61,5.41,2,5.82-.81,7-1,2.41-2.6,1.8-4-1.8-4.41-1.4-5,2.61-1.4,2.81-2.6-.2-3,.2-4.21,2.8-1.61,4.21-2.41,1.8,1.21,3.41.4,3.8-3.2,4.41-3.4,1,1.4,2.6,2.6,4.41.2,5.82.8a13.17,13.17,0,0,0,4,.6l1.23-5.34"/><path class="cls-2" d="M177.33,125.69s3.19,1.41,3.8,0,3.26-5.19,4.94-4.3"/><path class="cls-2" d="M204.79,162.38s2.41,2,2.81,3-.6,2.61,0,3.81,1.8,7.22,1.2,7.82-3.81-1.84-4-1.32-3,2.92-3.61,3.52.4,3.61,0,4-2,1.41-2.6,1.21-.8-2.81-1.61-2.81-4.21-.4-5.21,0,1.61,1.26,1.21,2.83,1,5.19,0,5.79-2-1.6-3.21-.8-3.36,3.41-3.69,3.21-1.93-2.81-2.93-3-4,3.43-4.81,3-3.41-2.22-3.41-2.22-1.8,6.62-3.2,6.41-2.61-3-3.21-3.4,1.6-4.21,1-4.61-2.8-.2-4-.6-2-2.61-3-3.21-1.81,1.8-3.61,1.6-6.42-.8-8.22-1.2-6.42,1.4-7.62.4-.66-5.1-.66-5.1"/><path class="cls-2" d="M279.36,216s-1.2,3.11-2.6,2.91-3.41-3.61-4.41-3.81-1.81,2-2.81,1.91a50,50,0,0,1-6-1.11c-1.21-.4.2-2.61-.81-3.21s-2.8.8-3.4,0-2.21-4-2.81-4.41-2.61.2-3.21,0-2.8-3.41-3.2-4,3-2.6,2.8-3-7.21-2.8-8-3.4-1.4-3.81-2.4-4-4,1.6-4.81,1.6-1.61,3.81-2.81,3.61-2.2-3-3-3.21-3.4-.6-3.8-1.2.4-6.41,0-7.42,2.8-2.4,3.2-3,1.41-1.81,1-2.41-7.2-6.95-8.63-6.66-.19,2.85-1,3.65-3.79,6.82-4.5,7.22-3.11,0-3.72.2,1.61,6,0,6.82-3.2,1.6-3.4,3,.4,5.82,0,6.62,3,1.6,2.6,2.2a24.62,24.62,0,0,0-1.8,4.61c-.2,1,2.2,2.61,2.4,3.81s-2,3-1,4.21,4.23,2.61,4.92,3.41-2.11,1.6-2.31,2.41-2,3-2,3.8,3.23-.4,4.32,0,1.9,2.61,2.7,3.41.2,4.41-.6,5.61,0,3.61-.8,4.82-3.21.6-3.61,1.8,0,7,.2,7.82,2.8,1.8,3.81,2.6,3.81,2.61,3.81,2.61-.41,3.61-1,4-2.8.2-3.2.8.6,1.4,1,2.21,2.6-.21,3.61,0-1.21,2.4-2,2.8-4.19,2.21-3.9,3.41a1.79,1.79,0,0,0,2.7,1c1-.6,5-4.41,6-4.41s2.21,2.41,3.41,2.41,2.61-3.21,4.21-3.21,3.81,1,5,.8,1.2,2.41,2.41,2.81,5.41-.4,6.41-.4,2.61,1.55,3.61,2.28a14.71,14.71,0,0,1,3.23,2.73c1.18,1.4-1.58,3.81,0,5.21s.42,4.21,0,5.21-.62,5.62-1.23,7-1.6,2.8-2.6,3,.4,4.41-1,5.21-4.26.8-5.14,1-3.28-1.6-4.49,0-1.8,4-2.8,4.41-.4,3,.4,3.81,4.21,1.8,3.41,2.8-2.41,4.21-3.41,4.82-2.41.6-3,1.4,1,3.41,1.81,4.81S236,326.4,236,327.15s2.11,1.81,2.41,2.41,1.2,3.15,2.1,3.15,2.41-2.25,3-2.25,2.11,4.51,3,4.36,3.15-.75,4.21-.9a7.69,7.69,0,0,0,3.76-2.71c.45-.9-1.21-3-1.36-3.91s0-2.85-.3-3.61-2.1-.45-2.7-1.05-.46-3.16-.91-4.06-1.95-2.1-2.7-3.15,0-2.71-.45-3.76-3.16-4.51-3-5.27,1.26-3.15,2.13-3.45,1.78,2.4,2.53,2.1,3.91-1.5,4.81-1.8-.6,5.11,0,5.86,2.11.3,3.31.9,2.86,3,4.06,2.11,1.65-5,2.55-5a17.38,17.38,0,0,1,3,.9c.75.15.15,3,1.35,3.31s3.91-.61,5.72-.3,3.15-2.11,3.6-2.71,2-3.16,3.26-3.16,3.51-1.05,4.26-1.2,1.2,3.16,2.11,3.76,2.1.75,2.1,1.65-3.76,3.16-3.46,4.06,2,.45,3.46.75,3.31-.3,3.61-1.05-.3-2.86.9-2.86,5.56-1.5,6.47-1.05-2,5-1.36,6,2.56.76,3.61,1.21,1.81,1.8,3.16,1.65,2.1-3.91,2.1-5.26.15-2.11,1.36-2.71,3.45,2,4.21,1.21-.3-2.71.75-3a6,6,0,0,1,3.31.45c.75.3-.15,3.91.75,4.06s3.61.6,4.36,1.2.3,4.51,1.65,4.81,4.51-.3,5.71.45,1.21,3,2,3.76,2.1-.45,3-1a6.29,6.29,0,0,1,4.71-.3c1.3.6,3.55.3,4.31,1.05s0,2.41-.76,3.31-.75,3-.75,3.91,2.58,1.35,1.82,2.4-2.27,1.21-3.32,2.41.15,2.41,1.2,3,2.71,1.65,3.16,3.15,2.1,3.31,4.36,2.41a21.9,21.9,0,0,0,5.86-4.21c.9-.9,3.16-3,3-4.21s-.75-5-.75-6.16,2.7-1.66,3.46-2.56,0-2.71,0-3.91-1.81-3.16-2.71-3.91-2.71-3.31-2.71-4.36a15.94,15.94,0,0,1,1.21-5.41c.75-1.5,0-2.71.75-3.46s4.36.3,5.56-.6,2.86-2.4,4.21-2.56,3-2.25,3.46-3.75a13.64,13.64,0,0,1,2.85-4.51c.61-.46,4.51.45,5.72.15s3.46,1.65,4.51,1.2,1.65-2.56,1.35-3.61-3.31-2.56-4.81-2.71-4.21.15-4.81-.45a32.84,32.84,0,0,1-4.21-4.06,1.91,1.91,0,0,1,.9-3c.75-.15,3.46-1.66,3.16-2.86s-3-1.65-4.21-1.95-3-1.51-2.86-2.11,3.31-3.46,3.76-4.21,2.41,1.05,3.31,1.51,2.4.9,3.31,0,2.1-3,1.5-3.91-3.61.75-4.51,0,.45-2.86-.6-3.16-3-.45-3.91-1.05-1.35-2.77-1.81-4.17a59.2,59.2,0,0,0-2.95-5.81"/><path class="cls-2" d="M213.81,227.12c-1,.66-1.84-1.9-2.85-2.35s-5.07-.3-5.52-1.05,2.11-2.86,2.26-3.76-1.65-4.06-1.2-4.51a17.48,17.48,0,0,1,3.1-2.86c1-.45,4.21,2.07,4.21,2.07"/><path class="cls-2" d="M155.71,186.23s-2.89,3.36-2.74,4.11,2,.9,2.74,1.2.32,3.31,0,4.21.54,1.81.4,2.86-1.64.9-1.56,1.8,1,3.61,2.18,3.61,3.61-3.16,4.36-3.16a10.61,10.61,0,0,1,4.36,2.41c.75.9.9,2.25,2.41,2.25s4.51-2.1,5.26-1.8-.15,3.46,0,4.51,3,2.71,3.76,3.46-1.92,7.82-1.26,8.19,2.61,5.19,3.51,5.64,2.56,0,3.16,0,3.76,2.56,4.06,3.46a4.58,4.58,0,0,1,0,3.16c-.45.9.42,3.75.28,4.66s-1.48,3.6-.88,4.06,3.31,2.25,4.06,1.95.9-4.06,1.8-4.66,2.71-.45,3.16-.9-1.05-3.31,0-3.46,3,4.51,3.91,4.21a15.34,15.34,0,0,0,3.46-2.26c.45-.45.6-2.7,1.35-3.15s2.86.45,3.91,1-.9,4.36-.9,5.41a16,16,0,0,0,1.21,3.79c.14.42-1.36,3.13-.61,3.58a5.68,5.68,0,0,0,3.86,0c.65-.45.65-3.76,1.25-3.76s3.61.1,3.61.1"/><path class="cls-2" d="M240.75,267a26.37,26.37,0,0,0-4.49.81c-1,.45-2.25,5.11-3,5.41s-3.61-.9-4.36-.75-4.36,4.21-5.11,4.51-5.87,1.65-6.92,2.1-3.46,2.71-4.66,3.61-6.57,1.8-6.82,2.26-2.65,5.41-3.4,5.71-3.76.3-4.82.9-1.65,3.31-1.65,4.66,2.26,2.11,2.26,3-1.21,3.46-.61,4.21,2.11,2.4,3.31,2.7,4.21-.6,5.72,0,3.67,0,4.76.07,2.35-2.47,2.85-2.77,1.11,1.8,2,2.25,1.8,5.11.9,5.87-4.06.45-5,0,.2.75-2.16,1.05-5.66-.75-6.11,0,1,3,1,3.91-1.65,2.1-2.25,2.25.15,3,.75,3.16a17.21,17.21,0,0,0,4.81,0c.75-.3,3.2,2.86,1.75,3.91s-3.51,3.31-4.21,2.71-1.6-3.46-2.35-3-.45,3.46-.45,4.51.75,3.31,1.95,3.76,2.6,2.55.85,3a16.87,16.87,0,0,1-4.91,0c-.45,0-.75-3.9-1.35-4.21s-2.41.46-3.61.91-3.91-1.06-5-1.21-1.35-1.65-2.41-1.65-1.35,3.61-1.8,4.66-3,2-3.46,2.41-.3,3.3-.9,3.91-3.91.45-4.81.9-1.65,2.85-2.56,3.15-2-1.65-2.7-3-1.51-2.56-1.36-3.61,2.26-1.35,3-1.65,1.8,2.55,3,2.1a14.36,14.36,0,0,0,3.91-3.16c.45-.6-2-2.1-1.81-3s1.81-1.51,1.81-2.41-2.11-1.8-2-2.56,2.86-1.35,3.31-2.25-2-3.31-2-4.06.9-2.25-.46-3-3.45,1.36-4.36,1.66-2.4-.45-3.45-.75-3,1.35-4.36.9-1.36-2-1.66-2.56,3-2.7,3.76-3.76.6-3.61-.75-3.76a14.3,14.3,0,0,0-4.36.76c-.45.15-.3,4.51-.75,4.66s-1.36,1.05-2.41,1.5-.75,3.61-1.35,4.21-3.61.9-4.36,1.2.3,3,0,3.76,1.65,1,1.2,2.11-.75,3.6.15,3.75a4.74,4.74,0,0,1,2.56,3c.15,1,1.05,2.41.15,3.46s-2.41,2.41-2.41,3.46.75,4.51.15,5.26a15.16,15.16,0,0,1-5.11,2.71c-1.35.3-2.1,4.21-3,5s3.6,1.95,3.9,2.7-1.95,2.26-2.85,2.56-5.57,2.1-6.62,1.2-.75-3.91-1.95-4.21a5.67,5.67,0,0,1-3.46-2.4,12.73,12.73,0,0,0-4.51-4.06c-1.05-.3-2.86.45-4.06-.45s-.3-4.51-1.05-5-2.26.76-2.86.31-.75-1.66-1.35-2.86-2.41-1.8-2.86-2.56,2.56-2.55,2.56-3.3.6-3-.75-3.61-2.26,2.1-3,2.1-1.81-3-2.56-3.46-2.55-1.5-2-2.4,3.46-2.71,3.16-3.46-2-3.61-3.28-3.91-1.69,3-2.74,3-5.41.15-6.31,0-1.81-3.16-2.71-3.46-2.85,1.2-3.76.9-3.76-3.15-5-3.91.6-2.55,0-3.3a3.74,3.74,0,0,0-3.91-1.41c-2,.5-1.5,3.36-2.4,3.51a63.54,63.54,0,0,1-6.32.9c-1.35,0-1.95-3.6-2.55-3.6s-1.36,1.5-2.26,1.95-7.46.55-7.46.55"/><path class="cls-2" d="M162.7,316.68s-3.41-1.66-3.86-2.06-1.21-2.8-2.11-2.95-1.35,3.3-2.25,4.21.77,3.45,1,4.06-1.25,2.46,1.43,2.8"/><path class="cls-2" d="M143.5,362c.15,1.35-.3,3.31,0,4.21s3,1.81,3,2.86S144,372.86,143.4,373s-2.75.3-3.05.9,1.2,4.66.75,5.11-3.76.45-4.36.9,1.35,3.91,1.35,4.81-1.88,3.31-1.47,4.21a6.67,6.67,0,0,0,3.42,2.41c.91.15,3.31-3.16,4.06-3.31s1.51,1,2.41,1.84,2.1,1.47,1.2,3-1.8,4.06-.75,4.81a25.93,25.93,0,0,0,5.56,2.56c.9.15,2-2.11,2.95-2a6.25,6.25,0,0,1,4,2c1.65,1.64,1.42,4.95,3.26,4.95a33.18,33.18,0,0,1,5.46,0c1.8.3,1.65-1.35,2.86-1.5s2.1.82,3.45,1.54,4.66-.79,5.72-.94,3.3,1.2,4.21,1.8-.3,5.26,0,6,2.85.9,4,1.5a5.39,5.39,0,0,0,4.06,0c.76-.45,0-2.86.91-3.16s3.6.3,4.36-.45-1.66-4.21,0-4.81a10.32,10.32,0,0,0,3.91-2.56c.6-.75.3-3.15,1.2-3.6s1.5,0,3.16.15,1.8-2.56,3-2.71.07,2.11,1.91,2.26,2.9-2.41,4.11-2.41,2.4.9,4.21,1.8,3.15,3.76,2.1,4.06-5.11-.45-5.26.3.9,2,1.35,2.71,4.06.9,5,1.65,3.91,1.06,5.87.61,3.9-2.86,4.81-3.76,1.8-2.86,3.45-2.86a17.74,17.74,0,0,1,4.19.15c.93.3-.58,2.41.78,2.71a25.81,25.81,0,0,1,5.11,1.95,5.41,5.41,0,0,0,4.81,0c1.35-.9.75-4.36,1.65-4.66s3.31.45,4.51-.15,1.06-3,2.11-3,1.8,2,3.61,2.11,4.06.45,4.36,1.35-.3,3.16.9,3.16,2.1-2.26,3.61-2,2.4,1.51,4.21,1.21a30.09,30.09,0,0,0,5-1.81c.9-.3,1.05-1.8,2.1-1.35s.75,2.86,2.26,3.61.9,4.36,1.65,4.51,2-1.66,2.71-1.36,2.55,2,3.3,1.36,2-4.51,2.56-5.71-1.95-3.61-1.35-4.52,2.29-1.5,2.87-2.7.74-6.32,1-7.07,2.1-.75,3.45-1.73a4.9,4.9,0,0,0,2.26-3.68c.3-1.8-1.5-3.91,0-4.51s4.81-2.26,5.56-2.11.9,3.16,2.26,2.71a14.86,14.86,0,0,0,4.81-2.55c1-1.06,1.95-4.36,2.1-5.42s1.06-3.91,2.41-4.36,1.65-3,2.1-4.06,2.86.15,4.06-.9a8.94,8.94,0,0,0,2.26-5.26c-.15-1-3.91-.3-4.81-1s-1.36-3.46-2.56-3.91a7.7,7.7,0,0,0-4.51,0c-1,.45-1.65,1.2-2.86.9s-.9-3.91-.9-4.81,2.26-1.8,2.26-2.56-2.41-3.6-1.81-4.36,2.86-.3,3.61,0,2.11,4.21,2.86,3.76,1.35-1.95,2.7-2.1,2.41,2.7,4.66,1.95,6.32-2.07,7.37-1,2.86.39,3.61,0,4.36-2.65,4.36-2.65"/><path class="cls-2" d="M140.31,374.31s-3.87-.35-4.48,0,1,2.74.73,3,2.1.61,2.12,2.23"/><path class="cls-2" d="M137.43,389.88s-2.8-1.54-3.1-.94.3,2.56,0,3.16-3-.15-3.61.75.6,2.56,0,3.46-1.8,1.35-1.65,2.56,1.05,3.3,2,3.3,2.56-2.85,3.16-3.15,2.44.3,3.25.45a18.09,18.09,0,0,0,4.12-.15c.45-.15,1.2,2.7,0,2.85s-4-.15-5,0-3.28.6-3.73,2,.9,3.15,0,3.46-3.19,1.35-3.77,1.65-2.4-1.5-3.3-1.05.45,2.4,1.51,2.85,3-.6,3.45.76,2,5.11,1.66,6.46-2,2.26-2.86,2.86-1.35,2.7-2.25,2.7-3.31-2.25-4.51-2.1-1.66-2.56-2.26-2.56-2.11,2.56-2.26,3.61,1.66.3,2.11,1.05,0,3.16-.75,3.91.45,4.21-.3,5-1.51-1.5-3,0-2.56,4.21-4.06,4.21a8.33,8.33,0,0,1-4.66-1.95c-.6-.75-.3-3.46-1-3.46a22.63,22.63,0,0,0-3.1.6"/><path class="cls-2" d="M463.77,269a23.3,23.3,0,0,1,2.82,3.27,2.8,2.8,0,0,1-1.41,3.15c-1.3.46-5.21,2.11-5.51,3.16s-1.65,6.47-2.1,7.07,2.55,2.1,3.16,3a22,22,0,0,1,1.37,2.86c.58,1.2.63,5,0,5.26s-3.48-.75-3.93,0-1.35,2.86-1.95,3.61,1,2.71,1.35,3.76,0,2.71.75,3.61a11.33,11.33,0,0,1,2,3.76c.3,1.2-.31,6.76-.31,8.12s-2,2.1-2.1,3.3.45,4.51-.45,6-3.61,3.45-4.81,4.51-3.61.9-4.81,1,.75,2.25.75,3.16.12,2.18-1.14,2.89-4.57.71-5.48.86-1.65-1.8-2.25-2.1-2.86.38-3.16,1.24.6,3.72,0,3.87a31.19,31.19,0,0,1-3.76,0c-1.05,0-2.1,1.81-3.91,2.26s-1.65,3.3-2,3.91-4.06-.15-5,0-1.21-2.71-2-2.56-1.05,2.73-2,2.79-2.71.07-3,1,1.51,5.26,0,6.16,1.05,2,2.56,2a9.27,9.27,0,0,1,4.21,1.2c1,.6,1,2.41,2.4,2.41s5.11-1.06,5.72-.76-1.21,4.36-.61,5.42,2.71,1.05,3.76,1.35.75,3,1.51,3.61,2.85.15,3.45.75-.6,2.54-.45,3.37,2.56,1.74,2.26,2.64-2.26,2-2.56,3,.3,1.95,1.66,2.86,3.6-.91,4.21,0,.3,4.44,1.35,4.7,2.56-.95,3.46-.8a13.94,13.94,0,0,1,3.3.83c1.21.53,4.62,5.35,4.62,5.35"/><path class="cls-2" d="M462,253.38s.55,3,2.2,3.11,2.11-1.45,3.16-1.55,2.26,1.27,3.16,1.56,2.7-2.92,3.31-3.12a30.8,30.8,0,0,1,4.32,0"/><path class="cls-2" d="M503.4,261.9s.57,4.51,0,5.57,2,1.65,1.68,2.4-4.11,3.06-4.11,3.06"/><path class="cls-2" d="M506.08,291.27s1.4-.35,1.4-1.25-1.25-5.57-.7-6,5.36-2.85,6.87-3.91,3.15-1.95,4.06-1.35.9,3.31,2.1,3.31,4.21-.75,5.56-.75,2.71-2,3.61-1.66,1.66,3.16,2.41,3.61,2.1-1.95,2.7-1.95,1.06,2.1,3,1.5,3.76-1.95,4.81-2.25-.75-3.31,0-3.91,3.46-.15,4.06-.75,1.65-2.61,2.71-3,2.55,2.05,3.45,2.05,5-1.5,5.72-1.35,1.2,2.41,2.1,3.16-1.65,3.46-1.65,4.36,1,2.55,1.85,2.25a29.61,29.61,0,0,1,4.31-1.32c.75,0,1.66,2.83,3,3.58s.3,3.91,1,4.21,3.31,1.65,3.61,2.4-1.65,3-2.1,4.21-6.52,3.31-6.52,3.31"/><path class="cls-2" d="M553.79,253a30.55,30.55,0,0,0,4.51.31c1.35-.11,3.61-4.17,4.66-4.47s3.91.76,5.11,0,5.11,3.16,6.17,3,4.66-3.5,5.26-3.1,6.61-.62,8,0,2.55-2.27,3.15-3.17-.75-2.71,0-3.76,5.72-5,6.77-5.72,1.8-2.85,2.25-3.3-.6-2.71,0-3.31a3,3,0,0,1,2.71-.75c.9.3,1.8,2.55,2.86,2.4s5.71-3.76,7.21-4.51a75.4,75.4,0,0,1,7.37-2.85c1.5-.45,2.25-3,3.91-3.31a16.89,16.89,0,0,1,4.81,0c.75.15,2.25-3.31,3-3.31s4.06-.6,5.41,0-.9,3.31,0,4.06-2.26,2.11-2,3.16,1.36,5,1.66,5.86,3.46,1.35,3.91,1.8-2.11,4.67-2.56,5.27-4.51-.15-5.11,0-4.06-.45-4.51,1.05-.75,3.76-1.5,4.66-2.41,1-3.91,1.35-2.56,2.86-3.31,3.31-3.16-.75-4.06,0-.75,3-1.2,4.36-3.16.86-4.06,1.33a22.66,22.66,0,0,0-4.36,2.88c-1.05,1.05.45,3.76-.15,4.51s-2.71,1.19-3.76,1.2-3,5-3.91,5.51-.45,4.45,0,5.48.2,3.9-.95,4.35-4.61,2.25-4.76,1.65-.45-3.61-.91-3.31-2.4,5.72-3.3,6.32-3.76,2.86-4.06,3.61,2.1,2.4,2.85,3.15,1.36,3.31.46,4.06-3.16.76-3.61,1.36-1.21,5.56-1.51,5.71,1.36,1.5,1.21,2.41-3.46,1.2-3.61,2.4,0,5.26-.15,6.62,1.35,1.65,1.35,2.7-1.5,7.22-.75,8.57,7.81,2.3,7.81,2.3"/><path class="cls-2" d="M615,284.47s-2.27.77-2.87,0-.9-4.22-1.5-4.22a14.7,14.7,0,0,0-3.31,1.2c-.6.3-1.35,3.76-2.1,4.06S601,284.3,600.55,284s-5.42,1.14-6.32,1.55,0,3.41,0,3.87-1.65,3.3-2.71,3.75-4-.45-4-.45"/><path class="cls-2" d="M560.51,311.77s2,3.35,2.3,4.11-1.84,4.81-1.15,5.56,2.65.45,3.25,1.05,2.41,1.59,3.31,2.3,1.81-.8,2.86-1.7-.75-3.3,0-4.06,2.55-2.55,3-2.85-.45-2.71,0-2.86,2.41,3.16,3,3.16,3.78-.65,3.78-.65"/><path class="cls-2" d="M564.41,335.67a32.48,32.48,0,0,1-1-4.61c0-1.05,1.65-1.8,2-3s-.45-5.56-.45-5.56"/><path class="cls-2" d="M624.4,244s-1,4.33-.7,5.23a24,24,0,0,0,2.22,3.51"/><path class="cls-2" d="M360,325.19s5.08,1.21,6.43.76a7.78,7.78,0,0,0,2.86-2.26c.45-.45.75-3,1.65-3s1.66,1.2,2.26,1.5-.3,3.51.6,3.86,3.61-1,4.51-.85,2.85,5.71,3.91,5.86,2.25-2.4,3.15-2.55,1.81-3.76,2.56-3.91a16.55,16.55,0,0,1,3.76.3c.9.15.3,3.45,1.2,3.76s4.06-.31,5.11-.61,2.86-3.75,3.76-4.06,5.26-.3,6.17-.75a4.72,4.72,0,0,0,2.55-2.55c.3-1.21.3-4.36.9-4.51s6.32,1.65,7.22,1.8.75,2.86,1.35,3.76,3.91.45,4.21.9,1.36,4.51,2.11,4.66,3.61-1.35,4.66-1.8-.15-4.36.9-4.51,4.36.6,5.71.45,4.66-2.26,4.81-3-.75-6.46,0-7.67a15.41,15.41,0,0,1,4.06-3.6c1.06-.6.45-3.61,1.51-4.21s3.3,1.2,4.06.9l4.49-1.8"/><path class="cls-2" d="M356.34,336.59s3.12,4.69,3.69,5.3a9.69,9.69,0,0,0,3.42,1.5c.76.15,1.66,2.71,2.41,3.31s-.9,2.7,0,3.15,4.36-1.35,5.26-1.05-.6,2.86-.9,3.76,1.47,3.61,1.19,4.21,2.12.75,2.42,1.5-1.2,2.41-.75,3.16a26.86,26.86,0,0,0,4.66,3.91c.45.15,2.85.45,3.3.9s-1.65,3.31-2.55,4.06-5.11,2.56-6,3.16.76,3.59,1.21,3.82,3-.06,3.76.69,1.5,3.46,2.4,3.76,2.11-2,4.14-2.11,2-2.27,3.23-2.34,4.21,1.14,6,1.14a13.84,13.84,0,0,0,4.66-1.14c.45-.21,1.66,4.6,1.66,5.5s-3.46,1.35-3.31,2.55,3,2.26,3.31,3,3-.45,3.76,0,1.95-3.76,2.7-3.76,2.41,2.41,3.61,2.86,4.2-1.2,4.95-1.2,1.21,3.15,1.81,3,3.46-.9,4.36-1.95,0-4.36,0-5.86,1.66-3.18.91-4.15-3.31-.74-3-1.75,1.5-3,2.26-3,2.1,2.33,2.85,3,3,.33,3.76.93.6,3.16,2.26,3.31,7.88,2.51,7.88,2.51"/><path class="cls-2" d="M373.68,377.28s1.2,3.09,0,3.85-3.16-.31-4.06,0-3,3.9-3.76,4.2-3,.16-4.06,1.81a2.66,2.66,0,0,0,0,3.35c.45.56,2.26,2.8,1.65,3.48s-3.6,3.39-4.51,4.44-2.19,2.11-2.6,3.31,1.55,3.76,1,4.66-2.41,1.81-3.31,2.41-1.35,3.46-2.4,4.06-5-1.05-6-1.36-3.45-.9-4.06-.15-.9,3.16-1.35,3.91-2.25.15-2.86,1.21-.15,3.9-.9,3.9-2.25-.75-2.7,0,.3,4.67,0,5.57a34.17,34.17,0,0,0-.91,4.51c-.15,1.2,2.56,1.95,2.86,2.55s-.15,2.56-.75,3.76.3,3.46,1.2,3.61,3-.15,4.36,0a5.82,5.82,0,0,1,3.31,1.8c.45.61-2,5.12-3,5.57s-2.74-2.86-2.65-3.31-.81-.75-2.31-1.2-2.87,1.95-3,1.65-.45-3.46-1-3.91-4.21-1-5.11-1.5-2.71-2.26-3.61-1.81-1.95,4.51-2.4,5.27,2.85,1.8,3.76,2.1,1.35,2.86,1.35,4.06-.6,4.06,0,4.66a22.27,22.27,0,0,0,4.06,2.41c.75.3-.45,4.81-.45,6s2.7,3.91,2.7,4.81-1.95,3.31-2.7,3.76-.76,3-1.66,3.61-2.85.15-3.91.9-.3,3.46-.9,4.36-2.55,3.61-3.46,4.06-3.15.3-4.21.9.76,3.91,0,4.51-2.25,2-3,2.41-.75,6.61,0,6.76,3.91.45,5,0,1.8-3.31,3.16-3.91,6.31-2.4,7.66-3,3.16,2.1,4.51,1.2,2.56-3.76,3.16-4.36-.75-2.26-.75-3.61-2.56-2.86-1.35-3.76,3.87-4.06,4.56-3.91.85,4.06,1.3,4.66.75,5.27,2.1,5.27,3.46-.91,4.51-1.21-.3-3.75.15-4.06,2.86,2,4.06,1.81,2.41-3.61,3.16-4.51-2.4-2.56-1.8-3.16,1.95-3.76,2.85-4.06,4.06.45,5.12.15,1.05-4.36,1.65-4.66-2.56-1.65-2.56-1.65.45-2,1.81-2.11,4.21.3,5.41.3.6,3.16,1.65,4.36,2-1.2,3.46-.15,2.57,4.06,3.24,4.36,5.48-.6,7.13-.6,2.56-5,3-5.56a8.82,8.82,0,0,1,3.91-2c1.2-.15,5-2.22,5-2.22"/><path class="cls-2" d="M312.19,498.24c-1.51,0-3.91-1.35-4.81-1.8s-3.16,1.68-4.21,2-2.26-1.59-2.86-2.79,1.2-4.66,1.05-5.42-2.85-2.7-3.91-3.15a5.09,5.09,0,0,0-3,0c-.75.15.75-3,0-4.06s-3.61-5.56-4.51-5.87-3.16.76-4.36.76-2.11-3.61-2.71-3.76-3.31.3-4.51,0-2.86-1.21-2.86-2.71a32.58,32.58,0,0,0,0-5.41c-.3-1.5-1.65-1.65-1.35-3.31s2.11-3.31,2.26-4.81-3.61-5.26-4.82-5.71-2.55,1.95-3.75,2.4-4.21.15-5.12.3-2.7-2.81-3.6-2.76-1.06,4-2.11,4.12-4.06-.91-5.71-1.51-2.11-3.3-2.56-4.06-2-3.75-3.15-3.9-6,.75-6.77,0-2.41-3.61-2.86-3.46a2.27,2.27,0,0,0-.75,2.55c.45,1.06,2,3.16,1.35,3.91s-.15,5.41-.45,6.17-3,.6-4.06,1.2.46,3.46.76,4.06-2,1.05-3,1.5-1.5-3.76-2.71-4.21-1.65,2.56-2.7,3.76-4.21,3-3.61,4.21,3.91,3.16,4.21,3.61-1.2,2.85-1.51,4.06a21.44,21.44,0,0,0-.45,4.36c0,1.2-3-.15-4.21.15s-1.35,2.4-1.95,3.46,1,2.7,0,3-5.26-3.46-6.31-3.15-2.26,2.7-3.16,3.6-.6,4.06-1.66,4.36-3.15-1.5-3.9-.9-1.21,5.26-2.26,6-1.5,3-1.8,4.51-2.56,2.1-3.31,1.8-2.41-2.26-3-1.8-2.1,3.3-3.16,3.6-2.7.45-3.15,1.36,3.46,4.06,3.15,4.51-3.3.15-4.36,0-6.61,1.2-7.36.9-3.16-4.21-4.81-4.51-2,4-2.71,4.55,1.05,3.27,1.05,4.32.45,3.16-.3,3.76-4.51-1.66-5.86-1.21-2.41.51-3.16,1.31-.3,2.9-1.2,3.06a7.19,7.19,0,0,1-3.31-.76c-.45-.3-.45-3.3-1.65-3.3s-3.91,3.65-4.51,4.08,1,3.13,0,3.28-2.56-1.5-3.61-1-2.26,3.46-3.16,3.46-1.5-2.26-2.4-1.66-4.21,3.31-5.27,3.31.46,3.76,0,5,1.66,2,2.41,1.81a3.17,3.17,0,0,1,2.41,1.2c.45.6-2.26,2.71-2.71,3.61s.6,4.51,0,5.71a19.78,19.78,0,0,1-3.61,4.21,4.63,4.63,0,0,1-3.46,1.5c-1.5-.15-3.76.79-4.66,0s-1.8-5.13-2.7-5.28-1.86,2.71-1.86,2.71"/><path class="cls-2" d="M130,551.62a7.19,7.19,0,0,1,0-3.16,5.85,5.85,0,0,1,2.74-3.31c1.45-.6,2.6,3.85,2.6,3.85s-.7,5.62-.75,6.82,2.16,1.81,1.86,2.86-2.86.15-2.56,1.05-.3,3.46,0,5,1.55,2.41,1.1,3.16a21.26,21.26,0,0,1-2.2,2.46"/><path class="cls-2" d="M216.87,485.16a14.21,14.21,0,0,1,2.41,2.86c.6,1.2-2.61,2.86-2.44,3.76s2.13,2.1,2.51,2.85-1.19,1.66-2.51,2.41-2.23,6.31-2.38,7.37,3.58.45,4.95,1-1.39,2.1-2.57,2.86-3.73,1.5-4.18,2.85.45,3.91,0,5.71,1.65,2,2.1,3.61-1.5,5-1.5,6.17,3.23,3,2.9,4.06-3.91,4.51-3.63,5.11,3.65,1.8,3.62,2.25-.48,7.11-1.23,7a84.35,84.35,0,0,0-8.57,0c-1.21.21-3.16,3.52-3.61,4.72s2.25,2.71,2.7,3.61-1.75.3-2.75.9-1.91,6-1.46,6.77,3.61,2.1,4.36,3,1.06,6.12.3,6.22-2.79-.8-4.78-1.26-2.28-2.1-3.33-1.5-.3,3.61,0,5.11a5.78,5.78,0,0,1-1.21,3.91c-.45.6-1.65,4.06-1.5,5s3.61,2,4.81,2.41-.15,3-.6,4.36.6,1.5,1.05,2.7,1.36,3.16,3.16,3.61,3.61.15,5.26.75a12.4,12.4,0,0,1,3.76,2.56c.45.45-1.8,2.26-1.35,3.16s2.55,3.61,3.3,3.76,4.62-1.06,5.32-1.36-.2-3.3.7-3.61,1.2-2.1,2.4-2.4,2.71-.9,3.76-.6-.3,3.76,0,4.06,2.26-.6,3,0-1.05,2.43-.75,3.92,1.35.14,2.7.74,2.86,1.95,4.36,2.25,1.66,3,1.51,4.36,1.2,2.71,2.55,3-.15,2.4,0,4.06-2.1.75-2.4,1.65.3,3.76-.3,4.36-3.46-.6-4.21,0-.3,2.56-.45,3.61,3,3.61,4.21,3.31,2.94-4.81,3.72-5.87,2-4.2,3-5,1.5-2,2.71-2.25,1.95,2.25,4.06,2.55a42.16,42.16,0,0,0,6.16,0c1.8,0,.6-3.3,1.95-3.45s2.86.6,4.06.15.15-4.81,1.51-5.27,3.76-.75,5-.15,1,3.31,1.95,3.46,3.31-.15,3.76-.6.75-2.4,1.2-3.16,3.56-4,3.56-4"/><path class="cls-2" d="M204.54,587.25c1.39-.68,3-1.36,4.06,0s2.71,3.9,3.46,4-3.58,2.6-2.39,4.49,0,4.08-1.31,4.23-1.81-2-2.11-1.06-.51,2.87-1.71,3.17a13,13,0,0,1-4.81,0c-1-.3.45-3,.9-3.46s-.43-2.4-1.27-2.85-4.77-4.36-4.3-5,3.21-.11,4.62-.88,2.83.58,3.92.13S203.56,587.72,204.54,587.25Z"/><path class="cls-2" d="M148.26,627.34s1.86-1.31,2.91-1.16,2.41,3.76,3.31,4.67,3.61-1.06,4.36,0,1.65,3,2.55,3.75-.75,3.46,0,4.36,3.31,3.61,4.66,5.12,3.31,1.2,4.06,1.8,1.51,2.71,2.41,3.46,3.61.15,4.51,0,2.7,2.7,3.61,3.15a11.07,11.07,0,0,0,4.21,1.51,5,5,0,0,1,3.91,2c.9,1.21,1.65,1.81,4.66,1.51a13.47,13.47,0,0,0,5-1.36c.75-.3.15-3.3.75-3.76s1.05,2.11,3.16,2.11a34.19,34.19,0,0,0,4.06-.15c1.8-.15,1.65-2.56,2.1-2.71s1.65,2.86,2.56,2.56-.43-3.31,1.14-4.06,2.92-.15,4.12-.75,3.61-4.06,4.06-4.21-.9-2.64-1.51-3.28-3.75-.12-5.11,0,2.41-2.89,3.16-3.49,0-3.31-.45-4.36-2.56-2-2-3.15a14,14,0,0,1,2.86-3c.45-.45,1.35,2.25,2.41,1.65s.45-4.21,1.35-4.81,2.56-.3,4.21,0,1.8,3.46,2.55,3.76,4.82-1.21,4.82-1.21"/><path class="cls-2" d="M184.85,654a42,42,0,0,1,0,4.36c-.15.45-4.06.75-4.36,1.2s.21,2.11,2.21,2.41a20.35,20.35,0,0,0,4.4,0c.6,0,1.81,2.55,2.26,3.15s-1.81,1.81-1.81,2.41,3.91-.3,4.81,0,3.36,3.76,2.66,5-3.26,1.2-3.56,2.1,1.2,1.36,2.26,1.66,3-.15,3.45,1.8.91,5.72,0,6.47-1.45.75-2.15,1.35-.25,6.32.65,7.22,3,0,3.91,0,1-3.16,2.56-3.61,4.51,2.1,5.41,2.55.3,4.36,0,5.12-2.11.3-2.56,1.65.45,4.28.75,6.05-1.46,2.39-2.16,3.43,1,3.27,2.31,3.43,2.26-1.93,3-1.63,2.86,2.85,2.41,3.9a38.14,38.14,0,0,1-4.06,6c-1.2,1.35-3.27.75-3.67,1.65s-1.59,3.76-1.44,4.36,3.6,2.71,3.91,3.91-1.51,4.06-2,4.81-1.65,0-2.1.9,1.35,4.21,1.2,5.42-2.27,3.49-2.27,3.49"/><path class="cls-2" d="M293.39,408.64s0,2.85-.9,3.31-3.91.45-4.51,1.05.6,3.76,0,5,2.08,1.65,2.62,2.25-2.17,5.57-2,6.32,2.11,1.05,2.86,1.65-1.08,5.41-.84,6.32-3.52-1.06-4,0a24.75,24.75,0,0,0-.75,3.38c-.3,1.13,2.1,1.28,3.76,1.88s.72,3.16,0,4.21-1.79,3.46-.89,4.36,2.41,1.35,3.61,2.55.75,3.46,1.81,3.76,3.3.45,3.45,1.51-1.35,4.51-2.1,5.11-2.12-3.46-3.77-3.16a12,12,0,0,0-4.35,2.26c-1.35.9-4.06,2.85-4.51,3.91s.75,3,1.65,4.05-1.65,5.87-1.65,5.87"/></g></g></svg>