<svg xmlns="http://www.w3.org/2000/svg" viewBox="0 0 36.41 42.29"><defs><style>.cls-1{fill:#fff;}</style></defs><g id="Layer_2" data-name="Layer 2"><g id="Layer_1-2" data-name="Layer 1"><path class="cls-1" d="M3.59,0a1.19,1.19,0,0,1,.59.89,3.34,3.34,0,0,0,2,2.63.8.8,0,0,1,.52.73A.83.83,0,0,1,6.19,5a3.3,3.3,0,0,0-2,2.55A3.39,3.39,0,0,1,4.08,8a.75.75,0,0,1-.72.52A.72.72,0,0,1,2.63,8a3.44,3.44,0,0,1-.15-.55A3.24,3.24,0,0,0,.56,5.05.83.83,0,0,1,0,4.26a.79.79,0,0,1,.5-.74,3.32,3.32,0,0,0,2-2.63A1.19,1.19,0,0,1,3.1,0ZM3.35,2.61,1.87,4.27,3.35,5.92,4.83,4.27Z"/><path class="cls-1" d="M2.42,18.5h8.92L6.88,10.76c-.38.65-.72,1.25-1.08,1.85a1.13,1.13,0,0,1-.3.38.55.55,0,0,1-.75-.05.59.59,0,0,1-.11-.79,21.75,21.75,0,0,0,1.1-1.93A2.16,2.16,0,0,1,8.06,8.88c6.75,0,13.51,0,20.27,0a1.74,1.74,0,0,1,1.7,1c1.6,2.83,3.25,5.65,4.87,8.47A1.12,1.12,0,0,1,34.74,20q-7.91,8.82-15.8,17.66c-.7.79-1.24.78-2,0L1.31,20.06c-.66-.74-.68-1-.19-1.83.67-1.15,1.33-2.31,2-3.46a1,1,0,0,1,.55-.43.58.58,0,0,1,.54.24.9.9,0,0,1,0,.72c-.49.91-1,1.79-1.54,2.68Zm11.1,0h5.65c.47,0,.75.26.73.65s-.27.59-.74.59-1.18,0-1.77,0H13.26l4.66,15.93.1,0,4.69-15.9c-.47,0-.83-.07-.9-.53s.23-.64.63-.75L18,10.76ZM24,19.77,19.52,35l.08,0C24.14,30,28.67,24.89,33.25,19.77Zm-21.3,0L16.34,35a.39.39,0,0,0,0-.28q-2.15-7.3-4.27-14.63c-.09-.31-.24-.36-.53-.36-2.79,0-5.58,0-8.38,0Zm26.39-9-4.46,7.73h8.93ZM8,10.17l4.46,7.72,4.46-7.72Zm11.1,0,4.47,7.74L28,10.16Z"/><path class="cls-1" d="M29,33.47a5.93,5.93,0,0,1-2.7,3.15A6.06,6.06,0,0,1,29,39.83a6,6,0,0,1,2.7-3.19c-.2-.14-.37-.25-.54-.38a.62.62,0,1,1,.69-1l1.08.61a.85.85,0,0,1,.48.76.86.86,0,0,1-.49.8c-.25.13-.5.25-.73.39A4.52,4.52,0,0,0,30,40.66c-.08.35-.15.7-.26,1a.77.77,0,0,1-.8.59.75.75,0,0,1-.77-.57,5.75,5.75,0,0,1-.22-.84,4.68,4.68,0,0,0-2.72-3.37L25,37.4a.86.86,0,0,1,0-1.54c.27-.15.55-.27.8-.43A4.56,4.56,0,0,0,28,32.5c.08-.34.15-.67.26-1A.74.74,0,0,1,29,31a.72.72,0,0,1,.75.54c.17.53.31,1.08.43,1.63a.57.57,0,0,1-.34.68C29.47,34,29.21,33.81,29,33.47Z"/><path class="cls-1" d="M36.41,9.18c-.23.27-.36.56-.58.67a2.35,2.35,0,0,0-1.35,1.81.72.72,0,0,1-.74.69c-.38,0-.64-.22-.73-.7a2.36,2.36,0,0,0-1.36-1.8.72.72,0,0,1,0-1.33A2.35,2.35,0,0,0,33,6.72c.09-.48.36-.7.74-.69s.65.22.73.7a2.38,2.38,0,0,0,1.36,1.8C36.05,8.63,36.18,8.91,36.41,9.18ZM33.75,10l.75-.84-.76-.82L33,9.19Z"/></g></g></svg>