<svg xmlns="http://www.w3.org/2000/svg" viewBox="0 0 194.52 123.44"><defs><style>.cls-1{fill:#151d31;}</style></defs><g id="Layer_2" data-name="Layer 2"><g id="Layer_1-2" data-name="Layer 1"><path class="cls-1" d="M124.42,23.87l-.2,1.83-3.57.19c0,1.46-.06,2.83,0,4.19,0,.41.44.82.75,1.17a26.35,26.35,0,0,1,1.93,2c.93,1.32,1.3,2.71,0,3.68.47,1.94.89,3.68,1.3,5.42a3.33,3.33,0,0,0,2.25-3.91,35.5,35.5,0,0,1,0-4.27l1.84-.16c0,2-.08,3.84,0,5.69a3.37,3.37,0,0,0,.88,1.74c.75.94,1.74,1.71,2.4,2.7.78,1.17,1.3,2.49-.23,3.62a.76.76,0,0,0-.21.71c2,3.35,1.25,7,1.29,10.63,0,1.18-.61,2.36-.83,3.57a33.47,33.47,0,0,0-.59,4.45c-.1,2,0,4.08,0,6.2l2.19.3c-.25-1.41-.52-2.57-.65-3.75-.38-3.23-.93-6.48,1.21-9.42,1.92-2.63,6.63-4.37,10.86-.71l.37-2.09h5.76c0-1.51,0-2.83,0-4.14a2,2,0,0,0-.38-.82c-.32-.53-.66-1-1.17-1.84l3.3-.21a19.38,19.38,0,0,0-.05-3.58,16.08,16.08,0,0,0-1.46-3.22h8.41l.19-.39-2.54-1.64L161,38.43l-1.72-1.87,2.55-2L160.39,33c1.8-3.13,6.45-3.27,9.27-.18l-1.39,1.62,2.52,1.94-1.85,2,3.31,3.12-2.44,1.57.31.58h8c-.45,2.39-.86,4.56-1.31,6.92l3.55.27a13.06,13.06,0,0,0-1.47,3,20.76,20.76,0,0,0-.05,3.81h5.82v2.22l-1.39.35v6.49l2.47.29v2.12l-1.54.41v7l3.92.17c-.13,1,.82,2-.91,2.52-1,.32-.1,1,.49,1.32a6.63,6.63,0,0,1,3.55,6.62c-.08,2.17-.32,4.34-.47,6.51a8.52,8.52,0,0,0,0,1.82,1.77,1.77,0,0,0,.53,1,1.5,1.5,0,0,1,0,2.63,1.74,1.74,0,0,0-.51,1.21c-.06,1.55,0,3.1,0,4.65,0,.77-.28,1.66,1,2,.25.06.32.95.51,1.59l1.72.31c-.28,1.26.85,2.74-.91,3.66-.13.07-.1.52-.1.79,0,2.32,0,4.64,0,7.07,2.34.18,1.41,1.75,1.45,3.09H0v-2.75l2.57-.24v-9c0-3.6,0-7.19,0-10.79,0-.72.23-1.47-.92-1.79C.82,98.65,1,97.28,2,96.63c1.8-1.28,3.65-2.5,5.46-3.77,1.53-1.06,1.49-4,.26-5.44-.42-.49-.06-1.72.1-2.58.09-.48.72-.9.72-1.36,0-6.8,0-13.6,0-20.41a1.66,1.66,0,0,0-.36-1.16c-1.28-1.16-1.24-2.31.2-3.06l-1.1-2.29c2.71-1,2.41-2.71,1.54-4.65l.3-.41a24.84,24.84,0,0,0,3.76.77A44.58,44.58,0,0,0,17.3,52c1.18-.06,2.47-.41,3.5-.05a7.4,7.4,0,0,0,5,0,5.38,5.38,0,0,1,3.36-.08,6.56,6.56,0,0,0,5.09,0,4.88,4.88,0,0,1,3.22-.05,6.35,6.35,0,0,0,5.26,0,10.72,10.72,0,0,1,3.15-.29c0-.56.1-1.14.1-1.72,0-6,0-12,0-17.92a13.47,13.47,0,0,0-.56-2.34c-.16-.73-.26-1.48-.4-2.3l1.8-.48V21.37c0-5.25,0-10.51,0-15.76,0-.85-.43-1.7-.42-2.55A3.11,3.11,0,0,1,46.94.9,2.31,2.31,0,0,1,49.13.75,2.71,2.71,0,0,1,50,2.83c0,1.51-.45,3-.46,4.54-.06,6.47,0,12.94,0,19.37,1.87.57,2.15,1.37,1.28,3.13a3.7,3.7,0,0,0-.45,1.54q0,10,0,19.91c0,.27.06.54.22.32l5.35.6V49.83l1.93-.18a2.41,2.41,0,0,1,.25-2.94c.49-.56.12-1.86.13-2.83,0-.27-.12-.55-.1-.81.16-1.65.34-3.29.53-5l1.28-.09A38.36,38.36,0,0,0,61,26.35l1.89-.2c-2.18-2.55-1.41-5.46-1.52-8.39h1.92v3.61l2.17-1,1.19-3.94.79,0,1.33,4c.92.3.81.29,1-.84a23.64,23.64,0,0,1,1-3.14h.73a11.33,11.33,0,0,1,1,3.09c0,1.1.36,1.22,1,1.08l1.27-4.19h.82c.32,1.09.59,2.2,1,3.27a6.42,6.42,0,0,0,.87,1.27c.54-1.8.94-3.16,1.35-4.51l.8,0c.33,1.08.62,2.17,1,3.23a6.49,6.49,0,0,0,.87,1.29l1.32-4.47.82,0,1.31,4,2.12,1V17.73h1.93c-.13,2.87.67,5.81-1.47,8.44l1.68.15.41,5.56c2.88-2.07.9-4.85,1.87-7h1.43c0,.63,0,1.18,0,1.72-.19,2.35,0,4.39,2.17,6.09,1.82,1.45,1.69,3.06.34,4.38a4.7,4.7,0,0,1,1,1.09c.19.45.13,1,.58,1.57l1-2.54c-1.37-1.61-1.4-2.79.81-5A3.8,3.8,0,0,0,99.92,29a38.48,38.48,0,0,1,0-5.15c.12-1.91.42-3.82.7-5.73,0-.23.54-.39.58-.62.08-.51.19-1.37-.06-1.53-1.55-1-1.2-2.38-.56-3.44a42.38,42.38,0,0,1,3.24-3.9,4.14,4.14,0,0,0,1-2c.14-2,.06-4.09.08-6.13,0-.1.08-.2.17-.41L106.88,0c0,2.11.06,4.14,0,6.16a2.87,2.87,0,0,0,1.29,2.76,12.33,12.33,0,0,1,2.69,2.89c1.16,1.65,1,2.58-.38,4.23a1.33,1.33,0,0,0-.11,1.22c1.25,1.71,1.33,3.71,1.47,5.68a37,37,0,0,1,0,4.47c-.1,2.08,0,3.88,1.85,5.46s1.5,2.87.22,4.25l1.06,2.74,1.28-3c-1.12-.9-.91-2.14-.1-3.43a2.15,2.15,0,0,1,.59-.78c2.56-1.49,2.39-3.93,2.27-6.36,0-.67-.12-1.23.79-1.73.53-.29.41-1.75.62-2.9,1.81.54,2.46-.91,3.38-2.16M109.13,59.8c.3-.2.84-.37.86-.59.09-1.08,0-2.17,0-3.33H102v3.86l.48,0V56.21h2.63V60l4.1-.28Zm14.31-38.68,1.31,2a1,1,0,0,0,.31,0m6.26,93.79c-.32-3.25.25-5.7,1.48-6.46s4.34-.82,5.09,0c1.7,1.8,3.65,3.63,1,6.74,1.52-.25,2.87-.08,3.19-.59,1.45-2.22,1-4.78.7-7.25-.1-.95-.23-1.9-.3-2.86a8.06,8.06,0,0,0-.12-2.32,7.41,7.41,0,0,0-6.57-4.85,7,7,0,0,0-7.81,7.8,3.74,3.74,0,0,1,0,1.49,10.94,10.94,0,0,0,.36,8.33Zm34.22,0c-1.18-3.4-.58-7.08,1.21-8.11,1.57-.91,5.21-.8,6.11.3s2.24,2.35,2.39,3.64-.92,2.73-1.45,4.09h1.81c0-.33,0-.66.13-.85,1.44-2,.51-4.24.64-6.36a18.17,18.17,0,0,0-.46-3.14,9.64,9.64,0,0,0-.21-2.62,7.31,7.31,0,0,0-6.88-4.63,7.43,7.43,0,0,0-7.11,4.31c-.49.92-1,1.89-.3,3.07.29.48.08,1.3,0,2-.16,1.94-.48,3.87-.52,5.81s.85,2.53,2.63,2.54ZM76,111.63l.22.38c3,0,6.07-.06,9.09,0a3.57,3.57,0,0,0,3.13-1.39,3.5,3.5,0,0,1,1.91-1c1.11-.21,2.46.17,3.38-.32,3.46-1.83,6,.68,8.86,1.66l-1.18.53,0,.32H113v-4.24H66.25c-.34,2-.34,2,2.2,3.47l-.73.89h2l-.64-.9c2.58-1.71,5.09-1.67,7.89.16ZM17.72,86.92l.18.29H51.29c-2.54-1.76-4.67-3.3-6.89-4.7A4.79,4.79,0,0,0,42,81.76c-5.08-.07-10.17,0-15.26,0a3.14,3.14,0,0,0-1.61.22C22.6,83.55,20.17,85.25,17.72,86.92Zm71.68,20c7.4,0,14.8,0,22.2,0,1.39,0,1.46-.57,1.52-1.67s-.38-1.5-1.5-1.5q-22,0-43.93,0c-1.28,0-1.68.33-1.7,1.67s.64,1.47,1.71,1.47C74.94,106.87,82.17,106.88,89.4,106.89Zm62.43,10h1.49c2.78,0,3.32-.49,3.23-3.29-.09-2.37-.34-4.74-.62-7.1-.15-1.37-2.14-2.64-4-2.66s-3.9,1.18-4,2.53c-.31,2.69-.53,5.39-.63,8.09-.06,1.71.83,2.43,2.55,2.44Zm31.66-47.55h-5c-10,0-20,0-30,0-1.58,0-2.09.63-2,2.05a4.07,4.07,0,0,0,0,1,8.47,8.47,0,0,0,.66,1.22c.25-.4.65-.77.72-1.2a3,3,0,0,1,3.72-2.4l1.14,5.27a12.78,12.78,0,0,0,.22-2.81,1.87,1.87,0,0,1,3.74-.07c0,1-.06,2.11.05,3.15,0,.4.51.75.78,1.12l.49-.28v-3.8a1.75,1.75,0,0,1,1.88-2c1.29,0,1.87.8,1.89,2,0,.88-.06,1.77,0,2.65a4.92,4.92,0,0,0,.56,1.3,5.14,5.14,0,0,0,.65-1.39,17.07,17.07,0,0,0,0-2.48c0-1.34.59-2.16,2-2.11s1.85.8,1.82,2.08a26.93,26.93,0,0,0,0,3c0,.32.41.61.63.91.22-.31.59-.6.62-.93.08-1.09,0-2.2.05-3.31a1.71,1.71,0,0,1,2-1.75,1.66,1.66,0,0,1,1.73,1.82,26.26,26.26,0,0,0,0,2.81,4.74,4.74,0,0,0,.68,1.37,4.11,4.11,0,0,0,.58-1.29c.09-.93,0-1.87,0-2.81a1.87,1.87,0,0,1,3.73,0c0,1,0,2,.05,3a3.48,3.48,0,0,0,.57,1.14c.23-.4.61-.78.66-1.2a26.5,26.5,0,0,0,0-2.82,1.76,1.76,0,0,1,1.94-2,1.72,1.72,0,0,1,1.83,1.92c0,1,0,2.1,0,3.14,0,.34.4.64.61,1,.26-.32.74-.63.75-1C183.52,73.61,183.49,71.62,183.49,69.35Zm-1-9.21H147.47c0,2,0,3.92,0,5.83,0,.29.46.57.7.85.18-.29.5-.56.52-.86.07-1,0-2,0-3a1.66,1.66,0,0,1,1.88-1.82,1.62,1.62,0,0,1,1.7,1.83c0,1,0,2,0,3,0,.3.35.57.53.85.23-.3.62-.58.65-.9a26.31,26.31,0,0,0,0-2.81c0-1.19.52-1.94,1.75-1.94A1.68,1.68,0,0,1,157.18,63c0,.94,0,1.89,0,2.82,0,.33.37.64.57,1,.19-.34.52-.66.54-1,.08-.93,0-1.88,0-2.82a1.66,1.66,0,0,1,1.88-1.82A1.62,1.62,0,0,1,162,63a26,26,0,0,0,0,2.65,4,4,0,0,0,.52,1.2,4.41,4.41,0,0,0,.64-1.26,18.79,18.79,0,0,0,0-2.49A1.67,1.67,0,0,1,165,61.16c1.23,0,1.79.73,1.81,1.9,0,.83-.06,1.67,0,2.49a4.44,4.44,0,0,0,.6,1.27,4.33,4.33,0,0,0,.52-1.2c.08-.88,0-1.77,0-2.65a1.79,1.79,0,1,1,3.58,0c0,.94,0,1.88,0,2.82,0,.34.36.66.55,1,.22-.31.59-.6.62-.93.09-.93,0-1.88,0-2.82,0-1.19.57-1.91,1.79-1.9a1.7,1.7,0,0,1,1.8,1.93c0,1,0,2,0,3,0,.26.4.49.62.73.17-.23.46-.46.48-.71.06-.94.06-1.88,0-2.82,0-1.24.45-2.07,1.77-2.1s1.86.77,1.84,2a21.25,21.25,0,0,0,0,2.65c0,.34.38.65.58,1,.23-.29.66-.57.67-.87C182.55,64.09,182.52,62.21,182.52,60.14ZM22.58,67.2l.48.24c-.06-3,1-5.2,4.05-5.23s4.08,2.34,4.43,5.18c.3-2.77,1.15-5,4.09-5.16C38.87,62.08,40,64.4,40,67.39c.73-1.58,1-3.21,2-4.08s2.63-1,3.81-1.38H11.5V84.61c.35-.32.32-.7.47-1,.67-1.35,1.14-2.63,0-4.06-.26-.33-.06-1.07,0-1.61.12-.78.41-1.55.46-2.33.14-2.31.17-4.63.31-6.94,0-.44.33-1.2.57-1.23,1.19-.15.94-1,1-1.74a4,4,0,0,1,7.93,0C22.45,66.2,22.51,66.7,22.58,67.2Zm-3.07,26H49.28c-.6-2.15.4-2.79,2.29-2.54.15,0,.35-.31.53-.48-.21-.19-.41-.56-.62-.56-1.51,0-3,0-4.58,0l-.22,3-1.78-.11-.19-2.74H41.15L41,92.4H39.14L39,89.7H35.54c-.5,3-.5,3-2.19,2.59l-.16-2.57H29.64l-.2,2.82-1.81-.09-.19-2.7H23.87l-.16,2.66H21.9l-.19-2.8c-1.59,0-3,0-4.45,0-.25,0-.49.39-.74.6.24.15.47.42.72.45a18.89,18.89,0,0,0,2,0Zm61.72,6.14h8.3V89.7h-8.3Zm19.26-9.69H92.27v9.67h8.22Zm2.74,9.88c2.68,0,5,0,7.28,0a1.07,1.07,0,0,0,.77-.64,19.2,19.2,0,0,0,.51-4,51.75,51.75,0,0,0-.62-5.22h-7.94ZM42.75,81h46c.49-1.79-.62-1.64-1.66-1.64H44.16c-.48,0-.95.06-1.41.08Zm23.4,38.81H89.8c.72-1.51.39-2.41-1.27-2.64a17.59,17.59,0,0,0-2.27-.28c-5,0-10.05,0-15.07,0-1.64,0-3.28,0-5,0Zm-19.1-36.7-.15.55c1.11.38,2.24,1.09,3.34,1.06,9.3-.23,18.6.62,27.89-.43,3.33-.37,6.74,0,10.11-.08.35,0,.69-.44,1-.67A8.46,8.46,0,0,0,88.22,83a2.05,2.05,0,0,0-.66,0H48.46C48,83,47.52,83.06,47.05,83.09Zm-.31-52.2V52.31h2.81V30.89ZM179.68,82.51c1.64-2.56,4.08-2.66,6.51-2.79l-.08-.46h-28l2.39,3.13c.18-1.53.85-2.29,2.22-2.13s1.65,1.23,1.61,2.44a10.38,10.38,0,0,0,0,2.16,5.53,5.53,0,0,0,.68,1.38,4.64,4.64,0,0,0,.57-1.3,23.43,23.43,0,0,0,0-2.65,1.78,1.78,0,0,1,1.87-2.06c1.29,0,1.88.77,1.92,2,0,1,0,2.1,0,3.15,0,.3.35.58.53.87.24-.3.64-.58.67-.89.09-1,0-2,0-3,0-1.31.59-2.16,2-2.13s1.84.85,1.83,2.1v3.78l.52.26c.25-.36.66-.69.71-1.07a15.91,15.91,0,0,0,0-2.49c0-1.15,0-2.31,1.5-2.54S179.42,80.79,179.68,82.51Zm-34.31-3c-.17-.07-.22-.11-.28-.11q-20,0-40.08,0c-1.48,0-1.24.79-.93,1.78,3.26,0,6.46,0,9.66,0a6.4,6.4,0,0,0,2.34-.58,7,7,0,0,1,5.78,0,6.82,6.82,0,0,0,2.5.59c6.13,0,12.26,0,18.39,0A2.45,2.45,0,0,0,145.37,79.49Zm12.89,6c0-3.38-3-6-6.68-5.93-2.7,0-6.47,2.88-6,5.93Zm-78-19.36H67.41v7.34h4.87V67.26H78v6.35l2.25-.25ZM65.33,96.94c-2.8-2.25-5.31-5.11-9.47-4.34a20,20,0,0,1-3.63.05c-3.09,0-3.95,1.12-3.23,4.29Zm-45.65,0c.47-3.37-.3-4.28-3.43-4.3-1.66,0-3.32.12-5,0-3.68-.35-5.46,2.67-8,4.34Zm160.39-1.33.11-.65a8.71,8.71,0,0,0-1.79-.35q-26.52,0-53,0a1.79,1.79,0,0,0-.66,0,7.9,7.9,0,0,0-1,.58,4.76,4.76,0,0,0,.87.5,2.86,2.86,0,0,0,.83,0h53C179,95.69,179.54,95.64,180.07,95.61ZM77,93.33H71.68V103h5.61c-.12-.65-.26-1.15-.31-1.67a6.5,6.5,0,0,1,0-1.59,18.17,18.17,0,0,0,.64-3A17.84,17.84,0,0,0,77,93.33Zm44.56-35.65a27.5,27.5,0,0,0-1.71,14.25c.72.07,1.16.33,2.82,1.61l1.42-.24c0-2.67.19-5.28-.06-7.84a52.17,52.17,0,0,0-1.49-7.17C122.49,58,121.82,57.82,121.59,57.68ZM43.62,103V94h-5.1c-1.74,3-.61,6-.29,9Zm-8.77,0c.51-3.06,1.25-6-.12-8.94H30.11c-1.78,3.07-.62,6-.33,8.94Zm13-42.86a5.13,5.13,0,0,0-.8-.32Q28,59.79,9,59.8c-.34,0-.67.46-1,.7.41.23.82.66,1.24.66q18.32,0,36.64,0C46.4,61.14,47,60.58,47.88,60.12ZM89.93,76.93l-.23-.65H40a7.26,7.26,0,0,0-1.32,0,2.66,2.66,0,0,0-.73.47c.24.22.45.54.74.63a4,4,0,0,0,1.15,0H75.13c4.37,0,8.74,0,13.1,0A6.31,6.31,0,0,0,89.93,76.93Zm33.18,37.25c-.18-2.25-.36-4.39-.53-6.57h-7.46v6.57ZM105.84,15.25h3.31c1.84,0,2.4-.81,1.45-2.47a11.84,11.84,0,0,0-2.74-3.24,4.13,4.13,0,0,0-2.72-.71c-1.63.13-4.29,3.52-4.34,5.17,0,.92.31,1.3,1.25,1.26C103.31,15.22,104.58,15.25,105.84,15.25Zm60,53.47c6,0,11.93,0,17.89,0a4.25,4.25,0,0,0,1.37-.51c-.47-.22-.93-.64-1.4-.64q-17.73-.06-35.44,0a4.33,4.33,0,0,0-1.38.52c.47.22.94.63,1.41.63C154.19,68.73,160,68.72,165.89,68.72Zm-62.83,7.54-.23.68a7.46,7.46,0,0,0,1.85.49q21.57,0,43.15,0c1.76,0,3.51-.18,5.27-.3.58,0,1.16-.1,1.74-.16l-1.69-.69H103.06Zm9.93,25.2h-4.61c-9.56,0-19.12,0-28.69,0-.46,0-.93.54-1.4.82.45.26.9.74,1.35.74q16.41.09,32.82.08a2.3,2.3,0,0,0,.62-.19c0-.28,0-.49,0-.71S113,101.82,113,101.46Zm34,.94.44.26a7.88,7.88,0,0,1,8.93,0l.45-.26-1.05-6h-7.73C147.7,98.39,147.35,100.4,147,102.4ZM43.93,103.74H41.46c-5,0-10.07.08-15.1,0-1.5,0-2,.47-1.79,1.89.06.37.09.74.14,1.12H44.06c0-.7,0-1.24,0-1.79C44,104.64,44,104.31,43.93,103.74ZM159.16,57.55l.76,0c0-.74,0-1.48,0-2.22,0-1.05.17-2,1.46-1.92s1.44,1,1.43,2c0,.72,0,1.45,0,2.17l.63,0c0-.82.12-1.64.12-2.46s.28-1.67,1.34-1.72,1.54.65,1.55,1.69c0,.82.08,1.64.12,2.45h.62c0-.83,0-1.67,0-2.5,0-1,.46-1.79,1.42-1.59A2.6,2.6,0,0,1,170,55a8.59,8.59,0,0,1,.05,2.49l.59,0c.06-.71.15-1.41.15-2.12,0-1,.1-2,1.38-2s1.48,1,1.5,2.08c0,.7.1,1.41.15,2.11h.5c0-.79.11-1.58.11-2.37,0-1,.23-1.81,1.41-1.82s1.46.76,1.47,1.78c0,.82.09,1.63.15,2.45l.5,0V52.83H152.07v4.74l.58,0c0-.74,0-1.48,0-2.22,0-1,.15-1.95,1.45-1.94s1.44.94,1.45,2c0,.74.09,1.48.14,2.22l.6,0c0-.85,0-1.7,0-2.54s.41-1.63,1.44-1.63,1.43.69,1.43,1.65S159.16,56.71,159.16,57.55Zm9.1,51.9c-1.54.37-2.31,2-2.27,5.21,0,.4.21,1,.48,1.15a10.48,10.48,0,0,0,3.09.74c1.86.07,5-2,4.65-3.24a5.79,5.79,0,0,0-2.18-3.2C171,109.47,169.54,109.64,168.26,109.45ZM95.38,87.59c5.24,0,10.49,0,15.73,0,.47,0,.93-.42,1.4-.65-.46-.23-.92-.66-1.37-.66q-15.66,0-31.3,0c-.5,0-1,.47-1.5.71a4.57,4.57,0,0,0,1.47.6C85,87.61,90.19,87.59,95.38,87.59ZM32,114.29l-.39.25c.44.57.85,1.58,1.34,1.62,1.77.16,3.62.56,5.32-.41.31-.18.72-.31.88-.59,1.11-1.94,1.14-2-.15-3.84a4.24,4.24,0,0,0-1.83-1.72A4.13,4.13,0,0,0,32,111.82,6.34,6.34,0,0,0,32,114.29Zm-7.3-6.7v4.35h3.76l-.89-1c1.55-.54,2.92-1.12,4.34-1.5a14.27,14.27,0,0,1,4.83-.88c1.81.19,3.55,1.13,5.32,1.76.53.19,1.05.43,1.64.67l-.76.93c1.22-.19,1.49-1.73.87-4.29ZM113,116.14c.05-.51.08-.94.14-1.36.24-1.57-.19-2.31-2-2.18-2.36.18-4.75.05-7.12.05-2.84,0-2.84,0-2.64,2.8a3.9,3.9,0,0,0,.16.69ZM145.6,70.21H134.13v3.26H145.6Zm-86.94-.12c-3,0-5.89,0-8.74,0-3,0-3,0-2.77,3.08,0,.09.12.18.19.28H58.66ZM112.75,72c.33-5,.35-9.69-1.69-14a27.23,27.23,0,0,0-1.6,14ZM8.93,58.93a11.26,11.26,0,0,0,1.36.21q18.65,0,37.28,0a8.12,8.12,0,0,0,1.88-.48C46,57.71,10,58.05,8.93,58.93Zm167.31-13.1H153.57c0,1.71-.29,3.33.42,4.87a1.79,1.79,0,0,0,.44-.94c.25-1.21-.75-3.21,1.42-3.26s1.2,2,1.47,3.17c.07.32.18.64.28,1l.45,0V48.21c0-1,.33-1.79,1.48-1.79s1.43.8,1.43,1.81c0,.8.09,1.61.13,2.42l.61,0c0-.8,0-1.6,0-2.4,0-1,.29-1.8,1.44-1.8s1.48.74,1.46,1.78c0,.81.08,1.63.12,2.44l.63,0V48.77c0-1.07-.11-2.29,1.41-2.33s1.47,1.16,1.47,2.25c0,.65.09,1.31.14,2H169c0-.84,0-1.67,0-2.51s.32-1.66,1.37-1.7,1.53.66,1.53,1.71c0,.83.07,1.66.11,2.48h.51c0-.77.13-1.54.11-2.31,0-1.09.28-1.92,1.52-1.89s1.4.85,1.38,1.85c0,.81.08,1.62.13,2.43h.6Zm-100.15,67v3.3h11l-.9-3.3Zm108.06-53.7-.11-.73h-4.92q-15.92,0-31.84,0a4.67,4.67,0,0,0-1.38.46c.43.2.86.58,1.29.58q17.75,0,35.49,0A6.51,6.51,0,0,0,184.15,59.08ZM93.23,116.87c1.34,0,1.57-.84,1.63-1.8,0-.26-.15-.52-.12-.78.25-2.64-1.14-3.94-3.76-3.78-1.67.1-2.18,1.2-2.9,2.36-.41.66-1.2,1-.27,1.84.55.48,1,1.28,1.56,1.48A27.57,27.57,0,0,0,93.23,116.87ZM8.29,57v.36H63.56V57Zm172.4,54.4c2.69-.9,4.33-.22,5.41,1.85a1.8,1.8,0,0,0,2.61.85v-6.49h-7.25Zm-128.46-23c-1.82-.7-34.76-.55-35.71.1C17.57,89.22,51,89.22,52.23,88.35ZM60,111l-.61,1h1.45V107.5h-12c0,.83-.24,1.75,0,2a19.29,19.29,0,0,0,3,1.55l-.69.94h2l-.75-.9A6.36,6.36,0,0,1,60,111Zm75.55-.1c-2.5,0-3.53,1.36-3.42,4.54.07,2.18,2.07,1.25,3.1,1.65,1.31.51,4.09-1.69,4.14-2.82S136.94,110.85,135.57,110.86ZM90.63,73.72c2-.46,3.83-1.2,5.66-1.2s3.78.73,5.74,1.15V70.2H90.63ZM3.33,99.08v20.66H6.84v-3.86H6.55l-.32,2.77H3.94v-10.8H6.52v5.53H6.9V99.08ZM127.67,47v0a8.81,8.81,0,0,0,1.15,0c1.05-.12,2.09-.28,3.13-.42-.52-1.16-1-2.32-1.57-3.45a1.56,1.56,0,0,0-.83-.77c-.9-.27-2.2-.88-2.69-.5a15.11,15.11,0,0,0-3.26,3.76c-.51.78,0,1.43,1.1,1.38S126.68,47,127.67,47ZM84,47a7.48,7.48,0,0,0,.82,0c1.14-.15,2.28-.32,3.42-.49-.62-1.22-1.2-2.47-1.86-3.67a1.89,1.89,0,0,0-1-.83c-.71-.2-1.79-.56-2.15-.23a21.44,21.44,0,0,0-3.35,3.88c-.47.68,0,1.36,1,1.34S82.9,47,84,47Zm7.68,31.8h9.5a4.71,4.71,0,0,0-4.68-4.3A4.65,4.65,0,0,0,91.63,78.78ZM52.36,86.86c.5,1.43,1.65.9,2.63.91,6.83,0,13.67.09,20.5.09a10.66,10.66,0,0,0,2.19-.45l-.09-.55ZM144.61,64a4.76,4.76,0,0,0-5.06-4.31A4.56,4.56,0,0,0,135.13,64Zm-87,0a4.6,4.6,0,0,0-4.92-4.32A4.48,4.48,0,0,0,48.25,64Zm34,0h9.49a4.58,4.58,0,0,0-4.41-4.32A4.71,4.71,0,0,0,91.6,64ZM89.15,78.53v-.28H41.3v.28Zm11.46-54.37h10.47V21.39H100.61Zm55.13,53.09-.07.72a13.82,13.82,0,0,0,2.44.41c9.22,0,18.44,0,27.67,0a4.4,4.4,0,0,0,1.15,0c.23-.07.39-.4.58-.6-.18-.17-.34-.43-.55-.48a5.46,5.46,0,0,0-1.15,0H155.74ZM44.83,94v25.74H48V94ZM77.54,53.91c0,1.57,0,3,0,4.52,0,.3.3.6.46.9.27-.21.76-.41.77-.62.06-2,0-3.91,0-5.85H70.19v6.39h2.54V53.91ZM20.62,94v25.74H23.8V94Zm41,23.54.42,0v-9.74H65v11.47h.36V99.09H61.65Zm-26.37-.07L24.7,116.7v3.17c3.12,0,6.11-.08,9.08,0C35.29,120,35.65,119.35,35.28,117.46ZM10.13,84.94l.58-.45c0-7.19,0-14.37,0-21.55,0-.37-.51-.74-.78-1.11-.25.34-.71.68-.71,1,0,7,0,13.93,0,20.89C9.2,84.14,9.81,84.54,10.13,84.94Zm.69,26.6c-1.28,0-3.64,2.15-3.54,3.2s2.6,2.73,4,2.65c2.42-.14,2.87-.63,2.84-3.13C14.11,112.92,12.41,111.52,10.82,111.54ZM63.55,93.31l-.31.39a7.8,7.8,0,0,0,1,1.24c.82.65,1.75,1.16,2.57,1.81s.77,1.63-.2,2.27a1.3,1.3,0,0,0-.56.84c-.06,1,0,2,0,3.11H69V93.31ZM143,83.11H124.81c0,1.14.38,1.67,1.56,1.66q7.6-.06,15.23,0C142.8,84.78,143.17,84.28,143,83.11ZM48.85,4.5c-1.09-.38-1.47-.12-1.47.89,0,6.84,0,13.68,0,20.52,0,.37.5.73.77,1.1.22-.36.62-.72.62-1.09C48.86,18.81,48.85,11.7,48.85,4.5Zm24,37.76h4.55V46c1.92.34,2.82-1.92,2.06-4.89h-9v5h2.39Zm16.29,40,0-.33H45.19v.33Zm2.55-32.66c2.32,0,4.67,0,7,0,.24,0,.62-.44.66-.72.26-1.73-2.81-4.54-4.51-4.16C93.3,45,91.51,47.6,91.68,49.57Zm20.75-.09h7.67c.37-2.2-1.08-3.36-2.46-4.35A2.78,2.78,0,0,0,115.1,45C113.6,46,112.19,47.22,112.43,49.48Zm-6.6.1h0a11.34,11.34,0,0,0,1.65,0c.77-.1,1.51-.31,2.27-.47a16.14,16.14,0,0,0-1-2.51,3.45,3.45,0,0,0-1.51-1.47c-.75-.3-1.91-.57-2.43-.2a10.88,10.88,0,0,0-2.69,3c-.56.89-.33,1.71,1,1.64C104.07,49.54,105,49.58,105.83,49.58Zm41.09,28.91v-.18H103.59v.18Zm12.89,7.24c.66-4.2-3.38-8-7.84-8s-8.63,3.78-8.17,7.92a2,2,0,0,0,1-1C146,80.89,148.43,79,152,79s5.8,2,7.05,5.67A4.81,4.81,0,0,0,159.81,85.73Zm26.4,29.19a13.48,13.48,0,0,1-1-1.36,2.61,2.61,0,0,0-2.65-1.74c-1.26.12-2.48.32-3,1.84-.35,1-.15,3.41.56,3.44a13.08,13.08,0,0,0,4.15-.31C185.06,116.57,185.59,115.56,186.21,114.92Zm-72.64-43H119V62.66h-5.45Zm-55.72,18c-.43,1.49.45,1.37,1.23,1.37H69.67c2.54,0,5.08,0,7.61,0,.36,0,.71-.44,1.06-.67-.3-.22-.6-.62-.9-.62C70.94,89.87,64.44,89.88,57.85,89.88ZM180.61,85.5h8.44a4.25,4.25,0,0,0-8.44,0Zm-57.46.06a4.14,4.14,0,0,0-4.53-3.82A3.8,3.8,0,0,0,115,85.56ZM101.3,116.94l.13,2.88h6.95c0-2.87,3-1.33,4.35-2.88ZM77.2,73.49v-5.6H73v5.6Zm10.41-.15,1.56.19c1.29-2.64-.07-5-.16-7.48a7.34,7.34,0,0,1,.22-2c.43-1.63,1-3.22,1.36-4.86.09-.41-.49-.95-.76-1.42a6.81,6.81,0,0,0-.7,1.37c-.16.61-.06,1.3-.25,1.91-.36,1.16-1.14,2.28-1.21,3.45C87.49,67.31,87.61,70.19,87.61,73.34ZM97.68,35.81h7.17c-.19-2.33-2.06-4.4-3.74-4.33S97.57,33.87,97.68,35.81ZM95.47,36c.06-2-1.62-4.32-3.14-4.54s-3.74,1.69-4,3.33c0,.36.48,1.14.77,1.16C91.19,36.08,93.27,36,95.47,36Zm28-.11a4.52,4.52,0,0,0-2.5-4.08,2.7,2.7,0,0,0-2.4.06c-1.33.89-2.55,2.05-2.37,4Zm-16.5,0h7.1c.08-2.09-1.78-4.39-3.47-4.43S106.88,33.75,107,35.9ZM88.48,60.41c0-1.53,0-2.89,0-4.25a1.27,1.27,0,0,0-.89-.85c-2.62-.07-5.25,0-7.94,0v5.14ZM139.9,74.24h0c-2.71,0-5.41,0-8.11,0-.35,0-.7.43-1,.66.35.23.7.66,1.05.66q8,.08,16,0c.38,0,.76-.5,1.14-.77-.38-.2-.76-.57-1.15-.57C145.19,74.22,142.54,74.24,139.9,74.24Zm-87,0v0c-2.65,0-5.3,0-8,0-.39,0-.77.38-1.16.58.38.27.76.75,1.15.75q7.95.07,15.91,0c.39,0,.77-.48,1.15-.74-.38-.2-.76-.57-1.14-.58C58.2,74.22,55.54,74.25,52.89,74.25Zm24.76,26v.41H113v-.41Zm-12-26c-.4,1.15.07,1.41,1,1.4,5.25,0,10.49,0,15.74,0,.42,0,.84-.42,1.27-.64-.4-.24-.79-.68-1.18-.68C76.93,74.24,71.36,74.25,65.69,74.25ZM118,75.64h0c2.66,0,5.31,0,8,0,.42,0,.83-.43,1.24-.65-.4-.24-.8-.68-1.21-.68q-7.86-.08-15.74,0c-.41,0-.82.41-1.22.64.39.24.78.69,1.19.7C112.79,75.67,115.39,75.64,118,75.64Zm7.5-3.16V64.09l2.09.1v7.5h.48v-7.6l2.22.11v7.59l.38,0v-8.4h-5.79V73.51l2.29-.27,0-.42ZM79.6,54.65c2.75,0,5.43,0,8.1,0,.27,0,.72-.73.73-1.12s-.4-1.18-.65-1.19c-2.71-.09-5.43-.06-8.18-.06Zm63.54,48.17a7.89,7.89,0,0,0-.95-2.36,9.53,9.53,0,0,0-14,0,7.75,7.75,0,0,0-1,2.37l.43.16C132.55,97.12,136.54,97.13,143.14,102.82Zm-28.25-2.37.19,4.26c.29-.21.25-.44.35-.61.29-.56.64-1.08,1-1.62.35.53.74,1,1,1.58a1.78,1.78,0,0,1,.12.69l1.32-2.27,1.34,2,1.23-2,1.41,2.22v-4.26ZM71.24,29.32c0,1.35.07,2.56,0,3.76-.1,1.47.53,1.72,1.92,1.18V30.43h3.92v4.1l1.78-.11v-5.1ZM77.7,88.37l0,.36H112.9v-.36Zm0-3.34v.36h34.82V85ZM86.5,71.68l.41,0V63.33H81.06V73.47l2.55-.15,0-.48-2-.35V64.2h2.1v7.63l.52,0V64.2H86.5Zm97,32.77,1.17-2,1.37,2,1.16-2,1.55,2.22v-4.18h-7.84v3.92l1.38-1.93Zm-51.4-49.1h-8.72v5h8.72Zm28.51,47.36.61.26a8.51,8.51,0,0,1,7.55-4.31c3.27,0,5.64,1.72,7.68,4.24a4.92,4.92,0,0,0-1.05-2.72,9.47,9.47,0,0,0-13.51,0A9.19,9.19,0,0,0,160.62,102.71ZM60.31,103l.32-3.85H54.56l.59,3.85Zm82.12-15.14.2-.73a5,5,0,0,0-1.34-.45q-7.29,0-14.56,0c-.42,0-.85.38-1.27.58a3.63,3.63,0,0,0,1.31.56c4.57,0,9.15,0,13.72,0Zm-10.31-35.5h-8.7v2.16h8.7ZM101.26,20.54h9.16V18.35h-9.16Zm87.47,72.92h-7.81v2c.76.1,1.64,0,2,.33s.38,1.3.48,1.71c.41-.67.8-2,1.28-2,1.67-.11.81,1.61,1.13,2.19l1.49-2.29,1.41,2.23ZM24.35,69.8v7.83h5.52V69.8Zm98.5,23.62h-7.79v4.26l1.31-2.28,1.27,1.85L119,95.39l1.32,2.17c.51-2.12.51-2.12,2.56-2ZM15.65,69.8v7.79h5.49V69.8Zm9,24.21v9h1.72c.5-3,1.42-6-.21-9Zm19.26,25.86v-2.94c-1.92,0-3.72-.05-5.52,0-.92,0-1.43.49-1.36,1.6s.55,1.37,1.55,1.34C40.34,119.83,42.09,119.87,43.93,119.87Zm48.13-.1h8.47V111.3H95.35c1.12,1.52,2.82.51,4.21,1.14v6.3c-4.55.38-5.76.23-7.29-1Zm70-23.36c-.47,1.15-.87,2.16-1.28,3.16l.41.22c5-4.19,10.09-4.1,15.13.08l.34-.27-1.28-3.19Zm-33.16,0A8.23,8.23,0,0,0,127.58,98a7.52,7.52,0,0,0-.16,2c5.29-4.44,10.33-4.28,15.4-.14l.31-.33-1.33-3.15ZM104.67,25.63v4.83l-2.23.19,0,.27h6.74v-.3l-2.13-.16V25.59l2.4-.25,0-.32h-7.11l0,.29ZM34.33,76.68a6.14,6.14,0,0,0-1.84,1.06,4.06,4.06,0,0,0-.92,2.2c-.06,1,.79,1.26,1.73,1.19a13,13,0,0,1,2,0c.91.05,1.63-.08,1.83-1.16A1.91,1.91,0,0,0,36,77.65C35.47,77.36,34.92,77,34.33,76.68ZM159.47,41h11.05c-1-1.25-1.8-2.09-3.35-2a23.74,23.74,0,0,1-4.13,0A3.59,3.59,0,0,0,159.47,41Zm30.12,75.76h.34V88.07h-.34Zm-75.78-.23.39,0V88.1h-.39Zm37-65v.35h28.42v-.35ZM21.62,67.79c.3-2,.08-3.53-1.6-4.51a3.07,3.07,0,0,0-3.58.19c-1.46,1.09-1.66,2.59-1.25,4.32ZM151.85,92.68c2,0,4.08,0,6.13,0,.34,0,.68-.34,1-.52-.35-.24-.69-.68-1-.69q-6-.08-12.09,0c-.37,0-.74.41-1.11.63.37.2.74.58,1.12.59C147.87,92.72,149.86,92.68,151.85,92.68Zm5.48,16.62v6.12h2.83V109.3Zm-10.8,6.17v-6.15h-2.81v6.15Zm-22.7-6.19v6.13h2.81v-6.13ZM39.12,67.77c.25-1.83.17-3.43-1.52-4.46a3.16,3.16,0,0,0-3.59.12c-1.55,1-1.63,2.6-1.39,4.34Zm18.39,36.09c-.24,3.29.42,2.47-3.26,2.8-2.47.22-1.9-1.4-2-2.79H49.89l-.26,3h10.5v-3.11ZM30.41,67.77c.27-2,0-3.68-1.83-4.6a3.09,3.09,0,0,0-3.56.44,3.71,3.71,0,0,0-1,4.16Zm30.87,5.76.51,0a12.91,12.91,0,0,0,.85-3c.12-2.48.07-5,0-7.46,0-.44-.48-.88-.74-1.32-.28.42-.8.83-.81,1.26-.07,3.15,0,6.3,0,9.45A4.7,4.7,0,0,0,61.28,73.53Zm12.11-8.16c1.87,0,3.74,0,5.62,0,.42,0,.83-.4,1.25-.62A3.69,3.69,0,0,0,79,64.24q-5.79-.06-11.58,0c-.39,0-.77.35-1.16.54.38.2.76.55,1.14.56C69.42,65.4,71.4,65.37,73.39,65.37Zm86.08-23.51c1,1.28,1.86,2.1,3.4,2a21,21,0,0,1,4,0,3.69,3.69,0,0,0,3.64-2ZM96,113a11.57,11.57,0,0,1-.29,3.07,8.6,8.6,0,0,1-1.77,2.1h5V113ZM76.68,59.27V54.6H73.45v4.67Zm84.55,27.89.08.74h17.23a2,2,0,0,0-1.49-1c-4.8,0-9.6,0-14.4,0A10,10,0,0,0,161.23,87.16Zm-84.7-1.27,0-.32h-26v.32ZM65.39,55.12v4.14h3.89V55.12ZM152.5,44.57v.3h24.94v-.3Zm-15.68,73.26c2,1,15.79.78,16.69,0ZM18.1,85.92,18,85.45c-3.11,0-6.22,0-9.32,0-.24,0-.48.43-.72.66.28.24.56.69.86.69,2.41.06,4.83.11,7.25,0A6.54,6.54,0,0,0,18.1,85.92ZM87.83,49.78H80l.14,1.66h7.65Zm43.75,0h-7.81l.19,1.69h7.62ZM55.51,117H48.86v2.78h4.43C53,118,54.12,117.46,55.51,117ZM10.7,104.8c0-1.54.06-3.09,0-4.62,0-.41-.47-.78-.72-1.17-.27.37-.74.75-.75,1.13q-.09,4.62,0,9.26c0,.37.4.73.62,1.1.3-.35.83-.69.85-1.07C10.76,107.9,10.7,106.35,10.7,104.8Zm104.41,12h7.11l.57-1.75h-7.68Zm-86.78-.63c.37-3.77-.1-4.16-3.63-3.22v3.22Zm106.31,2.16c-1.22-.85-13.3-1-14.89,0Zm-14.8-62.14v3.72l.43,0V55.92h-7.89v4l.48,0V56.21h2.64V60c2.88-.42.83-2.84,1.94-3.86ZM63.52,42.8V47h2.91C67.24,43.76,66.15,42.05,63.52,42.8ZM85.46,21.69v-.24H64.68v.24Zm75.7,54.77a31.64,31.64,0,0,0-.06-4c-.06-.46-.78-.84-1.2-1.25-.41.42-1.12.81-1.18,1.28a33.12,33.12,0,0,0-.06,4Zm-57.38-12c1-.2,2.23-.79,2.74-.42a4.4,4.4,0,0,1,1.14,2.62c.31,1.59.4,3.21.59,4.82l.31,0V62.65h-5.5Zm62.46,12a27.78,27.78,0,0,0-.06-3.9c-.08-.51-.8-.93-1.23-1.39-.41.43-1.1.82-1.16,1.3a32.85,32.85,0,0,0,0,4Zm15.19,0a32.26,32.26,0,0,0-.05-4c-.07-.49-.74-.89-1.14-1.33-.44.4-1.2.76-1.26,1.2a32.77,32.77,0,0,0-.06,4.1ZM180,93.76v-.37H159.85v.37ZM37.08,76.12V71.26H34.59c0,1.12,0,2.1,0,3.08C34.61,76.36,34.81,76.51,37.08,76.12Zm119.31,29.15.41-.23c-.43-.69-.7-1.59-1.3-2a6.23,6.23,0,0,0-7-.17c-.95.53-1.57,1.2-1.1,2.39C151.23,102.43,152.69,102.43,156.39,105.27Zm15-19.14c2.49.32,2.49.32,2.5-1.83a7.17,7.17,0,0,0-.07-2.13c-.16-.5-.76-1.16-1.18-1.18a1.67,1.67,0,0,0-1.19,1.14A31.13,31.13,0,0,0,171.35,86.13Zm5.74,23.16c0,1.87,0,3.57,0,5.26,0,1.23.62,1.16,1.12,1l2.24-6.21ZM168.74,86.2a34.52,34.52,0,0,0-.05-4.1A1.79,1.79,0,0,0,167.44,81c-.31-.06-1.06.64-1.11,1.06a40.84,40.84,0,0,0-.05,4.16Zm-45.27,7.18c1.85.88,19.62.75,20.51,0ZM48.89,99.07V103h2.84l.58-3.92Zm8-10.42V89H76.64v-.35Zm45.36-9.76c.44-1.8-.63-3.68-2.54-4.87a6.34,6.34,0,0,0-7,.2,4.81,4.81,0,0,0-2.23,5.12c1-3.29,2.56-5.47,5.83-5.48S101.29,75.94,102.26,78.89Zm21.75,3,0,.34h19.48v-.34ZM104.76,67.71h-.05a10,10,0,0,0,0,1.64,6,6,0,0,0,.49,1.22,5,5,0,0,0,1.12-.67c.7-.69,1.06-4.18.48-4.91a1.31,1.31,0,0,0-1.08-.51,1.5,1.5,0,0,0-.94.93A12.58,12.58,0,0,0,104.76,67.71Zm29-3.63c1.11-2.81,2.7-5,6-5s4.91,2.15,6.07,4.94a4.78,4.78,0,0,0-2-4.3,6.09,6.09,0,0,0-6.69-.83A5.29,5.29,0,0,0,133.79,64.08Zm-103,6.39v7.16l.42.22c.4-.5,1.1-1,1.13-1.51.14-1.92.06-3.85.06-5.87Zm28-6.35c.48-1.9-.81-4-2.94-5.11a6.45,6.45,0,0,0-7.6,1.3c-1.31,1.37-1.75,2.76-1.09,4,.83-3.1,2.48-5.19,5.83-5.16S57.84,61.24,58.79,64.12ZM38.62,69.83H33.18v6.39l.6,0L34,70.6h3.78c0,1,0,1.82,0,2.68s.11,1.53.18,2.3l.61-.06ZM18.38,83.61a2.88,2.88,0,0,0,1.14,0,3.58,3.58,0,0,0,1.63-1.17c.42-.83.75-1.84-.36-2.62-.92-.65-4.12-.67-4.88.14a2.1,2.1,0,0,0-.57,1.22C15.29,83.24,15.78,83.62,18.38,83.61Zm95-.12-.2-.48c-2.92,0-5.83,0-8.75,0-.3,0-.6.41-.91.63.29.18.57.51.85.52,2.59,0,5.19.07,7.78,0C112.51,84.19,112.92,83.74,113.33,83.49Zm-11.1-19.4c.49-1.71-.52-3.57-2.4-4.76a6.37,6.37,0,0,0-7.43.37c-1.7,1.35-2.44,3-1.89,4.65.92-3,2.48-5.21,5.72-5.25S101.29,61.06,102.23,64.09Zm22.85,24.59,0,.34h18.81v-.34Zm0,1.34,0,.36h18.83V90Zm-3.44-16.67v-.46H109.05v.46Zm-110.29,37,.44,0c.45-1.75,1.61-3.45.21-5.32-.2-.28,0-.86,0-1.3.15-1.27.37-2.54.47-3.81,0-.28-.32-.58-.5-.87-.21.31-.59.62-.61.94-.06,1.65,0,3.31,0,5S11.33,108.52,11.33,110.31ZM171.27,76.47a34,34,0,0,0-.06-4.07A1.81,1.81,0,0,0,170,71.26c-.31-.06-1.07.64-1.11,1.06a37.9,37.9,0,0,0-.06,4.15Zm5,0a38.11,38.11,0,0,0,0-4.16,1.61,1.61,0,0,0-1.15-1,1.55,1.55,0,0,0-1.18,1,39.09,39.09,0,0,0-.06,4.2Zm-12.66,7.59a5.64,5.64,0,0,0,0-2c-.21-.47-.85-.76-1.3-1.14-.36.46-1.05.94-1,1.38a28.31,28.31,0,0,0,.59,4s.21,0,.32,0C164.43,86.53,163.44,84.81,163.66,84.05ZM109.43,16h-7.17c-.09,1.56-.09,1.59,1.12,1.61,1.66,0,3.32,0,5,0C109.6,17.67,109.76,17.08,109.43,16ZM21.87,70.42c0,2.12,0,4.09,0,6.06,0,1.34.61,1.42,1.66,1V70.42Zm-8.61.08v7.12c1.59.07,1.6.07,1.62-1.29,0-1.54,0-3.09,0-4.62C15,70.49,14.5,70.1,13.26,70.5Zm62,45.69v-4.66H70.61v4.66ZM64.1,108.53l-.59-.32c-.23.4-.63.81-.64,1.22q-.09,3.72,0,7.43c0,.4.51.77.79,1.15l.43-.28ZM60.44,92l0,.36H78.21V92ZM48.92,97.75v.36H66.6v-.36Zm-29.24.44v-.37H2v.37Zm-4.6,15.06-.45,4.31h2.81v-4.31ZM54.93,88.62c-1.43.46-2.55,1.12-2.12,2.67.1.36,1,.71,1.51.67.88-.07,2.1.68,2.58-.7C57.56,89.41,55.69,89.38,54.93,88.62ZM169,37.16h-8.07C162.64,39,167.37,39,169,37.16ZM13.94,92c.59-.26,1.9.73,2-1.13a1.92,1.92,0,0,0-2-2.09,3.06,3.06,0,0,0-2.23,1.88C11.33,92.16,12.73,92,13.94,92Zm162.5-5.86c1.41.41,2.09.06,2.18-1.2a14.63,14.63,0,0,0,.2-2.78A1.84,1.84,0,0,0,177.63,81c-.3-.07-1.09.63-1.14,1A37.63,37.63,0,0,0,176.44,86.12Zm-33.12.26,0,.38h17.15v-.38Zm-1-.47V85.6H125.62v.31Zm-29.49.57c1.54,1,10.89,1,12.06,0Zm-67-22.9c-1-1.19-2.07-.76-3-.2-1.39.78-1.78,2.24-1.32,4.33,2.95.44,3.85.3,4.22-.76-1.33.15-2.75.17-2.77-1.58C43,63.47,44.51,63.61,45.89,63.58ZM5.78,113.27h0c0-1.32,0-2.64,0-4,0-.32-.4-.62-.61-.93-.22.3-.62.6-.63.9,0,2.64,0,5.27,0,7.91,0,.31.4.61.61.92.23-.3.63-.59.65-.89C5.82,115.9,5.78,114.58,5.78,113.27ZM190.51,87l0-.48H179.14V87ZM8.33,99.1l-.43,0V110.4h.43ZM173.45,66.85l2.29-.11a31.66,31.66,0,0,0-.05-3.81c-.05-.42-.72-.76-1.11-1.13-.38.38-1,.74-1.08,1.17A34.8,34.8,0,0,0,173.45,66.85Zm-12.14-.1a32.65,32.65,0,0,0-.05-3.85,1.62,1.62,0,0,0-1.15-1c-.3,0-1,.58-1.05,1-.13,1.29-.05,2.6-.05,3.93Zm-9.6,0a32,32,0,0,0-.05-3.8c0-.43-.71-.78-1.08-1.17-.4.38-1.07.72-1.13,1.15a31.48,31.48,0,0,0,0,3.77c.52.07.84.13,1.16.14A9.71,9.71,0,0,0,151.71,66.76Zm-83.56-17,0,.41H79.27v-.41Zm88.38,17.05a36.36,36.36,0,0,0-.05-3.94c0-.38-.72-1-1-1-.45.07-1.13.61-1.17,1a33.91,33.91,0,0,0-.06,3.91Zm9.61,0a29.8,29.8,0,0,0-.06-3.83c-.05-.43-.71-.78-1.1-1.16-.38.39-1,.74-1.08,1.17a32.12,32.12,0,0,0-.06,3.82Zm4.79,0a31.66,31.66,0,0,0-.05-3.81c0-.43-.71-1.1-1.07-1.09a1.6,1.6,0,0,0-1.14,1.06,32.48,32.48,0,0,0,0,3.84ZM65.39,35.51c1-.21,2.3-.23,2.38-.56a6,6,0,0,0-.07-3.2c-.15-.51-1.18-.74-1.81-1.09l-.5.35ZM180.55,66.77a32.36,32.36,0,0,0-.06-3.83c-.05-.42-.72-1.08-1.09-1.07A1.58,1.58,0,0,0,178.28,63a32.17,32.17,0,0,0-.05,3.82Zm-27.42,52.92v-.37H137v.37Zm-99.06-8.31v4.78H58.7v-4.59a3.21,3.21,0,0,0-.69-.18ZM80.93,40.14c-1.58-1.22-10.47-1.11-11.38,0ZM64.51,70c.38,1.13.7,2.18,1.09,3.2a.73.73,0,0,0,.66.27.79.79,0,0,0,.38-.62c0-1.46,0-2.92,0-4.52a11.16,11.16,0,0,0-1.88,0,7.28,7.28,0,0,0-1.46.58Zm47.72-24.3c-1.79-.84-.66-2.31-1-3.63l2.41.12.2,2.46.39,0V42h-7.35v1.8l.23,0,.37-1.8c.72.07,1.86,0,1.93.21a21.83,21.83,0,0,1,.47,3.46Zm-10.33,0c.13-3.94.13-3.94,2.44-3.39l.27,1.53.21,0V42H97.29l.2,2.59.42,0,.15-2.38h2.61c-.72,1.21.76,2.83-1.15,3.51ZM17.32,119.86l.43-.5c-.36-.35-.7-1-1.08-1a33.77,33.77,0,0,0-4.61,0c-.32,0-.6.53-.9.81.3.23.59.65.9.66C13.81,119.89,15.56,119.86,17.32,119.86Zm136.3-44.54,2.45.9a29,29,0,0,0,0-3.72c-.07-.48-.74-.88-1.14-1.32-.42.41-1.11.77-1.2,1.25A14,14,0,0,0,153.62,75.32ZM122.3,48.37c-1.34-.11-1.57.19-1.43,1.18.35,2.43.57,4.87.85,7.34C122.53,56.86,122.86,54.08,122.3,48.37Zm-42.48,15c-.73-.75-13.33-1-15.37,0ZM90,57.16c.3-2.76.58-5.15.82-7.55a2.39,2.39,0,0,0-.17-1.22.9.9,0,0,0-.88-.1,1.44,1.44,0,0,0-.42,1c0,2.26,0,4.52,0,6.78C89.37,56.42,89.77,56.8,90,57.16Zm85.09,31.93v-.36H159.9v.36ZM157.31,105.9l.44,0V98.93l2.08.1v7l.35,0V98h-2.87ZM123.82,98v8h.37V99h2.12v6.91l.34,0V98Zm55.82,7.94.31,0V98h-2.71v7.87h.38V99h2Zm-44.52,13.79c-2.67-.91-14-.66-14.83,0Zm8.56-13.82.41,0V99h2.08v6.77l.35,0V98h-2.84ZM127.66,49a17.6,17.6,0,0,0,2.3,0c.31,0,.58-.44.87-.67-.26-.22-.51-.61-.77-.62-1.53-.06-3.07-.06-4.61,0-.26,0-.52.39-.77.6.28.24.53.65.84.69A13.88,13.88,0,0,0,127.66,49Zm-54-6.17v3.28h3V42.83ZM83.9,49a16.29,16.29,0,0,0,2.32,0c.31,0,.56-.46.85-.71-.26-.21-.52-.58-.78-.59-1.55-.06-3.1-.06-4.64,0-.26,0-.51.41-.77.63.29.23.56.62.88.67A15.27,15.27,0,0,0,83.9,49Zm.19,12.11h0c-.93,0-1.87-.06-2.8,0-.32,0-.6.43-.9.65.28.26.55.72.84.73,1.81.07,3.63.07,5.44,0,.3,0,.59-.42.89-.65-.33-.26-.64-.69-1-.74A18.47,18.47,0,0,0,84.09,61.12Zm43.79,0a26.53,26.53,0,0,0-2.82,0c-.32,0-.6.43-.9.66.28.25.55.7.84.71,1.82.07,3.65.07,5.47,0,.31,0,.6-.43.89-.66-.33-.25-.64-.68-1-.72A18.61,18.61,0,0,0,127.88,61.12ZM106,53.42a26,26,0,0,0,2.65,0c.31,0,.58-.43.87-.67-.25-.2-.5-.57-.77-.58-1.87,0-3.75-.06-5.62,0-.28,0-.54.37-.82.57.3.24.57.66.88.69C104.07,53.48,105,53.42,106,53.42Zm-10.56,0h0a23.2,23.2,0,0,0,2.64,0c.37,0,.69-.45,1-.69-.32-.21-.64-.57-1-.58-1.76-.06-3.53-.06-5.29,0-.32,0-.62.39-.93.6.29.23.57.63.88.67A25.8,25.8,0,0,0,95.39,53.43ZM79.13,51.28H69C70.52,52.5,78.17,52.3,79.13,51.28ZM159.88,90v.37h14.27V90Zm-1,3.85v-.32H145v.32Zm31.22-8.28c.31-1.69-.66-3.32-2.44-4.34a5.63,5.63,0,0,0-6.35.5,3.91,3.91,0,0,0-1.64,4.07c.82-3,2.45-4.82,5.5-4.66C187.87,81.27,189.29,83.07,190.07,85.56ZM161,36.23h7.85C167.44,34.31,162.53,34.35,161,36.23Zm-43.33,54,1.16-1.9,1.53,2a1.48,1.48,0,0,1,.09-.77,8.37,8.37,0,0,1,1-1.27,7.25,7.25,0,0,1,1,1.26,3.8,3.8,0,0,1,.15,1.24l.28-.06V87.92h-7.71v2.22l1.2-1.78Zm6.65-4.75a4.61,4.61,0,0,0-2.66-4.31,5.4,5.4,0,0,0-6.08.43,4,4,0,0,0-1.8,4.3c.72-3,2.34-4.78,5.2-4.79S123.38,83,124.34,85.49Zm-8.09-33.38c-.93,0-1.87,0-2.79,0-.26,0-.5.39-.74.61.24.22.47.64.72.65,1.86.06,3.72.07,5.58,0,.29,0,.55-.46.83-.71-.27-.2-.53-.54-.81-.56C118.11,52.06,117.18,52.11,116.25,52.11Zm65.19,66.23c-3.67-1-9.09-1-10.3,0ZM73.9,31v3.38h2.37V31Zm107,59.28c.34-.54.71-1.79,1.25-1.86,1.7-.23.68,1.68,1.2,2.22.46-.8.9-1.56,1.35-2.32l1.45,2.09a2.27,2.27,0,0,1,.13-1,5.11,5.11,0,0,1,1-1.1,5,5,0,0,1,1,1.08,4.76,4.76,0,0,1,.21,1.43l.23,0V87.94h-7.8ZM133.11,65v.39h13.44V65Zm-16.84-3.09h0c.88,0,1.76,0,2.63,0,.25,0,.47-.32.71-.49-.22-.25-.43-.71-.66-.72-1.76-.06-3.52-.07-5.28,0-.24,0-.47.45-.7.69.27.18.53.51.82.54C114.61,61.92,115.44,61.87,116.27,61.87ZM89.63,79.72c2,1,12.64.75,13.58,0Zm7.2-23.51H98.7l.41,1.94.39-.08V55.91H91.43v3.36l.4,0,.3-3.09h2.38c0,.31.07.53.11.74s.12.51.3,1.3ZM46.2,64.91v.4H59.63v-.4Zm57.28.46c-1.73-.91-13-.8-13.92,0Zm19-19.64c-2.12-.36-2.24-.69-1.68-3.5h2.16l.25,1.92.35,0V42h-5.6c1.62,0,1.18,1.19,1.13,2-.08,1.33.31,2,1.74,1.77A13.67,13.67,0,0,1,122.43,45.73ZM79.7,28.17l-.15-.62c-2.74,0-5.48,0-8.22,0-.24,0-.47.31-.71.48.28.19.55.53.83.53,2.43,0,4.85.05,7.28,0A2.73,2.73,0,0,0,79.7,28.17ZM93.36,42H88l.23,2.21.34,0,.23-2h2.41c-.44,1.26.91,2.88-1,3.5,2.94.27,2.45-.18,2.47-2.35C92.71,42.84,93.16,42.35,93.36,42Zm30.28-19.58h-2.75v2.69h2.75Zm-57,39.18v.38H79.56v-.38Zm-.83-1.4v.58c4.29,0,8.59,0,12.89,0v-.57ZM81.51,38.43V38H68.7v.39Zm21.17,22.16-.23.52c.28.25.56.7.85.72,1.76.06,3.52,0,5.29,0,.2,0,.39-.39.59-.6-.26-.21-.51-.61-.76-.62C106.5,60.56,104.59,60.59,102.68,60.59ZM20.76,54.41l.33,1.65h4.42L26,54.41ZM82.55,35.08c.54-.37,1-.93,1.48-1,1.28-.13,1.27-.77.92-1.7-.19-.49-.34-1-.5-1.47C82.33,30.92,81.69,32.42,82.55,35.08ZM37.39,54.38,38,56.09h4.33l.45-1.71Zm-3,.09H29.08l.49,1.6H33.9ZM79.86,23.94v-.31H70.35v.31ZM59,56.09l.4-1.65H54.2l.48,1.65ZM53.18,112.9c-2.18-.48-2.64.42-1.72,3.33l1.72-.1Zm59-58.52c1.33,1.2,7.72,1,8.29-.22A49.59,49.59,0,0,0,112.16,54.38Zm-10.46-.27a3.65,3.65,0,0,0,.24.84q3.84.12,7.68.16c.12,0,.37-.35.33-.45s-.3-.53-.47-.53C106.93,54.1,104.38,54.11,101.7,54.11ZM51,54.42H45.81l.46,1.64h4.42Zm40.36-.34-.23.75c.19.09.39.26.59.26,2.41,0,4.83,0,7.24,0,.2,0,.4-.37.59-.57-.25-.15-.5-.42-.76-.43-1.21,0-2.42,0-3.63,0Zm-73.84.33H12.41l.28,1.65h4.45ZM68.9,36.73c-1.34-1-7.18-1-8.35,0ZM67.36,47l2.36-1V43.41H67.36Zm88.9,70.91c1.62,1.73,3.38,1.92,5.59,1.12A5.27,5.27,0,0,0,156.26,117.87ZM56.11,118a13,13,0,0,0,2.66,1.37,12.91,12.91,0,0,0,2.92.05v-.58C60.14,117.38,58.36,117.26,56.11,118ZM80.84,35.68v-.31H69.39v.31Zm30.63,83.43c2.31.43,4.15.66,5.61-1.26A5.25,5.25,0,0,0,111.47,119.11Zm-5.42-68.89c-.77,0-1.55,0-2.32,0a.93.93,0,0,0-.65.53c0,.19.28.66.46.66,1.54.06,3.09,0,4.63,0,.19,0,.37-.42.56-.65-.23-.19-.45-.5-.7-.53A16.32,16.32,0,0,0,106.05,50.22ZM80.34,22.51c.42.59.59,1,.77,1q3.28.07,6.59,0c.16,0,.31-.34.47-.53-.22-.18-.44-.51-.67-.51C85.26,22.5,83,22.51,80.34,22.51ZM97.45,41.07h7.66C104.1,40.08,98.65,40,97.45,41.07Zm17.15,0c-1.33-1.14-7-1.09-7.87,0ZM95.33,51.47h0c.77,0,1.55,0,2.31,0,.23,0,.59-.36.59-.57s-.34-.6-.55-.6c-1.49-.06-3-.06-4.47,0-.22,0-.42.38-.63.58.25.21.48.57.76.61A14.64,14.64,0,0,0,95.33,51.47ZM69.64,23l-.22-.5c-2.24,0-4.48,0-6.71,0-.23,0-.45.32-.68.5.26.2.52.57.79.57,2,.05,3.95.05,5.93,0C69.05,23.6,69.34,23.23,69.64,23ZM116.2,51.47v0c.77,0,1.55,0,2.31,0a.86.86,0,0,0,.58-.58.81.81,0,0,0-.55-.6c-1.48,0-3,0-4.46,0-.21,0-.41.37-.62.58.25.21.48.56.76.6A14.52,14.52,0,0,0,116.2,51.47Zm-16,4.17h.56c.39-1.38.79-2.77,1.17-4.16.08-.32.24-.81.1-.95a1.52,1.52,0,0,0-1.11-.46,1,1,0,0,0-.68.77C100.17,52.43,100.2,54,100.2,55.64ZM80.06,48.75v-.37H69.59v.37Zm22.31-22.43v3.6l1.54-.06C104.53,26.57,104.27,26,102.37,26.32Zm-21.92.37v-.35H69.75v.35ZM67.82,112.74v3.37h1.84v-3.37Zm-52.93-9.45c0-1.3.06-2.4-.05-3.48,0-.3-.55-.69-.91-.77-.2,0-.73.46-.75.75-.09,1.13,0,2.28,0,3.5Zm94.51-77c-1.93-.23-2.23.49-1.52,3.64l1.52-.09Zm62.14,93v.38h10.61v-.38ZM19.84,107.15c-.77.51-1.51.74-1.56,1.07a12.45,12.45,0,0,0,0,3.11c0,.24.55.57.87.62s.65-.41.67-.65C19.88,110.11,19.84,108.91,19.84,107.15Zm103.45-.27c-.43,1.35,0,1.85,1.19,1.73a17.88,17.88,0,0,0,2-.07c.35-.07.62-.53.92-.82-.3-.28-.58-.77-.91-.81C125.42,106.81,124.38,106.88,123.29,106.88Zm69,8.55h0a14.68,14.68,0,0,0,0-2.3c-.06-.35-.51-.63-.79-.93-.23.29-.67.59-.66.87.06,1.59.21,3.17.39,4.74,0,.23.38.42.58.63.17-.23.46-.46.48-.71C192.3,117,192.26,116.19,192.26,115.43Zm-49.13-8.49c-.13,1.81.58,2,3.94,1.44v-1.44Zm17.66,0h-4.35c.26.64.4,1.44.62,1.47a33.43,33.43,0,0,0,3.63.06C160.73,108,160.75,107.55,160.79,107ZM113.94,82.24V81.9H103.63v.34ZM58.55,59.76l-.24.54a5.45,5.45,0,0,0,1.62.84,12,12,0,0,0,2.94,0c.34,0,.65-.45,1-.7-.35-.23-.69-.64-1.05-.66C61.39,59.71,60,59.76,58.55,59.76Zm61.1-21.7.06-.26c.72,0,1.44.05,2.15,0,.21,0,.39-.39.59-.6-.19-.16-.37-.44-.57-.45a9.58,9.58,0,0,0-2.14,0,25.57,25.57,0,0,0-2.59.6ZM68.88,47v.33H79.11V47Zm32.4-9.22a11,11,0,0,0,1.82,0c.28,0,.51-.39.76-.6-.24-.16-.48-.46-.73-.47-1.26,0-2.54-.06-3.8,0-.27,0-.51.39-.77.61.25.16.48.44.73.47A18.87,18.87,0,0,0,101.28,37.82Zm9.07.27.1-.28a18.66,18.66,0,0,0,2,0c.26,0,.49-.31.73-.47-.25-.21-.49-.56-.77-.6a7.72,7.72,0,0,0-2,0c-.86.1-1.7.32-2.55.48ZM91.87,36.71v0a10.91,10.91,0,0,0-1.81,0c-.29,0-.53.39-.79.6.24.17.47.48.72.49,1.26.05,2.54.05,3.8,0,.27,0,.52-.38.78-.58a2.73,2.73,0,0,0-.88-.48A13.8,13.8,0,0,0,91.87,36.71ZM68.23,48.41c-1-.84-8.78-.94-10.38,0Zm1.82-11.79,0,.36H80.21v-.36ZM41,75.49h2V72.73H41ZM84.57,72.7c-.48,2.91-.28,3.17,1.94,2.7V72.7ZM130,72.63l-2,.09c-.33,3.06-.2,3.21,2,2.65Zm46.57,34.31c-.06,1.82.68,2.06,4,1.44v-1.44ZM111.09,55.6h.44c0-1.6.06-3.2-.06-4.79,0-.28-.76-.71-1.16-.7s-.84.73-.77,1C110,52.63,110.56,54.11,111.09,55.6Zm-.68-16v0c.88,0,1.77,0,2.64,0,.28,0,.53-.38.79-.58-.22-.18-.44-.51-.66-.52q-2.64-.06-5.28,0c-.24,0-.47.32-.71.49.25.22.48.59.75.62C108.76,39.68,109.59,39.63,110.41,39.63Zm-9.24,0c.88,0,1.76,0,2.64,0,.24,0,.47-.31.71-.48-.24-.22-.48-.62-.72-.63-1.76-.05-3.52,0-5.27,0-.22,0-.43.36-.64.55.22.19.42.52.65.54C99.42,39.65,100.3,39.62,101.17,39.62Zm89.28,78.64,0-.49c-2.2-.12-4.4-.51-6.55.49ZM94.9,41.09C93.36,40,89,40,88,41.09Zm28.67.14.05-.8a16.46,16.46,0,0,0-6.43.36A22.47,22.47,0,0,0,123.57,41.23ZM108.21,75.54V72.76h-2v2.78ZM62.83,72.71c-.46,3-.23,3.26,2,2.65V72.71Zm88.9,0h-2v2.8h2ZM56.45,58.39c1.17,1,5,1.1,6.56,0ZM43.38,71.26,44,73.47h1.9V71.26ZM18.23,116.42c.7-.28,1.49-.44,1.5-.64a21.76,21.76,0,0,0-.15-3c-.45.2-1.23.32-1.29.6A17,17,0,0,0,18.23,116.42ZM61,116a19,19,0,0,0,0-2.52c0-.3-.47-.55-.73-.83-.26.26-.68.48-.75.79a9.74,9.74,0,0,0,0,1.63C59.32,116.19,59.83,116.42,61,116ZM161.88,33.28c1.19,1.47,5.25,1.41,6.06,0Zm6.13-.82c-1-1.4-4.94-1.42-6.11,0Zm-88.32-.92v2.87h1.85V31.64Zm40.51,6.93h0c-.78,0-1.55,0-2.32,0-.24,0-.46.33-.69.51.21.2.41.56.63.57,1.54.05,3.09.05,4.64,0,.23,0,.45-.34.68-.52-.26-.2-.51-.54-.79-.58A19.26,19.26,0,0,0,120.2,38.47Zm-28.61,0h0c-.77,0-1.54,0-2.3,0-.24,0-.46.32-.7.5.19.21.38.6.58.6,1.58.05,3.17.06,4.76,0,.21,0,.41-.37.62-.57-.22-.19-.43-.51-.66-.53C93.13,38.43,92.36,38.47,91.59,38.47Zm101.58,73V109.4H190.9v2.06ZM70.4,34.47c.5-2.87.34-3.11-1.69-2.7v2.7ZM103.09,72.1l3-.22,0-.48-2.15-.34V66.33h-.37ZM80.59,24.51l0,.54c2.18-.1,4.4.42,6.56-.13l0-.41Zm86.57,26.4.43-.42a14.3,14.3,0,0,0-.06-2.62c-.05-.28-.73-.46-1.13-.68a18.23,18.23,0,0,0-.35,2.83C166.06,50.33,166.77,50.61,167.16,50.91Zm-13.87,6.53c1.46.23,2.08-.89,1.54-2.64-.09-.3-.47-.51-.72-.76-.27.28-.75.53-.78.83A20,20,0,0,0,153.29,57.44Zm10.9,0c1.46.2,2.08-.94,1.54-2.67-.09-.3-.48-.5-.73-.74-.27.28-.73.53-.77.84A20,20,0,0,0,164.19,57.46Zm-3.63,0c1.49.21,2.08-.88,1.54-2.66-.09-.29-.47-.5-.72-.75-.27.28-.74.53-.78.84A20.1,20.1,0,0,0,160.56,57.45Zm-3.63,0,.39.41c.4-.27,1.12-.54,1.13-.83a16.94,16.94,0,0,0-.33-2.82c-.39.2-1.08.36-1.13.63A15.13,15.13,0,0,0,156.93,57.42Zm-.25-8.31.3-.17-1.09-1.86c-.27.68-.57,1.34-.79,2a1.4,1.4,0,0,0,0,1,1.14,1.14,0,0,0,.77.6,1.1,1.1,0,0,0,.74-.61A2.4,2.4,0,0,0,156.68,49.11Zm3.25,1.78.38-.43a13.32,13.32,0,0,0-.05-2.45c-.07-.35-.67-.59-1-.87a18.52,18.52,0,0,0-.44,2.93C158.78,50.34,159.53,50.62,159.93,50.89Zm4-1.84H164a5.66,5.66,0,0,0-.09-1.31,1.12,1.12,0,0,0-.65-.61c-.19-.06-.67.15-.68.27a26.18,26.18,0,0,0,0,3.07c0,.09.57.25.86.22a.75.75,0,0,0,.52-.49A4.91,4.91,0,0,0,163.94,49.05Zm7.29,2a19.91,19.91,0,0,0,0-3.1c-.06-.32-.71-.53-1.08-.79a20.19,20.19,0,0,0-.41,3C169.69,50.37,170.47,50.62,171.23,51.05Zm3.26-.15.38-.42a14.79,14.79,0,0,0-.05-2.58c-.06-.3-.72-.5-1.11-.74a19.79,19.79,0,0,0-.39,2.93C173.32,50.36,174.08,50.63,174.49,50.9ZM11.1,89.73c-.44-.77-.87-2.06-1.21-2-1.39.1-.46,1.35-.72,2.06a.22.22,0,0,0,0,.16c.24.7-.61,2,.8,2C10.31,91.89,10.65,90.64,11.1,89.73ZM70.9,24.91v.31H79.3v-.31ZM50,2.44C49.2,1.75,48.68,1,48.29,1.09A2,2,0,0,0,46.9,2.3c-.09.31.67,1.23,1.1,1.26S49.09,3,50,2.44ZM91.58,66.31v3h1.58V66.22Zm45.4,3c-.26-1.2-.44-2.16-.72-3.09a2.07,2.07,0,0,0-1,.1c-.18,1-.26,2-.37,3Zm-83.28,0v-3H52.09v3Zm43.5,0v-3H95.56v3Zm2.33,11.71v3h1.63v-3ZM48.13,66.29v3.15l1.6-.09V66.29Zm51.38,3c1.93.17,2.08-.13,1.57-3H99.51ZM139,66.22v3.22l1.64-.11v-3Zm-43.5,18,1.67-.08v-3H95.53Zm-4-3.11v3h1.6v-3ZM56.11,66.31v3.12l1.61-.08v-3ZM63,24.48v.45h6.45v-.45ZM144.65,66c-.72.28-1.56.39-1.62.66a14.15,14.15,0,0,0-.07,2.79l1.69-.15Zm47,53.68v-.38h-7.84v.38Zm-28-2c1.49,1,4.71,1.12,6,.26a3.07,3.07,0,0,0-.81-.25C167.14,117.67,165.51,117.68,163.64,117.68ZM16.25,99l-.55,0v4.4l2.28-.33-.05-.4-1.36-.24Zm78.28,11.32h4.9C97,108.93,96.27,108.87,94.53,110.34Zm-74.86-3.56c.46-2.88.32-3.16-1.34-2.74v2.81Zm81.8-32.53a3,3,0,0,0,3.56,1.3.9.9,0,0,0,.4-.73.86.86,0,0,0-.63-.54C103.73,74.22,102.65,74.25,101.47,74.25ZM63.35,52.06c1.94.91,4.42.76,5.06,0ZM39.63,70.36v5.19h.48c.06-.6.08-1.21.18-1.81s.28-1.2.4-1.8c.09-.45.34-1,.16-1.33S40,70.43,39.63,70.36ZM19.88,117.09c-1.53-.55-1.77.17-1.66,1.22.06.61-.34,1.74.82,1.49C20.7,119.44,19.47,118,19.88,117.09ZM148.25,90.58v-2.8c-1.76-.55-1.53.6-1.59,1.59C146.6,90.52,147,91.05,148.25,90.58Zm3-2.86c-.43,2.87-.3,3.1,1.42,2.78V87.72ZM104,31.9l-.23.51c.78.4,1.55,1.09,2.32,1.1.6,0,1.21-.85,1.81-1.33l-.26-.28ZM173,58a20.42,20.42,0,0,0-.05-3.15c-.06-.29-.72-.47-1.11-.71a21.73,21.73,0,0,0-.33,3C171.54,57.36,172.27,57.58,173,58ZM64.08,53.51c1.45,1.26,4.59,1.16,5.34,0ZM91.24,74.24H88.57a1.55,1.55,0,0,0-.65,0,1.35,1.35,0,0,0-.63.57.79.79,0,0,0,.27.67C88.39,76.13,90.52,75.45,91.24,74.24ZM54.82,106.17l.1-.23a2.08,2.08,0,0,0,.66,0c.4-.14.79-.34,1.19-.52-.4-.23-.79-.49-1.21-.68a1.07,1.07,0,0,0-.64,0c-.66.19-1.3.42-1.94.63ZM40.52,81.54,42,80.29c-.51-.42-1-1.11-1.54-1.17s-.91.72-1.37,1.12Zm-12.59-.05,1.57-1.14c-.48-.44-1-1.23-1.45-1.23s-1,.78-1.46,1.22Zm98.73-16.76c-.88,1-.93,6,0,7.37Zm-46,34.67c.31-2.37.21-2.48-1.5-2.05V99.4Zm25-91.46H106V.77h-.38ZM90.12,97.16v2.45c.66-.22,1.4-.26,1.52-.56a5.35,5.35,0,0,0,.07-1.89Zm-7.77-25.3h.54a28.11,28.11,0,0,0-.08-7h-.46Zm94.53-16c-.25-.6-.49-1.22-.79-1.81,0,0-.79.18-.8.3a24.2,24.2,0,0,0,.05,3.07c0,.07.79.23.86.13A10.76,10.76,0,0,0,176.88,55.91Zm-9,0h0a2.35,2.35,0,0,0,0,1c.15.31.51.52.78.78.25-.44.73-.89.71-1.32a11.51,11.51,0,0,0-.61-2.3c-.3.25-.71.44-.86.75A2.83,2.83,0,0,0,167.85,55.93Zm8.42,40.64V97H181v-.45Zm-1.37-5.8c1.45-.29,2.55-.49,3.63-.75a.73.73,0,0,0,.33-.61,1.13,1.13,0,0,0-.67-.53C176.89,88.67,175.76,88.9,174.9,90.77ZM60.41,66.46h-.33c-.08,1.13-.12,2.26-.25,3.39s-.35,2-.44,3c0,.22.32.47.5.7.17-.23.49-.46.5-.69C60.43,70.72,60.41,68.59,60.41,66.46Zm87,30.57,0-.45h-4.68V97ZM85.1,69.92c.94-1.53.88-4.23,0-5.19ZM127.52,97l0-.46h-4.71V97ZM170,92.56h0a3,3,0,0,0,1.13,0c.26-.11.38-.53.56-.81a6.46,6.46,0,0,0-1.7-.47,6.67,6.67,0,0,0-1.7.48c.18.28.32.68.58.79A3,3,0,0,0,170,92.56ZM69.25,103.33c.91-.31,1.68-.34,1.85-.68A2.43,2.43,0,0,0,71,101c-.06-.17-1.08-.22-1.12-.12A17.5,17.5,0,0,0,69.25,103.33ZM161.52,97c-1.72-.91-4.32-.84-5.27,0Zm24.53,19.86h2.66v-1.78C187,114.47,186.61,115.56,186.05,116.87Zm-143.2-2.49a2.43,2.43,0,0,0,0,.81,6.16,6.16,0,0,0,.54,1,4.07,4.07,0,0,0,.62-1.08,4.26,4.26,0,0,0,0-1.63c-.05-.28-.39-.51-.6-.77a4.85,4.85,0,0,0-.55.84A2.48,2.48,0,0,0,42.85,114.38ZM163.72,92.56v0a2.18,2.18,0,0,0,.81,0,5.5,5.5,0,0,0,.92-.62c-.28-.24-.53-.63-.84-.69a5.07,5.07,0,0,0-1.78,0c-.28,0-.52.39-.77.6.23.23.42.56.7.68A2.56,2.56,0,0,0,163.72,92.56ZM62.56,45.6c-.19-.59-.26-1.39-.48-1.43a6.41,6.41,0,0,0-2.43,0c-.21,0-.24.87-.37,1.4Zm40.36,53.77a13.53,13.53,0,0,0-.57-2.18,1.52,1.52,0,0,0-1,0,15.88,15.88,0,0,0-.43,2.18Zm-89,11.79c.48,1.21,2.71,1.92,3.42,1.26a.79.79,0,0,0,.19-.72.94.94,0,0,0-.66-.51C15.94,111.13,15,111.16,13.91,111.16ZM54.46,103a13.87,13.87,0,0,0-.49-2.15,1.43,1.43,0,0,0-1,0,14.7,14.7,0,0,0-.49,2.16Zm-36.71,2.68c-1-1.16-1.91-.46-2.05.11a6.41,6.41,0,0,0,.21,3c.05.23,1,.25,1.55.36l.1-.58L16,108.16v-2.07Zm137-17.94c-1.73-.43-1.31.81-1.37,1.64s.09,1.68,1.37,1.2ZM144.89,106h.37V99.7h-.37Zm-6.33-14.75-.36.47c.32.29.63.81,1,.82a16.65,16.65,0,0,0,2.51-.29c-.22-.33-.39-.91-.66-1A15.23,15.23,0,0,0,138.56,91.23ZM62.84,54.18l-.43.5,2,2.36-1,1.93c.36,0,1.05,0,1.05,0a13.66,13.66,0,0,0,.07-3.55C64.4,54.92,63.42,54.59,62.84,54.18ZM176.37,90.93l-1.8.89c.5.25,1,.72,1.5.7a6.51,6.51,0,0,0,1.87-.65ZM125,106l.39,0v-6.3H125Zm-95.8,10.28,2.09-.12c-2.26-1.5-1.54-3-.65-4.69l-1.44.12Zm21.26-.08v-4.59H49.25a10.61,10.61,0,0,1,.46,2.37,9.27,9.27,0,0,1-.62,2.22Zm83.35-23.67.14.29,1.57-.92a13.3,13.3,0,0,0-1.68-.66,2.13,2.13,0,0,0-1.12,0c-.24.07-.55.39-.55.59a.87.87,0,0,0,.51.65A3.85,3.85,0,0,0,133.76,92.54Zm-6.25-1.61-1.7.88a4.87,4.87,0,0,0,1.66.71,4.93,4.93,0,0,0,1.72-.65Zm31,15.07.32,0V99.73h-.32Zm19.82,0,.37,0V99.72h-.37ZM64.67,33.88c-.34-.7-.46-1.37-.78-1.49a2.48,2.48,0,0,0-1.74.08c-.25.12-.2.88-.3,1.41ZM42,116.3c.6-3.78.34-4.79-1.12-4.66a3.12,3.12,0,0,1-.84,4.57ZM155.55,87.59v3.2c.54-.12,1.34-.16,1.36-.31a8.92,8.92,0,0,0,0-2.58C156.9,87.75,156.1,87.71,155.55,87.59ZM37.39,101c-1.78-.44-2-.16-1.43,2.08l1.43-.08Zm63.3-11.36a14.71,14.71,0,0,0,.87,2.08c0,.08,1-.12,1.06-.33a6.28,6.28,0,0,0,0-1.75Zm50.05-.42-1-1.57c-.27.48-.74,1-.73,1.44a4.8,4.8,0,0,0,.69,1.64Zm-58.57.44c-1.42-.06-2.23-.35-2.21.94,0,.79.28,1.47,1.06,1.1C91.51,91.47,91.69,90.58,92.17,89.66ZM84.19,35l-.3,0v5.68h.3Zm62.14,54.12-.84-1.49a4.34,4.34,0,0,0-.69,1.51,4.55,4.55,0,0,0,.62,1.57ZM51,53.62v-.26H45.87v.26ZM71.4,93c-.93.29-1.65.29-1.86.62a1.9,1.9,0,0,0,.1,1.52c.09.2,1.07.27,1.12.16A13.59,13.59,0,0,0,71.4,93ZM38.72,69l0-.24H33.05l0,.24ZM127.6,40.68l.3,0V35h-.3ZM56.08,50.39c1,1,3.55,1.32,4.06.89a.64.64,0,0,0,.17-.55.63.63,0,0,0-.46-.33C58.73,50.37,57.62,50.39,56.08,50.39Zm-18.53,2.9v.33h5.21v-.33Zm21.81.35,0-.33H54.2v.33Zm-33.46,0,0-.33H20.67v.33ZM21.2,69l0-.28H15.5V69ZM17.5,53.65l0-.45a9.73,9.73,0,0,0-5.06.45ZM159.31,89.17l-.82-1.51c-.24.5-.68,1-.69,1.49a4.56,4.56,0,0,0,.61,1.58ZM29.16,53.29v.24h5.14v-.24Zm57-19,2.22-1.27a4,4,0,0,0-1.19-.72C86.1,32.15,85.52,32.54,86.11,34.33ZM29,103.16l-.12-2.54c-.67.22-1.36.25-1.53.56a1.77,1.77,0,0,0,0,1.54C27.55,103,28.26,103,29,103.16Zm76.75-59.63H106V38.6h-.25ZM24.33,68.67l0,.26H30v-.26ZM63,39.49a2.59,2.59,0,0,0-3.95,0Zm.21,10.63,0-.65H59.28v.21Zm3.17,61.42v5C67.37,115,67.26,112.21,66.35,111.54ZM80.69,91.66V89.6l-1.59.08v2ZM9.62,118.11l-1.95.77c.25.32.45.86.77.94C9.34,120.05,9.93,119.7,9.62,118.11ZM128.89,69.58h.4V64.81l-.4,0ZM66.73,66.67c-1,0-2,0-2.86,0-.17,0-.5.62-.42.76C63.8,68.11,66.19,67.69,66.73,66.67Zm53-36.43h.17V26h-.17Zm-18.55,0,.23,0V26h-.23ZM17.76,102l.91-2.84C17,99,16.72,99.64,17.76,102ZM70.07,42.49c-1.41-1.27-3-1.16-3.53,0ZM145.6,69.37H146v-3h-.38ZM45.75,65.21c-.51-.4-1-.94-1.13-.86a4.41,4.41,0,0,0-1,1.05,4.43,4.43,0,0,0,1.15.91C44.9,66.36,45.3,65.73,45.75,65.21Zm46.09-35,.24,0V26h-.24ZM50.26,28.15v-.3H46v.3Zm52.33,38.14h-.45v3.07h.45Zm-.48,17.83h.44V81.06h-.44Zm9.75,15.25.94.21c.09-.73.2-1.46.23-2.19,0-.09-.43-.2-.66-.31Zm26.17-33-.45,0v3H138Zm-27.36-40.2h-.2v4h.2Zm30.9,43.22H142v-3h-.45Zm-43,11.72h-.45v3h.45ZM90.17,69.37h.39V66.32h-.39ZM90.1,84.08h.7l-.13-3-.57,0Zm4-14.72h.44v-3h-.44Zm0,14.74h.45v-3h-.45ZM54.68,69.37h.43V66.32h-.43Zm60.44-11.44-.89-1.14c-.25.38-.66.75-.7,1.15s.41.69.64,1Zm-64,8.37h-.39v3h.39Zm82.9,0-.43,0v3H134Zm-86.88,0h-.46v3.08h.46Zm12,0-.44,0v3h.44Zm105.92,53v.29h4.37l0-.29Zm-66.47-53-.45,0v3h.45Zm-10-38.44V27H85.89c0,.31,0,.87,0,.87C86.79,27.87,87.67,27.87,88.55,27.87ZM104.63,58l.44-.86c-.45-.13-1-.46-1.33-.32s-.56.74-.6,1.17.34.63.54.95ZM61.86,27l-.28.5a4.6,4.6,0,0,0,1.29.41,10,10,0,0,0,1.77-.31l-.11-.6Zm57.61,30.92-1.11-1.13c-.2.31-.59.64-.56.93a4.1,4.1,0,0,0,.59,1.26Zm7.86,58.9,0-.36h-4.18l0,.36Zm19.87,0v-.4H143v.4Zm9.52-.43v.36h4.1v-.36Zm-69-79.71,0-.43H85v.43ZM59.06,46.5v.4h3.72v-.4ZM15.33,110.21l0-.51H12.65v.51ZM21.4,78.63l0,.48h2.7v-.48Zm-8.76-.13.07.87c.69,0,1.37,0,2,0,.21,0,.42-.25.56-.44s-.09-.39-.16-.39C14.32,78.49,13.48,78.5,12.64,78.5Zm2.68,26.38c-1.17-1.12-2.05-1-2.66,0ZM62.87,43.25v-.33H59v.33ZM12.67,84.07l0,.52h2.65v-.52Z"/><path class="cls-1" d="M39.62,106.62c-.44,0-.88,0-1.31,0-.91.07-1.29-.3-1.26-1.24s.09-1.4,1.12-1.36c.76,0,1.53-.06,2.3-.08,1,0,1.81.06,1.77,1.47s-1,1.19-1.8,1.21Zm0-.7.11.27,1.76-.91c-.65-.19-1.31-.4-2-.57a1.16,1.16,0,0,0-.64,0,12.37,12.37,0,0,0-1.15.58,9.53,9.53,0,0,0,1.08.6A2.43,2.43,0,0,0,39.64,105.92Z"/><path class="cls-1" d="M4,106.09v-6H6.41c0,1.75.12,3.44,0,5.1S4.84,105.69,4,106.09ZM5.73,103h0a4.69,4.69,0,0,0,0-1.3,3.86,3.86,0,0,0-.69-1c-.19.32-.54.64-.56,1a24.85,24.85,0,0,0,0,3.11.81.81,0,0,0,.58.57.83.83,0,0,0,.61-.55A12,12,0,0,0,5.73,103Z"/><path class="cls-1" d="M47.62,105c0,4.21,0,8.34-.06,12.46,0,.31-.77.84-1.18.84s-1.16-.54-1.17-.86c-.08-4.11-.05-8.23-.05-12.44ZM47,111.66c0-1.72,0-3.43,0-5.13,0-.33-.38-.65-.58-1-.19.32-.55.65-.56,1q-.06,5,0,10.1c0,.35.32.69.49,1,.23-.35.64-.7.65-1.06C47,115,47,113.31,47,111.66Z"/><path class="cls-1" d="M45.26,95.38h2.25v7.16H45.26ZM47,98.86h0c0-.77,0-1.54,0-2.31,0-.19-.36-.56-.45-.53-.25.09-.63.34-.64.53-.06,1.59-.06,3.18,0,4.77,0,.22.36.43.55.64.2-.21.55-.41.57-.64C47,100.51,47,99.68,47,98.86Z"/><path class="cls-1" d="M23.26,118.28H21.12V105h2.14Zm-1.64-6.72h0c0,1.71,0,3.43,0,5.13,0,.34.36.66.55,1,.21-.31.59-.62.6-.94,0-3.36,0-6.73,0-10.09,0-.36-.4-.72-.62-1.08-.18.35-.5.69-.51,1C21.59,108.25,21.62,109.91,21.62,111.56Z"/><path class="cls-1" d="M23.38,95.39v7.12H21.1V95.39ZM21.62,99c0,.77,0,1.54,0,2.31,0,.23.36.43.55.65.19-.22.55-.43.56-.65,0-1.53.06-3.07,0-4.61,0-.25-.42-.48-.64-.72-.17.23-.46.46-.48.71C21.58,97.47,21.62,98.24,21.62,99Z"/><path class="cls-1" d="M62.31,100.07h2.34v5.85H62.31Zm2.14,3.07-.89-2.5c-1.39.51-.61,1.69-.67,2.53a6.77,6.77,0,0,0,.63,2.22Z"/><path class="cls-1" d="M118.08,71.15h-3.59a48.69,48.69,0,0,1,.08-5.69,2.56,2.56,0,0,1,1.65-1.62c1-.26,1.8.52,1.84,1.61C118.14,67.31,118.08,69.17,118.08,71.15Zm-3-.69h2.34a43.46,43.46,0,0,0,0-4.59c-.06-.52-.77-1-1.19-1.45-.36.46-1,.9-1,1.4C115,67.29,115.12,68.78,115.12,70.46Z"/><path class="cls-1" d="M85,60V55.85h2.53V60Zm.22-2.12,1,1.56a4.9,4.9,0,0,0,.72-1.64c0-.48-.46-1-.72-1.46Z"/><path class="cls-1" d="M80.43,55.8h2.51V60H80.43Zm1,.39-.52.32a12.46,12.46,0,0,0,0,2.29c0,.26.68.41,1,.61a12.6,12.6,0,0,0,.3-2.35C82.34,56.76,81.78,56.48,81.47,56.19Z"/><path class="cls-1" d="M126.77,55.86V60h-2.53V55.86Zm-2.44,1.9,1.13,1.7a4.28,4.28,0,0,0,.67-1.51,4.68,4.68,0,0,0-.58-1.58Z"/><path class="cls-1" d="M131.27,60h-2.44v-4.2h2.44Zm-2.36-2.27,1.13,1.7c.24-.5.67-1,.68-1.5a4.3,4.3,0,0,0-.59-1.59Z"/><path class="cls-1" d="M25.33,70.59H29v6.23H25.33ZM26,71v5.44c.91-.2,2.28-.27,2.31-.53a15.23,15.23,0,0,0,0-4.42C28.22,71.26,26.85,71.2,26,71Z"/><path class="cls-1" d="M16.6,70.57h3.55v6.28H16.6Zm2.92,5.64v-5H17.25v5Z"/><path class="cls-1" d="M18.78,63.4c.43.63,1.15,1.23,1.24,1.92a1.39,1.39,0,0,1-1.73,1.62,2.45,2.45,0,0,1-1.53-1.68c-.05-.58.81-1.24,1.27-1.87Zm1,2c-.62-.5-1-1.06-1.37-1s-.75.58-1.12.91c.33.36.62,1,1,1S19.14,65.84,19.82,65.41Z"/><path class="cls-1" d="M36.24,63.37c.44.63,1.15,1.21,1.27,1.9A1.37,1.37,0,0,1,35.85,67,2.42,2.42,0,0,1,34.3,65.3c-.07-.58.76-1.27,1.19-1.92Zm-.46,3.44c.52-.67,1-1,1-1.45s-.55-1-.77-1a1.53,1.53,0,0,0-1.13.84C34.85,65.59,35.35,66.07,35.78,66.81Z"/><path class="cls-1" d="M29.09,65.65c-.62.46-1.18,1.18-1.87,1.32a1.37,1.37,0,0,1-1.69-1.64,2.44,2.44,0,0,1,1.61-1.58c.57-.08,1.28.71,1.93,1.12Zm-.52-.34c-.65-.45-1.07-1-1.43-.93a1.4,1.4,0,0,0-.95,1,1.38,1.38,0,0,0,1,1C27.51,66.35,27.92,65.81,28.57,65.31Z"/><path class="cls-1" d="M109.18,59.75H106.8V56.21h2.55l-.22,3.59Z"/><path class="cls-1" d="M20.8,80.4l.1,2.14H16V80.4Zm-2.35.27-1.9.75a6.77,6.77,0,0,0,1.89.59,6.21,6.21,0,0,0,1.79-.54Z"/><path class="cls-1" d="M71.29,115.43v-3.17h3.22v3.17Zm2.59-.56V113h-2l.1,1.92Z"/><path class="cls-1" d="M54.73,115.46v-3.15h3.19v3.15Zm2.58-.6v-2H55.42v2Z"/></g></g></svg>