<svg xmlns="http://www.w3.org/2000/svg" viewBox="0 0 39.3 39.75"><defs><style>.cls-1{fill:#fff;}</style></defs><g id="Layer_2" data-name="Layer 2"><g id="Layer_1-2" data-name="Layer 1"><path class="cls-1" d="M6.77,39.75c-.7-.42-.76-.91-.17-1.49,1.07-1.07,2.13-2.15,3.21-3.21a1.35,1.35,0,0,1,.51-.34.74.74,0,0,1,.86.36A.78.78,0,0,1,11,36c-.91.92-1.83,1.83-2.75,2.74-.33.34-.69.65-1,1Z"/><path class="cls-1" d="M17.31,28.6c-.62.47-1.16.92-1.73,1.31a16.18,16.18,0,0,1-7.36,2.78l-.77.1a.76.76,0,0,1-.93-.88A16.61,16.61,0,0,1,9,24.35c.51-.79,1.1-1.53,1.67-2.33l-.25-.27L5.07,16.42c-.56-.56-.56-.9,0-1.47,1.55-1.53,3-3.12,4.64-4.58A18.19,18.19,0,0,1,21.4,5.59a1.22,1.22,0,0,0,.59-.2A28,28,0,0,1,36.78.06q.78,0,1.56-.06c.69,0,1,.27,1,1a27.5,27.5,0,0,1-3.38,13.16c-.61,1.11-1.35,2.14-2,3.22a1.12,1.12,0,0,0-.18.52,18.49,18.49,0,0,1-5.45,12.46c-1.31,1.33-2.64,2.64-3.95,4a.83.83,0,0,1-1.4,0q-2.67-2.66-5.32-5.33A3.42,3.42,0,0,1,17.31,28.6ZM37.77,1.53c-.93.08-1.79.13-2.64.25A25.76,25.76,0,0,0,20.1,9c-3.34,3.25-6.6,6.57-9.89,9.87l-.18.2L20.21,29.28l.26-.24,1.73-1.73a.78.78,0,0,1,1.14-.07.8.8,0,0,1-.06,1.17c-.09.11-.2.21-.3.31l-1.66,1.65,2.34,2.34.11-.1c1.17-1.16,2.34-2.32,3.49-3.49a16.72,16.72,0,0,0,4.46-8.07c.09-.4.16-.81.25-1.25l-3,2.95c-.33.33-.65.67-1,1a.76.76,0,0,1-1.05,0,.77.77,0,0,1,0-1.06c.09-.11.2-.2.3-.31,1.53-1.58,3.14-3.08,4.56-4.76A25.6,25.6,0,0,0,37.57,3.91C37.67,3.15,37.7,2.37,37.77,1.53ZM8.87,18,19.47,7.37c-.1,0-.2,0-.3,0a16.7,16.7,0,0,0-8.64,4.33C9.23,13,8,14.25,6.71,15.52a1.92,1.92,0,0,0-.13.17Zm2.91,5.23a14.07,14.07,0,0,0-3.56,7.91,14.71,14.71,0,0,0,7.89-3.58Z"/><path class="cls-1" d="M18.89,32.53a3.51,3.51,0,0,1-.37.64c-1.74,1.75-3.48,3.5-5.24,5.24a.76.76,0,0,1-1.11,0,.77.77,0,0,1,0-1.14l5.24-5.24a.68.68,0,0,1,.88-.17A2.69,2.69,0,0,1,18.89,32.53Z"/><path class="cls-1" d="M4.56,25.57c.23.18.52.3.61.5a1.43,1.43,0,0,1,0,.77c0,.1-.14.18-.22.26-1.17,1.18-2.33,2.36-3.52,3.51a1.05,1.05,0,0,1-.74.3,1.05,1.05,0,0,1-.62-.49.66.66,0,0,1,.18-.81C.84,29,1.43,28.44,2,27.85S3.25,26.6,3.89,26A3.74,3.74,0,0,1,4.56,25.57Z"/><path class="cls-1" d="M7.56,24.16a.75.75,0,0,1-.74.78.78.78,0,0,1-.8-.77.79.79,0,0,1,.77-.77A.77.77,0,0,1,7.56,24.16Z"/><path class="cls-1" d="M32.41,10.76a3.88,3.88,0,1,1-3.87-3.87A3.87,3.87,0,0,1,32.41,10.76ZM28.56,8.45a2.31,2.31,0,0,0-2.35,2.29,2.35,2.35,0,0,0,2.33,2.36,2.32,2.32,0,0,0,2.32-2.33A2.29,2.29,0,0,0,28.56,8.45Z"/><path class="cls-1" d="M20.72,22.44a3.88,3.88,0,1,1,3.9-3.85A3.86,3.86,0,0,1,20.72,22.44Zm0-1.55a2.32,2.32,0,0,0,2.32-2.31,2.33,2.33,0,1,0-4.66,0A2.31,2.31,0,0,0,20.75,20.89Z"/><path class="cls-1" d="M25.09,24.76a.77.77,0,0,1,.77.76.81.81,0,0,1-.77.78.79.79,0,0,1-.78-.8A.75.75,0,0,1,25.09,24.76Z"/></g></g></svg>