<svg xmlns="http://www.w3.org/2000/svg" viewBox="0 0 268.94 32.96"><defs><style>.cls-1{fill:#0094de;}.cls-2{fill:#fff;}</style></defs><g id="Layer_2" data-name="Layer 2"><g id="Layer_1-2" data-name="Layer 1"><path class="cls-1" d="M47.62,12.73c-.66.85-1.22,1.29-1.4,1.84-1.83,5.51-3.59,11-5.4,16.54-.15.45-.58,1.16-.89,1.16-3.64.09-7.28.06-11.25.06,1-2.66,1.78-5,2.65-7.24q4.48-11.86,9-23.72A2,2,0,0,1,41.7.26c3.67-.1,7.34-.12,11,0a2.63,2.63,0,0,1,1.85,1.39C56.78,7.09,58.87,12.58,61,18.05c1.63,4.2,3.23,8.43,4.9,12.62.5,1.27.14,1.71-1.16,1.69-2.92,0-5.85,0-8.77,0a1.77,1.77,0,0,1-1.39-.83c-1.94-5.27-3.78-10.58-5.66-15.87C48.62,14.81,48.21,14.05,47.62,12.73Z"/><path class="cls-1" d="M111.84,13.26c-.87,2.36-1.8,4.69-2.6,7.07-1.13,3.39-2.13,6.83-3.27,10.21a2.32,2.32,0,0,1-2.55,1.87c-3.09-.16-6.19,0-9.78,0,.6-1.73,1.07-3.15,1.59-4.55Q99.36,16.7,103.52,5.6a28.14,28.14,0,0,1,1.87-4.24A2.66,2.66,0,0,1,107.3.26c3.41-.11,6.84-.12,10.25,0a2.43,2.43,0,0,1,1.79,1.2c1.69,4.17,3.2,8.41,4.84,12.59s3.32,8.26,5,12.39c.6,1.48,1.28,2.94,1.83,4.44.32.85,0,1.47-1,1.47-3.24,0-6.47,0-9.7-.05a1.57,1.57,0,0,1-1.12-.91c-1.85-5.36-3.62-10.75-5.45-16.12a13,13,0,0,0-1.13-2Z"/><path class="cls-1" d="M80.46.21c4.54,0,9.08,0,13.62,0,1.41,0,2,.37,2,1.89-.1,1.74-.07,3.48,0,5.22,0,1.23-.49,1.66-1.67,1.62-1.67-.05-3.35,0-5,0-2.58,0-2.65.06-2.65,2.58,0,6.27,0,12.55,0,18.83,0,1.67-.54,2.16-2.15,2.09-2.85-.11-5.72-.13-8.57,0-1.72.08-2.09-.59-2.07-2.17C74,24,74,17.67,74,11.39c0-2.39-.11-2.48-2.56-2.5-1.67,0-3.35,0-5,0-1.25.05-1.83-.37-1.77-1.7.08-1.74.09-3.49,0-5.22C64.55.57,65.14.17,66.48.19,71.14.24,75.8.21,80.46.21Z"/><path class="cls-1" d="M21.84,20.88c0,3.17,0,6.34,0,9.51,0,1.4-.36,2-1.89,2-2.92-.09-5.85-.09-8.76,0-1.53,0-1.9-.58-1.89-2,0-6.28,0-12.56,0-18.84,0-2.44-.23-2.66-2.66-2.67-1.74,0-3.49,0-5.23,0C.42,8.91,0,8.45,0,7.44,0,5.51,0,3.58,0,1.65,0,.63.42.2,1.45.2Q15,.23,28.5.19c1.07,0,1.59.39,1.62,1.52.06,1.85.19,3.71.33,5.57.08,1.09-.34,1.63-1.48,1.61-1.68,0-3.36.06-5,0s-2.11.66-2.1,2.12c0,3.3,0,6.59,0,9.89Z"/><path class="cls-2" d="M197.92,16.24c0-4.72,0-9.45,0-14.18,0-1.35.39-1.88,1.81-1.86,5,.07,10.08.1,15.11,0,1.79,0,1.84.87,1.86,2.2s-.33,2-1.88,2c-3.17-.09-6.34,0-9.51,0-1.28,0-1.81.45-1.77,1.75.07,1.86.08,3.73,0,5.59-.07,1.38.49,1.92,1.83,1.9,2.86,0,5.73.08,8.58,0,1.61-.05,2,.61,2,2.09s-.65,1.9-2,1.87c-2.8-.07-5.6,0-8.4,0-1.43,0-2,.53-2,2,.07,2.3.07,4.61,0,6.91,0,1.39.59,1.85,1.91,1.83,3.42,0,6.85.06,10.26,0,1.67-.05,1.76.85,1.77,2.11s-.16,2.11-1.8,2.09c-5.35-.08-10.7-.07-16.05,0-1.32,0-1.72-.5-1.7-1.77C198,25.83,197.92,21,197.92,16.24Z"/><path class="cls-2" d="M224.37,16.34c0-4.73,0-9.46,0-14.18,0-1.42.38-2,1.9-2q7.08.12,14.17,0c1.55,0,2,.51,2.05,2s-.45,2.23-2.12,2.16c-2.92-.12-5.85,0-8.77-.06-1.73-.06-2.34.65-2.25,2.31.09,1.49,0,3,0,4.48,0,2.14.31,2.44,2.53,2.46,2.61,0,5.22.06,7.83,0,1.43,0,2,.44,2,1.92s-.51,2.1-2,2.05c-2.67-.09-5.34,0-8,0-1.67,0-2.36.69-2.3,2.36.07,2,.09,4,0,6-.08,1.75.56,2.47,2.37,2.42,3.23-.1,6.47,0,9.7,0,1.62-.05,1.83.76,1.81,2.07s-.07,2.15-1.75,2.12q-7.65-.1-15.3,0c-1.43,0-1.8-.54-1.78-1.87.05-4.72,0-9.45,0-14.17Z"/><path class="cls-2" d="M165.22,4.84a41.46,41.46,0,0,0-5.94-1.1,8.13,8.13,0,0,0-3.89,1c-3.07,1.59-3.27,5.16-.3,7,2.41,1.49,5.2,2.38,7.6,3.89,1.67,1.06,3.53,2.45,4.3,4.15,2,4.53.55,9.9-4.6,11.78A17.84,17.84,0,0,1,156.13,33a27.19,27.19,0,0,1-7.34-1.56c-1.35-.43-1.08-1.87-.72-2.92s1.28-1.16,2.32-.86c2.94.83,5.84,1.81,9,.61,1.57-.6,2.81-1.41,3.25-3s.47-3.19-.94-4.3a18.88,18.88,0,0,0-4.18-2.67c-3.51-1.49-7.18-2.76-8.88-6.54A8.74,8.74,0,0,1,148,7.27c.45-3.53,4.49-6.77,8.09-7.12a39.55,39.55,0,0,1,6.53,0C166.37.36,167.26,2.12,165.22,4.84Z"/><path class="cls-2" d="M184.12,18.52c0,4,0,8.08,0,12.12,0,1.3-.44,1.86-1.74,1.72a4.13,4.13,0,0,0-.93,0c-1.77.25-2.38-.44-2.35-2.26.09-7.53,0-15,0-22.57,0-3.1,0-3.14-3.11-3.15-1.62,0-3.23,0-4.85,0s-1.37-1.1-1.37-2.08-.2-2.07,1.38-2.07q10.44,0,20.89,0c1.76,0,1.3,1.27,1.37,2.24s0,2-1.52,1.93c-1.92-.07-3.85.05-5.78,0-1.52-.06-2.1.5-2.07,2.05.07,4,0,8.08,0,12.12Z"/><path class="cls-2" d="M250.83,16.31c0-4.6,0-9.19,0-13.79,0-2.31,0-2.21,2.64-2.33,1.74-.08,2.38.4,2.36,2.26-.1,7.76,0,15.52,0,23.28,0,2.43,0,2.48,2.53,2.48,3,0,6,.07,8.94,0,1.74-.05,1.66,1,1.67,2.19s-.07,2-1.65,2q-7.35-.09-14.71,0c-1.47,0-1.78-.64-1.77-1.92C250.85,25.75,250.83,21,250.83,16.31Z"/></g></g></svg>