<svg xmlns="http://www.w3.org/2000/svg" viewBox="0 0 41.79 41.8"><defs><style>.cls-1{fill:#fff;}</style></defs><g id="Layer_2" data-name="Layer 2"><g id="Layer_1-2" data-name="Layer 1"><path class="cls-1" d="M41.79,19.59V22.2a1.8,1.8,0,0,0-.06.32,20,20,0,0,1-2.86,9,20.65,20.65,0,0,1-14.37,10c-.76.14-1.53.21-2.3.32H19.59l-.39-.08c-.88-.13-1.76-.2-2.62-.38A20.4,20.4,0,0,1,4.26,33.5,20.31,20.31,0,0,1,.2,18.07a20,20,0,0,1,5-11A20.45,20.45,0,0,1,20.5,0,20,20,0,0,1,32.44,3.49a20.6,20.6,0,0,1,9,13.8C41.61,18.05,41.69,18.82,41.79,19.59ZM7.59,35.2A19.55,19.55,0,0,0,35.27,7.61ZM18.83,18.27l.07.46a2.8,2.8,0,0,1-2.31,3.17A2.74,2.74,0,0,1,14,21c-.75-.85-1.42-1.78-2.13-2.68-.1-.13-.21-.25-.34-.4L8.17,23.7l.49.29L12,25.93a.63.63,0,0,1,.27.9.61.61,0,0,1-.91.21Q9.16,25.8,7,24.52a.64.64,0,0,1-.25-1c.35-.6.7-1.2,1-1.8A3,3,0,0,0,8,21.36a2.08,2.08,0,0,1-2-1.11C5.31,19,4.73,17.81,4.15,16.58a2.56,2.56,0,0,1,0-2.13c.21-.51.41-1,.6-1.53L3.49,12a19.39,19.39,0,0,0,3,22.16L34.2,6.58A19.41,19.41,0,0,0,12.11,3.41l.35.22,3.17,1.92A9.4,9.4,0,0,1,18.22,8a6.17,6.17,0,0,1,1.44,4.42c-.07.71,0,1.44,0,2.19l2.53.44c.49.09.73.37.67.75a.69.69,0,0,1-.89.55l-2.17-.36-2.41-.38-.07.11a4.13,4.13,0,0,0,.65.61c.73.45,1.49.85,2.23,1.28a.63.63,0,0,1,.27.9.64.64,0,0,1-.89.2ZM4.19,10.73l.18.21a5,5,0,0,0,2.85,1.38,3.35,3.35,0,0,1,2,.87,68.25,68.25,0,0,1,5.15,6.22,4.09,4.09,0,0,0,1,1A1.38,1.38,0,0,0,17,20.34,1.24,1.24,0,0,0,17.56,19,4.24,4.24,0,0,0,17,17.58c-1.77-2.8-3.58-5.58-5.38-8.37a2.46,2.46,0,0,1-.22-.39A.61.61,0,0,1,11.66,8a.63.63,0,0,1,.82.08,2.1,2.1,0,0,1,.22.3q1.71,2.65,3.43,5.3c.08.12.18.29.29.31.61.12,1.22.2,1.93.31,0-1,0-1.89,0-2.8a2.93,2.93,0,0,0-.24-1.18A8,8,0,0,0,15.39,7C14.29,6.28,13.17,5.59,12,4.9c-.43-.27-.91-.69-1.35-.67s-.87.5-1.29.8A19.32,19.32,0,0,0,4.19,10.73Zm1.75,2.64c-.25.64-.51,1.24-.73,1.85a.85.85,0,0,0,0,.59c.59,1.28,1.18,2.56,1.83,3.81a.78.78,0,0,0,1.33.09.46.46,0,0,0,0-.44,5.62,5.62,0,0,0-.68-1.06,3.65,3.65,0,0,1-.79-2.82c0-.58.1-1.15.15-1.75ZM9.6,18.51c.29-.5.57-1,.87-1.51a.35.35,0,0,0-.05-.49c-.44-.48-.87-1-1.3-1.47l-.7-.75A4,4,0,0,0,9.6,18.51Z"/><path class="cls-1" d="M26.45,34.28l5-8.94-3.22-1.82-3.55-2a.66.66,0,0,1-.3-1c.2-.3.55-.36,1-.12,1.17.64,2.33,1.3,3.49,1.95l3.58,2c.57.32.65.6.33,1.17L31.09,28.5l2.67.46,2-10.16-3.45-.6-3.74-.66a.65.65,0,1,1,.23-1.27l7.75,1.37c.54.09.69.34.57.89q-1.09,5.53-2.21,11.08c-.12.59-.37.78-1,.68-1.09-.17-2.18-.34-3.26-.54a.38.38,0,0,0-.47.24q-1.44,2.62-2.89,5.25c-.35.64-.62.72-1.25.35l-10-5.8a1.48,1.48,0,0,1-.21-.13.63.63,0,0,1-.2-.86.6.6,0,0,1,.84-.24c.51.27,1,.57,1.49.85l8,4.65Z"/></g></g></svg>